<svg id="Layer_2" data-name="Layer 2" xmlns="http://www.w3.org/2000/svg" viewBox="0 0 300 300">
  <title>ballon</title>
  <g>
    <path d="M97,73.93A59.22,59.22,0,0,1,107.2,23.68c8.28-10.76,21.23-19.89,41.37-19.89,17.51,0,30,6.86,38.87,15.68,14.8,14.74,20.46,36.34,15.63,56.66-8.46,35.56-29.43,114.55-36.08,139.51a126.66,126.66,0,0,1-8.5,23c-3.14,6.43-7,12.77-10.38,14.22a.27.27,0,0,1-.38-.26c0-2.36-.1-14.44-5.46-22.4-6-8.85-13.28-25.7-17.36-42.55C121.78,174.73,104.82,105.7,97,73.93Z" style="fill: none;stroke: #fff;stroke-miterlimit: 10;stroke-width: 2px"/>
    <path d="M144.92,281.31h12.24v5.89s3,10.39-5.77,10.39-6.47-10.11-6.47-10.11Z" style="fill: none;stroke: #fff;stroke-miterlimit: 10;stroke-width: 2px"/>
    <line x1="130.68" y1="206.29" x2="146.65" y2="282.21" style="fill: none;stroke: #fff;stroke-miterlimit: 10;stroke-width: 0.75px"/>
    <line x1="155.67" y1="282.21" x2="166.48" y2="217.52" style="fill: none;stroke: #fff;stroke-miterlimit: 10;stroke-width: 0.75px"/>
    <line x1="135.58" y1="217.99" x2="148.57" y2="282.21" style="fill: none;stroke: #fff;stroke-miterlimit: 10;stroke-width: 0.75px"/>
    <line x1="161.58" y1="231.73" x2="153.29" y2="282.21" style="fill: none;stroke: #fff;stroke-miterlimit: 10;stroke-width: 0.75px"/>
    <line x1="142.27" y1="230.17" x2="150" y2="282.21" style="fill: none;stroke: #fff;stroke-miterlimit: 10;stroke-width: 0.75px"/>
    <line x1="158.49" y1="238.61" x2="152.02" y2="282.21" style="fill: none;stroke: #fff;stroke-miterlimit: 10;stroke-width: 0.75px"/>
    <line x1="147.73" y1="252.56" x2="150.71" y2="282.21" style="fill: none;stroke: #fff;stroke-miterlimit: 10;stroke-width: 0.75px"/>
    <line x1="154.98" y1="245.13" x2="151.49" y2="282.21" style="fill: none;stroke: #fff;stroke-miterlimit: 10;stroke-width: 0.75px"/>
    <line x1="152.02" y1="249.45" x2="151.38" y2="282.21" style="fill: none;stroke: #fff;stroke-miterlimit: 10;stroke-width: 0.75px"/>
    <line x1="149.69" y1="251.84" x2="151.15" y2="282.21" style="fill: none;stroke: #fff;stroke-miterlimit: 10;stroke-width: 0.75px"/>
    <circle cx="158.99" cy="57.31" r="0.57" style="fill: none;stroke: #fff;stroke-miterlimit: 10"/>
    <circle cx="168.71" cy="57.16" r="0.57" style="fill: none;stroke: #fff;stroke-miterlimit: 10"/>
    <circle cx="177.29" cy="56.96" r="0.57" style="fill: none;stroke: #fff;stroke-miterlimit: 10"/>
    <circle cx="185.32" cy="56.65" r="0.57" style="fill: none;stroke: #fff;stroke-miterlimit: 10"/>
    <circle cx="192.77" cy="56.34" r="0.57" style="fill: none;stroke: #fff;stroke-miterlimit: 10"/>
    <circle cx="199.99" cy="55.99" r="0.57" style="fill: none;stroke: #fff;stroke-miterlimit: 10"/>
    <circle cx="151.15" cy="57.44" r="0.57" style="fill: none;stroke: #fff;stroke-miterlimit: 10"/>
    <circle cx="142.48" cy="57.44" r="0.57" style="fill: none;stroke: #fff;stroke-miterlimit: 10"/>
    <circle cx="134.04" cy="57.44" r="0.57" style="fill: none;stroke: #fff;stroke-miterlimit: 10"/>
    <circle cx="125.55" cy="57.31" r="0.57" style="fill: none;stroke: #fff;stroke-miterlimit: 10"/>
    <circle cx="118.29" cy="57.14" r="0.57" style="fill: none;stroke: #fff;stroke-miterlimit: 10"/>
    <circle cx="110.61" cy="56.87" r="0.57" style="fill: none;stroke: #fff;stroke-miterlimit: 10"/>
    <circle cx="103.29" cy="56.74" r="0.57" style="fill: none;stroke: #fff;stroke-miterlimit: 10"/>
    <path d="M128.14,40.43c0,3.87-.1,7.74.06,11.61l.17,5.8.3,5.79c.37,7.73,1,15.45,1.68,23.15,1.41,15.41,3.19,30.79,5.21,46.14s4.15,30.68,6.35,46l6.66,46L144.76,202,141.14,179q-3.52-23-6.57-46c-1.94-15.37-3.74-30.76-5-46.2-.58-7.73-1.13-15.45-1.4-23.2l-.18-5.8L128,52C127.88,48.17,128.07,44.29,128.14,40.43Z" style="fill: #fff"/>
    <path d="M110,33.91a62.91,62.91,0,0,0-2.45,20.14,172.81,172.81,0,0,0,1.62,20.31c.83,6.75,2,13.46,3.17,20.16.61,3.35,1.22,6.7,1.89,10l2,10c-.85-3.3-1.65-6.62-2.43-9.94s-1.47-6.65-2.16-10c-1.38-6.68-2.5-13.42-3.41-20.18a158.79,158.79,0,0,1-1.4-20.44c0-1.71.13-3.41.18-5.12s.28-3.41.51-5.1a50.42,50.42,0,0,1,1-5A38.35,38.35,0,0,1,110,33.91Z" style="fill: #fff"/>
    <path d="M144.82,78c-.15,5.87-.29,11.74-.21,17.62s.15,11.74.33,17.61q.54,17.59,1.58,35.19c.61,11.73,1.4,23.45,2.15,35.17L151,218.77l-1.6-17.56-1.44-17.56c-.92-11.72-1.69-23.44-2.39-35.17s-1.15-23.48-1.35-35.23S144,89.73,144.82,78Z" style="fill: #fff"/>
    <path d="M197.76,64c-2.24,6.43-3.85,13-5.46,19.65s-3.15,13.23-4.65,19.87q-4.46,19.91-8.7,39.87l-8.58,39.9L166,203.27l-4.45,19.92,4-20,4.07-20q4.08-20,8.35-39.95c2.91-13.3,5.8-26.59,8.94-39.84,1.59-6.61,3.18-13.23,4.92-19.81S195.37,70.42,197.76,64Z" style="fill: #fff"/>
    <path d="M185.33,75.79l-1.65,4.12-1.36,4.23c-.46,1.4-.79,2.85-1.19,4.27s-.77,2.86-1.09,4.3L179,97c-.34,1.44-.62,2.9-.93,4.34-.64,2.9-1.2,5.8-1.75,8.71-2.21,11.63-4.16,23.32-6,35s-3.62,23.41-5.41,35.13l-2.69,17.57-2.81,17.55,2.32-17.62,2.42-17.61q2.45-17.61,5.18-35.18c1.9-11.7,3.84-23.4,6.21-35,.6-2.9,1.2-5.8,1.88-8.69.34-1.45.64-2.9,1-4.34l1.1-4.31c.35-1.44.77-2.86,1.2-4.28s.8-2.86,1.3-4.25l1.47-4.2Z" style="fill: #fff"/>
    <path d="M120.28,167.52c4.21-1.65,11.29-1.06,14.65,1.43,2.75-1.14,1.7-1,5.07-.26,2.42-1.4,4.85-1.18,7.3.7a8.91,8.91,0,0,1,10.57-.35c2.85-2,5.65-2.29,8.39-.35,2.54-2.28,4.82-2.28,6.9-.46,2.18-2.82,4.47-4.09,7.05-2.57" style="fill: none;stroke: #fff;stroke-miterlimit: 10"/>
    <path d="M200.43,48.52A158.45,158.45,0,0,1,184.81,67.4a107.66,107.66,0,0,0-8.31,8.94,91.86,91.86,0,0,0-6.68,10.21,61.73,61.73,0,0,0-5.18,11l-.87,2.91-.71,3c-.51,2-.83,4-1.23,6-1.46,8-2.4,16.13-3.19,24.24-1.56,16.25-2.33,32.57-2.64,48.89-.05,4.09-.15,8.17-.16,12.25V207l.13,12.25.29,12.25-.54-12.24L155.36,207c-.09-4.09-.1-8.17-.15-12.26s0-8.17,0-12.26q.22-24.51,2.41-49c.83-8.14,1.8-16.27,3.29-24.32.42-2,.75-4,1.27-6l.72-3,.9-2.95a59.71,59.71,0,0,1,5.34-11.1A91.66,91.66,0,0,1,176,76a106.46,106.46,0,0,1,8.46-8.91A157.55,157.55,0,0,0,200.43,48.52Z" style="fill: #fff"/>
    <path d="M195.72,69.44q-3.67,4.55-7.41,9l-7.52,8.93-7.61,8.86c-2.54,2.94-5.12,5.87-7.71,8.77q3.67-4.53,7.42-9l7.52-8.93,7.6-8.86Q191.84,73.8,195.72,69.44Z" style="fill: #fff"/>
    <path d="M193.39,80.93q-3.67,4.53-7.41,9l-7.52,8.93-7.61,8.86q-3.81,4.41-7.7,8.77,3.67-4.55,7.41-9l7.52-8.93,7.61-8.86Q189.5,85.29,193.39,80.93Z" style="fill: #fff"/>
    <path d="M191.47,93.66q-3.67,4.53-7.41,9l-7.52,8.93-7.61,8.85q-3.81,4.42-7.7,8.77,3.68-4.53,7.41-9l7.52-8.93,7.61-8.85Q187.58,98,191.47,93.66Z" style="fill: #fff"/>
    <path d="M188.94,105.42q-3.67,4.55-7.41,9L174,123.37l-7.6,8.86q-3.82,4.41-7.71,8.77,3.68-4.53,7.41-9l7.52-8.93,7.61-8.86Q185.05,109.78,188.94,105.42Z" style="fill: #fff"/>
    <path d="M189.2,115.46q-3.67,4.53-7.42,9l-7.51,8.93-7.61,8.86c-2.54,2.94-5.12,5.86-7.71,8.76q3.68-4.53,7.42-9l7.52-8.94,7.6-8.85Q185.32,119.82,189.2,115.46Z" style="fill: #fff"/>
    <path d="M185.5,130q-3.34,4.16-6.77,8.26l-6.88,8.18-7,8.1q-3.49,4-7.06,8,3.34-4.16,6.77-8.26l6.87-8.17,7-8.11Q181.94,133.93,185.5,130Z" style="fill: #fff"/>
    <path d="M182.2,145.32q-2.88,3.6-5.81,7.13l-5.91,7.05-6,7q-3,3.48-6.11,6.89,2.88-3.6,5.81-7.14l5.92-7,6-7Q179.12,148.73,182.2,145.32Z" style="fill: #fff"/>
    <path d="M178.39,161.06c-1.64,2.06-3.3,4.12-5,6.15l-5.08,6.06-5.17,6c-1.73,2-3.49,4-5.27,5.9,1.64-2.06,3.3-4.12,5-6.15L168,173l5.17-6Q175.71,164,178.39,161.06Z" style="fill: #fff"/>
    <path d="M175.73,174.85q-2.07,2.66-4.21,5.25l-4.31,5.16-4.4,5.09c-1.48,1.69-3,3.35-4.5,5q2.07-2.65,4.21-5.25l4.31-5.16,4.4-5.09Q173.45,177.33,175.73,174.85Z" style="fill: #fff"/>
    <path d="M172.33,188.54c-2.23,2.94-4.61,5.76-7,8.59s-4.81,5.59-7.36,8.27c2.23-3,4.61-5.77,7-8.6S169.79,191.21,172.33,188.54Z" style="fill: #fff"/>
    <path d="M169.59,199.6c-1.54,2.12-3.22,4.13-4.9,6.14s-3.42,4-5.27,5.82c1.54-2.13,3.22-4.13,4.89-6.14S167.74,201.46,169.59,199.6Z" style="fill: #fff"/>
    <path d="M167.71,209.18c-1.24,1.76-2.59,3.42-4,5.06s-2.82,3.24-4.36,4.74c1.24-1.76,2.59-3.42,4-5.06S166.18,210.69,167.71,209.18Z" style="fill: #fff"/>
    <path d="M181,74.22c1,2.21,1.95,4.43,2.88,6.66l2.76,6.7,2.66,6.74q1.31,3.39,2.53,6.8c-1-2.21-1.95-4.42-2.89-6.65l-2.76-6.7L183.55,81C182.67,78.76,181.83,76.5,181,74.22Z" style="fill: #fff"/>
    <path d="M176.72,79.23c1.19,2.71,2.36,5.44,3.49,8.17l3.38,8.22,3.26,8.26c1.08,2.76,2.12,5.53,3.14,8.31q-1.78-4.06-3.5-8.17l-3.37-8.22-3.26-8.26C178.78,84.78,177.74,82,176.72,79.23Z" style="fill: #fff"/>
    <path d="M172.63,84.25q2.12,4.91,4.16,9.82l4,9.87,3.93,9.92q2,5,3.81,10-2.13-4.89-4.16-9.82l-4-9.87-3.93-9.91Q174.49,89.26,172.63,84.25Z" style="fill: #fff"/>
    <path d="M168.92,93.19q2.31,5.36,4.54,10.75l4.41,10.81,4.31,10.85q2.13,5.43,4.19,10.9-2.31-5.35-4.54-10.75l-4.42-10.81-4.31-10.85Q171,98.66,168.92,93.19Z" style="fill: #fff"/>
    <path d="M167.6,105.15q2.31,5.37,4.54,10.76l4.41,10.81,4.31,10.85Q183,143,185,148.47q-2.31-5.37-4.54-10.76l-4.41-10.81-4.31-10.85Q169.65,110.62,167.6,105.15Z" style="fill: #fff"/>
    <path d="M164.18,114.59q2.31,5.35,4.54,10.76l4.42,10.8,4.3,10.85q2.15,5.44,4.19,10.9-2.31-5.35-4.54-10.75l-4.42-10.81-4.3-10.85Q166.23,120.06,164.18,114.59Z" style="fill: #fff"/>
    <path d="M163.11,129.51q2.12,4.91,4.17,9.83l4,9.89,3.94,9.93q2,5,3.81,10-2.13-4.9-4.17-9.84l-4-9.88-3.94-9.93Q165,134.51,163.11,129.51Z" style="fill: #fff"/>
    <path d="M161.38,145.13q1.85,4.22,3.61,8.46l3.49,8.51,3.39,8.55q1.66,4.29,3.25,8.6-1.85-4.22-3.61-8.45L168,162.29l-3.38-8.55Q163,149.45,161.38,145.13Z" style="fill: #fff"/>
    <path d="M160,161.27c1.07,2.41,2.12,4.83,3.13,7.26l3,7.32,2.91,7.36q1.43,3.69,2.77,7.41-1.6-3.62-3.13-7.27l-3-7.31-2.9-7.37Q161.38,165,160,161.27Z" style="fill: #fff"/>
    <path d="M158.17,175.2c.93,2,1.83,4.1,2.7,6.16l2.56,6.22,2.46,6.26c.81,2.09,1.58,4.2,2.34,6.31q-1.39-3.06-2.7-6.17L163,187.77l-2.46-6.26C159.7,179.41,158.93,177.31,158.17,175.2Z" style="fill: #fff"/>
    <path d="M157.07,189.25c1.57,3.35,3,6.76,4.37,10.17s2.72,6.86,3.9,10.36c-1.57-3.35-3-6.76-4.36-10.17S158.26,192.75,157.07,189.25Z" style="fill: #fff"/>
    <path d="M156.18,200.61c1.17,2.35,2.16,4.77,3.17,7.19s1.91,4.87,2.7,7.37c-1.17-2.34-2.16-4.77-3.17-7.18S157,203.12,156.18,200.61Z" style="fill: #fff"/>
    <path d="M185.52,71c1.72,3.71,3.25,7.49,4.81,11.27s3,7.58,4.34,11.44c-1.72-3.7-3.26-7.48-4.81-11.26S186.85,74.86,185.52,71Z" style="fill: #fff"/>
    <path d="M190.58,67.4c1.29,2.65,2.4,5.37,3.53,8.09s2.16,5.46,3.06,8.27c-1.29-2.65-2.4-5.37-3.52-8.09S191.49,70.21,190.58,67.4Z" style="fill: #fff"/>
    <path d="M147.24,230.45l-3.05-13-1.53-6.52-1.32-6.56-5.15-26.26c-.89-4.38-1.58-8.78-2.35-13.18l-2.27-13.18-4.5-26.38c-1.45-8.81-2.77-17.63-4.42-26.38q-.63-3.28-1.3-6.56c-.46-2.18-1-4.34-1.47-6.52l-3-13c-1-4.36-2.21-8.63-3.37-12.94a58.65,58.65,0,0,1-1.47-6.56,62.49,62.49,0,0,1-.6-6.69,56.38,56.38,0,0,1,1-13.35,46.51,46.51,0,0,1,4.65-12.52,46.88,46.88,0,0,0-4.41,12.57A56.26,56.26,0,0,0,112,46.64a63.7,63.7,0,0,0,.67,6.62,58,58,0,0,0,1.51,6.48c1.21,4.29,2.51,8.57,3.51,12.92l3.06,13c.5,2.18,1,4.35,1.5,6.53s.89,4.37,1.32,6.57c1.69,8.77,3,17.59,4.52,26.38l4.41,26.39c1.5,8.79,2.92,17.6,4.47,26.38l4.88,26.31,1.2,6.58,1.4,6.54Z" style="fill: #fff"/>
    <path d="M123.3,20.79A60.53,60.53,0,0,0,121,29.24c-.33,1.41-.47,2.87-.72,4.3s-.34,2.89-.4,4.35a104.78,104.78,0,0,0,.46,17.44c.55,5.8,1.47,11.56,2.45,17.32.51,2.87,1,5.74,1.61,8.61s1.12,5.73,1.68,8.6c-.68-2.85-1.41-5.68-2-8.53s-1.23-5.71-1.81-8.58c-1.11-5.74-2-11.53-2.63-17.35a99,99,0,0,1-.3-17.56A59.39,59.39,0,0,1,123.3,20.79Z" style="fill: #fff"/>
    <g>
      <path d="M98.51,60.44c1.55,1.54,3.07,3.11,4.57,4.69l4.47,4.78,4.39,4.86c1.45,1.63,2.87,3.28,4.28,5-1.54-1.55-3.07-3.11-4.57-4.69l-4.47-4.78-4.38-4.86Q100.63,62.94,98.51,60.44Z" style="fill: #fff"/>
      <path d="M101.49,73.47c2.87,2.82,5.6,5.77,8.34,8.71s5.4,5.95,8,9c-2.87-2.82-5.6-5.77-8.34-8.71S104.06,76.57,101.49,73.47Z" style="fill: #fff"/>
      <path d="M103.29,85.07q2.26,2.25,4.45,4.56l4.36,4.65L116.37,99q2.11,2.37,4.17,4.82c-1.51-1.5-3-3-4.46-4.56l-4.35-4.66-4.27-4.73Q105.35,87.51,103.29,85.07Z" style="fill: #fff"/>
      <path d="M105.87,97.22c2.87,2.83,5.61,5.78,8.35,8.72s5.41,6,8,9.06c-2.87-2.82-5.6-5.77-8.35-8.72S108.44,100.33,105.87,97.22Z" style="fill: #fff"/>
      <path d="M109.76,111.71c2.58,2.5,5,5.14,7.46,7.76s4.83,5.31,7.1,8.09c-2.58-2.5-5-5.13-7.46-7.75S112,114.49,109.76,111.71Z" style="fill: #fff"/>
      <path d="M114.17,127.29c2.29,2.19,4.44,4.51,6.61,6.82s4.25,4.69,6.24,7.16c-2.3-2.19-4.45-4.51-6.61-6.82S116.16,129.76,114.17,127.29Z" style="fill: #fff"/>
      <path d="M117.35,141c2.17,2.06,4.2,4.25,6.23,6.42s4,4.42,5.87,6.76c-2.17-2.06-4.2-4.24-6.23-6.42S119.21,143.31,117.35,141Z" style="fill: #fff"/>
      <path d="M121.27,154.52c2.16,2,4.18,4.22,6.21,6.38s4,4.4,5.83,6.73c-2.16-2-4.17-4.22-6.2-6.39S123.13,156.84,121.27,154.52Z" style="fill: #fff"/>
      <path d="M124.14,166.35c1.92,1.78,3.7,3.7,5.49,5.61s3.51,3.88,5.13,5.95c-1.93-1.79-3.7-3.71-5.5-5.61S125.76,168.41,124.14,166.35Z" style="fill: #fff"/>
      <path d="M125.37,176.11c1.92,1.79,3.7,3.71,5.49,5.61s3.51,3.88,5.13,5.95c-1.92-1.78-3.7-3.7-5.49-5.61S127,178.18,125.37,176.11Z" style="fill: #fff"/>
      <path d="M128,186.82c1.77,1.64,3.43,3.38,5.07,5.14s3.21,3.58,4.69,5.48c-1.77-1.64-3.43-3.38-5.06-5.14S129.51,188.72,128,186.82Z" style="fill: #fff"/>
      <path d="M130.41,197.69c1.81,1.67,3.5,3.45,5.16,5.25s3.28,3.65,4.8,5.59c-1.8-1.68-3.5-3.45-5.16-5.25S131.93,199.63,130.41,197.69Z" style="fill: #fff"/>
      <path d="M134.22,209.24c1.6,1.46,3.1,3,4.56,4.6s2.88,3.21,4.19,4.93c-1.6-1.46-3.09-3-4.56-4.6S135.54,211,134.22,209.24Z" style="fill: #fff"/>
      <path d="M140.33,221.06a22.16,22.16,0,0,1,4.44,4.83,18.24,18.24,0,0,1-2.4-2.24A19.06,19.06,0,0,1,140.33,221.06Z" style="fill: #fff"/>
    </g>
    <path d="M108.11,49.2c-.56,2.11-1.14,4.22-1.75,6.31l-1.88,6.27-2,6.23c-.68,2.08-1.39,4.14-2.12,6.2.55-2.11,1.14-4.22,1.75-6.31L104,61.63l2-6.23C106.67,53.32,107.38,51.26,108.11,49.2Z" style="fill: #fff"/>
    <path d="M111,62.26c-1,3.9-2.16,7.74-3.33,11.58s-2.41,7.67-3.8,11.44c1-3.9,2.17-7.74,3.33-11.58S109.62,66,111,62.26Z" style="fill: #fff"/>
    <path d="M114.34,73.5q-.81,3.09-1.7,6.15l-1.83,6.1-1.94,6.07c-.66,2-1.36,4-2.07,6,.54-2,1.1-4.1,1.7-6.14l1.83-6.1,1.94-6.08Q113.26,76.51,114.34,73.5Z" style="fill: #fff"/>
    <path d="M117.22,85.59c-1,3.91-2.17,7.76-3.34,11.61s-2.42,7.67-3.81,11.46c1-3.91,2.17-7.76,3.34-11.61S115.83,89.38,117.22,85.59Z" style="fill: #fff"/>
    <path d="M119.9,100.35c-.86,3.49-1.91,6.92-2.94,10.36s-2.16,6.84-3.42,10.2c.86-3.49,1.91-6.92,2.94-10.35S118.65,103.72,119.9,100.35Z" style="fill: #fff"/>
    <path d="M122.59,116.32c-.74,3.08-1.66,6.11-2.57,9.14s-1.91,6-3,9c.74-3.09,1.66-6.12,2.57-9.15S121.46,119.28,122.59,116.32Z" style="fill: #fff"/>
    <path d="M125.58,130.05c-.69,2.91-1.56,5.76-2.41,8.61s-1.8,5.69-2.89,8.47c.69-2.91,1.56-5.76,2.41-8.61S124.5,132.83,125.58,130.05Z" style="fill: #fff"/>
    <path d="M127.83,144c-.68,2.9-1.54,5.74-2.39,8.58s-1.8,5.66-2.88,8.43c.68-2.9,1.55-5.73,2.4-8.58S126.76,146.74,127.83,144Z" style="fill: #fff"/>
    <path d="M130.31,155.88c-.58,2.56-1.34,5.07-2.09,7.57s-1.59,5-2.56,7.43c.58-2.56,1.34-5.07,2.09-7.57S129.34,158.32,130.31,155.88Z" style="fill: #fff"/>
    <path d="M133,166.47c-.57,2.56-1.34,5.06-2.08,7.57s-1.59,5-2.56,7.42c.57-2.56,1.33-5.06,2.08-7.57S132,168.91,133,166.47Z" style="fill: #fff"/>
    <path d="M135.11,177.5c-.53,2.36-1.19,4.67-1.9,7s-1.47,4.57-2.37,6.81c.53-2.35,1.19-4.66,1.9-7S134.21,179.74,135.11,177.5Z" style="fill: #fff"/>
    <path d="M137.57,188.47c-.54,2.4-1.22,4.76-1.94,7.11s-1.5,4.67-2.42,6.95c.54-2.4,1.22-4.76,1.94-7.1S136.66,190.76,137.57,188.47Z" style="fill: #fff"/>
    <path d="M139.56,199c-.45,2.11-1,4.18-1.67,6.25s-1.33,4.1-2.15,6.1c.45-2.12,1-4.19,1.67-6.25S138.74,201,139.56,199Z" style="fill: #fff"/>
    <path d="M139.64,211a20.46,20.46,0,0,1-.73,3.21,20,20,0,0,1-1.21,3.05,18.12,18.12,0,0,1,.73-3.2A19.46,19.46,0,0,1,139.64,211Z" style="fill: #fff"/>
    <g>
      <line x1="147.73" y1="281.31" x2="144.88" y2="284.15" style="fill: none;stroke: #fff;stroke-miterlimit: 10;stroke-width: 0.25px"/>
      <line x1="149.16" y1="281.24" x2="144.84" y2="285.56" style="fill: none;stroke: #fff;stroke-miterlimit: 10;stroke-width: 0.25px"/>
      <line x1="150.56" y1="281.24" x2="144.84" y2="286.96" style="fill: none;stroke: #fff;stroke-miterlimit: 10;stroke-width: 0.25px"/>
      <line x1="151.93" y1="281.25" x2="144.98" y2="288.19" style="fill: none;stroke: #fff;stroke-miterlimit: 10;stroke-width: 0.25px"/>
      <line x1="153.23" y1="281.31" x2="144.78" y2="289.76" style="fill: none;stroke: #fff;stroke-miterlimit: 10;stroke-width: 0.25px"/>
      <line x1="154.55" y1="281.31" x2="144.62" y2="291.24" style="fill: none;stroke: #fff;stroke-miterlimit: 10;stroke-width: 0.25px"/>
      <line x1="155.76" y1="281.44" x2="144.84" y2="292.36" style="fill: none;stroke: #fff;stroke-miterlimit: 10;stroke-width: 0.25px"/>
      <line x1="157.04" y1="281.53" x2="145.29" y2="293.28" style="fill: none;stroke: #fff;stroke-miterlimit: 10;stroke-width: 0.25px"/>
      <line x1="157.56" y1="282.39" x2="145.79" y2="294.16" style="fill: none;stroke: #fff;stroke-miterlimit: 10;stroke-width: 0.25px"/>
      <line x1="157.43" y1="283.8" x2="146.19" y2="295.04" style="fill: none;stroke: #fff;stroke-miterlimit: 10;stroke-width: 0.25px"/>
      <line x1="157.35" y1="285.15" x2="146.6" y2="295.9" style="fill: none;stroke: #fff;stroke-miterlimit: 10;stroke-width: 0.25px"/>
      <line x1="157.36" y1="286.45" x2="147.36" y2="296.45" style="fill: none;stroke: #fff;stroke-miterlimit: 10;stroke-width: 0.25px"/>
      <line x1="157.25" y1="287.92" x2="148.46" y2="296.71" style="fill: none;stroke: #fff;stroke-miterlimit: 10;stroke-width: 0.25px"/>
      <line x1="157.31" y1="289.29" x2="149.66" y2="296.95" style="fill: none;stroke: #fff;stroke-miterlimit: 10;stroke-width: 0.25px"/>
      <line x1="156.92" y1="291.08" x2="151.03" y2="296.97" style="fill: none;stroke: #fff;stroke-miterlimit: 10;stroke-width: 0.25px"/>
      <line x1="156.99" y1="292.32" x2="152.34" y2="296.97" style="fill: none;stroke: #fff;stroke-miterlimit: 10;stroke-width: 0.25px"/>
      <line x1="156.64" y1="294.03" x2="153.73" y2="296.94" style="fill: none;stroke: #fff;stroke-miterlimit: 10;stroke-width: 0.25px"/>
    </g>
    <g>
      <line x1="154.58" y1="281.02" x2="157.43" y2="283.87" style="fill: none;stroke: #fff;stroke-miterlimit: 10;stroke-width: 0.25px"/>
      <line x1="153.14" y1="280.95" x2="157.46" y2="285.28" style="fill: none;stroke: #fff;stroke-miterlimit: 10;stroke-width: 0.25px"/>
      <line x1="151.74" y1="280.96" x2="157.47" y2="286.68" style="fill: none;stroke: #fff;stroke-miterlimit: 10;stroke-width: 0.25px"/>
      <line x1="150.37" y1="280.97" x2="157.32" y2="287.91" style="fill: none;stroke: #fff;stroke-miterlimit: 10;stroke-width: 0.25px"/>
      <line x1="149.07" y1="281.02" x2="157.52" y2="289.48" style="fill: none;stroke: #fff;stroke-miterlimit: 10;stroke-width: 0.25px"/>
      <line x1="147.76" y1="281.02" x2="157.69" y2="290.95" style="fill: none;stroke: #fff;stroke-miterlimit: 10;stroke-width: 0.25px"/>
      <line x1="146.54" y1="281.15" x2="157.46" y2="292.07" style="fill: none;stroke: #fff;stroke-miterlimit: 10;stroke-width: 0.25px"/>
      <line x1="145.26" y1="281.24" x2="157.02" y2="293" style="fill: none;stroke: #fff;stroke-miterlimit: 10;stroke-width: 0.25px"/>
      <line x1="144.75" y1="282.11" x2="156.51" y2="293.87" style="fill: none;stroke: #fff;stroke-miterlimit: 10;stroke-width: 0.25px"/>
      <line x1="144.87" y1="283.51" x2="156.12" y2="294.76" style="fill: none;stroke: #fff;stroke-miterlimit: 10;stroke-width: 0.25px"/>
      <line x1="144.96" y1="284.87" x2="155.7" y2="295.61" style="fill: none;stroke: #fff;stroke-miterlimit: 10;stroke-width: 0.25px"/>
      <line x1="144.94" y1="286.17" x2="154.94" y2="296.17" style="fill: none;stroke: #fff;stroke-miterlimit: 10;stroke-width: 0.25px"/>
      <line x1="145.06" y1="287.64" x2="153.85" y2="296.43" style="fill: none;stroke: #fff;stroke-miterlimit: 10;stroke-width: 0.25px"/>
      <line x1="144.99" y1="289.01" x2="152.65" y2="296.66" style="fill: none;stroke: #fff;stroke-miterlimit: 10;stroke-width: 0.25px"/>
      <line x1="145.38" y1="290.8" x2="151.28" y2="296.69" style="fill: none;stroke: #fff;stroke-miterlimit: 10;stroke-width: 0.25px"/>
      <line x1="145.31" y1="292.04" x2="149.96" y2="296.69" style="fill: none;stroke: #fff;stroke-miterlimit: 10;stroke-width: 0.25px"/>
      <line x1="145.67" y1="293.75" x2="148.58" y2="296.66" style="fill: none;stroke: #fff;stroke-miterlimit: 10;stroke-width: 0.25px"/>
    </g>
  </g>
</svg>
