<svg id="falcon-9" xmlns="http://www.w3.org/2000/svg" viewBox="0 0 300 300">
  <g id="falcon9">
    <path d="M220.92,111.27c-3.75-3.44-16.32,4.79-19.41,6.91a1.05,1.05,0,0,1-1.32-.09L199,117a1,1,0,0,1-.06-1.34l39.71-43.31a7.75,7.75,0,0,1,3.7-2.27l3.51-1a5.48,5.48,0,0,0,2.5-1.52l24.24-26.18A44,44,0,0,0,281.19,28c2.14-5.3,3.3-11.51-.63-15.1s-10.08-2.05-15.25.4a42.25,42.25,0,0,0-13,9.77L228.14,49.43A5.42,5.42,0,0,0,226.83,52l-.56,2.87a7.92,7.92,0,0,1-1.93,3.81L184.2,102.49a1,1,0,0,1-1.34.06l-1-.91a1.08,1.08,0,0,1-.22-1.3c1.79-3.27,8.74-16.51,5.25-19.71-2-1.86-7.11.1-11.62,2.47a46.65,46.65,0,0,0-12.54,9.72L23.58,244.32l1.24,1.12-5.15,3.14,13.95,12.78L36.21,256l1.43,1.32,27.63-30.14a1,1,0,0,1,1.41-.07l1.7,1.52a1,1,0,0,1,.07,1.42l-28,30.5L42.05,262l-4.79,2.73,13,11.92,2.34-5,1.3,1.19,27.85-30.39a.9.9,0,0,1,1.28-.06L84.87,244a.92.92,0,0,1,.07,1.3L57.28,275.42l1.25,1.22-5.1,2.88,15,13.78,2.36-5.21L72,289.2l138.8-151.29a45.68,45.68,0,0,0,10-17C222.13,116.86,222.71,112.91,220.92,111.27ZM70.13,226.72l-1.67-1.54a1,1,0,0,1-.07-1.42L178.23,103.93a.87.87,0,0,1,1.22-.05l1.89,1.73a.87.87,0,0,1,0,1.22L71.55,226.66A1,1,0,0,1,70.13,226.72Zm16.54,15.16L85,240.34a1,1,0,0,1-.06-1.42L194.77,119.09a.87.87,0,0,1,1.22,0l1.89,1.73a.87.87,0,0,1,.05,1.22L88.09,241.82A1,1,0,0,1,86.67,241.88Z" style="fill: none;stroke: #fff;stroke-miterlimit: 10;stroke-width: 2px"/>
    <line x1="227.42" y1="50.44" x2="247.13" y2="68.5" style="fill: none;stroke: #fff;stroke-miterlimit: 10;stroke-width: 2px"/>
    <line x1="225.62" y1="56.82" x2="240.73" y2="70.68" style="fill: none;stroke: #fff;stroke-miterlimit: 10;stroke-width: 2px"/>
    <line x1="208.42" y1="76.07" x2="222.95" y2="89.4" style="fill: none;stroke: #fff;stroke-miterlimit: 10;stroke-width: 2px"/>
    <line x1="199.92" y1="117.85" x2="215.44" y2="132.07" style="fill: none;stroke: #fff;stroke-miterlimit: 10;stroke-width: 2px"/>
    <line x1="182.33" y1="102.06" x2="167.43" y2="88.4" style="fill: none;stroke: #fff;stroke-miterlimit: 10;stroke-width: 2px"/>
    <line x1="132.78" y1="125.44" x2="146.77" y2="138.26" style="fill: none;stroke: #fff;stroke-miterlimit: 10;stroke-width: 2px"/>
    <line x1="166.47" y1="156.31" x2="181.44" y2="170.04" style="fill: none;stroke: #fff;stroke-miterlimit: 10;stroke-width: 2px"/>
    <line x1="163.31" y1="153.42" x2="149.93" y2="141.15" style="fill: none;stroke: #fff;stroke-miterlimit: 10;stroke-width: 2px"/>
    <rect x="168.16" y="125.37" width="10.86" height="6.14" rx="0.11" transform="translate(132.42 -83.54) rotate(42.51)" style="fill: none;stroke: #fff;stroke-miterlimit: 10;stroke-width: 0.75px"/>
    <path d="M170,123.73h4.78a0,0,0,0,1,0,0v3.16a.18.18,0,0,1-.18.18h-4.71a0,0,0,0,1,0,0v-3.24A.11.11,0,0,1,170,123.73Z" transform="translate(130.03 -83.49) rotate(42.51)" style="fill: none;stroke: #fff;stroke-miterlimit: 10;stroke-width: 0.75px"/>
    <line x1="24.36" y1="245.78" x2="35.99" y2="256.44" style="fill: none;stroke: #fff;stroke-miterlimit: 10;stroke-width: 0.25px"/>
    <line x1="23.59" y1="246.19" x2="35.62" y2="257.22" style="fill: none;stroke: #fff;stroke-miterlimit: 10;stroke-width: 0.25px"/>
    <line x1="22.85" y1="246.64" x2="35.24" y2="257.99" style="fill: none;stroke: #fff;stroke-miterlimit: 10;stroke-width: 0.25px"/>
    <line x1="22.12" y1="247.09" x2="34.86" y2="258.77" style="fill: none;stroke: #fff;stroke-miterlimit: 10;stroke-width: 0.25px"/>
    <line x1="20.64" y1="247.98" x2="34.13" y2="260.29" style="fill: none;stroke: #fff;stroke-miterlimit: 10;stroke-width: 0.25px"/>
    <line x1="21.38" y1="247.54" x2="34.49" y2="259.55" style="fill: none;stroke: #fff;stroke-miterlimit: 10;stroke-width: 0.25px"/>
    <line x1="24.52" y1="245.17" x2="36.49" y2="256.26" style="fill: none;stroke: #fff;stroke-miterlimit: 10"/>
    <line x1="37.23" y1="263.93" x2="50.72" y2="276.24" style="fill: none;stroke: #fff;stroke-miterlimit: 10;stroke-width: 0.25px"/>
    <line x1="41.77" y1="261.71" x2="53.14" y2="272.06" style="fill: none;stroke: #fff;stroke-miterlimit: 10"/>
    <line x1="57.97" y1="276.1" x2="71.36" y2="288.57" style="fill: none;stroke: #fff;stroke-miterlimit: 10"/>
    <path d="M57.41,207.4s4.5-3.52,5.77-2.37-27.12,37.16-25.87,38.3,34.92-30,36.19-28.84S71.82,220,71.82,220" style="fill: none;stroke: #fff;stroke-miterlimit: 10;stroke-width: 2px"/>
    <path d="M74.78,223.13s4.3-3.52,5.4-2.51S53.46,258.13,54.35,259s34-30.8,35.79-29.21-2.36,6.08-2.36,6.08" style="fill: none;stroke: #fff;stroke-miterlimit: 10;stroke-width: 2px"/>
    <path d="M90.94,238.71s4.62-4,6-2.69-27.25,37-26.1,38.09,34.52-30.37,36.31-28.73-2.57,8.3-2.57,8.3" style="fill: none;stroke: #fff;stroke-miterlimit: 10;stroke-width: 2px"/>
    <line x1="40.56" y1="262.25" x2="51.83" y2="272.58" style="fill: none;stroke: #fff;stroke-miterlimit: 10;stroke-width: 0.25px"/>
    <line x1="39.83" y1="262.71" x2="51.44" y2="273.35" style="fill: none;stroke: #fff;stroke-miterlimit: 10;stroke-width: 0.25px"/>
    <line x1="39.11" y1="263.16" x2="51.06" y2="274.12" style="fill: none;stroke: #fff;stroke-miterlimit: 10;stroke-width: 0.25px"/>
    <line x1="38.38" y1="263.62" x2="50.67" y2="274.88" style="fill: none;stroke: #fff;stroke-miterlimit: 10;stroke-width: 0.25px"/>
    <line x1="57.42" y1="277.41" x2="69.98" y2="288.92" style="fill: none;stroke: #fff;stroke-miterlimit: 10;stroke-width: 0.25px"/>
    <line x1="56.68" y1="277.85" x2="69.61" y2="289.71" style="fill: none;stroke: #fff;stroke-miterlimit: 10;stroke-width: 0.25px"/>
    <line x1="55.93" y1="278.29" x2="69.24" y2="290.49" style="fill: none;stroke: #fff;stroke-miterlimit: 10;stroke-width: 0.25px"/>
    <line x1="55.19" y1="278.73" x2="68.87" y2="291.28" style="fill: none;stroke: #fff;stroke-miterlimit: 10;stroke-width: 0.25px"/>
    <line x1="226.47" y1="54.64" x2="242.86" y2="69.49" style="fill: none;stroke: #fff;stroke-miterlimit: 10;stroke-width: 0.25px"/>
    <line x1="226.75" y1="53.93" x2="243.64" y2="69.22" style="fill: none;stroke: #fff;stroke-miterlimit: 10;stroke-width: 0.25px"/>
    <line x1="226.97" y1="53.14" x2="244.34" y2="68.88" style="fill: none;stroke: #fff;stroke-miterlimit: 10;stroke-width: 0.25px"/>
    <line x1="227.28" y1="52.44" x2="245.15" y2="68.62" style="fill: none;stroke: #fff;stroke-miterlimit: 10;stroke-width: 0.25px"/>
    <line x1="226.19" y1="55.31" x2="242.58" y2="70.15" style="fill: none;stroke: #fff;stroke-miterlimit: 10;stroke-width: 0.25px"/>
    <line x1="167.22" y1="89.1" x2="180.2" y2="101" style="fill: none;stroke: #fff;stroke-miterlimit: 10;stroke-width: 0.25px"/>
    <line x1="150.83" y1="139.61" x2="164.56" y2="152.2" style="fill: none;stroke: #fff;stroke-miterlimit: 10"/>
    <line x1="153" y1="137.19" x2="166.74" y2="149.78" style="fill: none;stroke: #fff;stroke-miterlimit: 10"/>
    <line x1="155.24" y1="134.78" x2="168.97" y2="147.36" style="fill: none;stroke: #fff;stroke-miterlimit: 10"/>
    <line x1="157.38" y1="132.25" x2="171.11" y2="144.84" style="fill: none;stroke: #fff;stroke-miterlimit: 10"/>
    <line x1="159.56" y1="129.83" x2="173.29" y2="142.42" style="fill: none;stroke: #fff;stroke-miterlimit: 10"/>
    <line x1="161.79" y1="127.42" x2="175.52" y2="140.01" style="fill: none;stroke: #fff;stroke-miterlimit: 10"/>
    <line x1="164.28" y1="125.31" x2="178.01" y2="137.9" style="fill: none;stroke: #fff;stroke-miterlimit: 10"/>
    <line x1="177.1" y1="132.65" x2="180.19" y2="135.48" style="fill: none;stroke: #fff;stroke-miterlimit: 10"/>
    <line x1="166.46" y1="122.89" x2="169.01" y2="125.23" style="fill: none;stroke: #fff;stroke-miterlimit: 10"/>
    <line x1="179.32" y1="130.22" x2="182.42" y2="133.07" style="fill: none;stroke: #fff;stroke-miterlimit: 10"/>
    <line x1="168.69" y1="120.48" x2="171.32" y2="122.89" style="fill: none;stroke: #fff;stroke-miterlimit: 10"/>
    <line x1="170.7" y1="117.81" x2="184.43" y2="130.4" style="fill: none;stroke: #fff;stroke-miterlimit: 10"/>
    <line x1="172.88" y1="115.39" x2="186.61" y2="127.98" style="fill: none;stroke: #fff;stroke-miterlimit: 10"/>
    <line x1="175.11" y1="112.98" x2="188.84" y2="125.57" style="fill: none;stroke: #fff;stroke-miterlimit: 10"/>
    <line x1="177.38" y1="110.59" x2="191.11" y2="123.17" style="fill: none;stroke: #fff;stroke-miterlimit: 10"/>
    <line x1="179.56" y1="108.16" x2="193.29" y2="120.75" style="fill: none;stroke: #fff;stroke-miterlimit: 10"/>
    <line x1="181.79" y1="105.75" x2="195.53" y2="118.34" style="fill: none;stroke: #fff;stroke-miterlimit: 10"/>
    <line x1="183.9" y1="103.22" x2="198.18" y2="116.3" style="fill: none;stroke: #fff;stroke-miterlimit: 10"/>
    <line x1="186.15" y1="100.79" x2="200.42" y2="113.87" style="fill: none;stroke: #fff;stroke-miterlimit: 10"/>
    <line x1="188.32" y1="98.36" x2="202.6" y2="111.45" style="fill: none;stroke: #fff;stroke-miterlimit: 10"/>
    <line x1="190.56" y1="95.95" x2="204.83" y2="109.04" style="fill: none;stroke: #fff;stroke-miterlimit: 10"/>
    <line x1="192.83" y1="93.56" x2="207.11" y2="106.65" style="fill: none;stroke: #fff;stroke-miterlimit: 10"/>
    <line x1="195.01" y1="91.14" x2="209.29" y2="104.23" style="fill: none;stroke: #fff;stroke-miterlimit: 10"/>
    <line x1="196.76" y1="88.41" x2="211.81" y2="102.21" style="fill: none;stroke: #fff;stroke-miterlimit: 10"/>
    <line x1="198.99" y1="86" x2="214.04" y2="99.8" style="fill: none;stroke: #fff;stroke-miterlimit: 10"/>
    <line x1="201.27" y1="83.61" x2="216.32" y2="97.41" style="fill: none;stroke: #fff;stroke-miterlimit: 10"/>
    <line x1="203.44" y1="81.19" x2="218.5" y2="94.99" style="fill: none;stroke: #fff;stroke-miterlimit: 10"/>
    <line x1="205.68" y1="78.78" x2="220.73" y2="92.58" style="fill: none;stroke: #fff;stroke-miterlimit: 10"/>
    <polygon points="228.76 48.68 236.47 56.18 228.42 49.05 228.76 48.68" style="fill: #fff"/>
    <polygon points="229.66 47.75 236.18 54.27 229.32 48.11 229.66 47.75" style="fill: #fff"/>
    <polygon points="230.87 46.99 235.66 51.97 230.53 47.35 230.87 46.99" style="fill: #fff"/>
    <polygon points="231.69 45.83 235.66 50.02 231.34 46.18 231.69 45.83" style="fill: #fff"/>
    <polygon points="232.41 44.88 238.33 50.71 232.07 45.24 232.41 44.88" style="fill: #fff"/>
    <polygon points="233.31 43.95 240.93 51.5 232.97 44.31 233.31 43.95" style="fill: #fff"/>
    <polygon points="234.52 43.18 238.35 47.23 234.18 43.54 234.52 43.18" style="fill: #fff"/>
    <polygon points="235.34 42.02 237.89 44.84 234.99 42.38 235.34 42.02" style="fill: #fff"/>
    <polygon points="236.23 41 241.64 46.35 235.89 41.37 236.23 41" style="fill: #fff"/>
    <polygon points="237.14 40.07 241.04 44.11 236.8 40.43 237.14 40.07" style="fill: #fff"/>
    <polygon points="238.35 39.3 243.69 44.82 238 39.66 238.35 39.3" style="fill: #fff"/>
    <polygon points="239.16 38.14 246.36 45.46 238.82 38.5 239.16 38.14" style="fill: #fff"/>
    <polygon points="239.91 37.16 249.49 46.38 239.57 37.53 239.91 37.16" style="fill: #fff"/>
    <polygon points="240.82 36.23 249.15 44.47 240.48 36.59 240.82 36.23" style="fill: #fff"/>
    <polygon points="242.03 35.47 248.27 41.87 241.68 35.83 242.03 35.47" style="fill: #fff"/>
    <polygon points="242.84 34.3 247.58 39.24 242.5 34.66 242.84 34.3" style="fill: #fff"/>
    <polygon points="243.82 33.28 251.54 40.77 243.48 33.65 243.82 33.28" style="fill: #fff"/>
    <polygon points="244.73 32.35 251.25 38.87 244.39 32.71 244.73 32.35" style="fill: #fff"/>
    <polygon points="245.32 30.98 250.72 36.56 244.97 31.34 245.32 30.98" style="fill: #fff"/>
    <polygon points="246.75 30.42 250.72 34.61 246.41 30.78 246.75 30.42" style="fill: #fff"/>
    <polygon points="247.47 29.47 253.4 35.3 247.13 29.84 247.47 29.47" style="fill: #fff"/>
    <polygon points="248.38 28.54 255.99 36.1 248.04 28.9 248.38 28.54" style="fill: #fff"/>
    <polygon points="249.12 27.32 253.41 31.83 248.78 27.68 249.12 27.32" style="fill: #fff"/>
    <polygon points="250.4 26.61 252.95 29.43 250.06 26.97 250.4 26.61" style="fill: #fff"/>
    <polygon points="251.3 25.6 256.7 30.94 250.96 25.96 251.3 25.6" style="fill: #fff"/>
    <polygon points="252.21 24.66 256.11 28.71 251.86 25.02 252.21 24.66" style="fill: #fff"/>
    <polygon points="252.77 23.2 257.06 27.7 252.42 23.56 252.77 23.2" style="fill: #fff"/>
    <polygon points="254.05 22.49 256.6 25.31 253.7 22.84 254.05 22.49" style="fill: #fff"/>
    <polygon points="254.86 21.56 260.35 26.82 254.69 21.74 254.86 21.56" style="fill: #fff"/>
    <polygon points="255.76 20.63 260.13 24.93 255.59 20.81 255.76 20.63" style="fill: #fff"/>
    <polygon points="248.18 67.21 242.68 61.69 248.53 66.85 248.18 67.21" style="fill: #fff"/>
    <polygon points="249.06 66.25 242.45 59.83 249.39 65.88 249.06 66.25" style="fill: #fff"/>
    <polygon points="249.74 64.99 241.88 57.58 250.07 64.62 249.74 64.99" style="fill: #fff"/>
    <polygon points="250.84 64.1 245.6 59.04 251.18 63.73 250.84 64.1" style="fill: #fff"/>
    <polygon points="251.73 63.31 246.92 58.44 252.07 62.95 251.73 63.31" style="fill: #fff"/>
    <polygon points="252.6 62.35 246.34 56.24 252.94 61.98 252.6 62.35" style="fill: #fff"/>
    <polygon points="253.29 61.09 246.29 54.45 253.62 60.72 253.29 61.09" style="fill: #fff"/>
    <polygon points="254.39 60.2 245.84 52.16 254.73 59.83 254.39 60.2" style="fill: #fff"/>
    <polygon points="255.34 59.23 249.98 53.84 255.68 58.87 255.34 59.23" style="fill: #fff"/>
    <polygon points="256.21 58.26 248.31 50.65 256.55 57.9 256.21 58.26" style="fill: #fff"/>
    <polygon points="256.89 57.01 251.36 51.69 257.23 56.64 256.89 57.01" style="fill: #fff"/>
    <polygon points="258 56.12 252.74 51.05 258.33 55.75 258 56.12" style="fill: #fff"/>
    <polygon points="258.92 55.3 254.82 51.1 259.26 54.94 258.92 55.3" style="fill: #fff"/>
    <polygon points="259.79 54.33 252.74 47.51 260.13 53.97 259.79 54.33" style="fill: #fff"/>
    <polygon points="260.47 53.08 254.39 47.27 260.81 52.71 260.47 53.08" style="fill: #fff"/>
    <polygon points="261.58 52.19 253.49 44.57 261.91 51.81 261.58 52.19" style="fill: #fff"/>
    <polygon points="262.52 51.13 256.69 45.3 262.87 50.77 262.52 51.13" style="fill: #fff"/>
    <polygon points="263.4 50.17 258.15 45 263.74 49.8 263.4 50.17" style="fill: #fff"/>
    <polygon points="264.72 49.49 258.09 43.18 265.05 49.12 264.72 49.49" style="fill: #fff"/>
    <polygon points="265.19 48.02 257.77 41.01 265.52 47.65 265.19 48.02" style="fill: #fff"/>
    <polygon points="266.07 47.23 260.19 41.35 266.42 46.87 266.07 47.23" style="fill: #fff"/>
    <polygon points="266.95 46.27 259.23 38.82 267.29 45.9 266.95 46.27" style="fill: #fff"/>
    <polygon points="268.11 45.45 263.66 41.1 268.45 45.08 268.11 45.45" style="fill: #fff"/>
    <polygon points="268.74 44.12 266.08 41.4 269.07 43.75 268.74 44.12" style="fill: #fff"/>
    <polygon points="269.68 43.15 264.32 37.76 270.02 42.78 269.68 43.15" style="fill: #fff"/>
    <polygon points="270.56 42.18 266.59 38.2 270.89 41.82 270.56 42.18" style="fill: #fff"/>
    <polygon points="271.98 41.53 267.53 37.19 272.32 41.16 271.98 41.53" style="fill: #fff"/>
    <polygon points="272.6 40.2 265.49 33.13 272.94 39.84 272.6 40.2" style="fill: #fff"/>
    <polygon points="273.64 39.14 268.19 33.84 273.81 38.96 273.64 39.14" style="fill: #fff"/>
    <polygon points="274.51 38.18 266.61 30.74 274.68 37.99 274.51 38.18" style="fill: #fff"/>
    <polygon points="276.55 35.31 273.81 32.68 276.72 35.12 276.55 35.31" style="fill: #fff"/>
    <polygon points="278.05 33.37 274.35 30.73 278.19 33.16 278.05 33.37" style="fill: #fff"/>
    <polygon points="278.81 31.6 274.19 28.41 278.95 31.39 278.81 31.6" style="fill: #fff"/>
    <polygon points="280.31 30.14 275.14 26.68 280.44 29.93 280.31 30.14" style="fill: #fff"/>
    <polygon points="280.61 28.32 275.67 24.66 280.75 28.12 280.61 28.32" style="fill: #fff"/>
    <polygon points="281.45 26.72 275.23 21.93 281.6 26.52 281.45 26.72" style="fill: #fff"/>
    <polygon points="282.03 24.81 275.46 19.47 282.19 24.61 282.03 24.81" style="fill: #fff"/>
    <polygon points="275.72 37.15 271.19 32.9 275.89 36.96 275.72 37.15" style="fill: #fff"/>
    <polygon points="257.21 19.31 259.94 21.95 257.04 19.5 257.21 19.31" style="fill: #fff"/>
    <polygon points="259.01 17.65 261.83 21.21 258.82 17.81 259.01 17.65" style="fill: #fff"/>
    <polygon points="260.69 16.71 264.15 21.14 260.5 16.87 260.69 16.71" style="fill: #fff"/>
    <polygon points="261.99 15.07 265.77 20.01 261.79 15.23 261.99 15.07" style="fill: #fff"/>
    <polygon points="263.77 14.59 266.04 17.63 263.57 14.74 263.77 14.59" style="fill: #fff"/>
    <polygon points="265.26 13.58 268.71 17.9 265.07 13.74 265.26 13.58" style="fill: #fff"/>
    <polygon points="267.11 12.79 271.34 17.87 266.92 12.96 267.11 12.79" style="fill: #fff"/>
    <path d="M275.23,10.8A33.07,33.07,0,0,0,283,18.54" style="fill: none;stroke: #fff;stroke-miterlimit: 10;stroke-width: 0.5px"/>
    <path d="M273.5,10.78a42.29,42.29,0,0,0,9.32,9.33" style="fill: none;stroke: #fff;stroke-miterlimit: 10;stroke-width: 0.5px"/>
    <path d="M272,11a49.47,49.47,0,0,0,10.7,10.7" style="fill: none;stroke: #fff;stroke-miterlimit: 10;stroke-width: 0.25px"/>
    <path d="M271,11.87A53.53,53.53,0,0,0,282.07,23" style="fill: none;stroke: #fff;stroke-miterlimit: 10;stroke-width: 0.25px"/>
    <path d="M276.55,10.49a31.26,31.26,0,0,0,7,7" style="fill: none;stroke: #fff;stroke-miterlimit: 10;stroke-width: 0.5px"/>
    <polygon points="269.4 12.48 273.85 18.12 269.2 12.64 269.4 12.48" style="fill: #fff"/>
    <line x1="197.85" y1="122.23" x2="212.25" y2="135.3" style="fill: none;stroke: #fff;stroke-miterlimit: 10;stroke-width: 0.25px"/>
    <line x1="198.59" y1="120.95" x2="213.84" y2="134.77" style="fill: none;stroke: #fff;stroke-miterlimit: 10;stroke-width: 0.25px"/>
    <line x1="163.92" y1="91.81" x2="178.37" y2="104.92" style="fill: none;stroke: #fff;stroke-miterlimit: 10;stroke-width: 0.25px"/>
    <line x1="164.44" y1="90.21" x2="179.26" y2="103.65" style="fill: none;stroke: #fff;stroke-miterlimit: 10;stroke-width: 0.25px"/>
    <line x1="160.5" y1="95" x2="174.96" y2="108.12" style="fill: none;stroke: #fff;stroke-miterlimit: 10;stroke-width: 0.25px"/>
    <line x1="161.25" y1="93.54" x2="176.07" y2="106.99" style="fill: none;stroke: #fff;stroke-miterlimit: 10;stroke-width: 0.25px"/>
    <line x1="159.2" y1="95.95" x2="174.02" y2="109.39" style="fill: none;stroke: #fff;stroke-miterlimit: 10;stroke-width: 0.25px"/>
    <g>
      <polygon points="82.19 179.82 89.71 186.84 81.85 180.19 82.19 179.82" style="fill: #fff"/>
      <polygon points="83.87 178.08 90.16 184.26 83.53 178.45 83.87 178.08" style="fill: #fff"/>
      <polygon points="85.9 176.46 90.47 181.22 85.56 176.81 85.9 176.46" style="fill: #fff"/>
      <polygon points="87.56 174.44 91.35 178.45 87.21 174.79 87.56 174.44" style="fill: #fff"/>
      <polygon points="88.98 172.76 94.76 178.23 88.65 173.14 88.98 172.76" style="fill: #fff"/>
      <polygon points="90.67 171.03 98.02 178.19 90.33 171.39 90.67 171.03" style="fill: #fff"/>
      <polygon points="92.7 169.4 96.35 173.28 92.36 169.76 92.7 169.4" style="fill: #fff"/>
      <polygon points="94.36 167.38 96.79 170.08 94.01 167.74 94.36 167.38" style="fill: #fff"/>
      <polygon points="96.06 165.53 101.33 170.54 95.73 165.9 96.06 165.53" style="fill: #fff"/>
      <polygon points="97.75 163.79 101.52 167.63 97.41 164.16 97.75 163.79" style="fill: #fff"/>
      <polygon points="99.78 162.16 104.88 167.44 99.44 162.52 99.78 162.16" style="fill: #fff"/>
      <polygon points="101.44 160.14 108.31 167.15 101.09 160.5 101.44 160.14" style="fill: #fff"/>
      <polygon points="102.92 158.41 112.26 167.05 102.58 158.79 102.92 158.41" style="fill: #fff"/>
      <polygon points="104.61 156.68 112.64 164.48 104.27 157.04 104.61 156.68" style="fill: #fff"/>
      <polygon points="106.64 155.05 112.6 161.18 106.29 155.41 106.64 155.05" style="fill: #fff"/>
      <polygon points="108.29 153.03 112.82 157.76 107.95 153.39 108.29 153.03" style="fill: #fff"/>
      <polygon points="110.11 151.13 117.64 158.15 109.78 151.5 110.11 151.13" style="fill: #fff"/>
      <polygon points="111.8 149.39 118.09 155.57 111.46 149.76 111.8 149.39" style="fill: #fff"/>
      <polygon points="113.24 147.19 118.4 152.54 112.9 147.55 113.24 147.19" style="fill: #fff"/>
      <polygon points="115.49 145.75 119.28 149.76 115.14 146.1 115.49 145.75" style="fill: #fff"/>
      <polygon points="116.91 144.07 122.69 149.54 116.58 144.45 116.91 144.07" style="fill: #fff"/>
      <polygon points="118.6 142.34 125.95 149.5 118.26 142.71 118.6 142.34" style="fill: #fff"/>
      <polygon points="120.19 140.28 124.28 144.59 119.84 140.64 120.19 140.28" style="fill: #fff"/>
      <polygon points="121.97 138.38 124.4 141.08 121.62 138.74 121.97 138.38" style="fill: #fff"/>
      <polygon points="123.7 136.57 129.26 141.85 123.36 136.94 123.7 136.57" style="fill: #fff"/>
      <polygon points="125.29 134.74 129.45 138.94 124.95 135.1 125.29 134.74" style="fill: #fff"/>
      <polygon points="127.12 132.77 131.22 137.08 126.77 133.13 127.12 132.77" style="fill: #fff"/>
      <polygon points="128.73 130.7 131.66 133.88 128.38 131.06 128.73 130.7" style="fill: #fff"/>
      <polygon points="130.59 129.02 136.2 134.34 130.26 129.4 130.59 129.02" style="fill: #fff"/>
      <polygon points="132.18 127.19 136.74 131.76 131.84 127.55 132.18 127.19" style="fill: #fff"/>
      <polygon points="66.06 197.97 74.06 205.46 65.72 198.35 66.06 197.97" style="fill: #fff"/>
      <polygon points="67.75 196.24 74.44 202.81 67.41 196.61 67.75 196.24" style="fill: #fff"/>
      <polygon points="69.79 194.63 74.66 199.69 69.44 194.99 69.79 194.63" style="fill: #fff"/>
      <polygon points="71.44 192.6 75.48 196.86 71.09 192.96 71.44 192.6" style="fill: #fff"/>
      <polygon points="72.86 190.92 79 196.74 72.52 191.29 72.86 190.92" style="fill: #fff"/>
      <polygon points="74.54 189.18 82.36 196.8 74.2 189.55 74.54 189.18" style="fill: #fff"/>
      <polygon points="76.59 187.57 80.48 191.69 76.24 187.93 76.59 187.57" style="fill: #fff"/>
      <polygon points="78.24 185.54 80.84 188.41 77.89 185.9 78.24 185.54" style="fill: #fff"/>
      <polygon points="79.94 183.68 85.54 189.02 79.61 184.06 79.94 183.68" style="fill: #fff"/>
      <polygon points="81.63 181.95 85.64 186.03 81.28 182.31 81.63 181.95" style="fill: #fff"/>
      <polygon points="65.03 200.03 69.04 204.1 64.69 200.39 65.03 200.03" style="fill: #fff"/>
      <polygon points="63.67 201.5 66.27 204.36 63.33 201.85 63.67 201.5" style="fill: #fff"/>
    </g>
    <g>
      <polygon points="99.36 195.69 106.89 202.71 99.03 196.06 99.36 195.69" style="fill: #fff"/>
      <polygon points="101.05 193.95 107.34 200.13 100.71 194.32 101.05 193.95" style="fill: #fff"/>
      <polygon points="103.08 192.32 107.64 197.09 102.73 192.68 103.08 192.32" style="fill: #fff"/>
      <polygon points="104.74 190.3 108.52 194.32 104.39 190.66 104.74 190.3" style="fill: #fff"/>
      <polygon points="106.16 188.63 111.94 194.1 105.83 189 106.16 188.63" style="fill: #fff"/>
      <polygon points="107.85 186.9 115.19 194.06 107.51 187.26 107.85 186.9" style="fill: #fff"/>
      <polygon points="109.88 185.27 113.53 189.15 109.53 185.63 109.88 185.27" style="fill: #fff"/>
      <polygon points="111.54 183.25 113.97 185.95 111.19 183.61 111.54 183.25" style="fill: #fff"/>
      <polygon points="113.24 181.39 118.51 186.41 112.91 181.77 113.24 181.39" style="fill: #fff"/>
      <polygon points="114.93 179.66 118.69 183.5 114.59 180.03 114.93 179.66" style="fill: #fff"/>
      <polygon points="116.96 178.03 122.05 183.31 116.61 178.39 116.96 178.03" style="fill: #fff"/>
      <polygon points="118.62 176.01 125.49 183.02 118.27 176.37 118.62 176.01" style="fill: #fff"/>
      <polygon points="120.09 174.28 129.44 182.92 119.76 174.65 120.09 174.28" style="fill: #fff"/>
      <polygon points="121.78 172.55 129.82 180.35 121.44 172.91 121.78 172.55" style="fill: #fff"/>
      <polygon points="123.81 170.92 129.78 177.04 123.47 171.28 123.81 170.92" style="fill: #fff"/>
      <polygon points="125.47 168.9 129.99 173.63 125.12 169.26 125.47 168.9" style="fill: #fff"/>
      <polygon points="127.29 167 134.82 174.02 126.96 167.37 127.29 167" style="fill: #fff"/>
      <polygon points="128.98 165.26 135.27 171.44 128.64 165.63 128.98 165.26" style="fill: #fff"/>
      <polygon points="130.42 163.06 135.57 168.4 130.07 163.42 130.42 163.06" style="fill: #fff"/>
      <polygon points="132.67 161.61 136.45 165.63 132.32 161.97 132.67 161.61" style="fill: #fff"/>
      <polygon points="134.09 159.94 139.87 165.41 133.76 160.31 134.09 159.94" style="fill: #fff"/>
      <polygon points="135.78 158.21 143.13 165.37 135.44 158.57 135.78 158.21" style="fill: #fff"/>
      <polygon points="137.36 156.15 141.46 160.46 137.02 156.5 137.36 156.15" style="fill: #fff"/>
      <polygon points="139.15 154.25 141.58 156.95 138.8 154.6 139.15 154.25" style="fill: #fff"/>
      <polygon points="140.87 152.44 146.44 157.72 140.54 152.81 140.87 152.44" style="fill: #fff"/>
      <polygon points="142.47 150.61 146.63 154.81 142.13 150.97 142.47 150.61" style="fill: #fff"/>
      <polygon points="144.3 148.64 148.4 152.95 143.95 149 144.3 148.64" style="fill: #fff"/>
      <polygon points="145.91 146.57 148.84 149.75 145.56 146.93 145.91 146.57" style="fill: #fff"/>
      <polygon points="147.77 144.89 153.38 150.21 147.43 145.26 147.77 144.89" style="fill: #fff"/>
      <polygon points="149.36 143.06 153.92 147.63 149.02 143.42 149.36 143.06" style="fill: #fff"/>
      <polygon points="83.23 213.84 91.23 221.32 82.9 214.22 83.23 213.84" style="fill: #fff"/>
      <polygon points="84.92 212.11 91.62 218.68 84.58 212.47 84.92 212.11" style="fill: #fff"/>
      <polygon points="86.97 210.49 91.84 215.56 86.62 210.85 86.97 210.49" style="fill: #fff"/>
      <polygon points="88.62 208.47 92.66 212.73 88.27 208.82 88.62 208.47" style="fill: #fff"/>
      <polygon points="90.03 206.79 96.18 212.61 89.7 207.16 90.03 206.79" style="fill: #fff"/>
      <polygon points="91.72 205.05 99.54 212.67 91.38 205.42 91.72 205.05" style="fill: #fff"/>
      <polygon points="93.77 203.44 97.66 207.56 93.42 203.8 93.77 203.44" style="fill: #fff"/>
      <polygon points="95.41 201.41 98.01 204.28 95.07 201.77 95.41 201.41" style="fill: #fff"/>
      <polygon points="97.12 199.55 102.72 204.89 96.78 199.92 97.12 199.55" style="fill: #fff"/>
      <polygon points="98.8 197.82 102.82 201.89 98.46 198.18 98.8 197.82" style="fill: #fff"/>
      <polygon points="82.2 215.9 86.22 219.97 81.86 216.26 82.2 215.9" style="fill: #fff"/>
      <polygon points="80.85 217.36 83.45 220.23 80.5 217.72 80.85 217.36" style="fill: #fff"/>
    </g>
    <g>
      <polygon points="115.73 210.88 123.25 217.9 115.39 211.25 115.73 210.88" style="fill: #fff"/>
      <polygon points="117.41 209.15 123.7 215.33 117.07 209.51 117.41 209.15" style="fill: #fff"/>
      <polygon points="119.44 207.52 124.01 212.29 119.1 207.88 119.44 207.52" style="fill: #fff"/>
      <polygon points="121.1 205.5 124.89 209.52 120.75 205.86 121.1 205.5" style="fill: #fff"/>
      <polygon points="122.53 203.83 128.3 209.29 122.19 204.2 122.53 203.83" style="fill: #fff"/>
      <polygon points="124.21 202.09 131.56 209.25 123.87 202.46 124.21 202.09" style="fill: #fff"/>
      <polygon points="126.24 200.46 129.89 204.35 125.9 200.82 126.24 200.46" style="fill: #fff"/>
      <polygon points="127.9 198.44 130.33 201.15 127.55 198.8 127.9 198.44" style="fill: #fff"/>
      <polygon points="129.61 196.59 134.87 201.6 129.27 196.96 129.61 196.59" style="fill: #fff"/>
      <polygon points="131.29 194.85 135.06 198.69 130.95 195.22 131.29 194.85" style="fill: #fff"/>
      <polygon points="133.32 193.23 138.42 198.51 132.98 193.59 133.32 193.23" style="fill: #fff"/>
      <polygon points="134.98 191.21 141.85 198.21 134.63 191.57 134.98 191.21" style="fill: #fff"/>
      <polygon points="136.46 189.48 145.8 198.11 136.13 189.85 136.46 189.48" style="fill: #fff"/>
      <polygon points="138.15 187.74 146.18 195.55 137.81 188.11 138.15 187.74" style="fill: #fff"/>
      <polygon points="140.18 186.11 146.14 192.24 139.83 186.47 140.18 186.11" style="fill: #fff"/>
      <polygon points="141.84 184.09 146.36 188.82 141.49 184.45 141.84 184.09" style="fill: #fff"/>
      <polygon points="143.66 182.19 151.18 189.21 143.32 182.57 143.66 182.19" style="fill: #fff"/>
      <polygon points="145.34 180.46 151.63 186.64 145 180.82 145.34 180.46" style="fill: #fff"/>
      <polygon points="146.78 178.26 151.94 183.6 146.44 178.62 146.78 178.26" style="fill: #fff"/>
      <polygon points="149.03 176.81 152.82 180.83 148.68 177.17 149.03 176.81" style="fill: #fff"/>
      <polygon points="150.46 175.14 156.23 180.61 150.12 175.51 150.46 175.14" style="fill: #fff"/>
      <polygon points="152.14 173.4 159.49 180.56 151.8 173.77 152.14 173.4" style="fill: #fff"/>
      <polygon points="153.73 171.34 157.82 175.66 153.38 171.7 153.73 171.34" style="fill: #fff"/>
      <polygon points="155.51 169.44 157.94 172.15 155.16 169.8 155.51 169.44" style="fill: #fff"/>
      <polygon points="157.24 167.63 162.8 172.92 156.91 168.01 157.24 167.63" style="fill: #fff"/>
      <polygon points="158.83 165.8 162.99 170 158.49 166.17 158.83 165.8" style="fill: #fff"/>
      <polygon points="160.66 163.83 164.76 168.15 160.31 164.19 160.66 163.83" style="fill: #fff"/>
      <polygon points="162.27 161.77 165.2 164.95 161.93 162.13 162.27 161.77" style="fill: #fff"/>
      <polygon points="164.13 160.09 169.74 165.41 163.8 160.46 164.13 160.09" style="fill: #fff"/>
      <polygon points="165.72 158.25 170.28 162.83 165.38 158.62 165.72 158.25" style="fill: #fff"/>
      <polygon points="99.6 229.04 107.6 236.52 99.27 229.41 99.6 229.04" style="fill: #fff"/>
      <polygon points="101.29 227.3 107.98 233.88 100.95 227.67 101.29 227.3" style="fill: #fff"/>
      <polygon points="103.33 225.69 108.2 230.75 102.98 226.05 103.33 225.69" style="fill: #fff"/>
      <polygon points="104.98 223.66 109.02 227.92 104.63 224.02 104.98 223.66" style="fill: #fff"/>
      <polygon points="106.4 221.98 112.54 227.81 106.06 222.35 106.4 221.98" style="fill: #fff"/>
      <polygon points="108.08 220.25 115.9 227.87 107.74 220.61 108.08 220.25" style="fill: #fff"/>
      <polygon points="110.13 218.63 114.03 222.75 109.78 218.99 110.13 218.63" style="fill: #fff"/>
      <polygon points="111.78 216.6 114.38 219.47 111.43 216.96 111.78 216.6" style="fill: #fff"/>
      <polygon points="113.48 214.75 119.08 220.09 113.15 215.12 113.48 214.75" style="fill: #fff"/>
      <polygon points="115.17 213.01 119.18 217.09 114.83 213.38 115.17 213.01" style="fill: #fff"/>
      <polygon points="98.57 231.09 102.58 235.17 98.23 231.46 98.57 231.09" style="fill: #fff"/>
      <polygon points="97.21 232.56 99.81 235.43 96.87 232.92 97.21 232.56" style="fill: #fff"/>
    </g>
    <polygon points="159.66 192.81 153.78 187.52 159.99 192.43 159.66 192.81" style="fill: #fff"/>
    <polygon points="158.02 194.59 153.27 190.07 158.35 194.21 158.02 194.59" style="fill: #fff"/>
    <polygon points="156.03 196.27 151.35 191.62 156.37 195.9 156.03 196.27" style="fill: #fff"/>
    <polygon points="154.43 198.33 150.54 194.41 154.77 197.96 154.43 198.33" style="fill: #fff"/>
    <polygon points="153.05 200.04 147.13 194.73 153.37 199.66 153.05 200.04" style="fill: #fff"/>
    <polygon points="151.41 201.82 147.51 198.05 151.74 201.44 151.41 201.82" style="fill: #fff"/>
    <polygon points="149.42 203.5 145.67 199.71 149.76 203.13 149.42 203.5" style="fill: #fff"/>
    <polygon points="147.82 205.56 145.32 202.92 148.16 205.19 147.82 205.56" style="fill: #fff"/>
    <polygon points="146.16 207.46 140.77 202.59 146.49 207.08 146.16 207.46" style="fill: #fff"/>
    <polygon points="144.52 209.24 140.66 205.5 144.85 208.87 144.52 209.24" style="fill: #fff"/>
    <polygon points="142.54 210.92 137.31 205.78 142.88 210.55 142.54 210.92" style="fill: #fff"/>
    <polygon points="140.93 212.98 133.88 206.16 141.27 212.62 140.93 212.98" style="fill: #fff"/>
    <polygon points="139.5 214.75 133.63 209.48 139.82 214.37 139.5 214.75" style="fill: #fff"/>
    <polygon points="137.86 216.53 132.66 211.61 138.19 216.16 137.86 216.53" style="fill: #fff"/>
    <polygon points="135.87 218.21 129.75 212.25 136.21 217.84 135.87 218.21" style="fill: #fff"/>
    <polygon points="134.27 220.27 129.62 215.66 134.61 219.91 134.27 220.27" style="fill: #fff"/>
    <polygon points="132.5 222.22 126.25 216.63 132.82 221.84 132.5 222.22" style="fill: #fff"/>
    <polygon points="130.86 224 126.44 219.78 131.19 223.63 130.86 224" style="fill: #fff"/>
    <polygon points="129.47 226.24 124.18 221.03 129.81 225.87 129.47 226.24" style="fill: #fff"/>
    <polygon points="127.27 227.75 123.38 223.83 127.61 227.38 127.27 227.75" style="fill: #fff"/>
    <polygon points="125.89 229.46 119.97 224.14 126.21 229.07 125.89 229.46" style="fill: #fff"/>
    <polygon points="124.25 231.23 116.72 224.27 124.58 230.86 124.25 231.23" style="fill: #fff"/>
    <polygon points="122.72 233.34 118.51 229.13 123.06 232.97 122.72 233.34" style="fill: #fff"/>
    <polygon points="120.99 235.28 118.48 232.64 121.32 234.91 120.99 235.28" style="fill: #fff"/>
    <polygon points="119.31 237.13 113.6 232 119.63 236.75 119.31 237.13" style="fill: #fff"/>
    <polygon points="117.76 239.01 113.5 234.92 118.09 238.63 117.76 239.01" style="fill: #fff"/>
    <polygon points="115.98 241.03 111.77 236.82 116.32 240.66 115.98 241.03" style="fill: #fff"/>
    <polygon points="114.43 243.13 111.42 240.03 114.77 242.76 114.43 243.13" style="fill: #fff"/>
    <polygon points="112.61 244.86 106.87 239.69 112.94 244.48 112.61 244.86" style="fill: #fff"/>
    <polygon points="111.07 246.74 106.39 242.28 111.4 246.36 111.07 246.74" style="fill: #fff"/>
    <polygon points="176.31 175.08 168.12 167.81 176.63 174.7 176.31 175.08" style="fill: #fff"/>
    <polygon points="174.82 177.03 166.8 169.62 175.15 176.66 174.82 177.03" style="fill: #fff"/>
    <polygon points="172.8 178.72 166.66 172.74 173.14 178.36 172.8 178.72" style="fill: #fff"/>
    <polygon points="171.36 180.94 165.92 175.6 171.7 180.57 171.36 180.94" style="fill: #fff"/>
    <polygon points="169.66 182.28 162.4 175.81 169.98 181.9 169.66 182.28" style="fill: #fff"/>
    <polygon points="168.12 184.18 159.04 175.83 168.45 183.81 168.12 184.18" style="fill: #fff"/>
    <polygon points="166.22 185.98 161.05 180.89 166.55 185.61 166.22 185.98" style="fill: #fff"/>
    <polygon points="164.39 187.84 160.78 184.19 164.73 187.47 164.39 187.84" style="fill: #fff"/>
    <polygon points="163.09 189.97 156.07 183.69 163.41 189.59 163.09 189.97" style="fill: #fff"/>
    <polygon points="161.31 191.67 156.05 186.69 161.64 191.3 161.31 191.67" style="fill: #fff"/>
    <polygon points="178.02 173.69 172.16 168.18 178.35 173.31 178.02 173.69" style="fill: #fff"/>
    <polygon points="179.34 172.25 174.92 167.85 179.67 171.88 179.34 172.25" style="fill: #fff"/>
    <g>
      <polygon points="142.14 176.28 137.22 171.88 142.46 175.9 142.14 176.28" style="fill: #fff"/>
      <polygon points="140.5 178.06 136.55 174.28 140.83 177.68 140.5 178.06" style="fill: #fff"/>
      <polygon points="138.55 179.78 134.67 175.87 138.89 179.41 138.55 179.78" style="fill: #fff"/>
      <polygon points="136.92 181.81 133.71 178.52 137.26 181.45 136.92 181.81" style="fill: #fff"/>
      <polygon points="135.53 183.51 130.58 179.09 135.84 183.13 135.53 183.51" style="fill: #fff"/>
      <polygon points="133.88 185.29 130.65 182.13 134.21 184.91 133.88 185.29" style="fill: #fff"/>
      <polygon points="131.94 187 128.84 183.82 132.27 186.64 131.94 187" style="fill: #fff"/>
      <polygon points="130.31 189.04 128.25 186.81 130.64 188.68 130.31 189.04" style="fill: #fff"/>
      <polygon points="128.65 190.94 124.14 186.88 128.96 190.55 128.65 190.94" style="fill: #fff"/>
      <polygon points="127 192.72 123.8 189.58 127.33 192.34 127 192.72" style="fill: #fff"/>
      <polygon points="125.05 194.43 120.72 190.11 125.39 194.06 125.05 194.43" style="fill: #fff"/>
      <polygon points="123.42 196.47 117.58 190.76 123.76 196.1 123.42 196.47" style="fill: #fff"/>
      <polygon points="121.98 198.22 117.08 193.84 122.3 197.84 121.98 198.22" style="fill: #fff"/>
      <polygon points="120.34 200 116.01 195.89 120.67 199.63 120.34 200" style="fill: #fff"/>
      <polygon points="118.39 201.72 113.31 196.72 118.73 201.35 118.39 201.72" style="fill: #fff"/>
      <polygon points="116.76 203.76 112.92 199.89 117.1 203.39 116.76 203.76" style="fill: #fff"/>
      <polygon points="114.99 205.71 109.77 201.06 115.31 205.32 114.99 205.71" style="fill: #fff"/>
      <polygon points="113.34 207.49 109.68 203.95 113.67 207.11 113.34 207.49" style="fill: #fff"/>
      <polygon points="111.9 209.66 107.52 205.3 112.24 209.3 111.9 209.66" style="fill: #fff"/>
      <polygon points="109.77 211.24 106.55 207.95 110.11 210.87 109.77 211.24" style="fill: #fff"/>
      <polygon points="108.37 212.94 103.43 208.52 108.69 212.55 108.37 212.94" style="fill: #fff"/>
      <polygon points="106.73 214.72 100.46 208.91 107.06 214.34 106.73 214.72" style="fill: #fff"/>
      <polygon points="105.16 216.78 101.69 213.25 105.5 216.41 105.16 216.78" style="fill: #fff"/>
      <polygon points="103.43 218.72 101.37 216.49 103.77 218.35 103.43 218.72" style="fill: #fff"/>
      <polygon points="101.75 220.58 96.98 216.31 102.07 220.19 101.75 220.58" style="fill: #fff"/>
      <polygon points="100.19 222.43 96.64 219.01 100.51 222.06 100.19 222.43" style="fill: #fff"/>
      <polygon points="98.4 224.44 94.92 220.91 98.74 224.08 98.4 224.44" style="fill: #fff"/>
      <polygon points="96.81 226.52 94.33 223.9 97.15 226.15 96.81 226.52" style="fill: #fff"/>
      <polygon points="95.02 228.27 90.22 223.97 95.34 227.88 95.02 228.27" style="fill: #fff"/>
      <polygon points="93.46 230.13 89.57 226.4 93.79 229.75 93.46 230.13" style="fill: #fff"/>
      <polygon points="158.75 158.53 151.9 152.49 159.07 158.14 158.75 158.53" style="fill: #fff"/>
      <polygon points="157.24 160.45 150.56 154.27 157.57 160.07 157.24 160.45" style="fill: #fff"/>
      <polygon points="155.26 162.18 150.17 157.17 155.6 161.81 155.26 162.18" style="fill: #fff"/>
      <polygon points="153.76 164.34 149.26 159.86 154.1 163.97 153.76 164.34" style="fill: #fff"/>
      <polygon points="152.1 165.72 146.04 160.35 152.42 165.34 152.1 165.72" style="fill: #fff"/>
      <polygon points="150.54 167.61 142.98 160.65 150.87 167.23 150.54 167.61" style="fill: #fff"/>
      <polygon points="148.66 169.43 144.39 165.16 149 169.06 148.66 169.43" style="fill: #fff"/>
      <polygon points="146.85 171.3 143.87 168.22 147.19 170.93 146.85 171.3" style="fill: #fff"/>
      <polygon points="145.49 173.38 139.62 168.16 145.81 172.99 145.49 173.38" style="fill: #fff"/>
      <polygon points="143.73 175.1 139.36 170.93 144.06 174.72 143.73 175.1" style="fill: #fff"/>
      <polygon points="160.43 157.09 155.56 152.5 160.75 156.72 160.43 157.09" style="fill: #fff"/>
      <polygon points="161.74 155.65 158.09 151.96 162.08 155.29 161.74 155.65" style="fill: #fff"/>
    </g>
    <polygon points="125.68 160.98 119.79 155.69 126 160.6 125.68 160.98" style="fill: #fff"/>
    <polygon points="124.04 162.76 119.29 158.24 124.37 162.38 124.04 162.76" style="fill: #fff"/>
    <polygon points="122.05 164.44 117.36 159.79 122.39 164.07 122.05 164.44" style="fill: #fff"/>
    <polygon points="120.45 166.5 116.56 162.59 120.79 166.13 120.45 166.5" style="fill: #fff"/>
    <polygon points="119.07 168.21 113.15 162.9 119.39 167.83 119.07 168.21" style="fill: #fff"/>
    <polygon points="117.43 169.99 113.53 166.22 117.76 169.61 117.43 169.99" style="fill: #fff"/>
    <polygon points="115.44 171.67 111.69 167.88 115.78 171.3 115.44 171.67" style="fill: #fff"/>
    <polygon points="113.84 173.73 111.34 171.09 114.18 173.37 113.84 173.73" style="fill: #fff"/>
    <polygon points="112.18 175.63 106.78 170.76 112.51 175.25 112.18 175.63" style="fill: #fff"/>
    <polygon points="110.54 177.41 106.68 173.67 110.87 177.03 110.54 177.41" style="fill: #fff"/>
    <polygon points="108.56 179.09 103.33 173.95 108.89 178.72 108.56 179.09" style="fill: #fff"/>
    <polygon points="106.95 181.15 99.9 174.33 107.29 180.79 106.95 181.15" style="fill: #fff"/>
    <polygon points="105.52 182.92 99.65 177.65 105.84 182.54 105.52 182.92" style="fill: #fff"/>
    <polygon points="103.88 184.7 98.67 179.78 104.21 184.32 103.88 184.7" style="fill: #fff"/>
    <polygon points="101.89 186.38 95.77 180.41 102.23 186.01 101.89 186.38" style="fill: #fff"/>
    <polygon points="100.29 188.44 95.64 183.84 100.63 188.08 100.29 188.44" style="fill: #fff"/>
    <polygon points="98.52 190.39 92.27 184.8 98.84 190.01 98.52 190.39" style="fill: #fff"/>
    <polygon points="96.88 192.17 92.46 187.95 97.21 191.8 96.88 192.17" style="fill: #fff"/>
    <polygon points="95.49 194.41 90.2 189.21 95.83 194.04 95.49 194.41" style="fill: #fff"/>
    <polygon points="93.28 195.92 89.39 192 93.62 195.55 93.28 195.92" style="fill: #fff"/>
    <polygon points="91.91 197.63 85.99 192.31 92.23 197.24 91.91 197.63" style="fill: #fff"/>
    <polygon points="90.27 199.41 82.73 192.44 90.6 199.03 90.27 199.41" style="fill: #fff"/>
    <polygon points="88.73 201.51 84.53 197.3 89.07 201.14 88.73 201.51" style="fill: #fff"/>
    <polygon points="87 203.45 84.5 200.81 87.34 203.08 87 203.45" style="fill: #fff"/>
    <polygon points="85.32 205.31 79.62 200.17 85.65 204.92 85.32 205.31" style="fill: #fff"/>
    <polygon points="83.78 207.18 79.51 203.09 84.11 206.8 83.78 207.18" style="fill: #fff"/>
    <polygon points="82 209.2 77.79 204.99 82.34 208.83 82 209.2" style="fill: #fff"/>
    <polygon points="80.44 211.3 77.44 208.2 80.78 210.94 80.44 211.3" style="fill: #fff"/>
    <polygon points="78.63 213.03 72.89 207.86 78.96 212.65 78.63 213.03" style="fill: #fff"/>
    <polygon points="77.09 214.91 72.41 210.46 77.42 214.53 77.09 214.91" style="fill: #fff"/>
    <polygon points="142.33 143.25 134.13 135.99 142.65 142.87 142.33 143.25" style="fill: #fff"/>
    <polygon points="140.84 145.2 132.82 137.79 141.17 144.83 140.84 145.2" style="fill: #fff"/>
    <polygon points="138.82 146.9 132.68 140.91 139.16 146.53 138.82 146.9" style="fill: #fff"/>
    <polygon points="137.38 149.11 131.94 143.77 137.72 148.74 137.38 149.11" style="fill: #fff"/>
    <polygon points="135.67 150.45 128.42 143.98 136 150.07 135.67 150.45" style="fill: #fff"/>
    <polygon points="134.14 152.35 125.06 144 134.47 151.98 134.14 152.35" style="fill: #fff"/>
    <polygon points="132.24 154.15 127.07 149.06 132.57 153.78 132.24 154.15" style="fill: #fff"/>
    <polygon points="130.41 156.01 126.8 152.36 130.75 155.64 130.41 156.01" style="fill: #fff"/>
    <polygon points="129.11 158.14 122.08 151.86 129.43 157.76 129.11 158.14" style="fill: #fff"/>
    <polygon points="127.33 159.84 122.07 154.86 127.66 159.47 127.33 159.84" style="fill: #fff"/>
    <polygon points="144.04 141.86 138.18 136.35 144.37 141.48 144.04 141.86" style="fill: #fff"/>
    <polygon points="145.35 140.42 140.94 136.02 145.69 140.05 145.35 140.42" style="fill: #fff"/>
    <line x1="186.08" y1="135.78" x2="200.24" y2="148.76" style="fill: none;stroke: #fff;stroke-miterlimit: 10;stroke-width: 0.25px"/>
    <line x1="188.62" y1="133.6" x2="202.23" y2="146.08" style="fill: none;stroke: #fff;stroke-miterlimit: 10;stroke-width: 0.25px"/>
    <line x1="187.11" y1="134.46" x2="201.52" y2="147.67" style="fill: none;stroke: #fff;stroke-miterlimit: 10;stroke-width: 0.25px"/>
    <line x1="190.79" y1="131.18" x2="204.41" y2="143.66" style="fill: none;stroke: #fff;stroke-miterlimit: 10;stroke-width: 0.25px"/>
    <line x1="189.29" y1="132.04" x2="203.7" y2="145.25" style="fill: none;stroke: #fff;stroke-miterlimit: 10;stroke-width: 0.25px"/>
    <line x1="193.03" y1="128.77" x2="206.65" y2="141.25" style="fill: none;stroke: #fff;stroke-miterlimit: 10;stroke-width: 0.25px"/>
    <line x1="191.52" y1="129.63" x2="205.93" y2="142.84" style="fill: none;stroke: #fff;stroke-miterlimit: 10;stroke-width: 0.25px"/>
    <line x1="195.3" y1="126.37" x2="208.92" y2="138.86" style="fill: none;stroke: #fff;stroke-miterlimit: 10;stroke-width: 0.25px"/>
    <line x1="193.79" y1="127.24" x2="208.2" y2="140.45" style="fill: none;stroke: #fff;stroke-miterlimit: 10;stroke-width: 0.25px"/>
    <line x1="197.48" y1="123.95" x2="211.1" y2="136.44" style="fill: none;stroke: #fff;stroke-miterlimit: 10;stroke-width: 0.25px"/>
    <line x1="195.97" y1="124.82" x2="210.38" y2="138.03" style="fill: none;stroke: #fff;stroke-miterlimit: 10;stroke-width: 0.25px"/>
    <line x1="174.76" y1="147.66" x2="189.41" y2="161.09" style="fill: none;stroke: #fff;stroke-miterlimit: 10;stroke-width: 0.25px"/>
    <line x1="177.3" y1="145.49" x2="191.4" y2="158.41" style="fill: none;stroke: #fff;stroke-miterlimit: 10;stroke-width: 0.25px"/>
    <line x1="175.78" y1="146.34" x2="190.7" y2="160.01" style="fill: none;stroke: #fff;stroke-miterlimit: 10;stroke-width: 0.25px"/>
    <line x1="179.48" y1="143.06" x2="193.57" y2="155.98" style="fill: none;stroke: #fff;stroke-miterlimit: 10;stroke-width: 0.25px"/>
    <line x1="177.96" y1="143.91" x2="192.87" y2="157.59" style="fill: none;stroke: #fff;stroke-miterlimit: 10;stroke-width: 0.25px"/>
    <line x1="181.71" y1="140.65" x2="195.81" y2="153.57" style="fill: none;stroke: #fff;stroke-miterlimit: 10;stroke-width: 0.25px"/>
    <line x1="180.19" y1="141.5" x2="195.11" y2="155.17" style="fill: none;stroke: #fff;stroke-miterlimit: 10;stroke-width: 0.25px"/>
    <line x1="183.99" y1="138.26" x2="198.08" y2="151.18" style="fill: none;stroke: #fff;stroke-miterlimit: 10;stroke-width: 0.25px"/>
    <line x1="182.47" y1="139.11" x2="197.38" y2="152.78" style="fill: none;stroke: #fff;stroke-miterlimit: 10;stroke-width: 0.25px"/>
    <line x1="184.64" y1="136.69" x2="199.56" y2="150.36" style="fill: none;stroke: #fff;stroke-miterlimit: 10;stroke-width: 0.25px"/>
    <line x1="168.1" y1="154.8" x2="182.2" y2="167.72" style="fill: none;stroke: #fff;stroke-miterlimit: 10;stroke-width: 0.25px"/>
    <line x1="170.34" y1="152.39" x2="184.43" y2="165.31" style="fill: none;stroke: #fff;stroke-miterlimit: 10;stroke-width: 0.25px"/>
    <line x1="168.81" y1="153.24" x2="183.73" y2="166.91" style="fill: none;stroke: #fff;stroke-miterlimit: 10;stroke-width: 0.25px"/>
    <line x1="172.61" y1="150" x2="186.7" y2="162.92" style="fill: none;stroke: #fff;stroke-miterlimit: 10;stroke-width: 0.25px"/>
    <line x1="171.09" y1="150.85" x2="186" y2="164.52" style="fill: none;stroke: #fff;stroke-miterlimit: 10;stroke-width: 0.25px"/>
    <line x1="173.26" y1="148.43" x2="188.18" y2="162.1" style="fill: none;stroke: #fff;stroke-miterlimit: 10;stroke-width: 0.25px"/>
    <line x1="148.99" y1="108.58" x2="163.15" y2="121.55" style="fill: none;stroke: #fff;stroke-miterlimit: 10;stroke-width: 0.25px"/>
    <line x1="151.53" y1="106.39" x2="165.15" y2="118.88" style="fill: none;stroke: #fff;stroke-miterlimit: 10;stroke-width: 0.25px"/>
    <line x1="150.02" y1="107.26" x2="164.43" y2="120.47" style="fill: none;stroke: #fff;stroke-miterlimit: 10;stroke-width: 0.25px"/>
    <line x1="153.71" y1="103.97" x2="167.32" y2="116.45" style="fill: none;stroke: #fff;stroke-miterlimit: 10;stroke-width: 0.25px"/>
    <line x1="152.2" y1="104.84" x2="166.61" y2="118.04" style="fill: none;stroke: #fff;stroke-miterlimit: 10;stroke-width: 0.25px"/>
    <line x1="155.94" y1="101.56" x2="169.56" y2="114.04" style="fill: none;stroke: #fff;stroke-miterlimit: 10;stroke-width: 0.25px"/>
    <line x1="154.43" y1="102.42" x2="168.84" y2="115.63" style="fill: none;stroke: #fff;stroke-miterlimit: 10;stroke-width: 0.25px"/>
    <line x1="158.21" y1="99.17" x2="171.83" y2="111.65" style="fill: none;stroke: #fff;stroke-miterlimit: 10;stroke-width: 0.25px"/>
    <line x1="156.7" y1="100.03" x2="170.45" y2="112.64" style="fill: none;stroke: #fff;stroke-miterlimit: 10;stroke-width: 0.25px"/>
    <line x1="158.88" y1="97.61" x2="173.29" y2="110.82" style="fill: none;stroke: #fff;stroke-miterlimit: 10;stroke-width: 0.25px"/>
    <line x1="137.67" y1="120.45" x2="151.74" y2="133.35" style="fill: none;stroke: #fff;stroke-miterlimit: 10;stroke-width: 0.25px"/>
    <line x1="140.21" y1="118.28" x2="154.31" y2="131.2" style="fill: none;stroke: #fff;stroke-miterlimit: 10;stroke-width: 0.25px"/>
    <line x1="138.69" y1="119.13" x2="153" y2="132.25" style="fill: none;stroke: #fff;stroke-miterlimit: 10;stroke-width: 0.25px"/>
    <line x1="142.39" y1="115.86" x2="156.49" y2="128.78" style="fill: none;stroke: #fff;stroke-miterlimit: 10;stroke-width: 0.25px"/>
    <line x1="140.21" y1="116.2" x2="155.13" y2="129.87" style="fill: none;stroke: #fff;stroke-miterlimit: 10;stroke-width: 0.25px"/>
    <line x1="144.63" y1="113.44" x2="158.72" y2="126.36" style="fill: none;stroke: #fff;stroke-miterlimit: 10;stroke-width: 0.25px"/>
    <line x1="143.1" y1="114.29" x2="157.38" y2="127.38" style="fill: none;stroke: #fff;stroke-miterlimit: 10;stroke-width: 0.25px"/>
    <line x1="146.9" y1="111.05" x2="160.99" y2="123.97" style="fill: none;stroke: #fff;stroke-miterlimit: 10;stroke-width: 0.25px"/>
    <line x1="145.38" y1="111.91" x2="159.56" y2="124.9" style="fill: none;stroke: #fff;stroke-miterlimit: 10;stroke-width: 0.25px"/>
    <line x1="147.55" y1="109.48" x2="161.71" y2="122.45" style="fill: none;stroke: #fff;stroke-miterlimit: 10;stroke-width: 0.25px"/>
    <line x1="135.52" y1="122.79" x2="149.62" y2="135.71" style="fill: none;stroke: #fff;stroke-miterlimit: 10;stroke-width: 0.25px"/>
    <line x1="134" y1="123.65" x2="148.91" y2="137.32" style="fill: none;stroke: #fff;stroke-miterlimit: 10;stroke-width: 0.25px"/>
    <line x1="136.18" y1="121.22" x2="151.09" y2="134.9" style="fill: none;stroke: #fff;stroke-miterlimit: 10;stroke-width: 0.25px"/>
    <line x1="161.97" y1="92.12" x2="176.79" y2="105.57" style="fill: none;stroke: #fff;stroke-miterlimit: 10;stroke-width: 0.25px"/>
    <polygon points="97.06 235.93 101 239.7 96.9 236.11 97.06 235.93" style="fill: #fff"/>
    <line x1="96.12" y1="238.06" x2="105.41" y2="246.23" style="fill: none;stroke: #fff;stroke-miterlimit: 10;stroke-width: 0.25px"/>
    <line x1="95.06" y1="239.92" x2="103.52" y2="247.35" style="fill: none;stroke: #fff;stroke-miterlimit: 10;stroke-width: 0.5px"/>
    <line x1="93.6" y1="241.79" x2="101.94" y2="249.11" style="fill: none;stroke: #fff;stroke-miterlimit: 10;stroke-width: 0.5px"/>
    <line x1="92.15" y1="243.93" x2="99.92" y2="250.76" style="fill: none;stroke: #fff;stroke-miterlimit: 10;stroke-width: 0.75px"/>
    <line x1="89.84" y1="245.65" x2="97.36" y2="252.26" style="fill: none;stroke: #fff;stroke-miterlimit: 10"/>
    <line x1="88.76" y1="248.6" x2="95.08" y2="254.15" style="fill: none;stroke: #fff;stroke-miterlimit: 10"/>
    <line x1="86.89" y1="250.59" x2="93.28" y2="256.2" style="fill: none;stroke: #fff;stroke-miterlimit: 10"/>
    <line x1="85.36" y1="253.15" x2="90.93" y2="258.05" style="fill: none;stroke: #fff;stroke-miterlimit: 10;stroke-width: 1.5px"/>
    <line x1="83.64" y1="255.49" x2="88.4" y2="259.68" style="fill: none;stroke: #fff;stroke-miterlimit: 10;stroke-width: 1.5px"/>
    <line x1="81.72" y1="257.8" x2="86.36" y2="261.88" style="fill: none;stroke: #fff;stroke-miterlimit: 10;stroke-width: 1.5px"/>
    <line x1="79.77" y1="260.41" x2="83.79" y2="263.95" style="fill: none;stroke: #fff;stroke-miterlimit: 10;stroke-width: 2px"/>
    <line x1="77.78" y1="262.92" x2="81.09" y2="265.83" style="fill: none;stroke: #fff;stroke-miterlimit: 10;stroke-width: 2px"/>
    <line x1="75.84" y1="265.6" x2="79.15" y2="268.51" style="fill: none;stroke: #fff;stroke-miterlimit: 10;stroke-width: 2px"/>
    <polygon points="102.99 241.53 107.1 245.12 106.93 245.31 102.99 241.53" style="fill: #fff"/>
    <polygon points="80.18 220.7 84.11 224.48 80.01 220.88 80.18 220.7" style="fill: #fff"/>
    <line x1="79.23" y1="222.83" x2="88.53" y2="231" style="fill: none;stroke: #fff;stroke-miterlimit: 10;stroke-width: 0.25px"/>
    <line x1="78.17" y1="224.69" x2="86.63" y2="232.12" style="fill: none;stroke: #fff;stroke-miterlimit: 10;stroke-width: 0.5px"/>
    <line x1="76.71" y1="226.56" x2="85.05" y2="233.89" style="fill: none;stroke: #fff;stroke-miterlimit: 10;stroke-width: 0.5px"/>
    <line x1="75.26" y1="228.71" x2="83.04" y2="235.53" style="fill: none;stroke: #fff;stroke-miterlimit: 10;stroke-width: 0.75px"/>
    <line x1="72.95" y1="230.42" x2="80.48" y2="237.04" style="fill: none;stroke: #fff;stroke-miterlimit: 10"/>
    <line x1="71.88" y1="233.37" x2="78.19" y2="238.92" style="fill: none;stroke: #fff;stroke-miterlimit: 10"/>
    <line x1="70" y1="235.36" x2="76.39" y2="240.97" style="fill: none;stroke: #fff;stroke-miterlimit: 10"/>
    <line x1="68.47" y1="237.93" x2="74.04" y2="242.83" style="fill: none;stroke: #fff;stroke-miterlimit: 10;stroke-width: 1.5px"/>
    <line x1="66.75" y1="240.26" x2="71.51" y2="244.45" style="fill: none;stroke: #fff;stroke-miterlimit: 10;stroke-width: 1.5px"/>
    <line x1="64.83" y1="242.57" x2="69.47" y2="246.65" style="fill: none;stroke: #fff;stroke-miterlimit: 10;stroke-width: 1.5px"/>
    <line x1="62.88" y1="245.19" x2="66.9" y2="248.72" style="fill: none;stroke: #fff;stroke-miterlimit: 10;stroke-width: 2px"/>
    <line x1="60.89" y1="247.69" x2="64.2" y2="250.6" style="fill: none;stroke: #fff;stroke-miterlimit: 10;stroke-width: 2px"/>
    <line x1="58.95" y1="250.38" x2="62.26" y2="253.29" style="fill: none;stroke: #fff;stroke-miterlimit: 10;stroke-width: 2px"/>
    <polygon points="86.1 226.3 90.21 229.9 90.04 230.08 86.1 226.3" style="fill: #fff"/>
    <polygon points="63 205.32 66.94 209.1 62.83 205.51 63 205.32" style="fill: #fff"/>
    <line x1="62.05" y1="207.46" x2="71.35" y2="215.63" style="fill: none;stroke: #fff;stroke-miterlimit: 10;stroke-width: 0.25px"/>
    <line x1="60.99" y1="209.31" x2="69.45" y2="216.74" style="fill: none;stroke: #fff;stroke-miterlimit: 10;stroke-width: 0.5px"/>
    <line x1="59.53" y1="211.19" x2="67.87" y2="218.51" style="fill: none;stroke: #fff;stroke-miterlimit: 10;stroke-width: 0.5px"/>
    <line x1="58.09" y1="213.33" x2="65.86" y2="220.16" style="fill: none;stroke: #fff;stroke-miterlimit: 10;stroke-width: 0.75px"/>
    <line x1="55.77" y1="215.05" x2="63.3" y2="221.66" style="fill: none;stroke: #fff;stroke-miterlimit: 10"/>
    <line x1="54.7" y1="218" x2="61.02" y2="223.55" style="fill: none;stroke: #fff;stroke-miterlimit: 10"/>
    <line x1="52.82" y1="219.98" x2="59.21" y2="225.6" style="fill: none;stroke: #fff;stroke-miterlimit: 10"/>
    <line x1="51.29" y1="222.55" x2="56.86" y2="227.45" style="fill: none;stroke: #fff;stroke-miterlimit: 10;stroke-width: 1.5px"/>
    <line x1="49.57" y1="224.89" x2="54.33" y2="229.07" style="fill: none;stroke: #fff;stroke-miterlimit: 10;stroke-width: 1.5px"/>
    <line x1="47.65" y1="227.2" x2="52.29" y2="231.28" style="fill: none;stroke: #fff;stroke-miterlimit: 10;stroke-width: 1.5px"/>
    <line x1="45.7" y1="229.81" x2="49.72" y2="233.35" style="fill: none;stroke: #fff;stroke-miterlimit: 10;stroke-width: 2px"/>
    <line x1="43.71" y1="232.31" x2="47.02" y2="235.23" style="fill: none;stroke: #fff;stroke-miterlimit: 10;stroke-width: 2px"/>
    <line x1="41.77" y1="235" x2="45.08" y2="237.91" style="fill: none;stroke: #fff;stroke-miterlimit: 10;stroke-width: 2px"/>
    <polygon points="68.93 210.93 73.03 214.52 72.86 214.71 68.93 210.93" style="fill: #fff"/>
  </g>
</svg>
