<svg id="first-telescope"  xmlns="http://www.w3.org/2000/svg" viewBox="0 0 300 300">
  <g id="telescope">
    <g id="outlines">
      <path d="M80.83,68.6a2.45,2.45,0,0,1,3.54.1L241.05,235.41a.88.88,0,0,0,1,.15,11.26,11.26,0,0,0,4.44-3.77.89.89,0,0,0-.09-1.11L89.06,62.8a2.3,2.3,0,0,1-.18-2.94h0a.75.75,0,0,0-.12-1l-4.25-3.59a.87.87,0,0,0-1.16-.07A51,51,0,0,0,75.58,63a.87.87,0,0,0,.06,1.16l4.47,4.47a.51.51,0,0,0,.72,0Z" style="fill: none;stroke: #fff;stroke-miterlimit: 10;stroke-width: 2px"/>
      <path d="M148.39,126.06V111.5s0-2.16.13-3.78.62-1.23,1.44-3.29c.74-1.86-1.69-60.26-2.15-71.19a6.94,6.94,0,0,1,.39-2.71c.24-.66.34-1.4-.47-1.4l-4.07,0c-.89,0-.83.76-.61,1.43a8,8,0,0,1,.33,2.88c-.63,11.34-3.83,69.6-2.84,71.39,1.1,2,1.3,1.17,1.3,3.43s.08,3.56.08,3.56v7.54" style="fill: none;stroke: #fff;stroke-miterlimit: 10;stroke-width: 2px"/>
      <path d="M145.71,29s1.16-12.84-7.2-12.84S132.08,27.64,137,27.64s4.73-7.06,1.47-7.06-2,3.46-1,3.46" style="fill: none;stroke: #fff;stroke-linecap: round;stroke-miterlimit: 10;stroke-width: 2px"/>
      <path d="M145.82,28.8S144.65,16,153,16s6.44,11.51,1.47,11.51-4.72-7.06-1.47-7.06,2.05,3.46,1,3.46" style="fill: none;stroke: #fff;stroke-linecap: round;stroke-miterlimit: 10;stroke-width: 2px"/>
      <path d="M145.76,9.21a2.47,2.47,0,0,1,2.07,1.42c1.69-1.7,3.8.23,4.92,1.55a.72.72,0,0,1-.43,1.16c-4.14.86-5.82,6.05-6.35,8.24a.21.21,0,0,1-.41,0c-.55-2.25-2.31-7.68-6.72-8.3a.5.5,0,0,1-.31-.8c1-1.3,3.34-3.68,5.16-1.85A2.48,2.48,0,0,1,145.76,9.21Z" style="fill: none;stroke: #fff;stroke-miterlimit: 10;stroke-width: 2px"/>
      <path d="M141.71,177.87v-8a.57.57,0,0,0-.84-.5,5.33,5.33,0,0,1-4.74.38.88.88,0,0,1-.09-1.56,9.89,9.89,0,0,0,5.05-8.45c0-6.58-13.91-9.52-13.91-17.13,0-6.64,5.54-9.67,6.94-10.34a.08.08,0,0,0,0-.16c-1.39-.12-6.36-.9-6.36-5.73,0-5.62,4.18-6.6,4.18-6.6" style="fill: none;stroke: #fff;stroke-miterlimit: 10;stroke-width: 2px"/>
      <path d="M164.46,143.27c.6-5.28-3.21-9.94-9.46-10.94-.09,0-.06-.16,0-.17,1.39-.13,7.76-1.86,7.76-6.69,0-2.31-.65-6.17-4.93-6.17s-4.16,2.88-4.16,4.78c0,5.14,4.95,3.13,4.95.36" style="fill: none;stroke: #fff;stroke-linecap: round;stroke-miterlimit: 10;stroke-width: 2px"/>
      <path d="M147.41,177.87v-8a.57.57,0,0,1,.84-.5,5.33,5.33,0,0,0,4.74.38.88.88,0,0,0,.09-1.56,9.89,9.89,0,0,1-5.05-8.45c0-4.69,7.05-7.53,11.11-11.53" style="fill: none;stroke: #fff;stroke-miterlimit: 10;stroke-width: 2px"/>
      <path d="M133.11,123.67s-.82,1.9.26,2.72,4.16.58,4.16-1.12" style="fill: none;stroke: #fff;stroke-linecap: round;stroke-miterlimit: 10;stroke-width: 2px"/>
      <path d="M141.71,129.92v19.72a1.36,1.36,0,0,1-2.05,1.17c-3.49-2.05-9.89-6.69-6.52-11.5a56.25,56.25,0,0,1,8.44-9.44A.07.07,0,0,1,141.71,129.92Z" style="fill: none;stroke: #fff;stroke-linecap: round;stroke-miterlimit: 10;stroke-width: 2px"/>
      <path d="M148.29,136.72v12.92a1.36,1.36,0,0,0,2.05,1.17,20.8,20.8,0,0,0,6.24-5.27" style="fill: none;stroke: #fff;stroke-linecap: round;stroke-miterlimit: 10;stroke-width: 2px"/>
      <ellipse cx="144.56" cy="216.84" rx="27.83" ry="38.97" style="fill: none;stroke: #fff;stroke-miterlimit: 10;stroke-width: 2px"/>
      <path d="M144.56,246.16c-9.68,0-18.17-13.7-18.17-29.32s8.49-29.31,18.17-29.31,18.17,13.7,18.17,29.31S154.24,246.16,144.56,246.16Z" style="fill: none;stroke: #fff;stroke-miterlimit: 10;stroke-width: 2px"/>
      <path d="M147.89,255.54s-1.31,22.51,5.17,29.34a.83.83,0,0,0,1.21,0c.73-.76,2.38-1.92,5.73-1.92,4.13,0,10,5.35,11.92,7.19a.36.36,0,0,1-.26.62H117.81a.7.7,0,0,1-.56-1.13c1.7-2.2,6-6.82,12.37-6.85,4.15,0,5.31,1.22,5.55,2.27a.87.87,0,0,0,1.43.5c6.52-5.66,4.61-30,4.61-30" style="fill: none;stroke: #fff;stroke-miterlimit: 10;stroke-width: 2px"/>
      <path d="M153,204.35a6.82,6.82,0,0,1,1,2.14c.37,1.6-.32,2.16.2,3.12.34.64.68.44,1.75,1.36A7.43,7.43,0,0,1,158,213.9c.36.93.15,1.11.59,1.94.55,1.06,1,1.07,1.17,1.76s-.35,1-1,2.53a26.06,26.06,0,0,0-.78,2.73c-.5,2-.43,2.14-.78,2.73a7.8,7.8,0,0,1-1.55,1.75c-.51.48-2.09,1.82-1.56,1.37a4.76,4.76,0,0,1-1.76,3.11c-.75.55-1.27.46-1.95,1.17s-.51,1.21-1.17,2.34a5.52,5.52,0,0,1-1.94,2.14,4.38,4.38,0,0,1-3,.75,5.32,5.32,0,0,1-3.75-1.39,46.71,46.71,0,0,1-2.89-4.24c-.16-.29-.68,0-1.83-.47-1.73-.71-1.79-3.36-2.47-4-1-1,.44.57-1-1.13-1-1.17-.67-.84-.83-1.56-.12-.5-.05-.8-.22-1.84a12.54,12.54,0,0,0-.28-1.34,9.11,9.11,0,0,0-1.13-2.76c-.38-.6-.47-.48-.57-.78a2.31,2.31,0,0,1,.57-2.13c.42-.46.67-.34.92-.77s0-.79.28-1.49a3.52,3.52,0,0,1,.64-1.06,8.24,8.24,0,0,1,1.41-1.42,6.8,6.8,0,0,0,.85-.7c.36-.4.37-.56.78-1s.56-.41.64-.63c.16-.47-.38-.73-.64-1.63a3.51,3.51,0,0,1,0-1.77,4.63,4.63,0,0,1,.57-1.34,9.45,9.45,0,0,1,1.06-1.49c.21-.26.73-.91,1.48-1.7.3-.31.52-.54.85-.85a14.45,14.45,0,0,0,1.21-1.06c.52-.64.28-.85.78-1.49a3.8,3.8,0,0,1,1.41-1.06,4.53,4.53,0,0,1,1.63-.42,4.11,4.11,0,0,1,3,.92,4.68,4.68,0,0,1,.92,1c.47.65.37.83.78,1.27s.47.3,1,.78.48.61.92,1.06a12.49,12.49,0,0,0,1.27,1A6.27,6.27,0,0,1,153,204.35Z" style="fill: none;stroke: #fff;stroke-miterlimit: 10;stroke-width: 2px"/>
      <path d="M125.63,211.11a.8.8,0,0,1,.14-1.29,1.15,1.15,0,0,1,1.49.36,1.64,1.64,0,0,1,.12,1.63,2.26,2.26,0,0,1-1.23,1.11,3.69,3.69,0,0,1-1.58.24,2.78,2.78,0,0,1-1.58-.67,4,4,0,0,1-1.35-2.93,3.94,3.94,0,0,1,1.26-3.08,5.16,5.16,0,0,1,3-1.31,3.74,3.74,0,0,1,1.76.23,5.26,5.26,0,0,1,.76.4,5.13,5.13,0,0,1,.65.47,5.48,5.48,0,0,1,1.81,2.7,6.75,6.75,0,0,1,.17,3.17,4.36,4.36,0,0,1-.66,1.58,5.38,5.38,0,0,1-1.08,1.19,5.25,5.25,0,0,1-2.92,1.37,7.71,7.71,0,0,1-3-.39,5.77,5.77,0,0,1-2.58-1.61,6.79,6.79,0,0,1-1.44-2.59,12.09,12.09,0,0,1-.15-5.54,15,15,0,0,0,1.1,5.19,5.1,5.1,0,0,0,3.51,3,7.46,7.46,0,0,0,2.38.17,3.68,3.68,0,0,0,1.86-1,5.37,5.37,0,0,0,.71-.84,2.57,2.57,0,0,0,.36-.92,4.8,4.8,0,0,0-.17-2.21,3.67,3.67,0,0,0-1.15-1.77,4.59,4.59,0,0,0-.44-.33,3.74,3.74,0,0,0-.44-.25,2.16,2.16,0,0,0-.91-.13,3.31,3.31,0,0,0-1.94.74,2.44,2.44,0,0,0-.85,1.76,2.61,2.61,0,0,0,.67,1.95,1.46,1.46,0,0,0,.83.49,2.6,2.6,0,0,0,1.11,0,1.42,1.42,0,0,0,.85-.53,1,1,0,0,0,.1-1,.73.73,0,0,0-.88-.39A.67.67,0,0,0,125.63,211.11Z" style="fill: #fff"/>
      <path d="M125.63,221.76a.65.65,0,0,0,.27,1,.71.71,0,0,0,.88-.38,1,1,0,0,0-.1-1,1.42,1.42,0,0,0-.85-.53,2.6,2.6,0,0,0-1.11,0,1.53,1.53,0,0,0-.83.5,2.61,2.61,0,0,0-.67,1.95,2.44,2.44,0,0,0,.85,1.76,3.31,3.31,0,0,0,1.94.74,2.33,2.33,0,0,0,.91-.13,3.74,3.74,0,0,0,.44-.25,4.59,4.59,0,0,0,.44-.33,3.67,3.67,0,0,0,1.15-1.77,4.8,4.8,0,0,0,.17-2.21,2.57,2.57,0,0,0-.36-.92,5.37,5.37,0,0,0-.71-.84,3.68,3.68,0,0,0-1.86-1,7.46,7.46,0,0,0-2.38.17,5.1,5.1,0,0,0-3.51,3,15,15,0,0,0-1.1,5.19,12.09,12.09,0,0,1,.15-5.54,6.79,6.79,0,0,1,1.44-2.59,5.77,5.77,0,0,1,2.58-1.61,7.71,7.71,0,0,1,3-.39,5.25,5.25,0,0,1,2.92,1.37,5.38,5.38,0,0,1,1.08,1.19,4.36,4.36,0,0,1,.66,1.58,6.76,6.76,0,0,1-.17,3.17,5.48,5.48,0,0,1-1.81,2.7,5.13,5.13,0,0,1-.65.47,5.26,5.26,0,0,1-.76.4,3.74,3.74,0,0,1-1.76.23,5.16,5.16,0,0,1-3-1.31,4,4,0,0,1-1.26-3.08,4,4,0,0,1,1.35-2.93,2.78,2.78,0,0,1,1.58-.67,3.69,3.69,0,0,1,1.58.24,2.22,2.22,0,0,1,1.23,1.11,1.64,1.64,0,0,1-.12,1.63,1.15,1.15,0,0,1-1.49.36A.8.8,0,0,1,125.63,221.76Z" style="fill: #fff"/>
      <path d="M163.55,222.17a.8.8,0,0,1-.14,1.29,1.15,1.15,0,0,1-1.49-.36,1.69,1.69,0,0,1-.12-1.63,2.25,2.25,0,0,1,1.23-1.11,3.71,3.71,0,0,1,1.58-.24,2.75,2.75,0,0,1,1.58.67,4,4,0,0,1,1.35,2.93,4,4,0,0,1-1.25,3.08,5.19,5.19,0,0,1-3,1.31,3.75,3.75,0,0,1-1.76-.23,5.85,5.85,0,0,1-.76-.4,7.11,7.11,0,0,1-.65-.47,5.53,5.53,0,0,1-1.8-2.7,6.51,6.51,0,0,1-.17-3.17,4.52,4.52,0,0,1,.65-1.58,5.64,5.64,0,0,1,1.08-1.19,5.28,5.28,0,0,1,2.93-1.37,7.66,7.66,0,0,1,3,.39A5.86,5.86,0,0,1,168.4,219a6.79,6.79,0,0,1,1.44,2.59,12.38,12.38,0,0,1,.15,5.54,15.26,15.26,0,0,0-1.1-5.19,5.14,5.14,0,0,0-3.52-3,7.43,7.43,0,0,0-2.38-.17,3.61,3.61,0,0,0-1.85,1,5,5,0,0,0-.72.84,2.55,2.55,0,0,0-.35.92,4.54,4.54,0,0,0,.17,2.21,3.65,3.65,0,0,0,1.14,1.77,5,5,0,0,0,.88.58,2.33,2.33,0,0,0,.91.13,3.34,3.34,0,0,0,2-.74,2.48,2.48,0,0,0,.85-1.76,2.66,2.66,0,0,0-.68-1.95,1.53,1.53,0,0,0-.83-.5,2.55,2.55,0,0,0-1.1,0,1.42,1.42,0,0,0-.86.53,1.08,1.08,0,0,0-.1,1,.72.72,0,0,0,.88.38A.64.64,0,0,0,163.55,222.17Z" style="fill: #fff"/>
      <path d="M163.55,211.52a.65.65,0,0,0-.27-1,.72.72,0,0,0-.88.39,1.08,1.08,0,0,0,.1,1,1.42,1.42,0,0,0,.86.53,2.55,2.55,0,0,0,1.1,0,1.52,1.52,0,0,0,.83-.49A2.66,2.66,0,0,0,166,210a2.48,2.48,0,0,0-.85-1.76,3.34,3.34,0,0,0-2-.74,2.16,2.16,0,0,0-.91.13,5,5,0,0,0-.88.58,3.65,3.65,0,0,0-1.14,1.77,4.54,4.54,0,0,0-.17,2.21,2.55,2.55,0,0,0,.35.92,5,5,0,0,0,.72.84,3.61,3.61,0,0,0,1.85,1,7.43,7.43,0,0,0,2.38-.17,5.14,5.14,0,0,0,3.52-3,15.26,15.26,0,0,0,1.1-5.19,12.38,12.38,0,0,1-.15,5.54,6.79,6.79,0,0,1-1.44,2.59,5.86,5.86,0,0,1-2.59,1.61,7.66,7.66,0,0,1-3,.39,5.28,5.28,0,0,1-2.93-1.37,5.64,5.64,0,0,1-1.08-1.19,4.6,4.6,0,0,1-.65-1.58,6.5,6.5,0,0,1,.17-3.17,5.53,5.53,0,0,1,1.8-2.7,7.11,7.11,0,0,1,.65-.47,5.85,5.85,0,0,1,.76-.4,3.75,3.75,0,0,1,1.76-.23,5.19,5.19,0,0,1,3,1.31,3.93,3.93,0,0,1,1.25,3.08,4,4,0,0,1-1.35,2.93,2.75,2.75,0,0,1-1.58.67,3.71,3.71,0,0,1-1.58-.24,2.29,2.29,0,0,1-1.23-1.11,1.69,1.69,0,0,1,.12-1.63,1.15,1.15,0,0,1,1.49-.36A.8.8,0,0,1,163.55,211.52Z" style="fill: #fff"/>
      <path d="M149.89,245.19a.65.65,0,0,0,1-.27.73.73,0,0,0-.38-.88,1.08,1.08,0,0,0-1,.1,1.4,1.4,0,0,0-.53.86,2.56,2.56,0,0,0,0,1.1,1.45,1.45,0,0,0,.5.83,2.66,2.66,0,0,0,1.95.68,2.49,2.49,0,0,0,1.76-.85,3.47,3.47,0,0,0,.74-1.95,2.18,2.18,0,0,0-.14-.91,2.5,2.5,0,0,0-.24-.43,5.22,5.22,0,0,0-.33-.45,3.63,3.63,0,0,0-1.78-1.14,4.63,4.63,0,0,0-2.2-.17,2.55,2.55,0,0,0-.92.35,5,5,0,0,0-.84.72,3.69,3.69,0,0,0-1,1.85,7.23,7.23,0,0,0,.17,2.39,5.1,5.1,0,0,0,3,3.51,15.21,15.21,0,0,0,5.19,1.1,12.28,12.28,0,0,1-5.55-.15,6.75,6.75,0,0,1-2.58-1.44,6,6,0,0,1-1.62-2.59,8,8,0,0,1-.39-3,5.42,5.42,0,0,1,1.37-2.93,6,6,0,0,1,1.2-1.08,4.52,4.52,0,0,1,1.58-.65A6.63,6.63,0,0,1,152,240a5.53,5.53,0,0,1,2.7,1.8,7.11,7.11,0,0,1,.47.65,5.85,5.85,0,0,1,.4.76,4,4,0,0,1,.23,1.76,5.14,5.14,0,0,1-1.32,3,3.93,3.93,0,0,1-3.07,1.25,4,4,0,0,1-2.93-1.35,2.75,2.75,0,0,1-.67-1.58,3.64,3.64,0,0,1,.23-1.57,2.28,2.28,0,0,1,1.12-1.23,1.66,1.66,0,0,1,1.63.11,1.16,1.16,0,0,1,.36,1.5A.8.8,0,0,1,149.89,245.19Z" style="fill: #fff"/>
      <path d="M139.23,245.19a.79.79,0,0,1-1.28-.13,1.16,1.16,0,0,1,.36-1.5,1.66,1.66,0,0,1,1.63-.11,2.3,2.3,0,0,1,1.11,1.23,3.5,3.5,0,0,1,.23,1.57,2.75,2.75,0,0,1-.67,1.58,4,4,0,0,1-2.93,1.35,3.93,3.93,0,0,1-3.07-1.25,5.2,5.2,0,0,1-1.32-3,3.91,3.91,0,0,1,.24-1.76,4.83,4.83,0,0,1,.4-.76,7.11,7.11,0,0,1,.47-.65,5.46,5.46,0,0,1,2.69-1.8,6.64,6.64,0,0,1,3.17-.17,4.57,4.57,0,0,1,1.59.65,5.92,5.92,0,0,1,1.19,1.08,5.28,5.28,0,0,1,1.37,2.93,7.82,7.82,0,0,1-.39,3A5.88,5.88,0,0,1,142.4,250a6.75,6.75,0,0,1-2.58,1.44,12.23,12.23,0,0,1-5.54.15,15.15,15.15,0,0,0,5.18-1.1,5.1,5.1,0,0,0,3-3.51,7.23,7.23,0,0,0,.17-2.39,3.61,3.61,0,0,0-1-1.85,4.55,4.55,0,0,0-.83-.72,2.53,2.53,0,0,0-.93-.35,4.63,4.63,0,0,0-2.2.17A3.61,3.61,0,0,0,135.9,243a3.72,3.72,0,0,0-.33.45,2.68,2.68,0,0,0-.25.43,2.18,2.18,0,0,0-.13.91,3.34,3.34,0,0,0,.74,1.95,2.48,2.48,0,0,0,1.76.85,2.66,2.66,0,0,0,1.95-.68,1.48,1.48,0,0,0,.49-.83,2.55,2.55,0,0,0,0-1.1,1.45,1.45,0,0,0-.53-.86,1.1,1.1,0,0,0-1-.1.73.73,0,0,0-.38.88A.65.65,0,0,0,139.23,245.19Z" style="fill: #fff"/>
      <path d="M139.23,188.23a.65.65,0,0,0-1,.27.73.73,0,0,0,.38.88,1.1,1.1,0,0,0,1-.1,1.45,1.45,0,0,0,.53-.86,2.55,2.55,0,0,0,0-1.1,1.48,1.48,0,0,0-.49-.83,2.66,2.66,0,0,0-1.95-.68,2.48,2.48,0,0,0-1.76.85,3.34,3.34,0,0,0-.74,2,2.18,2.18,0,0,0,.13.91,2.68,2.68,0,0,0,.25.43,3.72,3.72,0,0,0,.33.45,3.61,3.61,0,0,0,1.77,1.14,4.63,4.63,0,0,0,2.2.17,2.53,2.53,0,0,0,.93-.35,4.55,4.55,0,0,0,.83-.72,3.61,3.61,0,0,0,1-1.85,7.23,7.23,0,0,0-.17-2.39,5.1,5.1,0,0,0-3-3.51,15.15,15.15,0,0,0-5.18-1.1,12.23,12.23,0,0,1,5.54.15,6.75,6.75,0,0,1,2.58,1.44A5.88,5.88,0,0,1,144,186a7.82,7.82,0,0,1,.39,3,5.28,5.28,0,0,1-1.37,2.93,5.92,5.92,0,0,1-1.19,1.08,4.57,4.57,0,0,1-1.59.65,6.64,6.64,0,0,1-3.17-.17,5.46,5.46,0,0,1-2.69-1.8,7.11,7.11,0,0,1-.47-.65,4.83,4.83,0,0,1-.4-.76,3.91,3.91,0,0,1-.24-1.76,5.2,5.2,0,0,1,1.32-3,3.93,3.93,0,0,1,3.07-1.25,4,4,0,0,1,2.93,1.35,2.75,2.75,0,0,1,.67,1.58,3.5,3.5,0,0,1-.23,1.57,2.3,2.3,0,0,1-1.11,1.23,1.66,1.66,0,0,1-1.63-.11,1.16,1.16,0,0,1-.36-1.5A.79.79,0,0,1,139.23,188.23Z" style="fill: #fff"/>
      <path d="M149.89,188.23a.8.8,0,0,1,1.29.13,1.16,1.16,0,0,1-.36,1.5,1.66,1.66,0,0,1-1.63.11,2.28,2.28,0,0,1-1.12-1.23,3.64,3.64,0,0,1-.23-1.57,2.75,2.75,0,0,1,.67-1.58,4,4,0,0,1,2.93-1.35,3.93,3.93,0,0,1,3.07,1.25,5.14,5.14,0,0,1,1.32,3,4,4,0,0,1-.23,1.76,5.85,5.85,0,0,1-.4.76,7.11,7.11,0,0,1-.47.65,5.53,5.53,0,0,1-2.7,1.8,6.63,6.63,0,0,1-3.17.17,4.52,4.52,0,0,1-1.58-.65,6,6,0,0,1-1.2-1.08,5.42,5.42,0,0,1-1.37-2.93,8,8,0,0,1,.39-3,6,6,0,0,1,1.62-2.59,6.75,6.75,0,0,1,2.58-1.44,12.28,12.28,0,0,1,5.55-.15,15.21,15.21,0,0,0-5.19,1.1,5.1,5.1,0,0,0-3,3.51,7.23,7.23,0,0,0-.17,2.39,3.69,3.69,0,0,0,1,1.85,5,5,0,0,0,.84.72,2.55,2.55,0,0,0,.92.35,4.63,4.63,0,0,0,2.2-.17,3.63,3.63,0,0,0,1.78-1.14,5.22,5.22,0,0,0,.33-.45,2.5,2.5,0,0,0,.24-.43,2.18,2.18,0,0,0,.14-.91,3.47,3.47,0,0,0-.74-2,2.49,2.49,0,0,0-1.76-.85,2.66,2.66,0,0,0-1.95.68,1.45,1.45,0,0,0-.5.83,2.56,2.56,0,0,0,0,1.1,1.4,1.4,0,0,0,.53.86,1.08,1.08,0,0,0,1,.1.73.73,0,0,0,.38-.88A.65.65,0,0,0,149.89,188.23Z" style="fill: #fff"/>
    </g>
    <g id="lines">
      <line x1="147.64" y1="198.25" x2="134.34" y2="206.78" style="fill: none;stroke: #fff;stroke-miterlimit: 10;stroke-width: 0.8px"/>
      <line x1="149.26" y1="200.92" x2="135.96" y2="209.45" style="fill: none;stroke: #fff;stroke-miterlimit: 10;stroke-width: 0.8px"/>
      <line x1="147.18" y1="196.74" x2="135.92" y2="203.96" style="fill: none;stroke: #fff;stroke-miterlimit: 10;stroke-width: 0.8px"/>
      <line x1="145.56" y1="196.24" x2="138.43" y2="200.81" style="fill: none;stroke: #fff;stroke-miterlimit: 10;stroke-width: 0.8px"/>
      <line x1="150.56" y1="201.93" x2="131.83" y2="213.99" style="fill: none;stroke: #fff;stroke-miterlimit: 10;stroke-width: 0.8px"/>
      <line x1="153.97" y1="209.07" x2="131.73" y2="223.32" style="fill: none;stroke: #fff;stroke-miterlimit: 10;stroke-width: 0.8px"/>
      <line x1="156.99" y1="212.09" x2="133.44" y2="227.18" style="fill: none;stroke: #fff;stroke-miterlimit: 10;stroke-width: 0.8px"/>
      <line x1="153.15" y1="205.71" x2="130.91" y2="219.96" style="fill: none;stroke: #fff;stroke-miterlimit: 10;stroke-width: 0.8px"/>
      <line x1="157.88" y1="215.72" x2="134.9" y2="230.45" style="fill: none;stroke: #fff;stroke-miterlimit: 10;stroke-width: 0.8px"/>
      <line x1="159.13" y1="218.49" x2="136.89" y2="232.74" style="fill: none;stroke: #fff;stroke-miterlimit: 10;stroke-width: 0.8px"/>
      <line x1="158.56" y1="221.36" x2="138.9" y2="233.96" style="fill: none;stroke: #fff;stroke-miterlimit: 10;stroke-width: 0.8px"/>
      <line x1="157.37" y1="224.02" x2="139.83" y2="235.32" style="fill: none;stroke: #fff;stroke-miterlimit: 10;stroke-width: 0.8px"/>
      <line x1="156.78" y1="226.34" x2="140.61" y2="236.83" style="fill: none;stroke: #fff;stroke-miterlimit: 10;stroke-width: 0.8px"/>
      <line x1="153.82" y1="229.95" x2="141.71" y2="237.76" style="fill: none;stroke: #fff;stroke-miterlimit: 10;stroke-width: 0.8px"/>
      <line x1="149.47" y1="234.54" x2="143.13" y2="238.63" style="fill: none;stroke: #fff;stroke-miterlimit: 10;stroke-width: 0.8px"/>
      <line x1="152.74" y1="202.88" x2="130.5" y2="217.13" style="fill: none;stroke: #fff;stroke-miterlimit: 10;stroke-width: 0.8px"/>
      <line x1="147.99" y1="199.91" x2="134.69" y2="208.43" style="fill: none;stroke: #fff;stroke-miterlimit: 10;stroke-width: 0.8px"/>
      <polygon points="145.67 31.19 145.81 42.17 145.87 53.15 145.85 75.09 145.65 97.04 145.48 108.02 145.23 118.99 145.09 108.01 145.03 97.04 145.05 75.09 145.25 53.14 145.42 42.17 145.67 31.19" style="fill: #fff"/>
      <path d="M143.16,104.33c0-5.39,0-10.77.08-16.16L143.52,72,144,55.87c.19-5.38.4-10.76.69-16.14,0,5.39,0,10.77-.08,16.16L144.32,72l-.47,16.15C143.66,93.57,143.45,99,143.16,104.33Z" style="fill: #fff"/>
      <path d="M146.5,39.73c.29,5.38.49,10.76.69,16.14L147.66,72,148,88.17c.06,5.39.11,10.77.08,16.16-.3-5.38-.5-10.76-.69-16.14L146.86,72l-.29-16.15C146.51,50.5,146.46,45.12,146.5,39.73Z" style="fill: #fff"/>
      <polygon points="85.98 65.27 104.58 84.74 123.09 104.3 160.11 143.41 196.94 182.71 215.35 202.36 233.66 222.1 215.06 202.63 196.55 183.08 159.53 143.96 122.71 104.66 104.3 85.01 85.98 65.27" style="fill: #fff"/>
      <polygon points="87.13 64.46 105.73 83.93 124.25 103.48 161.26 142.6 198.09 181.9 216.5 201.55 234.82 221.29 216.21 201.82 197.7 182.26 160.68 143.15 123.86 103.85 105.45 84.19 87.13 64.46" style="fill: #fff"/>
      <polygon points="85.01 66.34 103.61 85.81 122.12 105.37 159.14 144.48 195.96 183.78 214.37 203.43 232.69 223.17 214.09 203.7 195.58 184.15 158.56 145.03 121.73 105.73 103.33 86.08 85.01 66.34" style="fill: #fff"/>
      <path d="M145,136c.15,3.37.21,6.74.25,10.11s0,6.74,0,10.11-.07,6.74-.15,10.12-.18,6.74-.37,10.11c-.15-3.38-.2-6.75-.25-10.12s0-6.74,0-10.11.06-6.74.15-10.11S144.82,139.4,145,136Z" style="fill: #fff"/>
      <path d="M144.73,257.84c.16,2.52.24,5,.3,7.56s.06,5,.1,7.56,0,5-.09,7.56-.15,5-.31,7.56c-.17-2.52-.25-5-.31-7.56s-.06-5-.09-7.56,0-5,.09-7.56S144.56,260.36,144.73,257.84Z" style="fill: #fff"/>
    </g>
    <g id="paths">
      <path d="M134.91,122.48a25.66,25.66,0,0,0,5.09-5.31" style="fill: none;stroke: #fff;stroke-linecap: round;stroke-miterlimit: 10;stroke-width: 0.8px"/>
      <path d="M136.6,124.28a26.39,26.39,0,0,0,5.11-5.29" style="fill: none;stroke: #fff;stroke-linecap: round;stroke-miterlimit: 10;stroke-width: 0.8px"/>
      <path d="M154.45,143.27a25.36,25.36,0,0,0,5.06-5.28" style="fill: none;stroke: #fff;stroke-linecap: round;stroke-miterlimit: 10;stroke-width: 0.8px"/>
      <path d="M156.12,145.05a25.76,25.76,0,0,0,5.13-5.2" style="fill: none;stroke: #fff;stroke-linecap: round;stroke-miterlimit: 10;stroke-width: 0.8px"/>
      <path d="M238.76,222.56q-4.42.91-5.1,5" style="fill: none;stroke: #fff;stroke-miterlimit: 10;stroke-width: 0.8px"/>
      <path d="M240.69,224.36q-4.41.91-5.09,5" style="fill: none;stroke: #fff;stroke-miterlimit: 10;stroke-width: 0.8px"/>
      <path d="M241.85,225.6c-2.94.61-4.64,2.28-5.09,5" style="fill: none;stroke: #fff;stroke-miterlimit: 10;stroke-width: 0.8px"/>
      <path d="M243,226.86q-4.41.91-5.09,5" style="fill: none;stroke: #fff;stroke-miterlimit: 10;stroke-width: 0.8px"/>
      <path d="M244.21,228.09c-3,.62-4.65,2.28-5.09,5" style="fill: none;stroke: #fff;stroke-miterlimit: 10;stroke-width: 0.8px"/>
      <path d="M245.4,229.36c-3,.61-4.65,2.28-5.09,5" style="fill: none;stroke: #fff;stroke-miterlimit: 10;stroke-width: 0.8px"/>
      <path d="M76.52,64.74a39.94,39.94,0,0,1,9.09-8.85" style="fill: none;stroke: #fff;stroke-miterlimit: 10;stroke-width: 0.8px"/>
      <path d="M79.77,67.93a39.93,39.93,0,0,1,9.09-8.85" style="fill: none;stroke: #fff;stroke-miterlimit: 10;stroke-width: 0.8px"/>
      <path d="M79,67a39.94,39.94,0,0,1,9.09-8.85" style="fill: none;stroke: #fff;stroke-miterlimit: 10;stroke-width: 0.8px"/>
      <path d="M78.45,66.06a39.93,39.93,0,0,1,9.09-8.85" style="fill: none;stroke: #fff;stroke-miterlimit: 10;stroke-width: 0.8px"/>
      <path d="M77.31,65.59a40,40,0,0,1,9.1-8.85" style="fill: none;stroke: #fff;stroke-miterlimit: 10;stroke-width: 0.8px"/>
      <path d="M138.73,168.3c.57-.32,1.17-.59,1.71-1a6.55,6.55,0,0,0,1.4-1.33,7,7,0,0,0,1.33-3.57,17.89,17.89,0,0,0,.05-3.87,6.13,6.13,0,0,0-1.5-3.39,19.91,19.91,0,0,0-3-2.41l-3.26-2.2a32.7,32.7,0,0,1-3.16-2.42,9.89,9.89,0,0,1-2.48-3.22,7.13,7.13,0,0,1-.44-4.08,8.8,8.8,0,0,1,1.71-3.69c1.68-2.14,3.93-3.6,5.51-5.61.38-.48.65-1.05.41-1.5a1,1,0,0,0-.55-.51,1.33,1.33,0,0,0-.81,0,7.72,7.72,0,0,1-1,.26,4.08,4.08,0,0,1-1,0,5.76,5.76,0,0,1-1.92-.7,3.75,3.75,0,0,1-1.59-3.56,5.34,5.34,0,0,1,.45-1.93,3.29,3.29,0,0,1,1.31-1.45,4,4,0,0,0-1.55,3.39,3.43,3.43,0,0,0,1.59,3.21,5,5,0,0,0,1.78.59,3.08,3.08,0,0,0,.91,0,6.78,6.78,0,0,0,.91-.26,1.71,1.71,0,0,1,1.12,0,1.47,1.47,0,0,1,.88.76,1.54,1.54,0,0,1,.09,1.17,3.33,3.33,0,0,1-.51,1c-1.6,2.19-3.89,3.65-5.42,5.68a7.9,7.9,0,0,0-1.53,3.39,6.35,6.35,0,0,0,.41,3.63,9.24,9.24,0,0,0,2.27,3,32.94,32.94,0,0,0,3.06,2.39l3.24,2.23a17.25,17.25,0,0,1,3.06,2.57,6.68,6.68,0,0,1,1.54,3.74,17.65,17.65,0,0,1-.17,4,7.4,7.4,0,0,1-1.54,3.64,6.23,6.23,0,0,1-1.51,1.3C139.93,167.78,139.31,168,138.73,168.3Z" style="fill: #fff"/>
      <path d="M150.74,168.4a7.73,7.73,0,0,1-3.19-1.92,7,7,0,0,1-1.66-3.4,16.86,16.86,0,0,1-.3-3.75,7.35,7.35,0,0,1,1-3.71,9.88,9.88,0,0,1,2.76-2.64c1-.73,2-1.42,3.08-2.08l3.1-2a10.17,10.17,0,0,0,2.75-2.4,9.11,9.11,0,0,1-2.51,2.74l-3,2.2c-1,.72-2,1.4-3,2.14A9.76,9.76,0,0,0,147.3,156c-1.3,2-1.07,4.58-.82,6.93a6.54,6.54,0,0,0,1.36,3.26A8.14,8.14,0,0,0,150.74,168.4Z" style="fill: #fff"/>
      <path d="M155.09,133.28a13.17,13.17,0,0,1-1.74-1.35,1.31,1.31,0,0,1-.28-.58,1.12,1.12,0,0,1,.14-.67,2.56,2.56,0,0,1,.84-.86,7.82,7.82,0,0,1,2.11-.77,16.61,16.61,0,0,0,2-.67,3.13,3.13,0,0,0,1.51-1.15,4.5,4.5,0,0,0,.62-1.87,4.08,4.08,0,0,0-1.37-3.73,3.63,3.63,0,0,1,1.54,1.56,5.07,5.07,0,0,1-.15,4.45,3.76,3.76,0,0,1-1.84,1.47,14.88,14.88,0,0,1-2.12.67,9.37,9.37,0,0,0-2,.57,1.91,1.91,0,0,0-.72.59.63.63,0,0,0,0,.77C154,132.28,154.66,132.69,155.09,133.28Z" style="fill: #fff"/>
      <path d="M143.56,258.05c.19,2.51.26,5,.28,7.56s-.07,5-.19,7.56-.4,5-.8,7.54a44.33,44.33,0,0,1-1.73,7.37c.49-2.47.86-5,1.12-7.45s.49-5,.61-7.51.27-5,.38-7.53S143.42,260.57,143.56,258.05Z" style="fill: #fff"/>
      <path d="M146,258.15c.15,2.52.23,5,.34,7.55s.19,5,.37,7.52.35,5,.61,7.51.63,5,1.13,7.45a44.12,44.12,0,0,1-1.74-7.37c-.39-2.5-.61-5-.79-7.54s-.21-5-.19-7.56S145.78,260.66,146,258.15Z" style="fill: #fff"/>
      <path d="M144.82,248.65c-11.32,0-21.24-14.93-21.24-32s9.92-31.94,21.24-31.94,21.24,14.93,21.24,31.94S156.14,248.65,144.82,248.65Z" style="fill: none;stroke: #fff;stroke-miterlimit: 10;stroke-width: 0.8px"/>
      <path d="M144.76,250.45c-12.22,0-22.94-15.77-22.94-33.75S132.54,183,144.76,183s22.93,15.77,22.93,33.74S157,250.45,144.76,250.45Z" style="fill: none;stroke: #fff;stroke-miterlimit: 10;stroke-width: 0.8px"/>
      <path d="M144.66,252.23c-13,0-24.41-16.62-24.41-35.56s11.41-35.55,24.41-35.55,24.4,16.61,24.4,35.55S157.66,252.23,144.66,252.23Z" style="fill: none;stroke: #fff;stroke-miterlimit: 10;stroke-width: 0.8px"/>
      <path d="M144.61,253.79c-13.81,0-25.92-17.31-25.92-37s12.11-37,25.92-37,25.92,17.31,25.92,37S158.42,253.79,144.61,253.79Z" style="fill: none;stroke: #fff;stroke-miterlimit: 10;stroke-width: 0.8px"/>
    </g>
  </g>
</svg>
