<svg id="iss-svg" xmlns="http://www.w3.org/2000/svg" viewBox="0 0 300 300">
  <g id="iss" data-name="iss">
    <g id="outlines">
       <path d="M103.32,249.19l-7.49-4.1a1,1,0,0,1-.39-1.35l.87-1.56a1,1,0,0,0-.4-1.37l-5.86-3.15a1,1,0,0,1-.34-1.44l.34-.49a1,1,0,0,1,1.29-.31l5.75,3.13a1,1,0,0,0,1.34-.38l5.47-9.71a1,1,0,0,0-.43-1.42l-1.46-.73a1,1,0,0,1-.43-1.43l2.76-4.69a1,1,0,0,0-.4-1.43L92.41,212.7A1.06,1.06,0,0,0,91,213l-.68,1a1.07,1.07,0,0,1-1.4.33l-13.71-7.5a1.07,1.07,0,0,1-.41-1.5l5-8.27a1.09,1.09,0,0,1,1.44-.4l13.18,7.16a1.08,1.08,0,0,1,.41,1.49l-.24.42a1.08,1.08,0,0,0,.42,1.5l11.47,6.2a.89.89,0,0,0,1.18-.33l3-5a.89.89,0,0,1,1.19-.32l1.26.71a.88.88,0,0,0,1.18-.32l3.45-5.79a.76.76,0,0,0-.29-1.06l-1.71-.95a.77.77,0,0,1-.3-1l6.07-11a1.44,1.44,0,0,0-.62-2l-1.49-.74a1.44,1.44,0,0,0-1.92.62L109.08,202a1.45,1.45,0,0,1-2,.6L89,192.81a1.46,1.46,0,0,1-.57-2l21.19-37.37a1.44,1.44,0,0,1,2-.55l17.28,9.62a1.44,1.44,0,0,1,.57,1.95l-8.76,16.39a1.46,1.46,0,0,0,.66,2l1.37.63a1.44,1.44,0,0,0,1.88-.61l6.65-12a.91.91,0,0,1,1.2-.4l1.09.54a.91.91,0,0,0,1.2-.38l6.53-11.91a1.51,1.51,0,0,0-.55-2l-.7-.41a1.51,1.51,0,0,1-.51-2.1l2.65-4.26a1.51,1.51,0,0,0-.56-2.13L86.46,117.62a.84.84,0,0,0-1.13.32l-1.84,3.29a.83.83,0,0,0,.33,1.14l8.08,4.36a.83.83,0,0,1,.35,1.12L56.17,196a1.23,1.23,0,0,1-1.66.51L32.76,184.86a1.22,1.22,0,0,1-.49-1.67l37.45-67.73a.84.84,0,0,1,1.14-.32l8,4.42a.83.83,0,0,0,1.14-.34l1.53-2.9a.84.84,0,0,0-.34-1.12L60,103.56a.84.84,0,0,0-1.16.37l-1.51,3.19a.83.83,0,0,0,.33,1.08l6.19,3.54a.83.83,0,0,1,.32,1.11l-36.3,68.23a1.21,1.21,0,0,1-1.66.5L5,170.12a1.23,1.23,0,0,1-.49-1.66l36.61-68a.84.84,0,0,1,1.12-.35l9.44,4.79a.83.83,0,0,0,1.09-.3l1.88-3a.84.84,0,0,0-.31-1.18L47,96.48a.79.79,0,0,1-.34-1.08l1.56-2.84a.83.83,0,0,1,1.07-.35l6.84,3.54a.84.84,0,0,0,1.11-.35l.89-1.62a.83.83,0,0,0-.35-1.15l-8.27-4.19a.82.82,0,0,1-.36-1.13l36.94-69A.85.85,0,0,1,87.28,18L108.6,29.18a.85.85,0,0,1,.36,1.17L72,99.11a.83.83,0,0,1-1.13.34L63.77,95.6a.81.81,0,0,0-1.13.35l-1,1.93A.84.84,0,0,0,62,99l20.57,11.42a.85.85,0,0,0,1.14-.33L85,107.67a.84.84,0,0,0-.32-1.14l-7.48-4.23a.83.83,0,0,1-.32-1.12l36.75-68.73a.86.86,0,0,1,1.17-.35L136,43.59a.86.86,0,0,1,.34,1.16L99.55,113.69a.84.84,0,0,1-1.13.35l-8-4.31a.84.84,0,0,0-1.15.38L88,112.74a.84.84,0,0,0,.35,1.1l54.74,30a1.5,1.5,0,0,0,2-.56l9.29-16.12a1.27,1.27,0,0,1,1.69-.49l0,0c.59.31,1.66.41,2-.15l9.75-16.28a1.08,1.08,0,0,0-.39-1.52L138,92.56a1.08,1.08,0,0,1-.43-1.47l2.17-3.9a1.09,1.09,0,0,1,1.45-.43l29,15.38a1.08,1.08,0,0,0,1.18-.11l11.44-9.24-1.85,13.85a1.07,1.07,0,0,0,.54,1.08l9.64,5.39a1.07,1.07,0,0,1,.41,1.47l-3,5.35a1.08,1.08,0,0,1-1.49.4l-8.79-5.12a1.09,1.09,0,0,0-1.49.42l-9.15,16.05a2.06,2.06,0,0,0,.7,2.28h0a1.26,1.26,0,0,1,.54,1.71L160.86,151a1.5,1.5,0,0,0,.63,2l54.4,29.57a1.2,1.2,0,0,0,1.59-.44l1.35-2.25a1.21,1.21,0,0,0-.48-1.68l-8.68-4.91a1.94,1.94,0,0,1-.82-2.65L244.73,104a1.6,1.6,0,0,1,2.16-.64l19.69,10.8a1.59,1.59,0,0,1,.64,2.13l-34.7,65.52a2.67,2.67,0,0,1-3.67,1.06l-5.35-2.69a1.2,1.2,0,0,0-1.6.4l-1.71,2.69a1.18,1.18,0,0,0,.46,1.7l21.52,10.66a1.11,1.11,0,0,0,1.47-.44l1.46-2.57a1.11,1.11,0,0,0-.47-1.54l-7-3.47a2.66,2.66,0,0,1-1.16-3.64l35.07-64.69a1.58,1.58,0,0,1,2.1-.66l21.14,10.67a1.58,1.58,0,0,1,.67,2.17L259.6,196.72a1.94,1.94,0,0,1-2.65.75l-6.32-3.57a1.11,1.11,0,0,0-1.52.45l-1.8,3.4a1.1,1.1,0,0,0,.49,1.5l7.95,4a1,1,0,0,1,.43,1.42l-1.78,3.08a1,1,0,0,1-1.35.4l-7.14-3.66a.7.7,0,0,0-.95.32l-1.35,2.87a.68.68,0,0,0,.29.9l7.86,4.34a1.09,1.09,0,0,1,.43,1.49l-37,67.15a1.1,1.1,0,0,1-1.47.44l-22.18-11.45a1.1,1.1,0,0,1-.46-1.49l36.33-67.84a1.1,1.1,0,0,1,1.46-.46l9.34,4.71a.69.69,0,0,0,.93-.3l1.64-3.21a.7.7,0,0,0-.28-.93l-22.6-12.08a.48.48,0,0,0-.63.16l-2.19,3.42a.48.48,0,0,0,.17.67l8.06,4.34a1.33,1.33,0,0,1,.5,1.8l-36.49,66.15a2.52,2.52,0,0,1-3.38,1l-19.5-10.38a2.53,2.53,0,0,1-1-3.44L200,186.29a1.33,1.33,0,0,1,1.79-.53l8.68,4.89a.49.49,0,0,0,.62-.15l2.48-3.61a.46.46,0,0,0-.17-.69L158.93,157a1.52,1.52,0,0,0-2.05.63L154.6,162a1.51,1.51,0,0,1-2.06.63h0a1.51,1.51,0,0,0-2,.61l-6.84,12.57A.9.9,0,0,0,144,177l1.83,1a.92.92,0,0,1,.35,1.24l-6.11,11.24a1.15,1.15,0,0,0,.51,1.58l2.4,1.18a1.16,1.16,0,0,0,1.52-.49l9-16.4A1.12,1.12,0,0,1,155,176l18,9.94a1.12,1.12,0,0,1,.45,1.51l-21.21,39a1.13,1.13,0,0,1-1.52.45l-18.07-9.88a1.12,1.12,0,0,1-.45-1.51l9.07-17.08a1.14,1.14,0,0,0-.45-1.6l-2.1-1.12a1.14,1.14,0,0,0-1.54.44L131,207.83a.77.77,0,0,1-1.05.31l-1.68-.93a.78.78,0,0,0-1,.29L124,213.09a.89.89,0,0,0,.33,1.21l.9.5a.88.88,0,0,1,.34,1.2l-2.81,5a.87.87,0,0,0,.35,1.2l11.17,6a.75.75,0,0,0,1-.27l.23-.37a.75.75,0,0,1,1-.27l14.69,7.82a.75.75,0,0,1,.31,1l-4.42,8.38a.74.74,0,0,1-1,.32l-14.88-7.65a.75.75,0,0,1-.34-1l.4-.86a.74.74,0,0,0-.33-1l-10.25-5.32a.91.91,0,0,0-1.21.37l-2.16,3.84a.92.92,0,0,1-1.18.38l-1.84-.86a.91.91,0,0,0-1.18.4l-5.43,10a1,1,0,0,0,.38,1.34l6.11,3.46a1,1,0,0,1,.36,1.39l-.5.82a1,1,0,0,1-1.34.35l-6-3.36a1,1,0,0,0-1.37.42l-.59,1.16A1,1,0,0,1,103.32,249.19Z" style="fill: none;stroke: #fff;stroke-miterlimit: 10;stroke-width: 2px"/>
     </g>
    <g id="paths">
      <path d="M80.93,196.34q.22,7.2-5.82,10.27" style="fill: none;stroke: #fff;stroke-miterlimit: 10"/>
      <path d="M85.32,199.1q.23,7.2-5.82,10.27" style="fill: none;stroke: #fff;stroke-miterlimit: 10"/>
      <path d="M87.39,200.17q.23,7.2-5.83,10.27" style="fill: none;stroke: #fff;stroke-miterlimit: 10"/>
      <path d="M90.3,201.47q.23,7.22-5.82,10.28" style="fill: none;stroke: #fff;stroke-miterlimit: 10"/>
      <path d="M93.84,203.63q.24,7.2-6,10.27" style="fill: none;stroke: #fff;stroke-miterlimit: 10"/>
      <path d="M91.86,202.3q.23,7.2-5.82,10.27" style="fill: none;stroke: #fff;stroke-miterlimit: 10"/>
      <path d="M83.85,198.05q.21,7.2-5.83,10.27" style="fill: none;stroke: #fff;stroke-miterlimit: 10"/>
      <path d="M151.48,234.71q-6.19,3.69-5.52,10.44" style="fill: none;stroke: #fff;stroke-miterlimit: 10"/>
      <path d="M146.78,232.49q-6.18,3.7-5.51,10.45" style="fill: none;stroke: #fff;stroke-miterlimit: 10"/>
      <path d="M144.77,231.34q-6.2,3.69-5.52,10.44" style="fill: none;stroke: #fff;stroke-miterlimit: 10"/>
      <path d="M142.1,229.58c-4.13,2.47-6,5.95-5.52,10.44" style="fill: none;stroke: #fff;stroke-miterlimit: 10"/>
      <path d="M137.36,227.3q-6.18,3.7-5.51,10.44" style="fill: none;stroke: #fff;stroke-miterlimit: 10"/>
      <path d="M138.61,227.91q-6.18,3.69-5.51,10.44" style="fill: none;stroke: #fff;stroke-miterlimit: 10"/>
      <path d="M140.56,228.72q-6.18,3.69-5.51,10.44" style="fill: none;stroke: #fff;stroke-miterlimit: 10"/>
      <path d="M148.46,233.18q-6.18,3.69-5.51,10.44" style="fill: none;stroke: #fff;stroke-miterlimit: 10"/>
      <path d="M125.19,181.7a70.56,70.56,0,0,1,15.42,7.87" style="fill: none;stroke: #fff;stroke-miterlimit: 10"/>
      <path d="M126.25,179.9c5,1.2,10.19,3.91,15.42,7.87" style="fill: none;stroke: #fff;stroke-miterlimit: 10"/>
      <path d="M126.91,177.77c5.62.51,10.84,3.13,15.41,7.86" style="fill: none;stroke: #fff;stroke-miterlimit: 10"/>
      <path d="M128.25,175.68c6.62-.52,11.95,2,15.42,7.87" style="fill: none;stroke: #fff;stroke-miterlimit: 10"/>
      <path d="M129.64,173.21c7.44-2.61,12.76-.05,15.42,7.86" style="fill: none;stroke: #fff;stroke-miterlimit: 10"/>
      <path d="M121.29,188.09a70.59,70.59,0,0,0,15.18,8.31" style="fill: none;stroke: #fff;stroke-miterlimit: 10"/>
      <path d="M120.4,190c3.83,3.49,9,6.22,15.18,8.32" style="fill: none;stroke: #fff;stroke-miterlimit: 10"/>
      <path d="M119,191.72c3.58,4.36,8.69,7.2,15.18,8.31" style="fill: none;stroke: #fff;stroke-miterlimit: 10"/>
      <path d="M118,194c3.29,5.75,8.37,8.75,15.18,8.31" style="fill: none;stroke: #fff;stroke-miterlimit: 10"/>
      <path d="M116.78,196.55c2,7.62,7.14,10.57,15.18,8.31" style="fill: none;stroke: #fff;stroke-miterlimit: 10"/>
      <path d="M149,136.22a70.22,70.22,0,0,1,15.41,7.86" style="fill: none;stroke: #fff;stroke-miterlimit: 10"/>
      <path d="M150.08,134.42c5,1.2,10.19,3.91,15.42,7.86" style="fill: none;stroke: #fff;stroke-miterlimit: 10"/>
      <path d="M150.74,132.29c5.62.51,10.84,3.13,15.42,7.86" style="fill: none;stroke: #fff;stroke-miterlimit: 10"/>
      <path d="M152.09,130.2c6.61-.52,11.95,2,15.41,7.86" style="fill: none;stroke: #fff;stroke-miterlimit: 10"/>
      <path d="M153.55,128c7.44-2.61,12.75,0,15.42,7.86" style="fill: none;stroke: #fff;stroke-miterlimit: 10"/>
      <path d="M145.13,142.6a70.29,70.29,0,0,0,15.17,8.32" style="fill: none;stroke: #fff;stroke-miterlimit: 10"/>
      <path d="M142.11,149.75c3.83,3.49,9,6.22,15.18,8.31" style="fill: none;stroke: #fff;stroke-miterlimit: 10"/>
      <path d="M141.44,151.28c3.58,4.36,8.69,7.19,15.18,8.31" style="fill: none;stroke: #fff;stroke-miterlimit: 10"/>
      <path d="M140.61,152.46c3.29,5.76,8.37,8.76,15.18,8.32" style="fill: none;stroke: #fff;stroke-miterlimit: 10"/>
      <path d="M140,153.9c2,7.62,7.14,10.57,15.18,8.32" style="fill: none;stroke: #fff;stroke-miterlimit: 10"/>
      <path d="M120.05,213.69a28.14,28.14,0,0,1-3,8.57,40.63,40.63,0,0,1-5.12,7.53c1.34-2.74,2.84-5.34,4.23-8S118.83,216.47,120.05,213.69Z" style="fill: #fff"/>
      <path d="M115.37,211.05c-1.53,2.68-3,5.31-4.4,8s-2.7,5.44-4.17,8.15a39.74,39.74,0,0,1,3.29-8.61A31.51,31.51,0,0,1,115.37,211.05Z" style="fill: #fff"/>
      <path d="M122.42,215a22.65,22.65,0,0,1-2.62,8.8,27.16,27.16,0,0,1-5.54,7.31c1.64-2.59,3.28-5.11,4.66-7.78A55.86,55.86,0,0,0,122.42,215Z" style="fill: #fff"/>
      <path d="M113.17,210.2a40.81,40.81,0,0,0-5,7.5,57,57,0,0,0-3.33,8.41,22.7,22.7,0,0,1,2.44-8.86A19.83,19.83,0,0,1,113.17,210.2Z" style="fill: #fff"/>
    </g>
    <g id="lines">
      <path d="M90.62,22.83A8.78,8.78,0,0,1,88,24.5a8.68,8.68,0,0,1-3,.77,8.79,8.79,0,0,1,2.62-1.68A8.67,8.67,0,0,1,90.62,22.83Z" style="fill: #fff"/>
      <path d="M93.58,24.33a28.24,28.24,0,0,1-4.88,2.8A28.19,28.19,0,0,1,83.41,29a27.17,27.17,0,0,1,4.87-2.8A27.6,27.6,0,0,1,93.58,24.33Z" style="fill: #fff"/>
      <path d="M96.59,26.67a53.55,53.55,0,0,1-7,3.46,51.86,51.86,0,0,1-7.35,2.54,53,53,0,0,1,7-3.46A54.85,54.85,0,0,1,96.59,26.67Z" style="fill: #fff"/>
      <path d="M103.54,30.24c-2.06,1.06-4.15,2-6.25,3S93.06,35,90.93,35.92s-4.27,1.72-6.44,2.5L81.24,39.6c-1.1.36-2.18.75-3.29,1.08,1-.54,2.07-1,3.11-1.53l3.14-1.44c2.1-1,4.23-1.83,6.36-2.71s4.27-1.72,6.44-2.51S101.33,30.92,103.54,30.24Z" style="fill: #fff"/>
      <path d="M90.23,59.53c-2.37,1.19-4.78,2.27-7.19,3.34S78.19,65,75.75,66s-4.9,2-7.38,2.89l-3.72,1.37c-1.25.42-2.49.87-3.76,1.27,1.18-.61,2.39-1.15,3.58-1.73l3.61-1.62c2.41-1.08,4.85-2.09,7.29-3.1s4.9-2,7.38-2.88S87.7,60.33,90.23,59.53Z" style="fill: #fff"/>
      <path d="M82,75c-2.37,1.19-4.77,2.28-7.19,3.35s-4.85,2.09-7.29,3.1-4.9,2-7.37,2.89l-3.72,1.36c-1.26.43-2.5.88-3.76,1.27,1.18-.6,2.38-1.14,3.57-1.72l3.61-1.63c2.42-1.08,4.85-2.09,7.3-3.09s4.89-2,7.37-2.89S79.43,75.85,82,75Z" style="fill: #fff"/>
      <path d="M99.54,43c-2.37,1.19-4.78,2.27-7.19,3.34s-4.85,2.09-7.29,3.1-4.9,2-7.38,2.89L74,53.68c-1.25.42-2.49.87-3.76,1.27,1.18-.61,2.38-1.15,3.58-1.73l3.61-1.62c2.41-1.08,4.85-2.09,7.29-3.1s4.9-2,7.38-2.89S97,43.78,99.54,43Z" style="fill: #fff"/>
      <path d="M76.23,84.89a59.65,59.65,0,0,1-7.48,3.59,60.57,60.57,0,0,1-7.86,2.67,59.65,59.65,0,0,1,7.48-3.59A61.61,61.61,0,0,1,76.23,84.89Z" style="fill: #fff"/>
      <path d="M73.77,89.65A22.43,22.43,0,0,1,65,93.22a22.43,22.43,0,0,1,8.74-3.57Z" style="fill: #fff"/>
      <path d="M130.48,44.13a8.69,8.69,0,0,1,1,2.94,8.54,8.54,0,0,1,0,3.11,8.6,8.6,0,0,1-1-3A8.49,8.49,0,0,1,130.48,44.13Z" style="fill: #fff"/>
      <path d="M127.61,42.47a28.25,28.25,0,0,1,1.3,5.47,28.34,28.34,0,0,1,.31,5.61,27.54,27.54,0,0,1-1.3-5.47A28.34,28.34,0,0,1,127.61,42.47Z" style="fill: #fff"/>
      <path d="M124,41.22a53.57,53.57,0,0,1,1.87,7.54,52.13,52.13,0,0,1,.89,7.72,52.56,52.56,0,0,1-1.87-7.54A52.44,52.44,0,0,1,124,41.22Z" style="fill: #fff"/>
      <path d="M120.62,38.86a102.89,102.89,0,0,1,2.51,10.44,102.63,102.63,0,0,1,1.52,10.63,101.62,101.62,0,0,1-2.51-10.44A104.6,104.6,0,0,1,120.62,38.86Z" style="fill: #fff"/>
      <path d="M117.22,37.34c.64,2.22,1.17,4.46,1.68,6.71s1,4.51,1.41,6.77.84,4.52,1.19,6.8L122,61c.13,1.15.3,2.29.41,3.44-.33-1.11-.6-2.23-.89-3.35l-.79-3.36c-.52-2.25-1-4.51-1.41-6.77s-.84-4.53-1.18-6.8S117.45,39.64,117.22,37.34Z" style="fill: #fff"/>
      <path d="M113.71,38.22c.7,2.56,1.29,5.13,1.87,7.71s1.09,5.17,1.6,7.76,1,5.19,1.37,7.8l.61,3.92c.17,1.31.37,2.62.5,3.93-.36-1.27-.65-2.56-1-3.84l-.88-3.86c-.59-2.58-1.1-5.17-1.6-7.76s-1-5.19-1.38-7.8S114,40.86,113.71,38.22Z" style="fill: #fff"/>
      <path d="M99.92,64.46c.7,2.56,1.29,5.13,1.87,7.71s1.09,5.17,1.6,7.76,1,5.19,1.37,7.8l.61,3.91c.17,1.32.37,2.62.5,3.94-.36-1.28-.65-2.56-1-3.84L104,87.87c-.59-2.57-1.1-5.16-1.6-7.76s-1-5.19-1.38-7.8S100.21,67.09,99.92,64.46Z" style="fill: #fff"/>
      <path d="M94.63,75.3c.7,2.56,1.29,5.13,1.86,7.71s1.1,5.17,1.61,7.76,1,5.19,1.37,7.8l.61,3.92c.17,1.31.37,2.61.5,3.93-.36-1.27-.65-2.56-1-3.84l-.88-3.87c-.59-2.57-1.1-5.16-1.6-7.75s-1-5.2-1.38-7.81S94.92,77.93,94.63,75.3Z" style="fill: #fff"/>
      <path d="M91.42,79.86c.7,2.55,1.29,5.13,1.87,7.7s1.09,5.17,1.6,7.76,1,5.19,1.37,7.8l.61,3.92c.17,1.31.37,2.62.5,3.93-.36-1.27-.65-2.56-1-3.84l-.88-3.86c-.59-2.58-1.1-5.17-1.6-7.76s-1-5.19-1.38-7.8S91.72,82.49,91.42,79.86Z" style="fill: #fff"/>
      <path d="M104.3,57.91c.7,2.56,1.29,5.13,1.87,7.71s1.09,5.17,1.6,7.76,1,5.19,1.37,7.8l.61,3.92c.17,1.31.37,2.61.5,3.93-.36-1.27-.65-2.56-1-3.84l-.88-3.87c-.59-2.57-1.1-5.16-1.6-7.75s-1-5.2-1.38-7.81S104.59,60.54,104.3,57.91Z" style="fill: #fff"/>
      <path d="M108.72,47.64c.7,2.55,1.29,5.12,1.87,7.7s1.09,5.17,1.6,7.76,1,5.19,1.38,7.8l.6,3.92c.17,1.31.37,2.62.51,3.93-.36-1.27-.66-2.56-1-3.84l-.88-3.86c-.58-2.58-1.09-5.17-1.6-7.76s-1-5.19-1.37-7.8S109,50.27,108.72,47.64Z" style="fill: #fff"/>
      <path d="M88.78,85.28c1.1,3.67,1.9,7.4,2.64,11.14s1.33,7.52,1.66,11.34a112.81,112.81,0,0,1-2.64-11.15C89.74,92.86,89.11,89.1,88.78,85.28Z" style="fill: #fff"/>
      <path d="M86.28,90a68.3,68.3,0,0,1,3.11,16.27,61.09,61.09,0,0,1-2-8A59.77,59.77,0,0,1,86.28,90Z" style="fill: #fff"/>
      <path d="M83.63,94.67A22.65,22.65,0,0,1,85.41,104,19.62,19.62,0,0,1,84,99.41,20.21,20.21,0,0,1,83.63,94.67Z" style="fill: #fff"/>
      <path d="M49.46,191.9a9,9,0,0,1,2.65-1.63,8.67,8.67,0,0,1,3-.7,8.78,8.78,0,0,1-2.64,1.63A8.67,8.67,0,0,1,49.46,191.9Z" style="fill: #fff"/>
      <path d="M46.54,190.35a27.2,27.2,0,0,1,4.92-2.71,27.16,27.16,0,0,1,5.33-1.79,27.77,27.77,0,0,1-4.92,2.7A27.86,27.86,0,0,1,46.54,190.35Z" style="fill: #fff"/>
      <path d="M43.56,188a54.17,54.17,0,0,1,7-3.33A52.29,52.29,0,0,1,58,182.21a51.73,51.73,0,0,1-7,3.33A53.61,53.61,0,0,1,43.56,188Z" style="fill: #fff"/>
      <path d="M39.78,186.33A102.06,102.06,0,0,1,49.6,182a102.29,102.29,0,0,1,10.19-3.4A103.34,103.34,0,0,1,50,182.93,103,103,0,0,1,39.78,186.33Z" style="fill: #fff"/>
      <path d="M36.69,184.26c2.07-1,4.18-1.95,6.3-2.85s4.26-1.76,6.4-2.61,4.31-1.63,6.49-2.38l3.27-1.12c1.1-.34,2.2-.71,3.31-1-1,.53-2.09,1-3.13,1.48l-3.17,1.38c-2.12.91-4.26,1.75-6.41,2.6s-4.3,1.63-6.48,2.38S38.91,183.62,36.69,184.26Z" style="fill: #fff"/>
      <path d="M35.58,180.81c2.39-1.15,4.81-2.19,7.25-3.22s4.88-2,7.34-3,4.94-1.88,7.43-2.75l3.75-1.29c1.26-.4,2.51-.83,3.78-1.2-1.19.58-2.41,1.1-3.61,1.65l-3.64,1.56c-2.43,1-4.89,2-7.35,3s-4.93,1.88-7.43,2.75S38.11,180.05,35.58,180.81Z" style="fill: #fff"/>
      <path d="M50.53,155.21c2.39-1.14,4.82-2.18,7.25-3.21s4.89-2,7.35-3,4.93-1.88,7.42-2.75L76.3,145c1.26-.39,2.51-.82,3.78-1.2-1.19.59-2.4,1.11-3.61,1.66L72.83,147c-2.43,1-4.89,2-7.34,3s-4.94,1.88-7.43,2.74S53.07,154.45,50.53,155.21Z" style="fill: #fff"/>
      <path d="M56.93,145c2.38-1.15,4.81-2.19,7.24-3.22s4.89-2,7.35-3,4.93-1.88,7.43-2.75l3.74-1.29c1.26-.4,2.51-.83,3.78-1.2-1.19.58-2.4,1.1-3.6,1.65l-3.64,1.56c-2.43,1-4.89,2-7.35,3s-4.93,1.88-7.43,2.75S59.46,144.23,56.93,145Z" style="fill: #fff"/>
      <path d="M47.3,162.4c2.38-1.15,4.81-2.19,7.24-3.22s4.89-2,7.35-3,4.93-1.89,7.43-2.75l3.74-1.3c1.26-.4,2.51-.83,3.78-1.2-1.19.58-2.4,1.1-3.6,1.65l-3.64,1.56c-2.43,1-4.89,2-7.35,3s-4.93,1.88-7.43,2.75S49.83,161.64,47.3,162.4Z" style="fill: #fff"/>
      <path d="M40.92,171.59c2.39-1.14,4.82-2.19,7.25-3.21s4.89-2,7.34-3,4.94-1.88,7.43-2.75l3.75-1.3c1.26-.4,2.51-.83,3.78-1.2-1.19.58-2.41,1.11-3.61,1.66l-3.64,1.56c-2.43,1-4.89,2-7.35,3s-4.93,1.88-7.42,2.75S43.46,170.83,40.92,171.59Z" style="fill: #fff"/>
      <path d="M62.29,134.74a113.4,113.4,0,0,1,10.49-4.6c3.56-1.36,7.15-2.65,10.86-3.66a112,112,0,0,1-10.5,4.59A113.4,113.4,0,0,1,62.29,134.74Z" style="fill: #fff"/>
      <path d="M65,130.11a60.94,60.94,0,0,1,7.54-3.45,59.7,59.7,0,0,1,7.91-2.53,59.7,59.7,0,0,1-7.55,3.46A61.53,61.53,0,0,1,65,130.11Z" style="fill: #fff"/>
      <path d="M67.53,125.4A22.7,22.7,0,0,1,76.34,122a19.61,19.61,0,0,1-4.22,2.17A20.34,20.34,0,0,1,67.53,125.4Z" style="fill: #fff"/>
      <path d="M14.33,172.36a31.51,31.51,0,0,1-1.87-11,28.15,28.15,0,0,1,1.43,5.44A28.23,28.23,0,0,1,14.33,172.36Z" style="fill: #fff"/>
      <path d="M18,173.53a60.24,60.24,0,0,1-3.12-15.19,52.05,52.05,0,0,1,2,7.5A54.73,54.73,0,0,1,18,173.53Z" style="fill: #fff"/>
      <path d="M21.4,175.81a114.9,114.9,0,0,1-4.52-21,101.89,101.89,0,0,1,2.75,10.39A101.25,101.25,0,0,1,21.4,175.81Z" style="fill: #fff"/>
      <path d="M28.32,176.29c-.76-2.54-1.41-5.1-2-7.67s-1.21-5.14-1.78-7.72-1.09-5.16-1.56-7.76l-.69-3.9c-.2-1.31-.43-2.61-.6-3.93.39,1.27.72,2.55,1.08,3.82l1,3.85c.64,2.56,1.21,5.14,1.77,7.71s1.09,5.17,1.56,7.77S28,173.66,28.32,176.29Z" style="fill: #fff"/>
      <path d="M41.5,149.74c-.75-2.54-1.4-5.1-2-7.66s-1.21-5.14-1.78-7.72-1.08-5.17-1.55-7.77l-.7-3.9c-.19-1.31-.42-2.61-.59-3.92.39,1.26.71,2.54,1.07,3.82l1,3.84c.65,2.56,1.21,5.14,1.78,7.72s1.09,5.17,1.55,7.77S41.15,147.12,41.5,149.74Z" style="fill: #fff"/>
      <path d="M46.54,138.78c-.75-2.54-1.4-5.1-2-7.66s-1.21-5.14-1.78-7.72-1.08-5.17-1.55-7.77l-.7-3.9c-.19-1.31-.42-2.61-.59-3.92.39,1.26.71,2.55,1.07,3.82l1,3.84c.65,2.56,1.21,5.14,1.78,7.72s1.09,5.17,1.55,7.77S46.19,136.16,46.54,138.78Z" style="fill: #fff"/>
      <path d="M33.09,166.76c-.76-2.53-1.41-5.09-2-7.66s-1.21-5.14-1.78-7.72-1.09-5.16-1.56-7.76L27,139.71c-.2-1.3-.43-2.6-.6-3.92.39,1.27.72,2.55,1.08,3.82l1,3.84c.64,2.57,1.21,5.14,1.77,7.72s1.09,5.17,1.56,7.77S32.73,164.14,33.09,166.76Z" style="fill: #fff"/>
      <path d="M52.17,128.68c-1.19-3.65-2.08-7.36-2.9-11.09s-1.5-7.48-1.92-11.29c1.19,3.64,2.08,7.36,2.9,11.08S51.75,124.86,52.17,128.68Z" style="fill: #fff"/>
      <path d="M54.55,123.88a62.81,62.81,0,0,1-2.23-8,61.16,61.16,0,0,1-1.25-8.21,60.91,60.91,0,0,1,2.23,8A60.77,60.77,0,0,1,54.55,123.88Z" style="fill: #fff"/>
      <path d="M57.1,119.16a22.71,22.71,0,0,1-2-9.23,19.69,19.69,0,0,1,1.48,4.51A20,20,0,0,1,57.1,119.16Z" style="fill: #fff"/>
      <path d="M289,129.1a8.6,8.6,0,0,1,1,3,8.49,8.49,0,0,1,0,3.1,8.48,8.48,0,0,1-1-2.94A8.77,8.77,0,0,1,289,129.1Z" style="fill: #fff"/>
      <path d="M286.13,127.45a27.54,27.54,0,0,1,1.3,5.47,26.87,26.87,0,0,1,.31,5.61,31.59,31.59,0,0,1-1.61-11.08Z" style="fill: #fff"/>
      <path d="M282.52,126.19a52.56,52.56,0,0,1,1.87,7.54,53.84,53.84,0,0,1,.9,7.72,60,60,0,0,1-2.77-15.26Z" style="fill: #fff"/>
      <path d="M279.14,123.84a102.25,102.25,0,0,1,2.51,10.44,99.63,99.63,0,0,1,1.52,10.63,99.63,99.63,0,0,1-2.5-10.44A102.27,102.27,0,0,1,279.14,123.84Z" style="fill: #fff"/>
      <path d="M275.75,122.31c.63,2.23,1.16,4.47,1.67,6.72s1,4.5,1.41,6.76.85,4.53,1.19,6.81l.51,3.42c.14,1.15.3,2.29.41,3.44-.33-1.11-.59-2.23-.89-3.35l-.79-3.36c-.52-2.25-1-4.51-1.41-6.77s-.84-4.53-1.18-6.81S276,124.62,275.75,122.31Z" style="fill: #fff"/>
      <path d="M272.23,123.2c.7,2.56,1.29,5.13,1.87,7.71s1.09,5.17,1.6,7.76,1,5.19,1.38,7.8l.6,3.92c.17,1.31.37,2.61.51,3.93-.36-1.27-.66-2.56-1-3.84l-.88-3.87c-.58-2.57-1.09-5.16-1.6-7.75s-1-5.2-1.37-7.81S272.53,125.83,272.23,123.2Z" style="fill: #fff"/>
      <path d="M258.44,149.44c.7,2.55,1.29,5.13,1.87,7.71s1.09,5.16,1.6,7.75,1,5.19,1.38,7.8l.6,3.92c.17,1.31.37,2.62.51,3.94-.36-1.28-.66-2.57-1-3.85l-.88-3.86c-.58-2.58-1.09-5.17-1.6-7.76s-1-5.19-1.37-7.8S258.74,152.07,258.44,149.44Z" style="fill: #fff"/>
      <path d="M253.15,160.28c.7,2.55,1.29,5.13,1.87,7.71s1.09,5.16,1.6,7.75,1,5.2,1.38,7.81l.6,3.91c.17,1.31.37,2.62.51,3.94-.36-1.28-.66-2.56-1-3.85l-.88-3.86c-.58-2.58-1.09-5.17-1.6-7.76s-1-5.19-1.37-7.8S253.45,162.91,253.15,160.28Z" style="fill: #fff"/>
      <path d="M250,164.83c.69,2.56,1.28,5.13,1.86,7.71s1.09,5.17,1.6,7.76,1,5.19,1.38,7.8l.6,3.92c.17,1.31.37,2.61.51,3.93-.36-1.27-.66-2.56-1-3.84l-.88-3.87c-.58-2.57-1.09-5.16-1.6-7.75s-1-5.2-1.37-7.81S250.24,167.46,250,164.83Z" style="fill: #fff"/>
      <path d="M262.82,142.89c.7,2.55,1.29,5.13,1.87,7.71s1.09,5.16,1.6,7.76,1,5.19,1.38,7.8l.6,3.91c.17,1.32.37,2.62.51,3.94-.36-1.28-.66-2.56-1-3.85l-.88-3.86c-.58-2.57-1.09-5.17-1.6-7.76s-1-5.19-1.37-7.8S263.12,145.52,262.82,142.89Z" style="fill: #fff"/>
      <path d="M267.25,132.61c.7,2.56,1.29,5.13,1.86,7.71s1.1,5.17,1.6,7.76,1,5.19,1.38,7.8l.61,3.92c.16,1.31.36,2.61.5,3.93-.36-1.27-.66-2.56-1-3.84l-.89-3.87c-.58-2.57-1.09-5.16-1.6-7.75s-1-5.2-1.37-7.81S267.54,135.24,267.25,132.61Z" style="fill: #fff"/>
      <path d="M247.3,170.25c1.1,3.68,1.91,7.41,2.64,11.15s1.33,7.51,1.66,11.34c-1.1-3.68-1.91-7.41-2.64-11.15S247.63,174.07,247.3,170.25Z" style="fill: #fff"/>
      <path d="M244.81,175a60.69,60.69,0,0,1,2,8,59.38,59.38,0,0,1,1.07,8.23,59.6,59.6,0,0,1-2-8A61.34,61.34,0,0,1,244.81,175Z" style="fill: #fff"/>
      <path d="M242.15,179.65a19.62,19.62,0,0,1,1.38,4.54,20.21,20.21,0,0,1,.4,4.74,19.7,19.7,0,0,1-1.38-4.55A20.12,20.12,0,0,1,242.15,179.65Z" style="fill: #fff"/>
      <path d="M208.63,277.62a8.79,8.79,0,0,1,2.65-1.64,8.67,8.67,0,0,1,3-.7,8.59,8.59,0,0,1-2.64,1.63A8.9,8.9,0,0,1,208.63,277.62Z" style="fill: #fff"/>
      <path d="M205.71,276.06a28.48,28.48,0,0,1,4.92-2.71,27.16,27.16,0,0,1,5.33-1.79,31.36,31.36,0,0,1-10.25,4.5Z" style="fill: #fff"/>
      <path d="M202.73,273.66a54.17,54.17,0,0,1,7-3.33,52.29,52.29,0,0,1,7.39-2.41,51.79,51.79,0,0,1-7,3.34A53.57,53.57,0,0,1,202.73,273.66Z" style="fill: #fff"/>
      <path d="M199,272a116.31,116.31,0,0,1,20-7.74A115,115,0,0,1,199,272Z" style="fill: #fff"/>
      <path d="M195.85,270c2.08-1,4.19-2,6.31-2.85s4.26-1.76,6.4-2.6,4.31-1.64,6.49-2.39l3.27-1.12c1.1-.33,2.19-.7,3.31-1-1,.52-2.09,1-3.13,1.47l-3.18,1.38c-2.11.91-4.25,1.76-6.4,2.6s-4.3,1.64-6.48,2.38S198.08,269.33,195.85,270Z" style="fill: #fff"/>
      <path d="M194.75,266.52c2.39-1.15,4.81-2.19,7.25-3.22s4.88-2,7.34-3,4.94-1.89,7.43-2.75l3.74-1.3c1.27-.4,2.51-.83,3.79-1.2-1.19.58-2.41,1.1-3.61,1.66l-3.64,1.55c-2.43,1-4.89,2-7.35,3s-4.93,1.88-7.43,2.75S197.28,265.76,194.75,266.52Z" style="fill: #fff"/>
      <path d="M209.7,240.93c2.39-1.15,4.82-2.19,7.25-3.22s4.89-2,7.34-3,4.94-1.89,7.43-2.75l3.75-1.3c1.26-.4,2.51-.83,3.78-1.2-1.19.58-2.4,1.1-3.61,1.65L232,232.71c-2.43,1-4.89,2-7.35,3s-4.93,1.88-7.42,2.75S212.24,240.17,209.7,240.93Z" style="fill: #fff"/>
      <path d="M216.09,230.7c2.39-1.15,4.82-2.19,7.25-3.22s4.89-2,7.35-3,4.93-1.89,7.43-2.75l3.74-1.3c1.26-.4,2.51-.83,3.78-1.2-1.19.58-2.4,1.1-3.6,1.66l-3.64,1.55c-2.43,1-4.89,2-7.35,3s-4.93,1.88-7.43,2.75S218.63,229.94,216.09,230.7Z" style="fill: #fff"/>
      <path d="M206.46,248.11c2.39-1.15,4.82-2.19,7.25-3.21s4.89-2,7.35-3,4.93-1.88,7.43-2.75l3.74-1.3c1.26-.4,2.51-.83,3.78-1.2-1.19.58-2.4,1.1-3.6,1.66l-3.64,1.56c-2.43,1-4.89,2-7.35,3s-4.93,1.88-7.43,2.75S209,247.35,206.46,248.11Z" style="fill: #fff"/>
      <path d="M200.09,257.3c2.39-1.14,4.81-2.18,7.25-3.21s4.89-2,7.34-3,4.94-1.88,7.43-2.75l3.75-1.3c1.26-.39,2.51-.83,3.78-1.2-1.19.59-2.41,1.11-3.61,1.66l-3.64,1.56c-2.43,1-4.89,2-7.35,3s-4.93,1.88-7.43,2.74S202.63,256.54,200.09,257.3Z" style="fill: #fff"/>
      <path d="M221.46,220.45c3.41-1.74,6.94-3.2,10.49-4.59a113.4,113.4,0,0,1,10.85-3.67,113.4,113.4,0,0,1-10.49,4.6C228.75,218.15,225.16,219.44,221.46,220.45Z" style="fill: #fff"/>
      <path d="M224.16,215.82a60.94,60.94,0,0,1,7.54-3.45,59.66,59.66,0,0,1,7.91-2.52,69.27,69.27,0,0,1-15.45,6Z" style="fill: #fff"/>
      <path d="M226.7,211.11a19.68,19.68,0,0,1,4.23-2.17,20.11,20.11,0,0,1,4.58-1.24,19.84,19.84,0,0,1-4.22,2.17A20.34,20.34,0,0,1,226.7,211.11Z" style="fill: #fff"/>
      <path d="M170.48,256.81a8.75,8.75,0,0,1-1.07-2.92,8.46,8.46,0,0,1-.09-3.1,9.65,9.65,0,0,1,1.16,6Z" style="fill: #fff"/>
      <path d="M173.39,258.4A28.15,28.15,0,0,1,172,253a27.44,27.44,0,0,1-.44-5.6A28.15,28.15,0,0,1,173,252.8,28.93,28.93,0,0,1,173.39,258.4Z" style="fill: #fff"/>
      <path d="M177,259.57a60.24,60.24,0,0,1-3.12-15.19,52.05,52.05,0,0,1,2.05,7.5A54.73,54.73,0,0,1,177,259.57Z" style="fill: #fff"/>
      <path d="M180.46,261.85a114.9,114.9,0,0,1-4.52-21,101.89,101.89,0,0,1,2.75,10.39A104,104,0,0,1,180.46,261.85Z" style="fill: #fff"/>
      <path d="M187.38,262.33c-.76-2.54-1.41-5.1-2-7.67s-1.22-5.14-1.78-7.72-1.09-5.16-1.56-7.76l-.69-3.9c-.2-1.31-.43-2.61-.6-3.93.39,1.27.72,2.55,1.08,3.82l1,3.84c.64,2.57,1.21,5.15,1.77,7.72s1.09,5.17,1.56,7.77S187,259.7,187.38,262.33Z" style="fill: #fff"/>
      <path d="M200.56,235.78c-.75-2.54-1.4-5.1-2-7.66s-1.21-5.14-1.78-7.72-1.08-5.17-1.55-7.77l-.7-3.9c-.19-1.31-.42-2.61-.59-3.92.39,1.26.71,2.54,1.07,3.82l1,3.84c.64,2.56,1.21,5.14,1.78,7.72s1.09,5.17,1.55,7.77S200.21,233.16,200.56,235.78Z" style="fill: #fff"/>
      <path d="M205.6,224.82c-.75-2.54-1.4-5.1-2-7.66s-1.21-5.14-1.78-7.72-1.08-5.17-1.55-7.77l-.7-3.9c-.19-1.31-.42-2.61-.59-3.92.39,1.26.71,2.54,1.07,3.82l1,3.84c.65,2.56,1.21,5.14,1.78,7.72s1.09,5.17,1.55,7.77S205.25,222.2,205.6,224.82Z" style="fill: #fff"/>
      <path d="M192.15,252.8c-.76-2.53-1.41-5.09-2-7.66s-1.22-5.14-1.78-7.72-1.09-5.17-1.56-7.77l-.69-3.9c-.2-1.3-.43-2.61-.6-3.92.39,1.27.72,2.55,1.08,3.82l1,3.84c.64,2.56,1.21,5.14,1.77,7.72s1.09,5.17,1.56,7.77S191.79,250.18,192.15,252.8Z" style="fill: #fff"/>
      <path d="M211.23,214.72c-1.19-3.65-2.08-7.36-2.9-11.09s-1.5-7.48-1.92-11.29c1.19,3.64,2.08,7.36,2.9,11.08S210.81,210.9,211.23,214.72Z" style="fill: #fff"/>
      <path d="M213.61,209.92a62.5,62.5,0,0,1-2.23-8,59.22,59.22,0,0,1-1.25-8.2,68.59,68.59,0,0,1,3.48,16.2Z" style="fill: #fff"/>
      <path d="M216.16,205.2a22.28,22.28,0,0,1-2-9.23,19.69,19.69,0,0,1,1.48,4.51A20,20,0,0,1,216.16,205.2Z" style="fill: #fff"/>
      <path d="M249.7,108.26a9.67,9.67,0,0,1-5.63,2.44,9.67,9.67,0,0,1,5.63-2.44Z" style="fill: #fff"/>
      <path d="M252.65,109.76a28.54,28.54,0,0,1-4.87,2.8,27.84,27.84,0,0,1-5.3,1.89,28.24,28.24,0,0,1,4.88-2.8A28.92,28.92,0,0,1,252.65,109.76Z" style="fill: #fff"/>
      <path d="M255.67,112.11a54.32,54.32,0,0,1-7,3.46,53,53,0,0,1-7.34,2.53,54.32,54.32,0,0,1,7-3.46A53.43,53.43,0,0,1,255.67,112.11Z" style="fill: #fff"/>
      <path d="M262.61,115.67c-2.05,1.06-4.15,2-6.25,3s-4.22,1.83-6.35,2.71-4.28,1.72-6.44,2.51L240.32,125c-1.1.36-2.19.75-3.29,1.08,1-.54,2.07-1,3.1-1.53l3.15-1.43c2.1-1,4.22-1.84,6.35-2.72s4.28-1.72,6.44-2.5S260.4,116.35,262.61,115.67Z" style="fill: #fff"/>
      <path d="M249.3,145c-2.36,1.19-4.77,2.28-7.19,3.35s-4.85,2.09-7.29,3.1-4.89,2-7.37,2.88l-3.72,1.37c-1.26.42-2.5.88-3.76,1.27,1.18-.6,2.38-1.15,3.57-1.72l3.62-1.63c2.41-1.08,4.85-2.09,7.29-3.1s4.9-2,7.37-2.88S246.78,145.77,249.3,145Z" style="fill: #fff"/>
      <path d="M241,160.48c-2.37,1.19-4.78,2.27-7.19,3.34s-4.85,2.1-7.29,3.1-4.9,2-7.38,2.89l-3.72,1.37c-1.25.42-2.49.87-3.76,1.27,1.18-.61,2.39-1.15,3.58-1.73l3.61-1.62c2.41-1.08,4.85-2.09,7.29-3.1s4.9-2,7.38-2.89S238.5,161.28,241,160.48Z" style="fill: #fff"/>
      <path d="M258.61,128.41c-2.36,1.19-4.77,2.28-7.19,3.35s-4.85,2.09-7.29,3.1-4.89,2-7.37,2.88L233,139.11c-1.26.42-2.5.88-3.76,1.27,1.18-.6,2.38-1.15,3.57-1.72l3.62-1.63c2.41-1.08,4.85-2.09,7.29-3.1s4.89-2,7.37-2.88S256.09,129.22,258.61,128.41Z" style="fill: #fff"/>
      <path d="M235.31,170.32a61.15,61.15,0,0,1-7.48,3.6,60,60,0,0,1-7.86,2.66,69.19,69.19,0,0,1,15.34-6.26Z" style="fill: #fff"/>
      <path d="M232.85,175.08a22.43,22.43,0,0,1-8.74,3.57,19.39,19.39,0,0,1,4.18-2.24A20,20,0,0,1,232.85,175.08Z" style="fill: #fff"/>
      <path d="M106.16,198.42c-1.18-3.65-2.07-7.36-2.89-11.08a113.42,113.42,0,0,1-1.92-11.3,112.94,112.94,0,0,1,2.89,11.09A112.74,112.74,0,0,1,106.16,198.42Z" style="fill: #fff"/>
      <path d="M107.79,194c-1.19-3.65-2.08-7.36-2.9-11.09s-1.5-7.48-1.92-11.29c1.19,3.65,2.08,7.36,2.9,11.08S107.37,190.22,107.79,194Z" style="fill: #fff"/>
      <path d="M117.1,179.55c-1.19-3.65-2.08-7.36-2.9-11.09s-1.5-7.48-1.92-11.29c1.19,3.64,2.08,7.35,2.9,11.08S116.68,175.73,117.1,179.55Z" style="fill: #fff"/>
      <path d="M119.16,176.44a80.49,80.49,0,0,1-2.49-9.22,78.64,78.64,0,0,1-1.52-9.44,80.7,80.7,0,0,1,2.5,9.23A80.5,80.5,0,0,1,119.16,176.44Z" style="fill: #fff"/>
      <path d="M121.28,172.84a38.57,38.57,0,0,1-1.86-6.31,37.34,37.34,0,0,1-.89-6.52,38.28,38.28,0,0,1,1.86,6.31A37.34,37.34,0,0,1,121.28,172.84Z" style="fill: #fff"/>
      <path d="M98.64,195.67a43.21,43.21,0,0,1-2.76-12.83,44.06,44.06,0,0,1,2.76,12.83Z" style="fill: #fff"/>
      <path d="M95.47,193.64a13.21,13.21,0,0,1-1.29-3.59,13,13,0,0,1-.3-3.8,14.64,14.64,0,0,1,1.59,7.39Z" style="fill: #fff"/>
      <path d="M137,214.52c3.43-1.72,7-3.17,10.52-4.54a113.48,113.48,0,0,1,10.87-3.62,113.52,113.52,0,0,1-10.52,4.55A113.43,113.43,0,0,1,137,214.52Z" style="fill: #fff"/>
      <path d="M142.52,204.8c3.43-1.73,7-3.17,10.52-4.55a114.36,114.36,0,0,1,10.87-3.61,113.26,113.26,0,0,1-10.51,4.54C149.83,202.53,146.23,203.8,142.52,204.8Z" style="fill: #fff"/>
      <path d="M146.9,195.07c3.42-1.73,6.95-3.17,10.51-4.55s7.17-2.62,10.87-3.61c-3.42,1.73-6.95,3.17-10.51,4.55S150.6,194.08,146.9,195.07Z" style="fill: #fff"/>
      <path d="M148.37,191.64a78.93,78.93,0,0,1,8.74-3.86,77.23,77.23,0,0,1,9.1-2.94,81.79,81.79,0,0,1-8.74,3.87A79.71,79.71,0,0,1,148.37,191.64Z" style="fill: #fff"/>
      <path d="M150.24,187.9a37.48,37.48,0,0,1,5.95-2.8,36.67,36.67,0,0,1,6.31-1.87,37.89,37.89,0,0,1-5.95,2.8A38.83,38.83,0,0,1,150.24,187.9Z" style="fill: #fff"/>
      <path d="M143.44,219.33a38.92,38.92,0,0,1,6-2.8,36.56,36.56,0,0,1,6.3-1.87,43.4,43.4,0,0,1-12.26,4.67Z" style="fill: #fff"/>
      <path d="M146.87,220.89a14.44,14.44,0,0,1,7.06-2.7,14.44,14.44,0,0,1-7.06,2.7Z" style="fill: #fff"/>
      <line x1="48.3" y1="92.21" x2="49.15" y2="98.15" style="fill: none;stroke: #fff;stroke-miterlimit: 10"/>
      <line x1="49.91" y1="93.25" x2="50.77" y2="99.19" style="fill: none;stroke: #fff;stroke-miterlimit: 10"/>
      <line x1="51.69" y1="94.2" x2="52.54" y2="100.14" style="fill: none;stroke: #fff;stroke-miterlimit: 10"/>
      <line x1="61.06" y1="98.51" x2="62.01" y2="105.11" style="fill: none;stroke: #fff;stroke-miterlimit: 10"/>
      <line x1="57.99" y1="94.53" x2="59.32" y2="103.81" style="fill: none;stroke: #fff;stroke-miterlimit: 10"/>
      <line x1="53.47" y1="94.28" x2="54.33" y2="100.22" style="fill: none;stroke: #fff;stroke-miterlimit: 10"/>
      <line x1="55.36" y1="95.32" x2="56.96" y2="106.46" style="fill: none;stroke: #fff;stroke-miterlimit: 10"/>
      <line x1="63.75" y1="100.03" x2="64.6" y2="105.97" style="fill: none;stroke: #fff;stroke-miterlimit: 10"/>
      <line x1="65.82" y1="101.07" x2="66.67" y2="107.01" style="fill: none;stroke: #fff;stroke-miterlimit: 10"/>
      <line x1="67.7" y1="102.1" x2="68.56" y2="108.04" style="fill: none;stroke: #fff;stroke-miterlimit: 10"/>
      <line x1="69.48" y1="103.2" x2="70.33" y2="109.14" style="fill: none;stroke: #fff;stroke-miterlimit: 10"/>
      <line x1="70.98" y1="103.81" x2="71.83" y2="109.75" style="fill: none;stroke: #fff;stroke-miterlimit: 10"/>
      <line x1="72.42" y1="104.63" x2="73.27" y2="110.57" style="fill: none;stroke: #fff;stroke-miterlimit: 10"/>
      <line x1="74.2" y1="105.64" x2="75.06" y2="111.58" style="fill: none;stroke: #fff;stroke-miterlimit: 10"/>
      <line x1="75.66" y1="106.44" x2="76.52" y2="112.38" style="fill: none;stroke: #fff;stroke-miterlimit: 10"/>
      <line x1="77.2" y1="107.27" x2="78.06" y2="113.21" style="fill: none;stroke: #fff;stroke-miterlimit: 10"/>
      <line x1="79.03" y1="108.61" x2="79.88" y2="114.55" style="fill: none;stroke: #fff;stroke-miterlimit: 10"/>
      <line x1="80.91" y1="109.21" x2="81.76" y2="115.15" style="fill: none;stroke: #fff;stroke-miterlimit: 10"/>
      <line x1="83.17" y1="110.24" x2="84.42" y2="118.94" style="fill: none;stroke: #fff;stroke-miterlimit: 10"/>
      <line x1="85.08" y1="107.35" x2="86.47" y2="117.01" style="fill: none;stroke: #fff;stroke-miterlimit: 10"/>
      <line x1="87.84" y1="113.02" x2="88.69" y2="118.96" style="fill: none;stroke: #fff;stroke-miterlimit: 10"/>
      <line x1="90.21" y1="114.52" x2="91.06" y2="120.46" style="fill: none;stroke: #fff;stroke-miterlimit: 10"/>
      <line x1="93.01" y1="116.3" x2="93.86" y2="122.24" style="fill: none;stroke: #fff;stroke-miterlimit: 10"/>
      <line x1="96.1" y1="117.49" x2="96.96" y2="123.43" style="fill: none;stroke: #fff;stroke-miterlimit: 10"/>
      <line x1="100.18" y1="119.64" x2="101.04" y2="125.58" style="fill: none;stroke: #fff;stroke-miterlimit: 10"/>
      <line x1="104.61" y1="122.13" x2="105.46" y2="128.07" style="fill: none;stroke: #fff;stroke-miterlimit: 10"/>
      <line x1="107.85" y1="123.69" x2="108.7" y2="129.63" style="fill: none;stroke: #fff;stroke-miterlimit: 10"/>
      <line x1="110.85" y1="125.48" x2="111.7" y2="131.42" style="fill: none;stroke: #fff;stroke-miterlimit: 10"/>
      <line x1="113.72" y1="127.64" x2="114.57" y2="133.58" style="fill: none;stroke: #fff;stroke-miterlimit: 10"/>
      <line x1="116.39" y1="129.03" x2="117.24" y2="134.96" style="fill: none;stroke: #fff;stroke-miterlimit: 10"/>
      <line x1="118.73" y1="130.1" x2="119.58" y2="136.04" style="fill: none;stroke: #fff;stroke-miterlimit: 10"/>
      <line x1="121.22" y1="131.06" x2="122.08" y2="137" style="fill: none;stroke: #fff;stroke-miterlimit: 10"/>
      <line x1="123.87" y1="133.07" x2="124.73" y2="139.01" style="fill: none;stroke: #fff;stroke-miterlimit: 10"/>
      <line x1="127.33" y1="134.98" x2="128.18" y2="140.92" style="fill: none;stroke: #fff;stroke-miterlimit: 10"/>
      <line x1="131.19" y1="137.06" x2="132.04" y2="143" style="fill: none;stroke: #fff;stroke-miterlimit: 10"/>
      <line x1="135.53" y1="139.27" x2="136.39" y2="145.21" style="fill: none;stroke: #fff;stroke-miterlimit: 10"/>
      <line x1="140.15" y1="141.7" x2="141.01" y2="147.64" style="fill: none;stroke: #fff;stroke-miterlimit: 10"/>
      <line x1="256.5" y1="204.35" x2="251.08" y2="206.93" style="fill: none;stroke: #fff;stroke-miterlimit: 10"/>
      <line x1="255.03" y1="203.47" x2="249.61" y2="206.05" style="fill: none;stroke: #fff;stroke-miterlimit: 10"/>
      <line x1="253.25" y1="202.51" x2="247.83" y2="205.09" style="fill: none;stroke: #fff;stroke-miterlimit: 10"/>
      <line x1="243.04" y1="196.11" x2="237.02" y2="198.97" style="fill: none;stroke: #fff;stroke-miterlimit: 10"/>
      <line x1="248.02" y1="196.96" x2="239.56" y2="200.98" style="fill: none;stroke: #fff;stroke-miterlimit: 10"/>
      <line x1="251.99" y1="201.02" x2="245.05" y2="204.32" style="fill: none;stroke: #fff;stroke-miterlimit: 10"/>
      <line x1="249.53" y1="199.59" x2="239.35" y2="204.42" style="fill: none;stroke: #fff;stroke-miterlimit: 10"/>
      <line x1="240.95" y1="195.21" x2="235.53" y2="197.79" style="fill: none;stroke: #fff;stroke-miterlimit: 10"/>
      <line x1="238.95" y1="194.06" x2="233.53" y2="196.64" style="fill: none;stroke: #fff;stroke-miterlimit: 10"/>
      <line x1="237.04" y1="193.06" x2="231.62" y2="195.64" style="fill: none;stroke: #fff;stroke-miterlimit: 10"/>
      <line x1="235.14" y1="192.2" x2="229.72" y2="194.77" style="fill: none;stroke: #fff;stroke-miterlimit: 10"/>
      <line x1="233.81" y1="191.28" x2="228.39" y2="193.85" style="fill: none;stroke: #fff;stroke-miterlimit: 10"/>
      <line x1="232.32" y1="190.54" x2="226.9" y2="193.11" style="fill: none;stroke: #fff;stroke-miterlimit: 10"/>
      <line x1="230.5" y1="189.61" x2="225.08" y2="192.18" style="fill: none;stroke: #fff;stroke-miterlimit: 10"/>
      <line x1="229.02" y1="188.84" x2="223.6" y2="191.41" style="fill: none;stroke: #fff;stroke-miterlimit: 10"/>
      <line x1="227.48" y1="188.01" x2="222.06" y2="190.59" style="fill: none;stroke: #fff;stroke-miterlimit: 10"/>
      <line x1="225.35" y1="187.23" x2="219.93" y2="189.81" style="fill: none;stroke: #fff;stroke-miterlimit: 10"/>
      <line x1="223.81" y1="186" x2="218.39" y2="188.58" style="fill: none;stroke: #fff;stroke-miterlimit: 10"/>
      <line x1="220.5" y1="185.26" x2="212.56" y2="189.03" style="fill: none;stroke: #fff;stroke-miterlimit: 10"/>
      <line x1="219.66" y1="183.1" x2="213.82" y2="185.88" style="fill: none;stroke: #fff;stroke-miterlimit: 10"/>
      <line x1="216.8" y1="182.34" x2="211.38" y2="184.91" style="fill: none;stroke: #fff;stroke-miterlimit: 10"/>
      <line x1="214.25" y1="181.19" x2="208.83" y2="183.76" style="fill: none;stroke: #fff;stroke-miterlimit: 10"/>
      <line x1="211.21" y1="179.84" x2="205.79" y2="182.42" style="fill: none;stroke: #fff;stroke-miterlimit: 10"/>
      <line x1="208.51" y1="177.92" x2="203.09" y2="180.5" style="fill: none;stroke: #fff;stroke-miterlimit: 10"/>
      <line x1="204.46" y1="175.72" x2="199.04" y2="178.29" style="fill: none;stroke: #fff;stroke-miterlimit: 10"/>
      <line x1="199.94" y1="173.41" x2="194.52" y2="175.99" style="fill: none;stroke: #fff;stroke-miterlimit: 10"/>
      <line x1="196.84" y1="171.58" x2="191.42" y2="174.15" style="fill: none;stroke: #fff;stroke-miterlimit: 10"/>
      <line x1="193.69" y1="170.07" x2="188.27" y2="172.65" style="fill: none;stroke: #fff;stroke-miterlimit: 10"/>
      <line x1="190.31" y1="168.87" x2="184.89" y2="171.45" style="fill: none;stroke: #fff;stroke-miterlimit: 10"/>
      <line x1="187.68" y1="167.42" x2="182.26" y2="169.99" style="fill: none;stroke: #fff;stroke-miterlimit: 10"/>
      <line x1="185.49" y1="166.06" x2="180.07" y2="168.63" style="fill: none;stroke: #fff;stroke-miterlimit: 10"/>
      <line x1="183.3" y1="164.52" x2="177.88" y2="167.09" style="fill: none;stroke: #fff;stroke-miterlimit: 10"/>
      <line x1="180.17" y1="163.42" x2="174.75" y2="165.99" style="fill: none;stroke: #fff;stroke-miterlimit: 10"/>
      <line x1="176.66" y1="161.6" x2="171.24" y2="164.17" style="fill: none;stroke: #fff;stroke-miterlimit: 10"/>
      <line x1="172.79" y1="159.53" x2="167.37" y2="162.11" style="fill: none;stroke: #fff;stroke-miterlimit: 10"/>
      <line x1="168.55" y1="157.14" x2="163.13" y2="159.72" style="fill: none;stroke: #fff;stroke-miterlimit: 10"/>
      <line x1="163.97" y1="154.64" x2="158.55" y2="157.21" style="fill: none;stroke: #fff;stroke-miterlimit: 10"/>
      <line x1="95.19" y1="207.41" x2="92.51" y2="212.78" style="fill: none;stroke: #fff;stroke-miterlimit: 10"/>
      <line x1="96.52" y1="207.76" x2="93.84" y2="213.13" style="fill: none;stroke: #fff;stroke-miterlimit: 10"/>
      <line x1="97.68" y1="208.93" x2="95" y2="214.29" style="fill: none;stroke: #fff;stroke-miterlimit: 10"/>
      <line x1="99.03" y1="209.37" x2="96.34" y2="214.74" style="fill: none;stroke: #fff;stroke-miterlimit: 10"/>
      <line x1="100.15" y1="209.89" x2="97.46" y2="215.25" style="fill: none;stroke: #fff;stroke-miterlimit: 10"/>
      <line x1="101.31" y1="210.74" x2="98.62" y2="216.11" style="fill: none;stroke: #fff;stroke-miterlimit: 10"/>
      <line x1="102.72" y1="211.22" x2="100.03" y2="216.58" style="fill: none;stroke: #fff;stroke-miterlimit: 10"/>
      <line x1="104.29" y1="211.96" x2="101.6" y2="217.33" style="fill: none;stroke: #fff;stroke-miterlimit: 10"/>
      <line x1="105.94" y1="213.06" x2="103.25" y2="218.43" style="fill: none;stroke: #fff;stroke-miterlimit: 10"/>
      <line x1="133.13" y1="227.83" x2="130.49" y2="233.23" style="fill: none;stroke: #fff;stroke-miterlimit: 10"/>
      <line x1="131.81" y1="227.46" x2="129.17" y2="232.85" style="fill: none;stroke: #fff;stroke-miterlimit: 10"/>
      <line x1="130.41" y1="226.78" x2="127.77" y2="232.17" style="fill: none;stroke: #fff;stroke-miterlimit: 10"/>
      <line x1="129.24" y1="225.98" x2="126.61" y2="231.37" style="fill: none;stroke: #fff;stroke-miterlimit: 10"/>
      <line x1="128.15" y1="225.4" x2="125.52" y2="230.79" style="fill: none;stroke: #fff;stroke-miterlimit: 10"/>
      <line x1="126.77" y1="224.99" x2="124.13" y2="230.39" style="fill: none;stroke: #fff;stroke-miterlimit: 10"/>
      <line x1="125.14" y1="223.93" x2="122.5" y2="229.32" style="fill: none;stroke: #fff;stroke-miterlimit: 10"/>
      <line x1="123.55" y1="223.15" x2="120.91" y2="228.54" style="fill: none;stroke: #fff;stroke-miterlimit: 10"/>
      <path d="M117.72,212.33a74.31,74.31,0,0,1-3.85,8.29,73.15,73.15,0,0,1-4.74,7.81,83.35,83.35,0,0,1,8.59-16.1Z" style="fill: #fff"/>
      <line x1="143.77" y1="88.15" x2="140.63" y2="94.02" style="fill: none;stroke: #fff;stroke-miterlimit: 10"/>
      <line x1="145.78" y1="89.66" x2="142.64" y2="95.53" style="fill: none;stroke: #fff;stroke-miterlimit: 10"/>
      <line x1="147.45" y1="90.55" x2="144.31" y2="96.42" style="fill: none;stroke: #fff;stroke-miterlimit: 10"/>
      <line x1="148.86" y1="91.31" x2="145.72" y2="97.18" style="fill: none;stroke: #fff;stroke-miterlimit: 10"/>
      <line x1="150.11" y1="91.98" x2="146.97" y2="97.85" style="fill: none;stroke: #fff;stroke-miterlimit: 10"/>
      <line x1="151.65" y1="92.81" x2="148.51" y2="98.67" style="fill: none;stroke: #fff;stroke-miterlimit: 10"/>
      <line x1="153.66" y1="93.45" x2="150.52" y2="99.31" style="fill: none;stroke: #fff;stroke-miterlimit: 10"/>
      <line x1="155.23" y1="94.66" x2="152.09" y2="100.53" style="fill: none;stroke: #fff;stroke-miterlimit: 10"/>
      <line x1="157.22" y1="95.79" x2="154.08" y2="101.66" style="fill: none;stroke: #fff;stroke-miterlimit: 10"/>
      <line x1="164.73" y1="99.81" x2="161.59" y2="105.68" style="fill: none;stroke: #fff;stroke-miterlimit: 10"/>
      <line x1="168.49" y1="101.64" x2="165.35" y2="107.51" style="fill: none;stroke: #fff;stroke-miterlimit: 10"/>
      <line x1="182.72" y1="109.45" x2="179.58" y2="115.31" style="fill: none;stroke: #fff;stroke-miterlimit: 10"/>
      <line x1="185.02" y1="110.68" x2="181.88" y2="116.55" style="fill: none;stroke: #fff;stroke-miterlimit: 10"/>
      <line x1="186.94" y1="111.65" x2="183.8" y2="117.51" style="fill: none;stroke: #fff;stroke-miterlimit: 10"/>
      <line x1="188.51" y1="112.38" x2="185.37" y2="118.25" style="fill: none;stroke: #fff;stroke-miterlimit: 10"/>
      <path d="M11.42,170.77a9.68,9.68,0,0,1-1.16-6,8.69,8.69,0,0,1,1.07,2.91A8.52,8.52,0,0,1,11.42,170.77Z" style="fill: #fff"/>
      <line x1="159.36" y1="96.5" x2="156.22" y2="102.37" style="fill: none;stroke: #fff;stroke-miterlimit: 10"/>
      <line x1="161.7" y1="98.01" x2="158.56" y2="103.87" style="fill: none;stroke: #fff;stroke-miterlimit: 10"/>
    </g>
  </g>
</svg>
