<svg id="Layer_2" data-name="Layer 2" xmlns="http://www.w3.org/2000/svg" viewBox="0 0 300 300">
  <title>jupiter</title>
  <g>
    <circle cx="149.98" cy="150" r="140.49" style="fill: none;stroke: #fff;stroke-miterlimit: 10;stroke-width: 2px"/>
    <path d="M9.49,153.83A9.55,9.55,0,0,1,15,154.92c1.84,1,2.23,2.22,3.28,3.28,3.68,3.69,9-.51,16.4,2.19.81.29,3.46,2,8.75,5.46,4.5,2.93,4.42,3.16,6.56,4.38a43.14,43.14,0,0,0,10.93,4.37c1.06.25,2.35.52,9.84,1.09,9.77.75,10.24.51,15.31,1.1a91,91,0,0,1,12,2.18,31.5,31.5,0,0,1,6.56,2.19c2.24,1.09,2.64,1.69,4.37,2.19,2.34.66,3.45.09,6.56,0a28.85,28.85,0,0,1,8.75,1.09,33,33,0,0,1,7.65,3.28,56.92,56.92,0,0,1,6.56,4.37,43.65,43.65,0,0,0,15.3,6.56c5.3,1.3,9.87,2.42,15.31,1.1,2.61-.64,3.66-1.41,7.65-2.19,5.24-1,5.77-.17,8.75-1.09,5.19-1.62,4.73-4.59,9.84-6.56,4.16-1.61,4.22.45,10.93-1.1,3.54-.81,4.51-1.61,10.94-3.28,3.21-.83,3-.64,4.37-1.09,4.36-1.44,6.63-3.39,9.84-5.47a48.83,48.83,0,0,1,10.93-5.46c3.18-1.06,6.86-1.44,14.22-2.19,6.27-.64,6.82-.4,10.93-1.09l9.84-2.19a42.31,42.31,0,0,0,7.65-2.19,34.63,34.63,0,0,0,4.38-2.18" style="fill: none;stroke: #fff;stroke-miterlimit: 10;stroke-width: 2px"/>
    <path d="M18.23,198.65a18.28,18.28,0,0,0,4.38,3.28,21.71,21.71,0,0,0,7.65,2.19,39.22,39.22,0,0,0,9.84,0c6.52-.78,7-2.27,12-2.19a55,55,0,0,1,7.65,1.1c5.76,1,6.91,1.67,7.65,2.18s.59.52,4.38,4.38c1.89,1.92,2.83,2.88,3.28,3.28a23.05,23.05,0,0,0,7.65,4.37c4.35,1.63,5.62.92,13.12,2.19a98.91,98.91,0,0,1,9.84,2.18c6.25,1.7,6.71,2.46,13.12,4.38,7.19,2.14,7,1.27,13.12,3.28,5.28,1.71,5.88,2.48,12,4.37,6.31,1.94,9,2.13,9.83,2.18,2.84.17,5.18-.27,9.84-1.09,6.16-1.08,6.29-1.62,10.94-2.18,6.08-.74,8.94-.2,9.84,0,2.35.49,2.53.94,4.37,1.09,3.29.27,5.61-.91,8.75-2.19s6.56-2.17,9.84-3.28A113.26,113.26,0,0,1,226,223.8c8-1.4,7.75-.75,15.31-2.19,4.19-.8,6-1.33,14.21-3.28,6.19-1.47,9.35-1.35,14.22-3.28a42.76,42.76,0,0,0,6.56-3.28" style="fill: none;stroke: #fff;stroke-miterlimit: 10;stroke-width: 2px"/>
    <path d="M47.58,246.19a52.52,52.52,0,0,1,9.6,1.65c3.19.88,3.58,1.33,6,1.68,3.8.56,4.6-.32,8.6.24A23.45,23.45,0,0,1,78,251.43c3.94,1.69,3.76,3,6.93,4.07,1.82.61,3.77.64,7.66.71,4.53.08,4.45-.38,6.21,0,3.82.83,3.9,2.94,7.65,4.07,1,.3,1.42.27,8.37,0,7.72-.31,8-.31,8.61-.24,2.35.24,2.48.59,10,2.87,6.64,2,8.28,2.25,9.56,2.39a34.94,34.94,0,0,0,7.18,0c4.64-.41,5.77-1.28,12.43-2.15a18.7,18.7,0,0,1,5.5-.24c3.08.44,4.08,1.61,6.46,2.15,2.59.59,4.64-.07,8.6-1.44,11-3.78,14.11-5,14.11-5,6.06-2.42,9.18-3.72,14.58-5.73,6.8-2.54,8.52-3,10.76-3.11,2.6-.18,3.58.16,9.09,0a44.14,44.14,0,0,0,6.69-.48,33.74,33.74,0,0,0,8.61-2.87,45.82,45.82,0,0,0,5-2.74,66.21,66.21,0,0,0,6.81-4.81" style="fill: none;stroke: #fff;stroke-miterlimit: 10;stroke-width: 2px"/>
    <path d="M10.87,130.22a18.62,18.62,0,0,0,2.8,8.09,16.47,16.47,0,0,0,4.54,4.84c.8.55,2.82,1.82,10.88,3,6.49,1,7.57.49,10.59,1.81,2.13.94,2.22,1.45,5.74,3.63a76.27,76.27,0,0,0,9.38,4.84c4.53,1.89,8,2.53,13.91,3.63a137,137,0,0,0,14.51,1.81c7.15.53,11,.81,16.33.31,3.66-.35,6-.87,10.28-.61a44.4,44.4,0,0,1,7.86,1.21c5.78,1.42,6.27,2.75,10.89,3.93a31.67,31.67,0,0,0,12.09.61,35.9,35.9,0,0,0,11.49-3.63c5.56-2.82,5.51-4.55,14.22-10.59,6.78-4.7,9.39-5.45,10.58-5.74,3.17-.78,6.43-1.58,10.28-.61,2.14.55,3.58,1.42,5.75.91,1.83-.43,2.66-1.49,4.23-2.72a24,24,0,0,1,8.47-3.93c.74-.18,7.67-1.72,13.3,1.81.25.16,2.59,1.92,7.26,5.45A17.82,17.82,0,0,0,229,150.1c2.61,1.35,3.9,1,6.65,1.81,4,1.14,3.8,2.55,7.26,3.33,1.87.42,3.36.28,6.35,0,5.47-.52,6-1.48,10.28-1.81,3.81-.3,3.59.44,8.77.3,3.85-.11,6.18-.17,9.07-1.21s4.63-2.37,7.56-4.54a53.44,53.44,0,0,0,5.4-4.56" style="fill: none;stroke: #fff;stroke-miterlimit: 10;stroke-width: 2px"/>
    <path d="M24.53,86.69a18.39,18.39,0,0,0,3,6.15,27.7,27.7,0,0,0,5.05,4.77c3,2.42,4.42,3.63,5.62,4.22,1.45.71,3.8,1.52,11.24.84,5.08-.46,5.39-1,12.37-2,8.89-1.28,11.35-.89,13.49,0s1.74,1.33,5.33,3.37a46.81,46.81,0,0,0,10.12,4.21c1.46.44,3.84,1.08,13.21,2.25,6.6.82,10.8,1.34,16.86,1.69,4.12.23,6,0,14.05.28,5.53.19,7.27.34,9.55,1.12,4.09,1.4,4.45,2.93,8.71,4.78a28.62,28.62,0,0,0,11,2.25,34.6,34.6,0,0,0,14-2.81c5.15-2.21,5-3.65,9.55-5.06,2.63-.82,5.35-.93,10.68-1.13,7.87-.28,8.34.41,12.93-.28a35,35,0,0,0,9.55-2.53c3.51-1.53,4-2.51,7-3.37,2.68-.75,4.26-.54,8.43-.56.89,0,6.26,0,11.24-.56,2-.21,6.1-1.17,14.33-3.09a17.61,17.61,0,0,0,7.31-3.09A17.07,17.07,0,0,0,272,95.37a18.79,18.79,0,0,0,2.81-5.06,21.11,21.11,0,0,0,.91-3" style="fill: none;stroke: #fff;stroke-miterlimit: 10;stroke-width: 2px"/>
    <path d="M45.08,56.54a8.25,8.25,0,0,0,0,4.12A9.34,9.34,0,0,0,47.86,65a15.47,15.47,0,0,0,5.29,3.53c3,1.15,5.54,1,8.57.75,3.58-.27,3.55-.83,8.57-1.51,3.81-.51,5.77-.76,8.32-.25a14.62,14.62,0,0,1,6,2.52c2.41,1.78,2.07,2.82,4,4.29,1.11.82,2.5,1.45,9.07,2,4.15.35,4.67.19,9.33.51,7.5.5,9.16,1.12,10.08,1.51a43.92,43.92,0,0,1,5.8,3.53c3.36,2.21,4.56,3.22,5.79,4,5,3.3,10.49,3.57,14.62,3.78,3.87.19,7.37-.46,14.37-1.76,6.53-1.22,9.79-1.83,13.36-3.53,4.25-2,4.59-3.27,8.57-4.54a22.7,22.7,0,0,1,10.33-1c3,.44,2.89,1.13,9.33,3,4.05,1.19,6.1,1.78,7.81,1.51,3.08-.49,3.45-2.14,7.82-4a39.32,39.32,0,0,1,7.56-2c5.23-1.11,6.07-1,11.34-2A88.66,88.66,0,0,0,246.49,72c2.84-1,4.74-1.81,6.55-3.53a11.68,11.68,0,0,0,3.28-5,11.49,11.49,0,0,0,.44-4.74" style="fill: none;stroke: #fff;stroke-miterlimit: 10;stroke-width: 2px"/>
    <path d="M74.24,31.65a16.42,16.42,0,0,1,4.31-.5c1.68,0,2.81.06,3.91.79.39.26.89.67,2.15,2.93s1.33,2.83,2.16,4.31c1,1.8,1.85,3.32,3.32,4.3,2,1.29,4.13,1.07,6.66.78,2.17-.24,2.72-.64,9.39-2.74,3.77-1.18,5-1.49,6.65-1.17a13.08,13.08,0,0,1,4.31,2c2.69,1.6,2.91,2.38,4.89,3.52a16.6,16.6,0,0,0,6.45,2,25.68,25.68,0,0,0,8.22-.4c4.18-.69,4.63-1.41,8-1.76a32.12,32.12,0,0,1,6.84.2,80.23,80.23,0,0,1,12.14,2.54c6.81,1.73,10.21,2.59,13.5,3.13,1.17.2,4.69.33,11.74.59,2.12.08,4.4.13,6.06-1.37a7.49,7.49,0,0,0,2-3.33c.64-2.18-.16-3.06.59-4.3.31-.52,1-1.28,4.11-2,2.65-.58,3.91-.41,7-.58a49.78,49.78,0,0,0,8.22-1.18c3.57-.82,4.51-1.49,5.09-2.35a6.24,6.24,0,0,0,.78-3.91,9,9,0,0,0-1.22-4" style="fill: none;stroke: #fff;stroke-miterlimit: 10;stroke-width: 2px"/>
    <path d="M167.42,182.48a17.62,17.62,0,0,0,5.23.22c1.53-.22,2-.61,5.9-2.34,2.53-1.13,3.8-1.7,4.9-2.11,2.48-.93,4.28-1.15,8.9-1.67,9.07-1,9.11-1,11-1.22,5.79-.84,3.61-1,11-2.45a14.49,14.49,0,0,0,5.68-2.23,8.28,8.28,0,0,0,2.44-2.45,7,7,0,0,0,1.12-3,6.4,6.4,0,0,0-.89-4.23c-.48-.71-.63-.54-2.12-2-1.15-1.14-1.17-1.35-2.33-2.56a16.79,16.79,0,0,0-3.12-2.79,8.18,8.18,0,0,0-3.67-1.44,4.87,4.87,0,0,0-2.79.33c-.86.42-.82.82-2.22,2.23a11.79,11.79,0,0,1-2.78,2.22,9.41,9.41,0,0,1-2.34.89,14,14,0,0,1-4,.11,30.27,30.27,0,0,0-4.23,0c-2,.33-1.91.91-3.89,1.34s-2.26-.11-5.23.11a11.81,11.81,0,0,0-4.79,1,15.85,15.85,0,0,0-3.56,3c-1.89,1.85-1.82,2.08-3.23,3.34a32.82,32.82,0,0,1-3.67,2.78,36,36,0,0,0-3.9,2.67,7.57,7.57,0,0,0-2.33,2.89,7.65,7.65,0,0,0-.45,2.56,4.3,4.3,0,0,0,.22,2.12,4,4,0,0,0,2,1.78A8.83,8.83,0,0,0,167.42,182.48Z" style="fill: none;stroke: #fff;stroke-miterlimit: 10;stroke-width: 2px"/>
    <path d="M104.53,65.71a29.91,29.91,0,0,0,3.48.53,11.25,11.25,0,0,0,3.69-.11,11.53,11.53,0,0,0,7.07-5.58c.91-1.77.88-4.18-.6-5.5a6.59,6.59,0,0,0-1.8-1c-1.25-.56-2.51-1.13-3.78-1.66a11.89,11.89,0,0,0-4.49-1.19,6.51,6.51,0,0,0-3.58,1.05,26,26,0,0,0-2.28,1.92,17.21,17.21,0,0,1-6.88,3.42c-1.31.34-2.87.61-3.16,2.17a3,3,0,0,0,.53,2,4.49,4.49,0,0,0,1.68,1.89,7.81,7.81,0,0,0,2.53.64c.78.14,1.17.21,1.9.31C101.09,64.88,101.41,65.13,104.53,65.71Z" style="fill: none;stroke: #fff;stroke-miterlimit: 10;stroke-width: 2px"/>
    <path d="M174.3,175.79c1.25-.72,2.58-1.3,3.87-2a20,20,0,0,1,4.07-1.49,36.37,36.37,0,0,1,5.83-.88,53.39,53.39,0,0,0,7.87-1.29,49,49,0,0,1,5.23-1.56,28.15,28.15,0,0,1,3.86-.54,36.25,36.25,0,0,0,3.8-.21,13.48,13.48,0,0,0,3.33-.95,8.33,8.33,0,0,0,2.44-1.49c1.75-1.56,1.27-3.62-.15-5.28a3.15,3.15,0,0,0-2.47-1.2,4.86,4.86,0,0,0-2.59,1.24,14.24,14.24,0,0,1-5.71,3c-3.16.58-6.49-1-9.59-.17-1.46.4-2.76,1.32-4.26,1.56a13.47,13.47,0,0,1-4-.29,5.45,5.45,0,0,0-3.88.59,14.71,14.71,0,0,0-2.23,2.71,15.13,15.13,0,0,1-3.7,2.6,20.54,20.54,0,0,0-4.1,3.27c-.7.71-1.55,2.35-.21,2.93.19.09.44.13,1.15-.06A6.64,6.64,0,0,0,174.3,175.79Z" style="fill: none;stroke: #fff;stroke-miterlimit: 10"/>
    <path d="M178,254.1a11.19,11.19,0,0,0,8.32-1.66c1.71-1.15,3.19-3.06,2.89-5.1a4.77,4.77,0,0,0-2.88-3.43,11.35,11.35,0,0,0-4.59-.76,39,39,0,0,0-5.61.38,9.36,9.36,0,0,0-3.5,1.05,4.41,4.41,0,0,0-2.11,5.29,4.88,4.88,0,0,0,1.87,2.12,10.17,10.17,0,0,0,2.37,1.19A16.92,16.92,0,0,0,178,254.1Z" style="fill: none;stroke: #fff;stroke-miterlimit: 10;stroke-width: 2px"/>
    <path d="M61.53,217.13a21.2,21.2,0,0,1,2.34,1.16c2.8,1.49,6,2.87,7.45,5.68a10.41,10.41,0,0,1,.46,7.22A8.86,8.86,0,0,1,69.26,236c-2.14,1.86-5.47,1.81-8,.53a17,17,0,0,1-6-5.89,47.76,47.76,0,0,0-5-6.83c-.68-.69-1.8-1.47-1.76-2.55s1.22-2,2.13-2.42a17.77,17.77,0,0,1,5-1.56,14.8,14.8,0,0,1,4.77-.45A7,7,0,0,1,61.53,217.13Z" style="fill: none;stroke: #fff;stroke-miterlimit: 10;stroke-width: 2px"/>
    <path d="M57.94,226.87a16.15,16.15,0,0,0,1.09,2,7.43,7.43,0,0,0,1.69,1.69,4.66,4.66,0,0,0,3.9,1.25,2.6,2.6,0,0,0,2-2.3,6.88,6.88,0,0,0-.62-2.23c-.21-.61-.3-1.26-.54-1.86a5.66,5.66,0,0,0-3.23-3,13.25,13.25,0,0,0-5-.95,2.31,2.31,0,0,0-1,.15,1,1,0,0,0-.62.69,1.56,1.56,0,0,0,.28,1c.27,0,1.43,2.56,1.61,2.89S57.82,226.63,57.94,226.87Z" style="fill: none;stroke: #fff;stroke-miterlimit: 10"/>
    <path d="M282.81,101.88c-7.94,5.44-17.08,8.71-26.34,10.62a154.91,154.91,0,0,1-28.15,2.79,154,154,0,0,0,27.93-3.76c9.1-2.22,17.93-5.77,25.4-11.28Z" style="fill: #fff"/>
    <path d="M232.25,122.35a147.69,147.69,0,0,0,26.62-4.7,107,107,0,0,0,24.78-10.35l1,1.75a108.89,108.89,0,0,1-25.5,9.57A148.68,148.68,0,0,1,232.25,122.35Z" style="fill: #fff"/>
    <path d="M250.88,139.93a121,121,0,0,0,19.86-3.77,57.57,57.57,0,0,0,18.06-8.39l1.15,1.64A59.27,59.27,0,0,1,271,137.13,122.54,122.54,0,0,1,250.88,139.93Z" style="fill: #fff"/>
    <path d="M240.39,182.82c8.13-.67,16.26-1.45,24.28-2.76s16-3.19,23.28-6.56l.81,1.82A71.16,71.16,0,0,1,276.94,179c-4,.91-8.06,1.55-12.12,2.06C256.69,182,248.54,182.48,240.39,182.82Z" style="fill: #fff"/>
    <path d="M219.42,192c11.42-.75,22.83-1.63,34.14-3.23,5.66-.8,11.28-1.79,16.82-3.1a102.6,102.6,0,0,0,16.18-5.16l.76,1.84a103.28,103.28,0,0,1-16.62,4.78c-5.63,1.17-11.32,2-17,2.63C242.29,191,230.86,191.57,219.42,192Z" style="fill: #fff"/>
    <path d="M193.37,219.47c14.58-1.11,29.15-2.41,43.58-4.65,7.21-1.13,14.39-2.5,21.45-4.28a139,139,0,0,0,20.67-6.84l.77,1.85A140.09,140.09,0,0,1,258.75,212c-7.16,1.64-14.4,2.85-21.65,3.82C222.57,217.72,208,218.7,193.37,219.47Z" style="fill: #fff"/>
    <path d="M154.27,19.73c7.73,1,15.45,2.17,23.2,2.73a65.51,65.51,0,0,0,11.55,0,20.46,20.46,0,0,0,5.45-1.28,7.51,7.51,0,0,0,3.92-3.24l1.74,1a9.26,9.26,0,0,1-5,3.9,21.69,21.69,0,0,1-5.94,1.15,67.09,67.09,0,0,1-11.79-.47C169.6,22.55,162,21.06,154.27,19.73Z" style="fill: #fff"/>
    <path d="M160.53,30.3a211.59,211.59,0,0,0,27,.22,100.45,100.45,0,0,0,13.33-1.61,43.93,43.93,0,0,0,6.39-1.74c2-.78,4.06-1.76,5.24-3.26l1.56,1.26a14,14,0,0,1-6.21,3.65,46.6,46.6,0,0,1-6.71,1.57,102.9,102.9,0,0,1-13.56,1.13A212.21,212.21,0,0,1,160.53,30.3Z" style="fill: #fff"/>
    <path d="M167.76,36.84c4.18.13,8.36.22,12.53.19s8.35-.19,12.48-.65a42.36,42.36,0,0,0,12-2.83,15.25,15.25,0,0,0,4.9-3.29,10.35,10.35,0,0,0,2.66-5l1.94.46a12.17,12.17,0,0,1-3.36,5.79,16.9,16.9,0,0,1-5.57,3.45,43.22,43.22,0,0,1-12.45,2.43,125.59,125.59,0,0,1-12.57.16C176.1,37.39,171.93,37.13,167.76,36.84Z" style="fill: #fff"/>
    <path d="M181.63,25.47c-5.54.05-11.08.08-16.62.05s-11.08-.12-16.63-.39a108.5,108.5,0,0,1-16.6-1.83,33.2,33.2,0,0,1-4.1-1.12,15.68,15.68,0,0,1-3.93-1.91,7.11,7.11,0,0,1-2.89-3.65,7.4,7.4,0,0,1,.28-4.69l1.87.7a5.46,5.46,0,0,0-.35,3.46,5.31,5.31,0,0,0,2.11,2.76,13.91,13.91,0,0,0,3.47,1.8,31.68,31.68,0,0,0,3.88,1.19,107,107,0,0,0,16.33,2.29c5.51.44,11,.69,16.57.89S176.09,25.35,181.63,25.47Z" style="fill: #fff"/>
    <path d="M157.62,38.09l-16.29-1.88c-5.43-.66-10.85-1.36-16.26-2.25A115.13,115.13,0,0,1,109,30.35a32.87,32.87,0,0,1-7.66-3.41A13.3,13.3,0,0,1,98,24a7.88,7.88,0,0,1-1.66-4.29l2-.1a5.91,5.91,0,0,0,1.18,3.27,11.15,11.15,0,0,0,2.76,2.57,31,31,0,0,0,7.17,3.45,113.56,113.56,0,0,0,15.77,4C130.6,34,136,34.89,141.4,35.72Z" style="fill: #fff"/>
    <path d="M99.35,43.71a17.68,17.68,0,0,0,4.17.76c1.3.08,2,0,3.73.13A17.22,17.22,0,0,1,110,45a15.81,15.81,0,0,1,4.64,2.19c2.58,1.53,2.43,1.6,4.12,2.57a26.88,26.88,0,0,0,5.4,2.57,22.09,22.09,0,0,0,5.41,1c1.26.12,2.55.16,8-.25,5.06-.39,5.61-.55,8.49-.65a34.18,34.18,0,0,1,6.44.13,32.24,32.24,0,0,1,6.56,1.8c3.48,1.22,3.86,1.69,7.08,2.84a55,55,0,0,0,6.83,1.93,53.8,53.8,0,0,0,9.91,1,63.62,63.62,0,0,0,7.46-.26c4.12-.35,5.74-.83,7.08-1.42A13.54,13.54,0,0,0,201,56.19c1.08-1,1.81-1.63,2.06-2.71.14-.6,0-.83-.52-3.6-.43-2.25-.43-2.56-.33-3A5,5,0,0,1,204,44.39a12,12,0,0,1,3-1.85c.95-.46,2.48-1.22,4.49-2.24" style="fill: none;stroke: #fff;stroke-miterlimit: 10"/>
    <path d="M225.07,76.79c-4.14.21-7.52.22-10,.18a44.26,44.26,0,0,1-4.72-.28,51.62,51.62,0,0,1-6.11-1.25c-2.36-.59-4.38-1.09-7.08-2-4.63-1.47-4.87-2-7.64-2.5a20.84,20.84,0,0,0-6.11-.41,27.91,27.91,0,0,0-6.11,1.53c-2.29.72-4,1.37-7.22,2.63-4.22,1.64-4.25,1.75-6.39,2.5a53.24,53.24,0,0,1-6.94,2.09,35.92,35.92,0,0,1-8.2,1,33.51,33.51,0,0,1-7.36-.83,26.29,26.29,0,0,1-6.38-2.23c-2.37-1.2-2.62-1.82-4.45-2.77-2.5-1.31-4.68-1.52-7.91-1.81s-5.5-.12-13.43.41c-1.94.13-3.91.31-7,.46a54.78,54.78,0,0,1-6.67,0A25.63,25.63,0,0,1,91,73a20.55,20.55,0,0,1-5.28-2.07" style="fill: none;stroke: #fff;stroke-miterlimit: 10"/>
    <path d="M235.8,38.56A19.61,19.61,0,0,1,229.41,45a31.66,31.66,0,0,1-8.08,3.57A52.51,52.51,0,0,1,204,50.25a51.57,51.57,0,0,0,17-2.69,29.58,29.58,0,0,0,7.55-3.86A18,18,0,0,0,234,37.61Z" style="fill: #fff"/>
    <path d="M243.24,44.68A17.73,17.73,0,0,1,237.35,50a43.64,43.64,0,0,1-7,3.22,112.44,112.44,0,0,1-14.66,4A112.17,112.17,0,0,0,230,52.28a42.55,42.55,0,0,0,6.55-3.55,15.94,15.94,0,0,0,5-5.07Z" style="fill: #fff"/>
    <path d="M178.33,100.14a95,95,0,0,0,18.1-1.06c3-.5,6.06-.81,8.87-1.56,1.36-.36,2.77-1,4.34-1.41a18.23,18.23,0,0,1,4.76-.61,36.91,36.91,0,0,1,4.69.38c1.57.25,3,.61,4.45.78a43.69,43.69,0,0,0,8.9-.23c3-.29,6-.87,8.93-1.43s5.94-1.26,8.9-2A89.45,89.45,0,0,1,232.63,98c-1.54.22-3,.41-4.58.54a24.69,24.69,0,0,1-4.71,0c-1.59-.14-3.11-.53-4.54-.73a36,36,0,0,0-4.41-.31,16.45,16.45,0,0,0-4.26.5c-1.39.33-2.77,1-4.35,1.35a39.94,39.94,0,0,1-4.61.77c-1.52.2-3,.35-4.54.5A66.74,66.74,0,0,1,178.33,100.14Z" style="fill: #fff"/>
    <path d="M70.76,34.58a4.87,4.87,0,0,0,.74,2.23,12.37,12.37,0,0,0,1.65,2.1,34.1,34.1,0,0,0,4.28,3.62c3.06,2.23,6.33,4.2,9.61,6.15C83.6,47,80.17,45.35,76.87,43.36A34.17,34.17,0,0,1,72.12,40,13.69,13.69,0,0,1,70,37.78a6.85,6.85,0,0,1-1.28-3.07Z" style="fill: #fff"/>
    <path d="M63.9,39.55a6.67,6.67,0,0,0,1.45,2.93,12.63,12.63,0,0,0,1.25,1.29A15.8,15.8,0,0,0,68,44.93a40.2,40.2,0,0,0,6.49,3.79,135.57,135.57,0,0,0,14.16,5.65,138.28,138.28,0,0,1-14.57-4.74,40.43,40.43,0,0,1-6.93-3.47A16.05,16.05,0,0,1,65.54,45,13.65,13.65,0,0,1,64,43.64a8.49,8.49,0,0,1-2.11-3.73Z" style="fill: #fff"/>
    <path d="M56.28,46A5.36,5.36,0,0,0,58.1,48.8a22.6,22.6,0,0,0,3.11,2.31,66.53,66.53,0,0,0,7.05,3.72c4.85,2.26,9.84,4.24,14.82,6.24-5.1-1.68-10.2-3.35-15.22-5.32a66.3,66.3,0,0,1-7.41-3.35A23.2,23.2,0,0,1,57,50.12a7,7,0,0,1-2.64-3.74Z" style="fill: #fff"/>
    <path d="M112.9,201.12q10.89,2.32,21.85,4c7.31,1.09,14.65,2,22,2.46s14.75.76,22.14.71,14.78-.4,22.19-.95a167.77,167.77,0,0,1-22.15,2.51,186.8,186.8,0,0,1-22.32-.28A185.08,185.08,0,0,1,112.9,201.12Z" style="fill: #fff"/>
    <path d="M89.42,204.63q10.5,2.69,21,5.05c7,1.54,14.09,3,21.18,4.18s14.21,2.28,21.35,3.2,14.31,1.7,21.5,2.41c-7.22.06-14.46-.22-21.66-.86s-14.39-1.56-21.53-2.78A234.06,234.06,0,0,1,89.42,204.63Z" style="fill: #fff"/>
    <path d="M35.62,68.37a12.88,12.88,0,0,0,1.79,3.28,13.8,13.8,0,0,0,3.92,3.41,22.19,22.19,0,0,0,6.31,2.55,26.62,26.62,0,0,0,6.48,1.2,31.7,31.7,0,0,0,6.64-.52c3.14-.45,3.28-.76,5.29-.85a22,22,0,0,1,5.62.51,17.8,17.8,0,0,1,5.12,1.71A38.4,38.4,0,0,1,80,81.87a49.6,49.6,0,0,0,4.43,2.9,15.69,15.69,0,0,0,4.77,1.88c1.06.19,1.93.2,5.46-.17,5.36-.58,5.11-.79,7.16-.86a30.91,30.91,0,0,1,7.15.69,25.63,25.63,0,0,1,5.46,1.7,49.13,49.13,0,0,1,4.94,2.9,53.21,53.21,0,0,0,6.48,3.24A43.58,43.58,0,0,0,133,96.36a38,38,0,0,0,9.54,1,41.41,41.41,0,0,0,10.57-1.88c4.23-1.14,7-1.88,10.06-3.75.9-.55,2.14-1.37,4.94-3.07,2-1.23,1.85-1.07,3.75-2.21,4.29-2.58,4.9-3.17,7-4,1.31-.53,2.5-.89,3.08-1.06a38.75,38.75,0,0,1,4.21-1,36.43,36.43,0,0,1,7.67-.45" style="fill: none;stroke: #fff;stroke-miterlimit: 10"/>
    <path d="M29.37,76.87a21.72,21.72,0,0,0,2.52,3.85A18,18,0,0,0,35,83.78a18.44,18.44,0,0,0,5.45,2.79,38.28,38.28,0,0,0,6.38,1.73,68.2,68.2,0,0,0,9.57,1.06c2.62.14,5.07.14,10,.14,4.54,0,5.69-.07,8,.26a46.71,46.71,0,0,1,6.25,1.47,29.7,29.7,0,0,1,6.38,2.25c1.48.79,1.33.94,4.12,2.66A49.28,49.28,0,0,0,96,98.93a39.89,39.89,0,0,0,6.91,2.4,61.66,61.66,0,0,0,8,1.86c2.52.39,4.91.58,6,.66,2.8.22,3.36.14,5,.4a34.6,34.6,0,0,1,5.45,1.46,79.72,79.72,0,0,1,8,3.06c1.09.49,1.93.87,3.06,1.46a40.86,40.86,0,0,1,4.83,3" style="fill: none;stroke: #fff;stroke-miterlimit: 10"/>
    <path d="M283.6,193.51c-1.41.5-3.52,1.26-6.08,2.24-3.62,1.38-4.18,1.7-5.87,2.25a60.55,60.55,0,0,1-8.3,1.72c-2.55.43-5.47.92-9.5,1.38-3.42.4-6.4.64-9.33.87-5,.4-5.57.34-7.6.69s-2.06.49-7.43,1.9c-6.28,1.65-6.15,1.44-8.63,2.25-3.66,1.17-3.69,1.54-7.26,2.59-2.64.77-4.9,1.25-6.39,1.55-3.52.73-3.73.57-6.57,1.21-1,.23-.9.23-6.22,1.73-4.78,1.34-5.36,1.48-6.56,2.07a26.43,26.43,0,0,0-4.32,2.77c-2.07,1.54-2.06,1.88-4.15,3.45a24.92,24.92,0,0,1-4.66,2.94,28.63,28.63,0,0,1-5,1.55c-2.85.74-5.17,1.34-8.47,1.9-2.45.43-4.32.64-6.39.87-2.35.26-4.23.41-5.53.52-2.46.19-3.69.3-5.18.34-2.7.08-4.74,0-5.43-.06-1.54-.08-3.42-.25-5.55-.56" style="fill: none;stroke: #fff;stroke-miterlimit: 10"/>
    <path d="M22.72,209.6a21.12,21.12,0,0,0,4.12,2.58,16.58,16.58,0,0,0,3.1,1.19,19.62,19.62,0,0,0,5.95.48c.84,0,2.59-.12,6.07-.36,3.08-.2,3.52-.25,4.17-.35,1.09-.18,1.31-.29,4.64-1.08a26.27,26.27,0,0,1,4-.83,14.81,14.81,0,0,1,4.17.36,20,20,0,0,1,4.52,1.55,27.57,27.57,0,0,1,3.46,2c1.76,1.13,1.87,1.34,3.45,2.38s1.66,1,4.64,2.74c.43.25,1.72,1,4.29,2.62,3.34,2,3.69,2.27,4.53,2.74A23.06,23.06,0,0,0,88.76,228a16.46,16.46,0,0,0,4.88.48,36.93,36.93,0,0,0,5.36-.6c2-.3,2.1-.38,4.88-.83,2.52-.41,3.81-.62,5.12-.72a39,39,0,0,1,4.64,0c2.17.09,5.12.26,8.69.6" style="fill: none;stroke: #fff;stroke-miterlimit: 10"/>
    <path d="M270.66,222a20.74,20.74,0,0,1-5.5,2.91c-1.14.4-1.41.38-4.49,1.16-2.69.68-4.69,1.26-6.39,1.74-3.9,1.12-3.53,1.14-6.23,1.89a82.27,82.27,0,0,1-8.12,1.88c-2.55.45-4.51.65-6.67.87s-3.63.38-5.66.44c-2.8.08-3-.12-5.51,0a42.16,42.16,0,0,0-5.51.58,40.43,40.43,0,0,0-5.36,1.3c-2.32.75-2.15,1-5.66,2.18a26.08,26.08,0,0,0-3.48,1.3,32.94,32.94,0,0,1-3.19,1.74,11,11,0,0,1-3.34.73,16.47,16.47,0,0,1-5.36-.73c-4.43-1-4.13-1.15-5.95-1.45s-1.5-.05-5.94-.43c-3.06-.26-5.8-.58-5.8-.58-2.5-.29-2.9-.4-4.21-.44-.3,0-.18,0-3.91,0h-5.22a17.53,17.53,0,0,1-5.93-1.27" style="fill: none;stroke: #fff;stroke-miterlimit: 10"/>
    <path d="M33.23,228.18A65.07,65.07,0,0,0,41.41,234,72.58,72.58,0,0,0,48,237.5c2.84,1.36,5,2.21,7.71,3.28a50.74,50.74,0,0,0,4.82,1.73,42.26,42.26,0,0,0,5.78,1.16,51.48,51.48,0,0,0,6,.57c2.85.1,3.72-.13,5.58.39s1.68.87,3.09,1.15c2.16.45,3.48-.24,5.58-.57,1.85-.3,3.48-.07,6.75.38,1.83.26,3.69.64,10.4,2.7,7.27,2.24,6.68,2.28,8.67,2.7,3,.62,5.66.67,11,.77,6.72.12,8.45-.25,12.91.38a27.54,27.54,0,0,1,6.36,1.54c2.24.87,2.62,1.4,4.62,2.12a20.62,20.62,0,0,0,7.13,1.16c4.5.07,5.06-1.12,9.06-.77a31.83,31.83,0,0,1,5.39,1.15c4,1.05,4.44,1.85,7.32,2.32a25.85,25.85,0,0,0,5.59.19,41.66,41.66,0,0,0,6.36-.77c7.34-1.42,14.71-3,16.72-3.47" style="fill: none;stroke: #fff;stroke-miterlimit: 10"/>
    <path d="M39.68,148a22.42,22.42,0,0,1,9.49-.71,31.46,31.46,0,0,1,6.35,1.79,44.22,44.22,0,0,0,7.81,1.62c4.7.68,4.88,0,12,.33,4.91.25,5.61.62,10.1.65a39.37,39.37,0,0,0,7-.32c3.32-.54,4.56-1.34,9.77-3.26a92.32,92.32,0,0,1,10.1-3.26c5.27-1.31,7.9-2,11.4-1.46,2.88.41,2.88,1.09,8.14,2.11,2.9.57,5.22.81,6.84,1a29.74,29.74,0,0,0,5.86.33,18.22,18.22,0,0,0,7.33-2.93c2.7-1.6,2.57-2,6.35-4.73,2.36-1.67,4.11-2.71,7.49-4.72a47.72,47.72,0,0,1,6.68-3.58,17.14,17.14,0,0,1,6.35-1.63c1.49,0,1.86.2,5.21.32a24.19,24.19,0,0,0,3.91,0c2.66-.35,4.15-1.62,5.86-2.6a21.16,21.16,0,0,1,9.12-2.44,27.23,27.23,0,0,1,8.8.49,40.93,40.93,0,0,1,5.05,1.62c2.35.87,4.08,1.66,4.72,2a32.73,32.73,0,0,1,5.21,2.77c2.43,1.66,2.17,2.19,4.89,4.23.7.53,2.2,1.44,5.21,3.26,3.43,2.08,2.91,1.68,5.21,3.09,2.84,1.75,3.14,2.05,4.23,2.44a13.63,13.63,0,0,0,5.21.66c3.64,0,7.28.07,10.91,0,5.73-.12,6.65-.1,8.8-.33a27.08,27.08,0,0,0,6.84-1.3,36.83,36.83,0,0,0,6-2.93c.71-.42,1.65-1,3.58-2.12l2.3-1.32" style="fill: none;stroke: #fff;stroke-miterlimit: 10"/>
    <path d="M135.74,146.1c-1.83.13-3.31.14-4.32.12-1.3,0-1.72-.09-3-.08a20.18,20.18,0,0,0-3.66.23,16.7,16.7,0,0,0-3.81,1.25,30.19,30.19,0,0,0-3.73,1.94c-1,.57-1,.63-3,1.87-1.65,1-2.6,1.63-3.81,2.33-1.71,1-3.06,1.65-4.12,2.17a50.91,50.91,0,0,1-4.74,2.18A35.72,35.72,0,0,1,94,160.05a45.88,45.88,0,0,1-6.29.55c-2,0-3.58-.08-6.69-.31-3.34-.26-5.61-.43-8.78-.86-3.54-.48-6.15-1-8.47-1.47a88.4,88.4,0,0,1-8.86-2.18c-1.07-.33-2-.64-2.57-.86" style="fill: none;stroke: #fff;stroke-miterlimit: 10"/>
    <path d="M246.67,155a13.86,13.86,0,0,1-4.09-1.17l-2.39-1.29a26.36,26.36,0,0,1-2.39-1.34,17.8,17.8,0,0,1-2.2-2c-1.08-1.05-1.62-1.57-2.57-2.51-.19-.19-1.78-1.76-3.49-3.3a61.61,61.61,0,0,0-5.08-4.23,27.91,27.91,0,0,0-3.73-2.44,19.89,19.89,0,0,0-3.67-1.6,19.39,19.39,0,0,0-3.73-.79,26.54,26.54,0,0,0-5.08.18c-2.19.14-1.5,0-6.18.25-4.13.19-3.73.23-5.08.24a43.71,43.71,0,0,0-5.14.06,22.92,22.92,0,0,0-3.73.8,45.1,45.1,0,0,0-6.74,2.69c-2.82,1.28-4.23,1.92-6,2.82-1.57.8-3.59,1.83-6.12,3.36-1.2.73-2,1.22-3.31,1.9a37.53,37.53,0,0,1-3.73,1.59c-3.45,1.36-3.32,1.78-7.46,3.61-1.74.77-3.18,1.31-6.06,2.39-2.22.83-3.35,1.25-4.59,1.59a25.3,25.3,0,0,1-11.14.79c-2.65-.31-3-.62-5.63-.92a44.36,44.36,0,0,0-4.71-.24,45.24,45.24,0,0,0-7.16.67,68.46,68.46,0,0,0-7.34,1.59c-2,.56-2.58.82-6.06,1.78a33.45,33.45,0,0,1-4.59,1c-1,.14-1.89.2-3.61.3s-3.13.15-4.59.19c-1.17,0-2.71.06-4.53.06" style="fill: none;stroke: #fff;stroke-miterlimit: 10"/>
    <path d="M19.93,98.14a26.23,26.23,0,0,0,8.3,7.25,43.22,43.22,0,0,0,10.49,4.15,103.76,103.76,0,0,0,22.67,2.83,104.42,104.42,0,0,1-22.91-1.86,44.34,44.34,0,0,1-11-3.8,28,28,0,0,1-9.18-7.37Z" style="fill: #fff"/>
    <path d="M17,106a29.05,29.05,0,0,0,7.15,5.06c1.36.6,2.67,1.32,4.09,1.82l2.1.81,2.14.71A130.18,130.18,0,0,0,50.1,118.6c11.95,2.06,24.07,3.18,36.18,4.14C74.15,122.11,62,121.32,50,119.58A131,131,0,0,1,32,115.87l-2.21-.66-2.17-.78c-1.47-.47-2.86-1.17-4.28-1.76a31.28,31.28,0,0,1-7.81-5.22Z" style="fill: #fff"/>
    <path d="M15.08,112.57a36.7,36.7,0,0,0,4.73,4.24,47.66,47.66,0,0,0,5.43,3.42,72.39,72.39,0,0,0,11.92,5,159,159,0,0,0,25.42,5.8c8.62,1.32,17.3,2.23,26,2.91s17.43,1.15,26.16,1.52c-8.74-.2-17.47-.5-26.2-1s-17.44-1.26-26.12-2.42a160,160,0,0,1-25.73-5.36,74.63,74.63,0,0,1-12.28-4.93,50.36,50.36,0,0,1-5.71-3.45,38.7,38.7,0,0,1-5.1-4.4Z" style="fill: #fff"/>
    <path d="M12.91,123a9.12,9.12,0,0,0,2.61,3,23.43,23.43,0,0,0,3.64,2.36A61.55,61.55,0,0,0,27.29,132a174.3,174.3,0,0,0,17.19,5.13c11.64,2.92,23.43,5.25,35.24,7.44-11.87-1.86-23.72-3.86-35.47-6.46a180.63,180.63,0,0,1-17.46-4.69,62.64,62.64,0,0,1-8.45-3.44,25,25,0,0,1-4-2.43,11,11,0,0,1-3.26-3.67Z" style="fill: #fff"/>
    <path d="M10.71,163.1a111.81,111.81,0,0,0,24.92,11.79,265.52,265.52,0,0,0,26.75,7.58,266.83,266.83,0,0,1-27.06-6.63c-8.87-2.76-17.64-6.14-25.69-11.06Z" style="fill: #fff"/>
    <path d="M12.1,172.49c4.36,4.23,10,7.17,15.7,9.46a125.48,125.48,0,0,0,17.93,5.37c12.21,2.78,24.66,4.52,37.09,6.19-12.47-1.34-25-2.75-37.3-5.22a124.93,124.93,0,0,1-18.25-4.94c-5.92-2.19-11.76-5-16.57-9.43Z" style="fill: #fff"/>
    <path d="M13.92,181.62a31.61,31.61,0,0,0,7.46,5.4A54.52,54.52,0,0,0,30,190.63a165.37,165.37,0,0,0,18.41,4.52,168.35,168.35,0,0,1-18.7-3.56,55.66,55.66,0,0,1-9-3.23,33.34,33.34,0,0,1-8.17-5.29Z" style="fill: #fff"/>
    <path d="M166.25,271.41c9.76.36,19.52.61,29.26.32,4.86-.15,9.72-.44,14.55-1a94.72,94.72,0,0,0,14.24-2.62l.5,1.93a96.74,96.74,0,0,1-14.6,2.19c-4.89.38-9.79.51-14.68.49C185.74,272.69,176,272.1,166.25,271.41Z" style="fill: #fff"/>
    <path d="M198.86,261.9a94.88,94.88,0,0,0,19.46,1.23A58.58,58.58,0,0,0,237.13,259l.71,1.87a60.41,60.41,0,0,1-19.49,3.28A95.69,95.69,0,0,1,198.86,261.9Z" style="fill: #fff"/>
    <path d="M149.11,272.89c-15.67-1.25-31.31-3-46.84-5.56-7.76-1.28-15.5-2.77-23.17-4.59A201.32,201.32,0,0,1,56.4,256l.71-1.87a196.79,196.79,0,0,0,22.35,7.11c7.59,2,15.27,3.62,23,5.07C117.88,269.23,133.47,271.3,149.11,272.89Z" style="fill: #fff"/>
    <path d="M171.46,279A227.13,227.13,0,0,1,120,277.61a318.34,318.34,0,0,1-50.36-11.17l.6-1.91a315.57,315.57,0,0,0,49.9,12.09A227.09,227.09,0,0,0,171.46,279Z" style="fill: #fff"/>
    <line x1="9.49" y1="153.83" x2="19.19" y2="144.13" style="fill: none;stroke: #fff;stroke-miterlimit: 10"/>
    <line x1="14.95" y1="154.92" x2="24.28" y2="145.59" style="fill: none;stroke: #fff;stroke-miterlimit: 10"/>
    <line x1="18.23" y1="158.2" x2="29.78" y2="146.65" style="fill: none;stroke: #fff;stroke-miterlimit: 10"/>
    <line x1="9.51" y1="147.43" x2="15.66" y2="141.28" style="fill: none;stroke: #fff;stroke-miterlimit: 10"/>
    <line x1="23.55" y1="159.78" x2="36.47" y2="146.86" style="fill: none;stroke: #fff;stroke-miterlimit: 10"/>
    <line x1="31.48" y1="159.6" x2="41.8" y2="149.28" style="fill: none;stroke: #fff;stroke-miterlimit: 10"/>
    <line x1="37.1" y1="161.79" x2="46.35" y2="152.54" style="fill: none;stroke: #fff;stroke-miterlimit: 10"/>
    <line x1="41.72" y1="164.77" x2="51.38" y2="155.12" style="fill: none;stroke: #fff;stroke-miterlimit: 10"/>
    <line x1="46.4" y1="167.88" x2="56.87" y2="157.41" style="fill: none;stroke: #fff;stroke-miterlimit: 10"/>
    <line x1="50.96" y1="170.79" x2="63.21" y2="158.54" style="fill: none;stroke: #fff;stroke-miterlimit: 10"/>
    <line x1="56.35" y1="173.21" x2="69.09" y2="160.47" style="fill: none;stroke: #fff;stroke-miterlimit: 10"/>
    <line x1="62.38" y1="174.89" x2="76.32" y2="160.95" style="fill: none;stroke: #fff;stroke-miterlimit: 10"/>
    <line x1="69.35" y1="175.59" x2="83.39" y2="161.55" style="fill: none;stroke: #fff;stroke-miterlimit: 10"/>
    <line x1="76.37" y1="176.09" x2="89.76" y2="162.7" style="fill: none;stroke: #fff;stroke-miterlimit: 10"/>
    <line x1="83.06" y1="176.49" x2="97.07" y2="162.48" style="fill: none;stroke: #fff;stroke-miterlimit: 10"/>
    <line x1="90.07" y1="177.07" x2="105.4" y2="161.74" style="fill: none;stroke: #fff;stroke-miterlimit: 10"/>
    <line x1="98.05" y1="178.97" x2="115.39" y2="162.3" style="fill: none;stroke: #fff;stroke-miterlimit: 10"/>
    <line x1="106.72" y1="182.32" x2="123.78" y2="165.26" style="fill: none;stroke: #fff;stroke-miterlimit: 10"/>
    <line x1="115.54" y1="183.35" x2="131.49" y2="167.39" style="fill: none;stroke: #fff;stroke-miterlimit: 10"/>
    <line x1="123.52" y1="183.7" x2="139.63" y2="167.58" style="fill: none;stroke: #fff;stroke-miterlimit: 10"/>
    <line x1="131.57" y1="187.03" x2="163.75" y2="154.85" style="fill: none;stroke: #fff;stroke-miterlimit: 10"/>
    <line x1="138.5" y1="192.09" x2="184.27" y2="146.32" style="fill: none;stroke: #fff;stroke-miterlimit: 10"/>
    <line x1="184.25" y1="159.68" x2="201.26" y2="142.67" style="fill: none;stroke: #fff;stroke-miterlimit: 10"/>
    <line x1="147.24" y1="196.68" x2="163.1" y2="180.83" style="fill: none;stroke: #fff;stroke-miterlimit: 10"/>
    <line x1="199.67" y1="158.02" x2="216.33" y2="141.35" style="fill: none;stroke: #fff;stroke-miterlimit: 10"/>
    <line x1="158.05" y1="199.64" x2="176.29" y2="181.4" style="fill: none;stroke: #fff;stroke-miterlimit: 10"/>
    <line x1="217.13" y1="155.26" x2="225.17" y2="147.22" style="fill: none;stroke: #fff;stroke-miterlimit: 10"/>
    <line x1="174.25" y1="198.14" x2="195.92" y2="176.47" style="fill: none;stroke: #fff;stroke-miterlimit: 10"/>
    <line x1="222.9" y1="161.16" x2="232.66" y2="151.4" style="fill: none;stroke: #fff;stroke-miterlimit: 10"/>
    <line x1="192.87" y1="191.19" x2="210.27" y2="173.79" style="fill: none;stroke: #fff;stroke-miterlimit: 10"/>
    <line x1="208.39" y1="188.25" x2="242.29" y2="154.35" style="fill: none;stroke: #fff;stroke-miterlimit: 10"/>
    <line x1="223.68" y1="183.65" x2="252.27" y2="155.06" style="fill: none;stroke: #fff;stroke-miterlimit: 10"/>
    <line x1="242.36" y1="173.51" x2="262.07" y2="153.8" style="fill: none;stroke: #fff;stroke-miterlimit: 10"/>
    <line x1="253.18" y1="171.67" x2="271.24" y2="153.62" style="fill: none;stroke: #fff;stroke-miterlimit: 10"/>
    <line x1="262.21" y1="170.49" x2="282.75" y2="149.95" style="fill: none;stroke: #fff;stroke-miterlimit: 10"/>
    <line x1="272.48" y1="169.13" x2="290.51" y2="151.09" style="fill: none;stroke: #fff;stroke-miterlimit: 10"/>
    <line x1="281.5" y1="166.52" x2="290.29" y2="157.73" style="fill: none;stroke: #fff;stroke-miterlimit: 10"/>
    <line x1="29.94" y1="213.37" x2="58.2" y2="241.64" style="fill: none;stroke: #fff;stroke-miterlimit: 10"/>
    <line x1="65.9" y1="237.43" x2="72.48" y2="244.01" style="fill: none;stroke: #fff;stroke-miterlimit: 10"/>
    <line x1="41.96" y1="213.49" x2="48.45" y2="219.98" style="fill: none;stroke: #fff;stroke-miterlimit: 10"/>
    <line x1="71.77" y1="228.18" x2="88.2" y2="244.61" style="fill: none;stroke: #fff;stroke-miterlimit: 10"/>
    <line x1="54.82" y1="211.23" x2="60.37" y2="216.78" style="fill: none;stroke: #fff;stroke-miterlimit: 10"/>
    <line x1="75.06" y1="220.28" x2="102.44" y2="247.66" style="fill: none;stroke: #fff;stroke-miterlimit: 10"/>
    <line x1="93.64" y1="228.5" x2="116.28" y2="251.14" style="fill: none;stroke: #fff;stroke-miterlimit: 10"/>
    <line x1="103.88" y1="227.07" x2="127.98" y2="251.17" style="fill: none;stroke: #fff;stroke-miterlimit: 10"/>
    <line x1="115.25" y1="226.43" x2="142.5" y2="253.68" style="fill: none;stroke: #fff;stroke-miterlimit: 10"/>
    <line x1="128.18" y1="228.18" x2="156.59" y2="256.6" style="fill: none;stroke: #fff;stroke-miterlimit: 10"/>
    <line x1="142.39" y1="233.14" x2="166.1" y2="256.85" style="fill: none;stroke: #fff;stroke-miterlimit: 10"/>
    <line x1="155.17" y1="236.41" x2="178.58" y2="259.82" style="fill: none;stroke: #fff;stroke-miterlimit: 10"/>
    <line x1="183.58" y1="253.76" x2="188.61" y2="258.79" style="fill: none;stroke: #fff;stroke-miterlimit: 10"/>
    <line x1="166.87" y1="237.05" x2="173.52" y2="243.7" style="fill: none;stroke: #fff;stroke-miterlimit: 10"/>
    <line x1="189.44" y1="247.09" x2="199.05" y2="256.69" style="fill: none;stroke: #fff;stroke-miterlimit: 10"/>
    <line x1="180.6" y1="238.24" x2="185.5" y2="243.15" style="fill: none;stroke: #fff;stroke-miterlimit: 10"/>
    <line x1="193.37" y1="240.71" x2="207.14" y2="254.48" style="fill: none;stroke: #fff;stroke-miterlimit: 10"/>
    <line x1="202.08" y1="238.21" x2="215.37" y2="251.5" style="fill: none;stroke: #fff;stroke-miterlimit: 10"/>
    <line x1="208.72" y1="235.69" x2="222.71" y2="249.68" style="fill: none;stroke: #fff;stroke-miterlimit: 10"/>
    <line x1="216.58" y1="233.43" x2="232.64" y2="249.48" style="fill: none;stroke: #fff;stroke-miterlimit: 10"/>
    <line x1="225.34" y1="232.86" x2="240.57" y2="248.09" style="fill: none;stroke: #fff;stroke-miterlimit: 10"/>
    <line x1="234.19" y1="232.32" x2="247.57" y2="245.69" style="fill: none;stroke: #fff;stroke-miterlimit: 10"/>
    <line x1="242.85" y1="230.97" x2="254.05" y2="242.17" style="fill: none;stroke: #fff;stroke-miterlimit: 10"/>
    <line x1="250.85" y1="228.81" x2="259.72" y2="237.69" style="fill: none;stroke: #fff;stroke-miterlimit: 10"/>
    <line x1="258.8" y1="226.52" x2="263.63" y2="231.35" style="fill: none;stroke: #fff;stroke-miterlimit: 10"/>
    <line x1="94.08" y1="73.43" x2="97.36" y2="76.7" style="fill: none;stroke: #fff;stroke-miterlimit: 10"/>
    <line x1="102.05" y1="73.53" x2="105.06" y2="76.54" style="fill: none;stroke: #fff;stroke-miterlimit: 10"/>
    <line x1="109.06" y1="73.07" x2="112.97" y2="76.98" style="fill: none;stroke: #fff;stroke-miterlimit: 10"/>
    <line x1="115.69" y1="72.64" x2="128.8" y2="85.75" style="fill: none;stroke: #fff;stroke-miterlimit: 10"/>
    <line x1="123.47" y1="72.75" x2="140.37" y2="89.65" style="fill: none;stroke: #fff;stroke-miterlimit: 10"/>
    <line x1="134.85" y1="77.24" x2="147.24" y2="89.64" style="fill: none;stroke: #fff;stroke-miterlimit: 10"/>
    <line x1="144.34" y1="80.02" x2="152.69" y2="88.36" style="fill: none;stroke: #fff;stroke-miterlimit: 10"/>
    <line x1="151.72" y1="80.3" x2="158.53" y2="87.11" style="fill: none;stroke: #fff;stroke-miterlimit: 10"/>
    <line x1="158.03" y1="79.04" x2="165.05" y2="86.06" style="fill: none;stroke: #fff;stroke-miterlimit: 10"/>
    <line x1="163.73" y1="77.24" x2="170.98" y2="84.5" style="fill: none;stroke: #fff;stroke-miterlimit: 10"/>
    <line x1="169.02" y1="75.4" x2="175.37" y2="81.75" style="fill: none;stroke: #fff;stroke-miterlimit: 10"/>
    <line x1="174.39" y1="73.11" x2="180.39" y2="79.11" style="fill: none;stroke: #fff;stroke-miterlimit: 10"/>
    <line x1="179.87" y1="71.32" x2="186.83" y2="78.28" style="fill: none;stroke: #fff;stroke-miterlimit: 10"/>
    <line x1="185.81" y1="70.5" x2="196.18" y2="80.88" style="fill: none;stroke: #fff;stroke-miterlimit: 10"/>
    <line x1="193.87" y1="72.35" x2="205.09" y2="83.57" style="fill: none;stroke: #fff;stroke-miterlimit: 10"/>
    <line x1="203.37" y1="75.21" x2="210.38" y2="82.22" style="fill: none;stroke: #fff;stroke-miterlimit: 10"/>
    <line x1="210.39" y1="76.69" x2="213.55" y2="79.85" style="fill: none;stroke: #fff;stroke-miterlimit: 10"/>
    <line x1="106.94" y1="40.6" x2="112.16" y2="45.82" style="fill: none;stroke: #fff;stroke-miterlimit: 10"/>
    <line x1="112.79" y1="40.35" x2="125.26" y2="52.82" style="fill: none;stroke: #fff;stroke-miterlimit: 10"/>
    <line x1="126.09" y1="47.39" x2="132.14" y2="53.44" style="fill: none;stroke: #fff;stroke-miterlimit: 10"/>
    <line x1="133.36" y1="47.86" x2="138.54" y2="53.04" style="fill: none;stroke: #fff;stroke-miterlimit: 10"/>
    <line x1="139.56" y1="46.79" x2="145.12" y2="52.35" style="fill: none;stroke: #fff;stroke-miterlimit: 10"/>
    <line x1="145.93" y1="45.55" x2="153.25" y2="52.87" style="fill: none;stroke: #fff;stroke-miterlimit: 10"/>
    <line x1="153.23" y1="46.04" x2="163.23" y2="56.04" style="fill: none;stroke: #fff;stroke-miterlimit: 10"/>
    <line x1="161.54" y1="47.83" x2="172.94" y2="59.24" style="fill: none;stroke: #fff;stroke-miterlimit: 10"/>
    <line x1="170" y1="49.96" x2="180.26" y2="60.22" style="fill: none;stroke: #fff;stroke-miterlimit: 10"/>
    <line x1="178.8" y1="51.66" x2="187.34" y2="60.2" style="fill: none;stroke: #fff;stroke-miterlimit: 10"/>
    <line x1="185.96" y1="52.12" x2="193.46" y2="59.62" style="fill: none;stroke: #fff;stroke-miterlimit: 10"/>
    <line x1="192.41" y1="51.94" x2="198.16" y2="57.69" style="fill: none;stroke: #fff;stroke-miterlimit: 10"/>
    <line x1="196.16" y1="49.21" x2="202.05" y2="55.09" style="fill: none;stroke: #fff;stroke-miterlimit: 10"/>
    <line x1="197.18" y1="44.17" x2="202.34" y2="49.32" style="fill: none;stroke: #fff;stroke-miterlimit: 10"/>
    <line x1="201.63" y1="41.13" x2="204.45" y2="43.95" style="fill: none;stroke: #fff;stroke-miterlimit: 10"/>
  </g>
</svg>
