<svg id="moonflag" xmlns="http://www.w3.org/2000/svg" viewBox="0 0 300 300">
  <g>
    <g id="flag">
      <polygon points="228.05 22.4 178.62 95.3 183.49 98.34 232.42 25.36 228.05 22.4" style="fill: none;stroke: #fff;stroke-miterlimit: 10;stroke-width: 2.6966895813859537px"/>
      <circle cx="234.42" cy="18.12" r="7.11" style="fill: none;stroke: #fff;stroke-miterlimit: 10;stroke-width: 2.6966895813859537px"/>
      <path d="M232.42,25.36c7.89,18.61,29.89,19.13,46.92,34.52a1.33,1.33,0,0,1,.21,1.74L261.19,88.69a1.17,1.17,0,0,1-1.76.2c-17-15.26-38.9-15.83-46.77-34.38" style="fill: none;stroke: #fff;stroke-miterlimit: 10;stroke-width: 2.6966895813859537px"/>
      <path d="M218.8,45.45c8,18.92,30.63,19.14,47.77,35.31" style="fill: none;stroke: #fff;stroke-miterlimit: 10;stroke-width: 1.0112585930197326px"/>
      <path d="M217.29,47.68c8,18.92,30.62,19.14,47.77,35.31" style="fill: none;stroke: #fff;stroke-miterlimit: 10;stroke-width: 1.0112585930197326px"/>
      <path d="M215.77,49.91c8,18.92,30.63,19.14,47.78,35.31" style="fill: none;stroke: #fff;stroke-miterlimit: 10;stroke-width: 1.0112585930197326px"/>
      <path d="M214.26,52.15c8,18.91,30.63,19.14,47.77,35.3" style="fill: none;stroke: #fff;stroke-miterlimit: 10;stroke-width: 1.0112585930197326px"/>
      <path d="M220.31,43.22c8,18.91,30.63,19.14,47.78,35.3" style="fill: none;stroke: #fff;stroke-miterlimit: 10;stroke-width: 1.0112585930197326px"/>
      <path d="M221.83,41c2.88,6.79,7.64,11.17,13.35,14.75,10.2,6.38,23.43,10.19,34.42,20.55" style="fill: none;stroke: #fff;stroke-miterlimit: 10;stroke-width: 1.0112585930197326px"/>
      <line x1="235.18" y1="55.74" x2="245.78" y2="40.11" style="fill: none;stroke: #fff;stroke-miterlimit: 10;stroke-width: 1.0112585930197326px"/>
      <path d="M236.7,53.51c10.2,6.38,23.42,10.19,34.42,20.55" style="fill: none;stroke: #fff;stroke-miterlimit: 10;stroke-width: 1.0112585930197326px"/>
      <path d="M238.21,51.27c10.2,6.39,23.43,10.2,34.42,20.56" style="fill: none;stroke: #fff;stroke-miterlimit: 10;stroke-width: 1.0112585930197326px"/>
      <path d="M239.73,49c10.19,6.38,23.42,10.2,34.41,20.56" style="fill: none;stroke: #fff;stroke-miterlimit: 10;stroke-width: 1.0112585930197326px"/>
      <path d="M241.24,46.81c10.2,6.38,23.42,10.19,34.42,20.55" style="fill: none;stroke: #fff;stroke-miterlimit: 10;stroke-width: 1.0112585930197326px"/>
      <path d="M242.75,44.58C253,51,266.18,54.77,277.17,65.13" style="fill: none;stroke: #fff;stroke-miterlimit: 10;stroke-width: 1.0112585930197326px"/>
      <path d="M244.27,42.35c10.19,6.38,23.42,10.19,34.41,20.55" style="fill: none;stroke: #fff;stroke-miterlimit: 10;stroke-width: 1.0112585930197326px"/>
      <polygon points="232.36 33.78 231.94 34.6 231.54 33.76 230.63 33.61 231.3 32.98 231.16 32.06 231.98 32.51 232.81 32.09 232.63 33 233.28 33.66 232.36 33.78" style="fill: none;stroke: #fff;stroke-miterlimit: 10;stroke-width: 1.0112585930197326px"/>
      <polygon points="230.42 47.85 230 48.68 229.6 47.84 228.69 47.69 229.36 47.05 229.22 46.14 230.04 46.59 230.87 46.17 230.69 47.08 231.34 47.74 230.42 47.85" style="fill: none;stroke: #fff;stroke-miterlimit: 10;stroke-width: 1.0112585930197326px"/>
      <polygon points="236.24 38.48 235.82 39.31 235.42 38.47 234.51 38.32 235.18 37.68 235.04 36.77 235.85 37.21 236.68 36.8 236.51 37.71 237.16 38.37 236.24 38.48" style="fill: none;stroke: #fff;stroke-miterlimit: 10;stroke-width: 1.0112585930197326px"/>
      <polygon points="234.26 43.08 233.83 43.91 233.44 43.07 232.52 42.92 233.2 42.28 233.06 41.37 233.87 41.81 234.7 41.4 234.53 42.31 235.18 42.97 234.26 43.08" style="fill: none;stroke: #fff;stroke-miterlimit: 10;stroke-width: 1.0112585930197326px"/>
      <polygon points="241.66 42.16 241.24 42.98 240.84 42.14 239.93 41.99 240.6 41.36 240.46 40.44 241.28 40.89 242.1 40.47 241.93 41.38 242.58 42.04 241.66 42.16" style="fill: none;stroke: #fff;stroke-miterlimit: 10;stroke-width: 1.0112585930197326px"/>
      <polygon points="238.16 47.12 237.73 47.94 237.34 47.1 236.42 46.95 237.09 46.31 236.96 45.4 237.77 45.84 238.6 45.43 238.42 46.34 239.07 47 238.16 47.12" style="fill: none;stroke: #fff;stroke-miterlimit: 10;stroke-width: 1.0112585930197326px"/>
      <polygon points="234.96 52.04 234.54 52.86 234.14 52.02 233.23 51.87 233.9 51.24 233.76 50.32 234.57 50.77 235.4 50.35 235.23 51.26 235.88 51.92 234.96 52.04" style="fill: none;stroke: #fff;stroke-miterlimit: 10;stroke-width: 1.0112585930197326px"/>
      <polygon points="229.76 38.79 229.34 39.61 228.94 38.77 228.03 38.63 228.7 37.99 228.56 37.07 229.37 37.52 230.2 37.1 230.03 38.01 230.68 38.67 229.76 38.79" style="fill: none;stroke: #fff;stroke-miterlimit: 10;stroke-width: 1.0112585930197326px"/>
      <polygon points="227.39 42.83 226.97 43.65 226.57 42.81 225.66 42.66 226.33 42.02 226.19 41.11 227 41.55 227.83 41.14 227.66 42.05 228.31 42.71 227.39 42.83" style="fill: none;stroke: #fff;stroke-miterlimit: 10;stroke-width: 1.0112585930197326px"/>
    </g>
    <g id="moon">
      <circle cx="124.51" cy="184.7" r="104.28" style="fill: none;stroke: #fff;stroke-miterlimit: 10;stroke-width: 2.833604810084325px"/>
      <circle cx="160.83" cy="209.33" r="25.11" style="fill: none;stroke: #fff;stroke-miterlimit: 10;stroke-width: 2.833604810084325px"/>
      <circle cx="110.42" cy="205.48" r="9.61" style="fill: none;stroke: #fff;stroke-miterlimit: 10;stroke-width: 2.833604810084325px"/>
      <circle cx="195.2" cy="174.93" r="1.94" style="fill: none;stroke: #fff;stroke-miterlimit: 10;stroke-width: 2.833604810084325px"/>
      <ellipse cx="213.93" cy="150.29" rx="3.6" ry="16.35" transform="translate(-36.64 75.67) rotate(-18.5)" style="fill: none;stroke: #fff;stroke-miterlimit: 10;stroke-width: 2.833604810084325px"/>
      <ellipse cx="64.88" cy="125.22" rx="3.81" ry="3.46" transform="translate(-75.18 108.64) rotate(-55.86)" style="fill: none;stroke: #fff;stroke-miterlimit: 10;stroke-width: 2.833604810084325px"/>
      <ellipse cx="33.55" cy="166.74" rx="4.57" ry="3.88" transform="translate(-69.36 31.33) rotate(-25.86)" style="fill: none;stroke: #fff;stroke-miterlimit: 10;stroke-width: 2.833604810084325px"/>
      <ellipse cx="51.7" cy="218.22" rx="9.42" ry="17.46" transform="translate(-54.36 20.62) rotate(-14.9)" style="fill: none;stroke: #fff;stroke-miterlimit: 10;stroke-width: 2.833604810084325px"/>
      <ellipse cx="116.97" cy="116.04" rx="18.81" ry="10.08" transform="translate(-19.77 24.11) rotate(-10.86)" style="fill: none;stroke: #fff;stroke-miterlimit: 10;stroke-width: 2.833604810084325px"/>
      <circle cx="163.08" cy="104.19" r="5.75" style="fill: none;stroke: #fff;stroke-miterlimit: 10;stroke-width: 2.833604810084325px"/>
      <circle cx="98.07" cy="261.4" r="5.28" style="fill: none;stroke: #fff;stroke-miterlimit: 10;stroke-width: 2.833604810084325px"/>
      <circle cx="152.77" cy="276.13" r="4.5" style="fill: none;stroke: #fff;stroke-miterlimit: 10;stroke-width: 2.833604810084325px"/>
      <circle cx="204.19" cy="189.57" r="5.13" style="fill: none;stroke: #fff;stroke-miterlimit: 10;stroke-width: 2.833604810084325px"/>
      <circle cx="101.34" cy="149.95" r="10.81" style="fill: none;stroke: #fff;stroke-miterlimit: 10;stroke-width: 2.833604810084325px"/>
      <circle cx="89.78" cy="166.99" r="4.17" style="fill: none;stroke: #fff;stroke-miterlimit: 10;stroke-width: 2.833604810084325px"/>
      <path d="M130.48,204.2a24.46,24.46,0,0,0,4,20.56,32.54,32.54,0,0,0,7.64,7.49,38.43,38.43,0,0,0,4.55,2.89l1.17.68,1.21.58a22.32,22.32,0,0,0,2.47,1,25.21,25.21,0,0,0,10.44,1.77,27.08,27.08,0,0,0,10.28-2.73,38,38,0,0,0,8.89-6.12,49.29,49.29,0,0,0,7.28-8.11,41.61,41.61,0,0,1-15.68,15.2,26.67,26.67,0,0,1-24.28.19l-1.25-.62-1.19-.71a39.87,39.87,0,0,1-4.65-3,31.28,31.28,0,0,1-7.77-7.92,24.56,24.56,0,0,1-4.07-10.28A23.08,23.08,0,0,1,130.48,204.2Z" style="fill: #fff"/>
      <path d="M45.93,197.23a15.29,15.29,0,0,0-4.79,4.27,14.47,14.47,0,0,0-2.48,5.7l-.26,1.55-.07,1.59,0,.79.05.8c0,.53.07,1.07.09,1.6l.48,3.22c.25,1.06.5,2.12.69,3.22-.49-1-.92-2-1.36-3s-.65-2.14-.9-3.23a18,18,0,0,1-.07-6.78,13.32,13.32,0,0,1,3-6.12A11.5,11.5,0,0,1,45.93,197.23Z" style="fill: #fff"/>
      <path d="M101.57,107.2a44.68,44.68,0,0,1,8.06-4,41.64,41.64,0,0,1,8.75-2.31,31.33,31.33,0,0,1,4.55-.3,19.94,19.94,0,0,1,4.55.61,12.53,12.53,0,0,1,7.44,5,14.26,14.26,0,0,0-7.68-3.92,27.06,27.06,0,0,0-8.66,0,59.56,59.56,0,0,0-8.59,2C107.16,105.14,104.35,106.09,101.57,107.2Z" style="fill: #fff"/>
      <path d="M29.27,173a15.61,15.61,0,0,0,4,.53,6.76,6.76,0,0,0,3.56-1,6.32,6.32,0,0,0,1.41-1.18,10.45,10.45,0,0,0,1.18-1.52c.34-.56.63-1.16,1-1.76s.54-1.25.87-1.88a18.67,18.67,0,0,1-.21,2.1,15.18,15.18,0,0,1-.64,2,7.7,7.7,0,0,1-2.83,3.4,6.55,6.55,0,0,1-4.36.88A8.09,8.09,0,0,1,29.27,173Z" style="fill: #fff"/>
      <path d="M144.83,272.41a8.45,8.45,0,0,1,2.84-4,5.42,5.42,0,0,1,1.11-.66l.6-.26.63-.17a7.54,7.54,0,0,1,2.59-.11,11.28,11.28,0,0,1,4.58,1.93,17.14,17.14,0,0,1,3.51,3.29c-1.39-.8-2.72-1.63-4.08-2.34a14.13,14.13,0,0,0-4.21-1.48,6.53,6.53,0,0,0-4.13.72A13.19,13.19,0,0,0,144.83,272.41Z" style="fill: #fff"/>
      <path d="M33.15,143.6a156.45,156.45,0,0,1,10.29-15.41,128.68,128.68,0,0,1,12.29-13.91A101.42,101.42,0,0,1,86.46,93.59a99.86,99.86,0,0,1,36.25-7.66,129.16,129.16,0,0,1,18.55.92,151.67,151.67,0,0,1,18.2,3.46,171.2,171.2,0,0,0-18.28-2.77A130.42,130.42,0,0,0,122.75,87a111.77,111.77,0,0,0-18.24,2.3,99.75,99.75,0,0,0-33.66,14.27,114.07,114.07,0,0,0-14.37,11.48A129.39,129.39,0,0,0,44,128.62,175.37,175.37,0,0,0,33.15,143.6Z" style="fill: #fff"/>
      <path d="M144.21,198.06a24.59,24.59,0,0,1,6.92-5.5,20.29,20.29,0,0,1,8.65-2.29,22.56,22.56,0,0,1,8.81,1.54,30.29,30.29,0,0,1,7.68,4.35,51.91,51.91,0,0,0-8-3.3,25.91,25.91,0,0,0-8.4-1.18,22.44,22.44,0,0,0-8.23,1.88A35.91,35.91,0,0,0,144.21,198.06Z" style="fill: #fff"/>
      <path d="M93.75,148.09a7.47,7.47,0,0,1,1.63-3.34,7.12,7.12,0,0,1,3.17-2.16,8.57,8.57,0,0,1,3.78-.38,10,10,0,0,1,3.53,1.07c-1.23,0-2.41,0-3.56,0a12.61,12.61,0,0,0-3.28.61,9.16,9.16,0,0,0-2.87,1.61A18.48,18.48,0,0,0,93.75,148.09Z" style="fill: #fff"/>
      <g>
        <ellipse cx="117.55" cy="119.13" rx="15.32" ry="5.89" transform="translate(-20.06 23.88) rotate(-10.69)" style="fill: none;stroke: #fff;stroke-miterlimit: 10;stroke-width: 0.3370861976732442px"/>
        <line x1="130.27" y1="120.31" x2="104.82" y2="117.94" style="fill: none;stroke: #fff;stroke-miterlimit: 10;stroke-width: 0.3370861976732442px"/>
        <line x1="128.7" y1="121.37" x2="103.54" y2="119.13" style="fill: none;stroke: #fff;stroke-miterlimit: 10;stroke-width: 0.3370861976732442px"/>
        <line x1="126.92" y1="122.32" x2="102.78" y2="120.25" style="fill: none;stroke: #fff;stroke-miterlimit: 10;stroke-width: 0.3370861976732442px"/>
        <line x1="124.94" y1="123.16" x2="102.46" y2="121.34" style="fill: none;stroke: #fff;stroke-miterlimit: 10;stroke-width: 0.3370861976732442px"/>
        <line x1="122.62" y1="124.03" x2="102.69" y2="122.55" style="fill: none;stroke: #fff;stroke-miterlimit: 10;stroke-width: 0.3370861976732442px"/>
        <line x1="131.51" y1="119.16" x2="106.48" y2="116.83" style="fill: none;stroke: #fff;stroke-miterlimit: 10;stroke-width: 0.3370861976732442px"/>
        <line x1="132.27" y1="118.09" x2="108.48" y2="115.79" style="fill: none;stroke: #fff;stroke-miterlimit: 10;stroke-width: 0.3370861976732442px"/>
        <line x1="132.62" y1="117.06" x2="110.96" y2="114.8" style="fill: none;stroke: #fff;stroke-miterlimit: 10;stroke-width: 0.3370861976732442px"/>
        <line x1="132.48" y1="115.88" x2="114.3" y2="113.8" style="fill: none;stroke: #fff;stroke-miterlimit: 10;stroke-width: 0.3370861976732442px"/>
        <line x1="131.6" y1="114.69" x2="118.62" y2="113.05" style="fill: none;stroke: #fff;stroke-miterlimit: 10;stroke-width: 0.3370861976732442px"/>
        <line x1="118.84" y1="124.88" x2="104" y2="123.93" style="fill: none;stroke: #fff;stroke-miterlimit: 10;stroke-width: 0.3370861976732442px"/>
        <line x1="126.45" y1="112.87" x2="109.42" y2="125.47" style="fill: none;stroke: #fff;stroke-miterlimit: 10;stroke-width: 0.3370861976732442px"/>
        <line x1="128.78" y1="113.33" x2="111.9" y2="125.58" style="fill: none;stroke: #fff;stroke-miterlimit: 10;stroke-width: 0.3370861976732442px"/>
        <line x1="130.44" y1="113.95" x2="114.91" y2="125.44" style="fill: none;stroke: #fff;stroke-miterlimit: 10;stroke-width: 0.3370861976732442px"/>
        <line x1="131.95" y1="115.03" x2="118.24" y2="124.84" style="fill: none;stroke: #fff;stroke-miterlimit: 10;stroke-width: 0.3370861976732442px"/>
        <line x1="132.62" y1="116.36" x2="121.7" y2="124.21" style="fill: none;stroke: #fff;stroke-miterlimit: 10;stroke-width: 0.3370861976732442px"/>
        <line x1="124.1" y1="112.69" x2="106.99" y2="125.09" style="fill: none;stroke: #fff;stroke-miterlimit: 10;stroke-width: 0.3370861976732442px"/>
        <line x1="121.17" y1="112.74" x2="104.94" y2="124.71" style="fill: none;stroke: #fff;stroke-miterlimit: 10;stroke-width: 0.3370861976732442px"/>
        <line x1="118.62" y1="113.05" x2="103.98" y2="123.49" style="fill: none;stroke: #fff;stroke-miterlimit: 10;stroke-width: 0.3370861976732442px"/>
        <line x1="115.34" y1="113.56" x2="102.69" y2="122.55" style="fill: none;stroke: #fff;stroke-miterlimit: 10;stroke-width: 0.3370861976732442px"/>
        <line x1="110.96" y1="114.8" x2="102.78" y2="120.25" style="fill: none;stroke: #fff;stroke-miterlimit: 10;stroke-width: 0.3370861976732442px"/>
      </g>
      <g>
        <ellipse cx="162.1" cy="219.33" rx="21.14" ry="13.86" transform="matrix(0.99, -0.14, 0.14, 0.99, -29.52, 25.26)" style="fill: none;stroke: #fff;stroke-miterlimit: 10;stroke-width: 1.3483447906929769px"/>
        <line x1="182.6" y1="214.62" x2="141.59" y2="224.05" style="fill: none;stroke: #fff;stroke-miterlimit: 10;stroke-width: 1.3483447906929769px"/>
        <line x1="183.09" y1="216.94" x2="142.79" y2="226.41" style="fill: none;stroke: #fff;stroke-miterlimit: 10;stroke-width: 1.3483447906929769px"/>
        <line x1="182.98" y1="219.19" x2="144.53" y2="228.41" style="fill: none;stroke: #fff;stroke-miterlimit: 10;stroke-width: 1.3483447906929769px"/>
        <line x1="182.36" y1="221.4" x2="146.81" y2="230.14" style="fill: none;stroke: #fff;stroke-miterlimit: 10;stroke-width: 1.3483447906929769px"/>
        <line x1="181.33" y1="223.84" x2="150.14" y2="231.77" style="fill: none;stroke: #fff;stroke-miterlimit: 10;stroke-width: 1.3483447906929769px"/>
        <line x1="181.45" y1="212.33" x2="141.1" y2="221.61" style="fill: none;stroke: #fff;stroke-miterlimit: 10;stroke-width: 1.3483447906929769px"/>
        <line x1="179.83" y1="210.41" x2="141.28" y2="219.11" style="fill: none;stroke: #fff;stroke-miterlimit: 10;stroke-width: 1.3483447906929769px"/>
        <line x1="177.75" y1="208.76" x2="142.22" y2="216.42" style="fill: none;stroke: #fff;stroke-miterlimit: 10;stroke-width: 1.3483447906929769px"/>
        <line x1="174.6" y1="207.12" x2="144.35" y2="213.31" style="fill: none;stroke: #fff;stroke-miterlimit: 10;stroke-width: 1.3483447906929769px"/>
        <line x1="170.43" y1="205.85" x2="148.42" y2="210.04" style="fill: none;stroke: #fff;stroke-miterlimit: 10;stroke-width: 1.3483447906929769px"/>
        <line x1="178.23" y1="226.96" x2="155.4" y2="233.09" style="fill: none;stroke: #fff;stroke-miterlimit: 10;stroke-width: 1.3483447906929769px"/>
        <line x1="158.79" y1="205.83" x2="166.7" y2="232.56" style="fill: none;stroke: #fff;stroke-miterlimit: 10;stroke-width: 1.3483447906929769px"/>
        <line x1="163.14" y1="205.32" x2="170.39" y2="231.47" style="fill: none;stroke: #fff;stroke-miterlimit: 10;stroke-width: 1.3483447906929769px"/>
        <line x1="166.97" y1="205.38" x2="174.2" y2="229.75" style="fill: none;stroke: #fff;stroke-miterlimit: 10;stroke-width: 1.3483447906929769px"/>
        <line x1="171.74" y1="206.17" x2="177.3" y2="227.21" style="fill: none;stroke: #fff;stroke-miterlimit: 10;stroke-width: 1.3483447906929769px"/>
        <line x1="176.01" y1="207.75" x2="180.51" y2="224.55" style="fill: none;stroke: #fff;stroke-miterlimit: 10;stroke-width: 1.3483447906929769px"/>
        <line x1="155.09" y1="206.75" x2="162.41" y2="233.25" style="fill: none;stroke: #fff;stroke-miterlimit: 10;stroke-width: 1.3483447906929769px"/>
        <line x1="151.17" y1="208.31" x2="158.62" y2="233.73" style="fill: none;stroke: #fff;stroke-miterlimit: 10;stroke-width: 1.3483447906929769px"/>
        <line x1="148.42" y1="210.04" x2="154.28" y2="232.47" style="fill: none;stroke: #fff;stroke-miterlimit: 10;stroke-width: 1.3483447906929769px"/>
        <line x1="145.18" y1="212.43" x2="150.14" y2="231.77" style="fill: none;stroke: #fff;stroke-miterlimit: 10;stroke-width: 1.3483447906929769px"/>
        <line x1="142.22" y1="216.42" x2="144.53" y2="228.41" style="fill: none;stroke: #fff;stroke-miterlimit: 10;stroke-width: 1.3483447906929769px"/>
      </g>
      <g>
        <ellipse cx="102.17" cy="152.97" rx="8.27" ry="6.94" transform="translate(-33.73 29) rotate(-13.89)" style="fill: none;stroke: #fff;stroke-miterlimit: 10;stroke-width: 0.6741723953464884px"/>
        <line x1="110.22" y1="153.74" x2="94.12" y2="152.2" style="fill: none;stroke: #fff;stroke-miterlimit: 10;stroke-width: 0.6741723953464884px"/>
        <line x1="109.83" y1="154.92" x2="93.97" y2="153.5" style="fill: none;stroke: #fff;stroke-miterlimit: 10;stroke-width: 0.6741723953464884px"/>
        <line x1="109.27" y1="155.98" x2="94.09" y2="154.71" style="fill: none;stroke: #fff;stroke-miterlimit: 10;stroke-width: 0.6741723953464884px"/>
        <line x1="108.54" y1="156.94" x2="94.45" y2="155.87" style="fill: none;stroke: #fff;stroke-miterlimit: 10;stroke-width: 0.6741723953464884px"/>
        <line x1="107.61" y1="157.95" x2="95.2" y2="157.14" style="fill: none;stroke: #fff;stroke-miterlimit: 10;stroke-width: 0.6741723953464884px"/>
        <line x1="110.37" y1="152.48" x2="94.53" y2="150.96" style="fill: none;stroke: #fff;stroke-miterlimit: 10;stroke-width: 0.6741723953464884px"/>
        <line x1="110.27" y1="151.33" x2="95.18" y2="149.8" style="fill: none;stroke: #fff;stroke-miterlimit: 10;stroke-width: 0.6741723953464884px"/>
        <line x1="109.95" y1="150.23" x2="96.13" y2="148.66" style="fill: none;stroke: #fff;stroke-miterlimit: 10;stroke-width: 0.6741723953464884px"/>
        <line x1="109.28" y1="148.99" x2="97.59" y2="147.49" style="fill: none;stroke: #fff;stroke-miterlimit: 10;stroke-width: 0.6741723953464884px"/>
        <line x1="108.16" y1="147.77" x2="99.73" y2="146.53" style="fill: none;stroke: #fff;stroke-miterlimit: 10;stroke-width: 0.6741723953464884px"/>
        <line x1="105.83" y1="158.98" x2="96.66" y2="158.54" style="fill: none;stroke: #fff;stroke-miterlimit: 10;stroke-width: 0.6741723953464884px"/>
        <line x1="104.23" y1="146.05" x2="100.61" y2="159.95" style="fill: none;stroke: #fff;stroke-miterlimit: 10;stroke-width: 0.6741723953464884px"/>
        <line x1="105.82" y1="146.44" x2="102.12" y2="159.98" style="fill: none;stroke: #fff;stroke-miterlimit: 10;stroke-width: 0.6741723953464884px"/>
        <line x1="107.11" y1="147.04" x2="103.81" y2="159.72" style="fill: none;stroke: #fff;stroke-miterlimit: 10;stroke-width: 0.6741723953464884px"/>
        <line x1="108.53" y1="148.11" x2="105.46" y2="158.96" style="fill: none;stroke: #fff;stroke-miterlimit: 10;stroke-width: 0.6741723953464884px"/>
        <line x1="109.6" y1="149.5" x2="107.17" y2="158.17" style="fill: none;stroke: #fff;stroke-miterlimit: 10;stroke-width: 0.6741723953464884px"/>
        <line x1="102.76" y1="145.94" x2="99" y2="159.65" style="fill: none;stroke: #fff;stroke-miterlimit: 10;stroke-width: 0.6741723953464884px"/>
        <line x1="101.07" y1="146.11" x2="97.6" y2="159.32" style="fill: none;stroke: #fff;stroke-miterlimit: 10;stroke-width: 0.6741723953464884px"/>
        <line x1="99.73" y1="146.53" x2="96.43" y2="158.08" style="fill: none;stroke: #fff;stroke-miterlimit: 10;stroke-width: 0.6741723953464884px"/>
        <line x1="98.07" y1="147.19" x2="95.2" y2="157.14" style="fill: none;stroke: #fff;stroke-miterlimit: 10;stroke-width: 0.6741723953464884px"/>
        <line x1="96.13" y1="148.66" x2="94.09" y2="154.71" style="fill: none;stroke: #fff;stroke-miterlimit: 10;stroke-width: 0.6741723953464884px"/>
      </g>
      <g>
        <ellipse cx="108.86" cy="207.92" rx="5.94" ry="7.08" transform="translate(-125.82 205.44) rotate(-61.76)" style="fill: none;stroke: #fff;stroke-miterlimit: 10;stroke-width: 0.3370861976732442px"/>
        <line x1="113.53" y1="213.03" x2="104.19" y2="202.81" style="fill: none;stroke: #fff;stroke-miterlimit: 10;stroke-width: 0.3370861976732442px"/>
        <line x1="112.61" y1="213.56" x2="103.35" y2="203.55" style="fill: none;stroke: #fff;stroke-miterlimit: 10;stroke-width: 0.3370861976732442px"/>
        <line x1="111.64" y1="213.91" x2="102.73" y2="204.39" style="fill: none;stroke: #fff;stroke-miterlimit: 10;stroke-width: 0.3370861976732442px"/>
        <line x1="110.62" y1="214.1" x2="102.3" y2="205.33" style="fill: none;stroke: #fff;stroke-miterlimit: 10;stroke-width: 0.3370861976732442px"/>
        <line x1="109.46" y1="214.21" x2="102.04" y2="206.56" style="fill: none;stroke: #fff;stroke-miterlimit: 10;stroke-width: 0.3370861976732442px"/>
        <line x1="114.34" y1="212.32" x2="105.16" y2="202.26" style="fill: none;stroke: #fff;stroke-miterlimit: 10;stroke-width: 0.3370861976732442px"/>
        <line x1="114.94" y1="211.53" x2="106.24" y2="201.9" style="fill: none;stroke: #fff;stroke-miterlimit: 10;stroke-width: 0.3370861976732442px"/>
        <line x1="115.37" y1="210.65" x2="107.5" y2="201.72" style="fill: none;stroke: #fff;stroke-miterlimit: 10;stroke-width: 0.3370861976732442px"/>
        <line x1="115.66" y1="209.47" x2="109.1" y2="201.81" style="fill: none;stroke: #fff;stroke-miterlimit: 10;stroke-width: 0.3370861976732442px"/>
        <line x1="115.65" y1="208.06" x2="111.01" y2="202.43" style="fill: none;stroke: #fff;stroke-miterlimit: 10;stroke-width: 0.3370861976732442px"/>
        <line x1="107.73" y1="213.84" x2="102.17" y2="208.3" style="fill: none;stroke: #fff;stroke-miterlimit: 10;stroke-width: 0.3370861976732442px"/>
        <line x1="114.14" y1="204.71" x2="103.86" y2="211.46" style="fill: none;stroke: #fff;stroke-miterlimit: 10;stroke-width: 0.3370861976732442px"/>
        <line x1="114.92" y1="205.88" x2="104.81" y2="212.34" style="fill: none;stroke: #fff;stroke-miterlimit: 10;stroke-width: 0.3370861976732442px"/>
        <line x1="115.4" y1="206.99" x2="106.03" y2="213.15" style="fill: none;stroke: #fff;stroke-miterlimit: 10;stroke-width: 0.3370861976732442px"/>
        <line x1="115.69" y1="208.49" x2="107.51" y2="213.61" style="fill: none;stroke: #fff;stroke-miterlimit: 10;stroke-width: 0.3370861976732442px"/>
        <line x1="115.57" y1="209.99" x2="109.05" y2="214.09" style="fill: none;stroke: #fff;stroke-miterlimit: 10;stroke-width: 0.3370861976732442px"/>
        <line x1="113.27" y1="203.8" x2="103.01" y2="210.34" style="fill: none;stroke: #fff;stroke-miterlimit: 10;stroke-width: 0.3370861976732442px"/>
        <line x1="112.1" y1="202.93" x2="102.32" y2="209.33" style="fill: none;stroke: #fff;stroke-miterlimit: 10;stroke-width: 0.3370861976732442px"/>
        <line x1="111.01" y1="202.43" x2="102.29" y2="207.87" style="fill: none;stroke: #fff;stroke-miterlimit: 10;stroke-width: 0.3370861976732442px"/>
        <line x1="109.58" y1="201.9" x2="102.04" y2="206.56" style="fill: none;stroke: #fff;stroke-miterlimit: 10;stroke-width: 0.3370861976732442px"/>
        <line x1="107.5" y1="201.72" x2="102.73" y2="204.39" style="fill: none;stroke: #fff;stroke-miterlimit: 10;stroke-width: 0.3370861976732442px"/>
      </g>
      <g>
        <ellipse cx="49.63" cy="218.77" rx="5.89" ry="15.32" transform="translate(-49.87 17.71) rotate(-13.55)" style="fill: none;stroke: #fff;stroke-miterlimit: 10;stroke-width: 0.6741723953464884px"/>
        <line x1="49.08" y1="231.54" x2="50.18" y2="206" style="fill: none;stroke: #fff;stroke-miterlimit: 10;stroke-width: 0.6741723953464884px"/>
        <line x1="47.94" y1="230.02" x2="48.92" y2="204.78" style="fill: none;stroke: #fff;stroke-miterlimit: 10;stroke-width: 0.6741723953464884px"/>
        <line x1="46.91" y1="228.29" x2="47.77" y2="204.07" style="fill: none;stroke: #fff;stroke-miterlimit: 10;stroke-width: 0.6741723953464884px"/>
        <line x1="45.97" y1="226.36" x2="46.66" y2="203.81" style="fill: none;stroke: #fff;stroke-miterlimit: 10;stroke-width: 0.6741723953464884px"/>
        <line x1="44.98" y1="224.08" x2="45.46" y2="204.1" style="fill: none;stroke: #fff;stroke-miterlimit: 10;stroke-width: 0.6741723953464884px"/>
        <line x1="50.29" y1="232.72" x2="51.37" y2="207.61" style="fill: none;stroke: #fff;stroke-miterlimit: 10;stroke-width: 0.6741723953464884px"/>
        <line x1="51.39" y1="233.43" x2="52.51" y2="209.55" style="fill: none;stroke: #fff;stroke-miterlimit: 10;stroke-width: 0.6741723953464884px"/>
        <line x1="52.44" y1="233.72" x2="53.62" y2="211.98" style="fill: none;stroke: #fff;stroke-miterlimit: 10;stroke-width: 0.6741723953464884px"/>
        <line x1="53.62" y1="233.53" x2="54.78" y2="215.27" style="fill: none;stroke: #fff;stroke-miterlimit: 10;stroke-width: 0.6741723953464884px"/>
        <line x1="54.76" y1="232.59" x2="55.75" y2="219.54" style="fill: none;stroke: #fff;stroke-miterlimit: 10;stroke-width: 0.6741723953464884px"/>
        <line x1="43.95" y1="220.35" x2="44.15" y2="205.48" style="fill: none;stroke: #fff;stroke-miterlimit: 10;stroke-width: 0.6741723953464884px"/>
        <line x1="56.32" y1="227.35" x2="42.89" y2="210.97" style="fill: none;stroke: #fff;stroke-miterlimit: 10;stroke-width: 0.6741723953464884px"/>
        <line x1="55.98" y1="229.7" x2="42.9" y2="213.45" style="fill: none;stroke: #fff;stroke-miterlimit: 10;stroke-width: 0.6741723953464884px"/>
        <line x1="55.44" y1="231.39" x2="43.19" y2="216.46" style="fill: none;stroke: #fff;stroke-miterlimit: 10;stroke-width: 0.6741723953464884px"/>
        <line x1="54.44" y1="232.95" x2="43.96" y2="219.75" style="fill: none;stroke: #fff;stroke-miterlimit: 10;stroke-width: 0.6741723953464884px"/>
        <line x1="53.14" y1="233.69" x2="44.76" y2="223.18" style="fill: none;stroke: #fff;stroke-miterlimit: 10;stroke-width: 0.6741723953464884px"/>
        <line x1="56.39" y1="225" x2="43.14" y2="208.53" style="fill: none;stroke: #fff;stroke-miterlimit: 10;stroke-width: 0.6741723953464884px"/>
        <line x1="56.19" y1="222.07" x2="43.43" y2="206.46" style="fill: none;stroke: #fff;stroke-miterlimit: 10;stroke-width: 0.6741723953464884px"/>
        <line x1="55.75" y1="219.54" x2="44.59" y2="205.44" style="fill: none;stroke: #fff;stroke-miterlimit: 10;stroke-width: 0.6741723953464884px"/>
        <line x1="55.08" y1="216.29" x2="45.46" y2="204.1" style="fill: none;stroke: #fff;stroke-miterlimit: 10;stroke-width: 0.6741723953464884px"/>
        <line x1="53.62" y1="211.98" x2="47.77" y2="204.07" style="fill: none;stroke: #fff;stroke-miterlimit: 10;stroke-width: 0.6741723953464884px"/>
      </g>
      <g>
        <ellipse cx="97.25" cy="262.62" rx="3.12" ry="3.72" transform="translate(-180.13 224.03) rotate(-61.76)" style="fill: none;stroke: #fff;stroke-miterlimit: 10;stroke-width: 0.3370861976732442px"/>
        <line x1="99.7" y1="265.3" x2="94.8" y2="259.94" style="fill: none;stroke: #fff;stroke-miterlimit: 10;stroke-width: 0.3370861976732442px"/>
        <line x1="99.21" y1="265.58" x2="94.35" y2="260.32" style="fill: none;stroke: #fff;stroke-miterlimit: 10;stroke-width: 0.3370861976732442px"/>
        <line x1="98.71" y1="265.76" x2="94.03" y2="260.76" style="fill: none;stroke: #fff;stroke-miterlimit: 10;stroke-width: 0.3370861976732442px"/>
        <line x1="98.17" y1="265.86" x2="93.8" y2="261.26" style="fill: none;stroke: #fff;stroke-miterlimit: 10;stroke-width: 0.3370861976732442px"/>
        <line x1="97.56" y1="265.92" x2="93.67" y2="261.91" style="fill: none;stroke: #fff;stroke-miterlimit: 10;stroke-width: 0.3370861976732442px"/>
        <line x1="100.13" y1="264.93" x2="95.3" y2="259.65" style="fill: none;stroke: #fff;stroke-miterlimit: 10;stroke-width: 0.3370861976732442px"/>
        <line x1="100.44" y1="264.51" x2="95.87" y2="259.45" style="fill: none;stroke: #fff;stroke-miterlimit: 10;stroke-width: 0.3370861976732442px"/>
        <line x1="100.67" y1="264.05" x2="96.53" y2="259.36" style="fill: none;stroke: #fff;stroke-miterlimit: 10;stroke-width: 0.3370861976732442px"/>
        <line x1="100.82" y1="263.43" x2="97.37" y2="259.41" style="fill: none;stroke: #fff;stroke-miterlimit: 10;stroke-width: 0.3370861976732442px"/>
        <line x1="100.81" y1="262.69" x2="98.38" y2="259.74" style="fill: none;stroke: #fff;stroke-miterlimit: 10;stroke-width: 0.3370861976732442px"/>
        <line x1="96.65" y1="265.73" x2="93.73" y2="262.82" style="fill: none;stroke: #fff;stroke-miterlimit: 10;stroke-width: 0.3370861976732442px"/>
        <line x1="100.02" y1="260.93" x2="94.62" y2="264.48" style="fill: none;stroke: #fff;stroke-miterlimit: 10;stroke-width: 0.3370861976732442px"/>
        <line x1="100.43" y1="261.54" x2="95.12" y2="264.94" style="fill: none;stroke: #fff;stroke-miterlimit: 10;stroke-width: 0.3370861976732442px"/>
        <line x1="100.68" y1="262.13" x2="95.76" y2="265.36" style="fill: none;stroke: #fff;stroke-miterlimit: 10;stroke-width: 0.3370861976732442px"/>
        <line x1="100.83" y1="262.92" x2="96.54" y2="265.61" style="fill: none;stroke: #fff;stroke-miterlimit: 10;stroke-width: 0.3370861976732442px"/>
        <line x1="100.77" y1="263.7" x2="97.35" y2="265.86" style="fill: none;stroke: #fff;stroke-miterlimit: 10;stroke-width: 0.3370861976732442px"/>
        <line x1="99.56" y1="260.45" x2="94.18" y2="263.89" style="fill: none;stroke: #fff;stroke-miterlimit: 10;stroke-width: 0.3370861976732442px"/>
        <line x1="98.95" y1="260" x2="93.81" y2="263.36" style="fill: none;stroke: #fff;stroke-miterlimit: 10;stroke-width: 0.3370861976732442px"/>
        <line x1="98.38" y1="259.74" x2="93.79" y2="262.59" style="fill: none;stroke: #fff;stroke-miterlimit: 10;stroke-width: 0.3370861976732442px"/>
        <line x1="97.62" y1="259.46" x2="93.67" y2="261.91" style="fill: none;stroke: #fff;stroke-miterlimit: 10;stroke-width: 0.3370861976732442px"/>
        <line x1="96.53" y1="259.36" x2="94.03" y2="260.76" style="fill: none;stroke: #fff;stroke-miterlimit: 10;stroke-width: 0.3370861976732442px"/>
      </g>
    </g>
    <g id="lines">
      <path d="M236.05,14.06l1.87-.48a5.18,5.18,0,0,1,1.92-.24v0a5.17,5.17,0,0,1-1.88.48l-1.92.25Z" style="fill: #fff"/>
      <path d="M236.89,15c.61-.17,1.21-.32,1.81-.47a5,5,0,0,1,1.85-.24v0a4.84,4.84,0,0,1-1.81.46c-.61.09-1.23.17-1.85.24Z" style="fill: #fff"/>
      <path d="M237.51,15.89l1.65-.44a4.06,4.06,0,0,1,1.7-.2v0a4,4,0,0,1-1.65.44c-.56.08-1.12.15-1.69.2Z" style="fill: #fff"/>
      <path d="M236.92,17.05c.72-.19,1.44-.37,2.17-.54a6.92,6.92,0,0,1,2.22-.3v0a7.19,7.19,0,0,1-2.18.54q-1.11.16-2.22.3Z" style="fill: #fff"/>
      <path d="M235.63,18.52l2.72-.64a10.71,10.71,0,0,1,2.76-.41v0a10.67,10.67,0,0,1-2.72.64l-2.76.41Z" style="fill: #fff"/>
      <line x1="241.34" y1="18.78" x2="228.85" y2="21.17" style="fill: none;stroke: #fff;stroke-miterlimit: 10;stroke-width: 0.3370861976732442px"/>
      <line x1="240.49" y1="20.02" x2="229.64" y2="22.1" style="fill: none;stroke: #fff;stroke-miterlimit: 10;stroke-width: 0.3370861976732442px"/>
      <line x1="240.02" y1="21.36" x2="230.82" y2="23.12" style="fill: none;stroke: #fff;stroke-miterlimit: 10;stroke-width: 0.3370861976732442px"/>
      <line x1="239.11" y1="22.7" x2="231.44" y2="24.17" style="fill: none;stroke: #fff;stroke-miterlimit: 10;stroke-width: 0.3370861976732442px"/>
      <path d="M233.7,18.88l-3,.71a13.91,13.91,0,0,1-3.09.47v0a13.4,13.4,0,0,1,3-.7l3.08-.47Z" style="fill: #fff"/>
      <path d="M233.34,14.62l-2.54.61a9.9,9.9,0,0,1-2.6.37v0a9.4,9.4,0,0,1,2.55-.61l2.59-.38Z" style="fill: #fff"/>
      <line x1="238.41" y1="12.23" x2="229.54" y2="14.26" style="fill: none;stroke: #fff;stroke-miterlimit: 10;stroke-width: 0.3370861976732442px"/>
      <path d="M232.53,15.82l-2.15.53a6.77,6.77,0,0,1-2.2.3v0a6.72,6.72,0,0,1,2.15-.53l2.19-.31Z" style="fill: #fff"/>
      <path d="M231.91,17l-1.95.5a5.86,5.86,0,0,1-2,.26v0a5.46,5.46,0,0,1,2-.5c.66-.1,1.33-.18,2-.26Z" style="fill: #fff"/>
      <path d="M232.16,18q-1.09.29-2.19.54a6.92,6.92,0,0,1-2.22.3v0a7.26,7.26,0,0,1,2.18-.54l2.23-.31Z" style="fill: #fff"/>
    </g>
  </g>
</svg>
