<svg id="Layer_2" data-name="Layer 2" xmlns="http://www.w3.org/2000/svg" viewBox="0 0 300 300">
  
  <g>
    <path d="M259.54,57.55l5.66-5.67L220,6.66l-5.83,5.82,3.75,3.75L199.59,34.54c-13.68-8.88-31.35-14.72-54.19-14.72C50.11,19.82,44,121.91,44,121.91H34.8V130h9.57v13.83H34.8v18.29h8.72V178.7H34.8V293.34H256V178.49h-9.78V162.11h8.61V143.93h-8.61V130.21H256v-8.78h-9.78A138.85,138.85,0,0,0,233.37,74.3l21.46-21.46Z" style="fill: none;stroke: #fff;stroke-miterlimit: 10;stroke-width: 2px"/>
    <polyline points="104.78 293.34 104.78 240.59 184.11 240.59 184.11 293.34" style="fill: none;stroke: #fff;stroke-miterlimit: 10;stroke-width: 2px"/>
    <polyline points="113.71 293.34 113.71 249.31 172.63 249.31 175.6 249.31 175.6 293.34" style="fill: none;stroke: #fff;stroke-miterlimit: 10"/>
    <polyline points="122.43 293.34 122.43 258.46 166.24 258.46 166.24 293.34" style="fill: none;stroke: #fff;stroke-miterlimit: 10"/>
    <line x1="140.3" y1="293.34" x2="140.3" y2="258.46" style="fill: none;stroke: #fff;stroke-miterlimit: 10"/>
    <line x1="147.95" y1="293.34" x2="147.95" y2="258.46" style="fill: none;stroke: #fff;stroke-miterlimit: 10"/>
    <line x1="43.52" y1="162.11" x2="246.22" y2="162.11" style="fill: none;stroke: #fff;stroke-miterlimit: 10;stroke-width: 2px"/>
    <polyline points="43.87 177.5 61.09 177.5 61.09 162.11 70.43 162.11 70.43 177.5 87.66 177.5 87.66 162.11 95.95 162.11 95.95 177.5 114.22 177.5 114.22 162.11 123.39 162.11 123.39 177.5 141.01 177.5 141.01 162.11 150 162.11 150 177.5 167.41 177.5 167.41 162.11 176.51 162.11 176.51 177.5 193.74 177.5 193.74 162.11 201.87 162.11 201.87 177.5 219.9 177.5 219.9 162.11 228.51 162.11 228.51 177.5 246.22 177.5" style="fill: none;stroke: #fff;stroke-miterlimit: 10"/>
    <rect x="43.52" y="205.34" width="8.03" height="8.03" style="fill: none;stroke: #fff;stroke-miterlimit: 10;stroke-width: 2px"/>
    <rect x="61.02" y="205.34" width="8.03" height="8.03" style="fill: none;stroke: #fff;stroke-miterlimit: 10;stroke-width: 2px"/>
    <rect x="78.51" y="205.34" width="8.03" height="8.03" style="fill: none;stroke: #fff;stroke-miterlimit: 10;stroke-width: 2px"/>
    <rect x="96" y="205.34" width="8.03" height="8.03" style="fill: none;stroke: #fff;stroke-miterlimit: 10;stroke-width: 2px"/>
    <rect x="113.5" y="205.34" width="8.03" height="8.03" style="fill: none;stroke: #fff;stroke-miterlimit: 10;stroke-width: 2px"/>
    <rect x="132.24" y="205.34" width="8.03" height="8.03" style="fill: none;stroke: #fff;stroke-miterlimit: 10;stroke-width: 2px"/>
    <rect x="149.73" y="205.34" width="8.03" height="8.03" style="fill: none;stroke: #fff;stroke-miterlimit: 10;stroke-width: 2px"/>
    <rect x="167.23" y="205.34" width="8.03" height="8.03" style="fill: none;stroke: #fff;stroke-miterlimit: 10;stroke-width: 2px"/>
    <rect x="184.72" y="205.34" width="8.03" height="8.03" style="fill: none;stroke: #fff;stroke-miterlimit: 10;stroke-width: 2px"/>
    <rect x="203.47" y="205.34" width="8.03" height="8.03" style="fill: none;stroke: #fff;stroke-miterlimit: 10;stroke-width: 2px"/>
    <rect x="220.96" y="205.34" width="8.03" height="8.03" style="fill: none;stroke: #fff;stroke-miterlimit: 10;stroke-width: 2px"/>
    <rect x="237.2" y="205.34" width="8.03" height="8.03" style="fill: none;stroke: #fff;stroke-miterlimit: 10;stroke-width: 2px"/>
    <polygon points="47.54 188.91 71.75 188.67 95.96 188.53 144.38 188.41 192.8 188.53 217.01 188.66 241.22 188.91 217.01 189.15 192.8 189.29 144.38 189.41 95.96 189.29 71.75 189.15 47.54 188.91" style="fill: #fff"/>
    <line x1="44.07" y1="121.91" x2="246.22" y2="121.4" style="fill: none;stroke: #fff;stroke-miterlimit: 10;stroke-width: 2px"/>
    <polyline points="43.95 121.91 145.4 19.82 246.22 121.43" style="fill: none;stroke: #fff;stroke-miterlimit: 10"/>
    <line x1="242.54" y1="99.86" x2="219.58" y2="121.91" style="fill: none;stroke: #fff;stroke-miterlimit: 10"/>
    <line x1="48.09" y1="98.94" x2="69.16" y2="122.27" style="fill: none;stroke: #fff;stroke-miterlimit: 10"/>
    <line x1="210.96" y1="121.91" x2="113.64" y2="24.22" style="fill: none;stroke: #fff;stroke-miterlimit: 10"/>
    <line x1="79.48" y1="122.27" x2="176.34" y2="23.97" style="fill: none;stroke: #fff;stroke-miterlimit: 10"/>
    <line x1="89.91" y1="35.4" x2="175.39" y2="121.91" style="fill: none;stroke: #fff;stroke-miterlimit: 10"/>
    <line x1="113.28" y1="122.27" x2="199.59" y2="34.54" style="fill: none;stroke: #fff;stroke-miterlimit: 10"/>
    <line x1="71.16" y1="52.44" x2="140.98" y2="122.27" style="fill: none;stroke: #fff;stroke-miterlimit: 10"/>
    <line x1="148.86" y1="122.27" x2="208.51" y2="63.27" style="fill: none;stroke: #fff;stroke-miterlimit: 10"/>
    <line x1="233.37" y1="74.3" x2="184.32" y2="121.91" style="fill: none;stroke: #fff;stroke-miterlimit: 10"/>
    <line x1="57.81" y1="73.07" x2="104.11" y2="122.27" style="fill: none;stroke: #fff;stroke-miterlimit: 10"/>
    <polygon points="47.54 196.78 71.75 196.54 95.96 196.4 144.38 196.28 192.8 196.39 217.01 196.53 241.22 196.78 217.01 197.02 192.8 197.16 144.38 197.28 95.96 197.16 71.75 197.02 47.54 196.78" style="fill: #fff"/>
    <path d="M220.53,18.86c2.77,2.48,5.47,5,8.15,7.61s5.33,5.18,8,7.79,5.23,5.27,7.79,8l3.84,4c1.26,1.37,2.54,2.71,3.77,4.11-1.39-1.23-2.74-2.51-4.11-3.77l-4-3.84c-2.69-2.56-5.32-5.17-8-7.79s-5.23-5.27-7.79-8S223,21.63,220.53,18.86Z" style="fill: #fff"/>
    <line x1="44.37" y1="129.99" x2="246.22" y2="130.21" style="fill: none;stroke: #fff;stroke-miterlimit: 10;stroke-width: 2px"/>
    <line x1="44.37" y1="143.82" x2="246.22" y2="143.93" style="fill: none;stroke: #fff;stroke-miterlimit: 10;stroke-width: 2px"/>
    <polygon points="44.95 132.31 70.06 132.48 95.17 132.54 145.38 132.66 195.59 132.54 220.69 132.48 245.8 132.31 245.8 133.06 220.69 132.89 195.59 132.83 145.38 132.71 95.17 132.83 70.06 132.89 44.95 133.06 44.95 132.31" style="fill: #fff"/>
    <polygon points="44.95 134.02 70.06 134.19 95.17 134.25 145.38 134.37 195.59 134.25 220.69 134.19 245.8 134.02 245.8 134.77 220.69 134.6 195.59 134.54 145.38 134.42 95.17 134.54 70.06 134.6 44.95 134.77 44.95 134.02" style="fill: #fff"/>
    <polygon points="44.95 135.8 70.06 135.97 95.17 136.03 145.38 136.14 195.59 136.03 220.69 135.97 245.8 135.8 245.8 136.55 220.69 136.38 195.59 136.31 145.38 136.2 95.17 136.31 70.06 136.38 44.95 136.55 44.95 135.8" style="fill: #fff"/>
    <polygon points="44.95 137.47 70.06 137.64 95.17 137.7 145.38 137.82 195.59 137.7 220.69 137.64 245.8 137.47 245.8 138.22 220.69 138.05 195.59 137.99 145.38 137.87 95.17 137.99 70.06 138.05 44.95 138.22 44.95 137.47" style="fill: #fff"/>
    <polygon points="44.74 139.22 69.87 139.39 95 139.45 145.27 139.57 195.53 139.45 220.67 139.39 245.8 139.22 245.8 139.97 220.67 139.8 195.53 139.74 145.27 139.62 95 139.74 69.87 139.8 44.74 139.97 44.74 139.22" style="fill: #fff"/>
    <polygon points="44.95 140.97 70.06 141.14 95.17 141.21 145.38 141.32 195.59 141.2 220.69 141.14 245.8 140.97 245.8 141.72 220.69 141.55 195.59 141.49 145.38 141.38 95.17 141.49 70.06 141.55 44.95 141.72 44.95 140.97" style="fill: #fff"/>
    <path d="M43.87,117.22c8.41.21,16.82.31,25.24.47l25.24.27c8.41.11,16.83.12,25.24.15l25.24.08,25.25-.07c8.41-.05,16.82,0,25.24-.14l25.24-.29c8.41-.17,16.83-.27,25.24-.51v2.08c-8.41-.24-16.83-.34-25.24-.51l-25.24-.29c-8.42-.1-16.83-.08-25.24-.13l-25.25-.07-25.24.08c-8.41,0-16.83,0-25.24.15l-25.24.27c-8.42.16-16.83.25-25.24.47Z" style="fill: #fff"/>
    <path d="M44.58,115.35c8.35.21,16.7.31,25,.47l25.05.27c8.35.11,16.7.12,25,.15l25,.08,25.05-.07c8.35,0,16.7,0,25-.14l25.05-.29c8.35-.17,16.7-.27,25-.51v2.08c-8.35-.24-16.7-.34-25-.51l-25.05-.29c-8.35-.1-16.7-.08-25-.13l-25.05-.07-25,.08c-8.35,0-16.7,0-25,.15l-25.05.27c-8.35.15-16.7.25-25,.47Z" style="fill: #fff"/>
    <path d="M43.28,119.06c8.42.22,16.83.32,25.25.47l25.24.27c8.41.12,16.83.12,25.24.15l25.24.09,25.24-.07c8.42,0,16.83,0,25.24-.14l25.25-.29c8.41-.17,16.82-.27,25.24-.51v2.08c-8.42-.24-16.83-.34-25.24-.51l-25.25-.29c-8.41-.11-16.82-.09-25.24-.14l-25.24-.07-25.24.09c-8.41,0-16.83,0-25.24.14l-25.24.27c-8.42.16-16.83.26-25.25.47Z" style="fill: #fff"/>
    <path d="M44.74,113.64c8.37.22,16.74.31,25.11.47l25.11.27c8.37.11,16.75.12,25.12.15l25.11.08,25.11-.07c8.37-.05,16.74,0,25.11-.13l25.12-.29c8.37-.17,16.74-.28,25.11-.51v2.07c-8.37-.23-16.74-.33-25.11-.5l-25.12-.29c-8.37-.11-16.74-.09-25.11-.14l-25.11-.07-25.11.08c-8.37,0-16.75,0-25.12.15l-25.11.27c-8.37.16-16.74.26-25.11.47Z" style="fill: #fff"/>
    <path d="M45.58,111.82c8.32.21,16.64.31,25,.46l24.95.28c8.32.11,16.64.11,25,.14l25,.09,25-.07c8.31,0,16.63,0,24.95-.14l24.95-.29c8.32-.17,16.64-.27,25-.51v2.08c-8.32-.24-16.64-.34-25-.51l-24.95-.29c-8.32-.11-16.64-.09-24.95-.14l-25-.07-25,.09c-8.32,0-16.64,0-25,.15l-24.95.27c-8.32.15-16.64.25-25,.46Z" style="fill: #fff"/>
    <path d="M45.58,109.88c8.32.22,16.64.31,25,.47l24.95.27c8.32.11,16.64.12,25,.15l25,.08,25-.07c8.31,0,16.63,0,24.95-.13l24.95-.29c8.32-.17,16.64-.28,25-.51v2.07c-8.32-.23-16.64-.34-25-.51l-24.95-.29c-8.32-.1-16.64-.08-24.95-.13l-25-.07-25,.08c-8.32,0-16.64,0-25,.15l-24.95.27c-8.32.16-16.64.25-25,.47Z" style="fill: #fff"/>
    <path d="M46.19,108c8.26.21,16.53.31,24.79.47l24.79.27c8.27.11,16.53.12,24.8.14l24.79.09,24.79-.07c8.27,0,16.53,0,24.8-.14l24.79-.29c8.26-.17,16.53-.27,24.79-.51V110c-8.26-.24-16.53-.34-24.79-.51L195,109.19c-8.27-.11-16.53-.09-24.8-.14L145.36,109l-24.79.09c-8.27,0-16.53,0-24.8.15L71,109.49c-8.26.15-16.53.25-24.79.47Z" style="fill: #fff"/>
    <path d="M46.23,106.1c8.26.21,16.53.31,24.79.46l24.79.28c8.27.11,16.53.11,24.8.14l24.79.09,24.79-.07c8.27,0,16.53,0,24.8-.14l24.79-.29c8.26-.17,16.53-.27,24.79-.51v2.08c-8.26-.24-16.53-.34-24.79-.51L195,107.34c-8.27-.11-16.53-.09-24.8-.14l-24.79-.07-24.79.09c-8.27,0-16.53,0-24.8.15L71,107.64c-8.26.15-16.53.25-24.79.46Z" style="fill: #fff"/>
    <path d="M46.85,104.22c8.22.22,16.44.31,24.66.47l24.65.27c8.22.11,16.44.12,24.66.15l24.65.08,24.66-.07c8.22-.05,16.43,0,24.65-.13l24.66-.29c8.21-.17,16.43-.28,24.65-.51v2.07c-8.22-.23-16.44-.34-24.65-.51l-24.66-.29c-8.22-.1-16.43-.08-24.65-.13l-24.66-.07-24.65.08c-8.22,0-16.44,0-24.66.15l-24.65.27c-8.22.16-16.44.25-24.66.47Z" style="fill: #fff"/>
    <path d="M47.62,100.75c8.16.22,16.31.32,24.47.47l24.47.27c8.16.12,16.32.12,24.47.15l24.48.09,24.47-.08c8.16,0,16.31,0,24.47-.13l24.47-.29c8.16-.17,16.32-.27,24.47-.51v2.08c-8.15-.24-16.31-.34-24.47-.51L194.45,102c-8.16-.11-16.31-.09-24.47-.14l-24.47-.07-24.48.09c-8.15,0-16.31,0-24.47.14l-24.47.27c-8.16.16-16.31.26-24.47.47Z" style="fill: #fff"/>
    <path d="M48.31,98.88c8.1.22,16.19.32,24.29.47l24.28.27c8.1.12,16.19.12,24.29.15l24.29.08,24.28-.07c8.1,0,16.19,0,24.29-.13l24.28-.29c8.1-.17,16.2-.27,24.29-.51v2.08c-8.09-.24-16.19-.34-24.29-.51L194,100.13c-8.1-.11-16.19-.09-24.29-.14l-24.28-.07-24.29.08c-8.1,0-16.19,0-24.29.15l-24.28.27c-8.1.16-16.19.26-24.29.47Z" style="fill: #fff"/>
    <path d="M47.05,102.6c8.16.22,16.32.31,24.48.47l24.47.27c8.15.11,16.31.12,24.47.15l24.47.08,24.47-.07c8.16,0,16.32,0,24.47-.13l24.48-.29c8.15-.17,16.31-.28,24.47-.51v2.07c-8.16-.23-16.32-.34-24.47-.51l-24.48-.29c-8.15-.1-16.31-.08-24.47-.13l-24.47-.07-24.47.08c-8.16,0-16.32,0-24.47.15l-24.47.27c-8.16.16-16.32.25-24.48.47Z" style="fill: #fff"/>
    <path d="M48.46,97.18c8.07.22,16.14.31,24.21.47l24.2.27c8.07.11,16.14.12,24.21.15l24.2.08,24.21-.07c8.07,0,16.14,0,24.2-.14l24.21-.29c8.07-.17,16.14-.27,24.2-.5v2.07C234,99,226,98.88,217.9,98.71l-24.21-.29c-8.06-.1-16.13-.08-24.2-.13l-24.21-.07-24.2.08c-8.07,0-16.14,0-24.21.15l-24.2.27c-8.07.16-16.14.25-24.21.47Z" style="fill: #fff"/>
    <path d="M49.28,95.35c8,.22,16,.31,24,.47l24,.27c8,.11,16,.12,24,.15l24,.08,24-.07c8,0,16,0,24-.13l24-.29c8-.17,16-.28,24-.51v2.07c-8-.23-16-.33-24-.5l-24-.29c-8-.11-16-.09-24-.14l-24-.07-24,.08c-8,0-16,0-24,.15l-24,.27c-8,.16-16,.25-24,.47Z" style="fill: #fff"/>
    <path d="M49.28,93.42c8,.21,16,.31,24,.47l23.94.27c8,.11,16,.12,23.94.15l23.94.08c8,0,16,0,23.94-.07s16,0,23.94-.14l23.95-.29c8-.17,16-.27,23.94-.51v2.08c-8-.24-16-.34-23.94-.51l-23.95-.29c-8-.1-16-.09-23.94-.13s-16-.1-23.94-.07l-23.94.08c-8,0-16,0-23.94.15L73.23,95c-8,.15-16,.25-24,.47Z" style="fill: #fff"/>
    <path d="M49.87,91.48c7.94.22,15.88.31,23.82.47l23.83.27c7.94.11,15.88.12,23.82.15l23.83.08c7.94,0,15.88,0,23.82-.07s15.89,0,23.83-.13L216.64,92c7.94-.17,15.89-.28,23.83-.51v2.07c-7.94-.23-15.89-.33-23.83-.5l-23.82-.29c-7.94-.11-15.89-.09-23.83-.14s-15.88-.09-23.82-.07l-23.83.08c-7.94,0-15.88,0-23.82.15L73.69,93c-7.94.16-15.88.25-23.82.47Z" style="fill: #fff"/>
    <path d="M49.91,89.63c7.91.22,15.83.31,23.74.47l23.75.27c7.92.11,15.83.12,23.75.15l23.74.08c7.92,0,15.84,0,23.75-.07s15.83,0,23.75-.13l23.74-.29c7.92-.17,15.84-.28,23.75-.51v2.07c-7.91-.23-15.83-.33-23.75-.5l-23.74-.29c-7.92-.11-15.83-.09-23.75-.14s-15.83-.09-23.75-.07l-23.74.08c-7.92,0-15.83,0-23.75.15l-23.75.27c-7.91.16-15.83.25-23.74.47Z" style="fill: #fff"/>
    <path d="M50.51,87.93c7.87.21,15.73.31,23.6.47l23.59.27c7.86.11,15.73.12,23.59.15l23.6.08c7.86,0,15.72-.05,23.59-.07s15.73,0,23.59-.14l23.6-.29c7.86-.17,15.72-.27,23.59-.51V90c-7.87-.24-15.73-.34-23.59-.51l-23.6-.29c-7.86-.1-15.73-.09-23.59-.13s-15.73-.1-23.59-.07l-23.6.08c-7.86,0-15.73,0-23.59.15l-23.59.27c-7.87.15-15.73.25-23.6.47Z" style="fill: #fff"/>
    <path d="M52.78,84.51c7.74.21,15.48.31,23.22.47l23.22.27c7.74.11,15.48.12,23.22.14l23.22.09c7.74,0,15.48,0,23.22-.07s15.48,0,23.22-.14L215.32,85c7.74-.17,15.48-.27,23.22-.51v2.08c-7.74-.24-15.48-.34-23.22-.51l-23.22-.29c-7.74-.11-15.48-.09-23.22-.13s-15.48-.1-23.22-.08l-23.22.09c-7.74,0-15.48,0-23.22.15L76,86.05c-7.74.15-15.48.25-23.22.47Z" style="fill: #fff"/>
    <path d="M53.44,82.64c7.68.21,15.36.31,23,.47l23,.27c7.68.11,15.37.12,23,.14l23,.09c7.68,0,15.36,0,23-.07s15.37,0,23-.14l23-.29c7.68-.17,15.36-.27,23-.51v2.08c-7.68-.24-15.36-.34-23-.51l-23-.29c-7.68-.11-15.36-.09-23-.14s-15.36-.09-23-.07l-23,.09c-7.68,0-15.37,0-23,.15l-23,.27c-7.68.15-15.36.25-23,.47Z" style="fill: #fff"/>
    <path d="M52.2,86.18c7.74.21,15.48.31,23.22.47l23.22.27c7.74.11,15.48.12,23.22.15l23.22.08c7.74,0,15.48-.05,23.22-.07s15.48,0,23.22-.14l23.22-.29c7.74-.17,15.48-.27,23.22-.51v2.08c-7.74-.24-15.48-.34-23.22-.51l-23.22-.29c-7.74-.1-15.48-.08-23.22-.13s-15.48-.1-23.22-.07l-23.22.08c-7.74,0-15.48,0-23.22.15l-23.22.27c-7.74.16-15.48.25-23.22.47Z" style="fill: #fff"/>
    <path d="M53.58,80.93c7.66.22,15.31.31,23,.47l23,.27c7.65.11,15.31.12,23,.15l23,.08c7.65,0,15.31-.05,23-.07s15.32,0,23-.13l23-.29c7.65-.17,15.31-.28,23-.51V83c-7.65-.23-15.31-.34-23-.51l-23-.29c-7.65-.1-15.31-.08-23-.13s-15.31-.09-23-.07l-23,.08c-7.65,0-15.31,0-23,.15l-23,.27c-7.66.16-15.31.25-23,.47Z" style="fill: #fff"/>
    <path d="M54.36,79.11c7.59.21,15.18.31,22.77.46l22.77.27c7.58.12,15.17.12,22.76.15l22.77.09c7.59,0,15.18,0,22.77-.07s15.18,0,22.77-.14l22.76-.29c7.59-.17,15.18-.27,22.77-.51v2.08c-7.59-.24-15.18-.34-22.77-.51L191,80.35c-7.59-.11-15.18-.09-22.77-.14s-15.18-.09-22.77-.07l-22.77.09c-7.59,0-15.18,0-22.76.14l-22.77.28c-7.59.15-15.18.25-22.77.46Z" style="fill: #fff"/>
    <path d="M55.4,77.17c7.49.22,15,.31,22.47.47l22.47.27c7.48.11,15,.12,22.46.15l22.47.08c7.49,0,15,0,22.47-.07s15,0,22.47-.13l22.47-.29c7.49-.17,15-.28,22.47-.51v2.07c-7.49-.23-15-.34-22.47-.51l-22.47-.29c-7.49-.1-15-.08-22.47-.13s-15-.1-22.47-.07l-22.47.08c-7.49,0-15,0-22.46.15l-22.47.27c-7.49.16-15,.25-22.47.47Z" style="fill: #fff"/>
    <path d="M56.28,75.24c7.41.21,14.83.31,22.25.46l22.25.28c7.42.11,14.83.11,22.25.14l22.25.09c7.42,0,14.84,0,22.25-.07s14.84,0,22.25-.14L212,75.71c7.42-.17,14.84-.27,22.25-.51v2.08c-7.41-.24-14.83-.34-22.25-.51l-22.25-.29c-7.41-.11-14.83-.09-22.25-.14s-14.83-.09-22.25-.07L123,76.36c-7.42,0-14.83,0-22.25.14l-22.25.28c-7.42.15-14.84.25-22.25.46Z" style="fill: #fff"/>
    <path d="M57,73.39c7.37.21,14.75.31,22.12.46l22.12.27c7.37.12,14.74.12,22.11.15l22.12.09c7.37,0,14.74,0,22.12-.07s14.74,0,22.11-.14l22.12-.29c7.37-.17,14.75-.27,22.12-.51v2.08c-7.37-.24-14.75-.34-22.12-.51l-22.12-.29c-7.37-.11-14.74-.09-22.11-.14s-14.75-.09-22.12-.07l-22.12.09c-7.37,0-14.74,0-22.11.14l-22.12.28c-7.37.15-14.75.25-22.12.46Z" style="fill: #fff"/>
    <path d="M57.81,71.51c7.39.22,14.78.31,22.17.47l22.17.27c7.39.11,14.78.12,22.17.15l22.16.08c7.39,0,14.78,0,22.17-.07s14.78,0,22.17-.13L213,72c7.39-.17,14.78-.28,22.17-.51v2.07c-7.39-.23-14.78-.34-22.17-.51l-22.17-.29c-7.39-.1-14.78-.08-22.17-.13s-14.78-.1-22.17-.07l-22.16.08c-7.39,0-14.78,0-22.17.15L80,73.05c-7.39.16-14.78.25-22.17.47Z" style="fill: #fff"/>
    <path d="M199.59,36C199,60.72,212,71.69,235.16,72.51" style="fill: none;stroke: #fff;stroke-miterlimit: 10"/>
    <path d="M59.51,69.69c6.8.22,13.59.32,20.39.48l20.39.27c6.79.12,13.59.13,20.38.16l20.39.1,40.78-.1,20.39-.17,20.39-.3v1.21L202.23,71l-20.39-.16-40.78-.1-20.39.09c-6.79,0-13.59,0-20.38.16L79.9,71.3c-6.8.16-13.59.25-20.39.47Z" style="fill: #fff"/>
    <path d="M60.76,68c6.53.22,13.06.31,19.59.47l19.59.28c6.53.11,13.06.12,19.59.16l19.59.09,39.18-.1,19.59-.17,19.6-.3v1.21l-19.6-.3-19.59-.17-39.18-.1-19.59.1c-6.53,0-13.06,0-19.59.15l-19.59.28c-6.53.16-13.06.26-19.59.47Z" style="fill: #fff"/>
    <path d="M61.37,66.16c6.35.22,12.7.32,19.05.47l19,.28c6.35.12,12.69.13,19,.16l19,.09,38.09-.09,19-.17,19-.3v1.2l-19-.3-19-.16-38.09-.1-19,.09c-6.35,0-12.69,0-19,.16l-19,.28c-6.35.15-12.7.25-19.05.47Z" style="fill: #fff"/>
    <path d="M62.2,64.23c24.77.75,49.55,1,74.32,1l37.17-.11L192.27,65c6.19-.1,12.39-.16,18.58-.3v1.21c-6.19-.14-12.39-.2-18.58-.3l-18.58-.17-37.17-.11c-24.77.06-49.55.26-74.32,1Z" style="fill: #fff"/>
    <path d="M62.9,62.29c24.28.76,48.56,1,72.83,1l36.42-.1L190.36,63c6.07-.1,12.14-.16,18.21-.3v1.2c-6.07-.14-12.14-.2-18.21-.3l-18.21-.16-36.42-.11c-24.27,0-48.55.25-72.83,1Z" style="fill: #fff"/>
    <path d="M64.81,60.44c23.67.76,47.34,1,71,1l35.51-.1,17.75-.17c5.92-.1,11.84-.16,17.75-.3v1.2c-5.91-.14-11.83-.2-17.75-.3l-17.75-.16-35.51-.11c-23.67.05-47.34.25-71,1Z" style="fill: #fff"/>
    <path d="M65.74,58.6c5.82.21,11.64.31,17.45.46l17.46.27c11.64.18,23.27.22,34.91.25l34.91-.11,17.46-.16c5.81-.09,11.63-.15,17.45-.29v1.17c-5.82-.14-11.64-.2-17.45-.29l-17.46-.16-34.91-.11c-11.64,0-23.27.07-34.91.25l-17.46.27c-5.81.16-11.63.25-17.45.46Z" style="fill: #fff"/>
    <path d="M67.06,56.69c22.87.76,45.74,1,68.61,1L170,57.6l17.15-.17c5.72-.1,11.43-.16,17.15-.3v1.2c-5.72-.14-11.43-.2-17.15-.3L170,57.87l-34.31-.11c-22.87.05-45.74.25-68.61,1Z" style="fill: #fff"/>
    <path d="M68.57,54.87c22.44.75,44.88,1,67.31,1l33.66-.1,16.83-.17c5.61-.1,11.22-.16,16.83-.3v1.21c-5.61-.14-11.22-.2-16.83-.3L169.54,56l-33.66-.11c-22.43.06-44.87.26-67.31,1Z" style="fill: #fff"/>
    <path d="M69.92,52.93c22.07.76,44.14,1,66.21,1l33.1-.11,16.56-.16c5.51-.1,11-.16,16.55-.3v1.2c-5.52-.14-11-.2-16.55-.3l-16.56-.17-33.1-.1c-22.07,0-44.14.25-66.21,1Z" style="fill: #fff"/>
    <path d="M71.82,51c21.63.75,43.27,1,64.9,1l32.46-.11,16.22-.17c5.41-.1,10.82-.16,16.23-.3v1.21c-5.41-.14-10.82-.2-16.23-.3l-16.22-.17-32.46-.11c-21.63.06-43.27.26-64.9,1Z" style="fill: #fff"/>
    <path d="M73,49.15c21.33.75,42.66,1,64,1l32-.1,16-.17c5.33-.1,10.66-.16,16-.3v1.21c-5.34-.14-10.67-.2-16-.3l-16-.17-32-.11c-21.33.06-42.66.26-64,1Z" style="fill: #fff"/>
    <path d="M74.54,47.31c5.25.2,10.51.3,15.76.45l15.76.27c10.51.19,21,.22,31.52.25l31.52-.1L184.85,48c5.26-.1,10.51-.16,15.76-.29v1.16c-5.25-.13-10.5-.19-15.76-.29l-15.75-.16-31.52-.1c-10.51,0-21,.06-31.52.25l-15.76.27c-5.25.15-10.51.24-15.76.45Z" style="fill: #fff"/>
    <path d="M76.67,45.66c20.66.76,41.31,1,62,1l31-.1,15.49-.17c5.16-.1,10.33-.16,15.49-.3v1.21c-5.16-.15-10.33-.21-15.49-.31l-15.49-.16-31-.11c-20.66.05-41.31.25-62,1Z" style="fill: #fff"/>
    <path d="M78.38,43.82c5.07.21,10.13.31,15.2.46l15.21.27c10.13.18,20.27.22,30.4.25l30.41-.1,15.21-.17c5.06-.09,10.13-.15,15.2-.29v1.17c-5.07-.14-10.14-.19-15.2-.29L169.6,45l-30.41-.1c-10.13,0-20.27.06-30.4.25l-15.21.26c-5.07.16-10.13.25-15.2.46Z" style="fill: #fff"/>
    <path d="M80.25,41.91c19.88.76,39.77,1,59.66,1l29.83-.1,14.91-.17c5-.1,9.95-.16,14.92-.3v1.21c-5-.15-9.94-.21-14.92-.31l-14.91-.16L139.91,43c-19.89.05-39.78.25-59.66,1Z" style="fill: #fff"/>
    <path d="M82,40.09c19.59.75,39.19.95,58.78,1l29.4-.11,14.69-.17c4.9-.1,9.8-.16,14.7-.3v1.21c-4.9-.14-9.8-.2-14.7-.3l-14.69-.17-29.4-.11c-19.59.06-39.19.26-58.78,1Z" style="fill: #fff"/>
    <path d="M84.7,38.15c19.15.76,38.29,1,57.44,1l28.71-.1,14.36-.17c4.79-.1,9.57-.16,14.36-.3v1.2c-4.79-.14-9.57-.2-14.36-.3l-14.36-.16-28.71-.11c-19.15.05-38.29.25-57.44,1Z" style="fill: #fff"/>
    <path d="M92.26,32.69c17.69.75,35.38.94,53.07,1,8.85,0,17.7-.05,26.54-.21s17.7-.4,26.54-.8v2.07q-13.26-.6-26.54-.81c-8.84-.15-17.69-.2-26.54-.2-17.69,0-35.38.22-53.07,1Z" style="fill: #fff"/>
    <path d="M95.7,30.82c16.51.75,33,.94,49.54,1,8.26,0,16.52-.05,24.78-.21s16.51-.4,24.77-.8v2.07q-12.39-.6-24.77-.81c-8.26-.15-16.52-.2-24.78-.2-16.51,0-33,.22-49.54,1Z" style="fill: #fff"/>
    <path d="M98.88,29.11c15.46.76,30.93.95,46.39,1q11.6,0,23.19-.2t23.2-.81v2.08q-11.61-.61-23.2-.81t-23.19-.21c-15.46,0-30.93.23-46.39,1Z" style="fill: #fff"/>
    <path d="M102.7,27.29c14.24.75,28.47.94,42.71,1q10.67,0,21.35-.2t21.35-.81v2.08q-10.68-.6-21.35-.81t-21.35-.2c-14.24,0-28.47.22-42.71,1Z" style="fill: #fff"/>
    <path d="M107.37,25.35c12.68.76,25.36.94,38,1,6.34,0,12.68,0,19-.2s12.68-.41,19-.81v2.07q-9.51-.6-19-.8c-6.34-.16-12.68-.21-19-.21-12.68,0-25.36.23-38,1Z" style="fill: #fff"/>
    <path d="M89.91,34.39c18.35.77,36.7,1,55.05,1q13.75,0,27.52-.18T200,34.44v2.07q-13.77-.61-27.53-.82c-9.17-.16-18.35-.22-27.52-.23-18.35,0-36.7.2-55.05.94Z" style="fill: #fff"/>
    <path d="M87.72,36.33c18.64.75,37.28.94,55.92,1,9.32,0,18.64-.05,28-.21s18.64-.4,28-.8v2.07q-14-.6-28-.81c-9.32-.15-18.64-.2-28-.2-18.64,0-37.28.22-55.92,1Z" style="fill: #fff"/>
    <path d="M112.2,23.9c11,.75,22,.94,33,1q8.25,0,16.5-.2t16.5-.81v2.08q-8.25-.61-16.5-.81t-16.5-.2c-11,0-22,.22-33,1Z" style="fill: #fff"/>
    <path d="M117.78,22.07c4.61.4,9.21.61,13.82.75s9.21.21,13.81.23,9.21-.05,13.82-.21,9.21-.37,13.81-.8v2.07c-4.6-.43-9.21-.66-13.81-.8s-9.21-.21-13.82-.21-9.21.07-13.81.22-9.21.36-13.82.76Z" style="fill: #fff"/>
    <path d="M125.24,20.58c3.41.4,6.82.61,10.22.75s6.81.21,10.22.23,6.81,0,10.22-.21,6.81-.37,10.22-.8v2.07c-3.41-.43-6.81-.66-10.22-.8s-6.81-.21-10.22-.21-6.81.07-10.22.22-6.81.36-10.22.76Z" style="fill: #fff"/>
    <path d="M215.35,18.52c2.93,3.22,5.92,6.38,8.93,9.52s6.08,6.23,9.11,9.34,6.15,6.15,9.26,9.2l4.69,4.53c1.59,1.49,3.16,3,4.77,4.46l-.71.71c-1.45-1.63-3-3.21-4.42-4.81l-4.49-4.73Q238,42,233.37,37.41c-3.09-3.06-6.14-6.17-9.27-9.19s-6.24-6.06-9.44-9Z" style="fill: #fff"/>
    <path d="M213.47,19.9c2.93,3.22,5.93,6.38,8.94,9.52s6.07,6.23,9.1,9.34,6.16,6.15,9.26,9.2l4.69,4.53c1.59,1.49,3.16,3,4.77,4.46l-.71.71c-1.45-1.63-3-3.21-4.42-4.81l-4.49-4.73q-4.53-4.69-9.12-9.34c-3.09-3.05-6.14-6.16-9.26-9.18s-6.25-6.06-9.44-9Z" style="fill: #fff"/>
    <path d="M212.24,21.63c2.93,3.22,5.92,6.37,8.93,9.51s6.08,6.23,9.11,9.35,6.15,6.15,9.26,9.19l4.69,4.54c1.59,1.49,3.15,3,4.77,4.46l-.71.7c-1.45-1.62-2.95-3.2-4.42-4.8l-4.5-4.73q-4.53-4.69-9.11-9.34c-3.09-3.06-6.14-6.16-9.27-9.19s-6.24-6.06-9.44-9Z" style="fill: #fff"/>
    <path d="M210.42,23c2.92,3.23,5.92,6.38,8.93,9.52s6.07,6.23,9.11,9.34,6.15,6.15,9.25,9.2l4.7,4.53c1.59,1.49,3.15,3,4.76,4.46l-.71.71c-1.45-1.63-2.94-3.21-4.42-4.81l-4.49-4.73q-4.53-4.7-9.12-9.33c-3.09-3.06-6.14-6.16-9.26-9.19s-6.24-6.06-9.44-9Z" style="fill: #fff"/>
    <path d="M208.87,24.49c2.93,3.22,5.92,6.38,8.93,9.52s6.08,6.23,9.11,9.34,6.15,6.15,9.26,9.2l4.69,4.53c1.59,1.49,3.16,3,4.77,4.46l-.71.71c-1.45-1.63-2.95-3.21-4.42-4.81L236,52.71q-4.53-4.69-9.12-9.33c-3.09-3.06-6.14-6.17-9.27-9.19s-6.24-6.06-9.44-9Z" style="fill: #fff"/>
    <path d="M207.58,26.19c2.93,3.22,5.93,6.38,8.94,9.52s6.07,6.23,9.11,9.34,6.15,6.15,9.25,9.2l4.7,4.53c1.58,1.49,3.15,3,4.76,4.46l-.71.71c-1.45-1.63-2.94-3.21-4.42-4.81l-4.49-4.73q-4.53-4.69-9.12-9.33c-3.09-3.06-6.14-6.17-9.26-9.19s-6.25-6.06-9.44-9Z" style="fill: #fff"/>
    <path d="M206.07,27.92C209,31.14,212,34.3,215,37.44s6.08,6.22,9.11,9.34,6.15,6.15,9.26,9.2l4.69,4.53c1.59,1.49,3.15,3,4.77,4.46l-.71.7c-1.45-1.62-3-3.2-4.42-4.8l-4.5-4.73q-4.53-4.7-9.11-9.34c-3.09-3.06-6.14-6.16-9.27-9.19s-6.24-6.05-9.44-9Z" style="fill: #fff"/>
    <path d="M204.72,29.54c2.93,3.23,5.93,6.38,8.94,9.52s6.07,6.23,9.1,9.34,6.16,6.15,9.26,9.2l4.69,4.53c1.59,1.49,3.16,3,4.77,4.46l-.71.71c-1.45-1.63-3-3.21-4.42-4.81l-4.49-4.73q-4.53-4.69-9.12-9.33c-3.09-3.06-6.14-6.16-9.27-9.19s-6.24-6.06-9.43-9Z" style="fill: #fff"/>
    <path d="M199.59,34.18A51.63,51.63,0,0,0,202,48.45a33,33,0,0,0,7.3,12.47,31,31,0,0,0,12.28,7.59,44,44,0,0,0,7.06,1.7c1.2.13,2.39.34,3.6.4l3.62.17,0,1-3.66-.44c-1.21-.14-2.41-.43-3.61-.63a42.53,42.53,0,0,1-7-2A32.47,32.47,0,0,1,209.3,61a34.74,34.74,0,0,1-7.52-12.41,62.71,62.71,0,0,1-3.15-14.29Z" style="fill: #fff"/>
    <path d="M200.45,34.16a44.24,44.24,0,0,0,3.11,13.69,34.69,34.69,0,0,0,7.82,11.66,39.26,39.26,0,0,0,11.83,7.62,57.1,57.1,0,0,0,6.68,2.27c1.15.26,2.29.56,3.44.79l3.47.6-.18,1-3.46-.87c-1.15-.3-2.27-.68-3.41-1a56,56,0,0,1-6.63-2.55,41.46,41.46,0,0,1-11.76-7.81,36.69,36.69,0,0,1-8-11.58,53.44,53.44,0,0,1-3.84-13.68Z" style="fill: #fff"/>
    <path d="M200.43,33.54a53.17,53.17,0,0,0,4.83,12.67,47.73,47.73,0,0,0,8.1,10.91,48.82,48.82,0,0,0,10.89,8.12,56.57,56.57,0,0,0,6.16,2.89c1.07.39,2.12.81,3.2,1.15s2.17.66,3.25,1l-.3,1c-1.06-.42-2.13-.84-3.2-1.24s-2.1-.92-3.15-1.37a59.17,59.17,0,0,1-6.07-3.16,53.14,53.14,0,0,1-10.81-8.3A51.34,51.34,0,0,1,205,46.33,66.51,66.51,0,0,1,199.5,33.8Z" style="fill: #fff"/>
    <path d="M201.42,32.51a54.14,54.14,0,0,0,5.49,11.93,56.94,56.94,0,0,0,8.18,10.33,66.34,66.34,0,0,0,10.25,8.28l1.39.9,1.42.84c.94.56,1.88,1.13,2.86,1.63,1.94,1,3.92,2,5.93,2.87l-.44.9c-1-.55-1.93-1.1-2.89-1.63s-1.9-1.14-2.85-1.7S228.88,65.7,228,65.1l-1.39-.9-1.35-1a75.33,75.33,0,0,1-10.15-8.45,64.08,64.08,0,0,1-8.37-10.21,71,71,0,0,1-6.18-11.74Z" style="fill: #fff"/>
    <path d="M202.43,32.41A96.37,96.37,0,0,0,209.86,43a118.6,118.6,0,0,0,8.67,9.68q4.6,4.58,9.64,8.7c1.69,1.36,3.4,2.68,5.13,4s3.51,2.52,5.32,3.71l-.59.81-2.53-2.05L233,65.81c-1.68-1.38-3.34-2.78-5-4.22-3.27-2.84-6.46-5.78-9.52-8.85s-6-6.25-8.84-9.53-5.48-6.74-8-10.27Z" style="fill: #fff"/>
    <path d="M203.87,31.46c2.68,3.42,5.53,6.71,8.45,9.93s6,6.34,9,9.45,6.24,6.07,9.43,9l4.86,4.37c1.65,1.42,3.28,2.85,5,4.24l-.67.74-4.64-4.61L230.6,60c-3.11-3-6.22-6.09-9.29-9.17s-6.13-6.18-9.17-9.29-6-6.3-9-9.48Z" style="fill: #fff"/>
    <line x1="104.92" y1="245.23" x2="109.23" y2="240.91" style="fill: none;stroke: #fff;stroke-miterlimit: 10"/>
    <line x1="105.37" y1="247.86" x2="112.17" y2="241.06" style="fill: none;stroke: #fff;stroke-miterlimit: 10"/>
    <line x1="105.27" y1="250.94" x2="115.49" y2="240.71" style="fill: none;stroke: #fff;stroke-miterlimit: 10"/>
    <line x1="105.18" y1="254.01" x2="118.32" y2="240.87" style="fill: none;stroke: #fff;stroke-miterlimit: 10"/>
    <line x1="105.29" y1="256.83" x2="121.13" y2="240.98" style="fill: none;stroke: #fff;stroke-miterlimit: 10"/>
    <line x1="115.73" y1="249.31" x2="124.33" y2="240.71" style="fill: none;stroke: #fff;stroke-miterlimit: 10"/>
    <line x1="104.78" y1="260.26" x2="113.57" y2="251.48" style="fill: none;stroke: #fff;stroke-miterlimit: 10"/>
    <line x1="119.12" y1="249.16" x2="127.43" y2="240.85" style="fill: none;stroke: #fff;stroke-miterlimit: 10"/>
    <line x1="104.78" y1="263.51" x2="113.71" y2="254.58" style="fill: none;stroke: #fff;stroke-miterlimit: 10"/>
    <line x1="122.14" y1="249.31" x2="130.6" y2="240.85" style="fill: none;stroke: #fff;stroke-miterlimit: 10"/>
    <line x1="104.78" y1="266.68" x2="113.71" y2="257.75" style="fill: none;stroke: #fff;stroke-miterlimit: 10"/>
    <line x1="125.4" y1="249.31" x2="133.79" y2="240.93" style="fill: none;stroke: #fff;stroke-miterlimit: 10"/>
    <line x1="104.78" y1="269.94" x2="113.71" y2="261.01" style="fill: none;stroke: #fff;stroke-miterlimit: 10"/>
    <line x1="128.68" y1="249.31" x2="137.47" y2="240.52" style="fill: none;stroke: #fff;stroke-miterlimit: 10"/>
    <line x1="104.78" y1="273.22" x2="113.71" y2="264.29" style="fill: none;stroke: #fff;stroke-miterlimit: 10"/>
    <line x1="131.91" y1="249.31" x2="141" y2="240.23" style="fill: none;stroke: #fff;stroke-miterlimit: 10"/>
    <line x1="104.54" y1="276.69" x2="113.71" y2="267.52" style="fill: none;stroke: #fff;stroke-miterlimit: 10"/>
    <g>
      <line x1="43.82" y1="177.62" x2="61.04" y2="162.89" style="fill: none;stroke: #fff;stroke-miterlimit: 10"/>
      <line x1="47.25" y1="177.62" x2="61.04" y2="165.97" style="fill: none;stroke: #fff;stroke-miterlimit: 10"/>
      <line x1="50.9" y1="177.62" x2="61.04" y2="169.18" style="fill: none;stroke: #fff;stroke-miterlimit: 10"/>
      <line x1="54.32" y1="177.62" x2="60.91" y2="172.28" style="fill: none;stroke: #fff;stroke-miterlimit: 10"/>
      <line x1="57.79" y1="177.53" x2="60.98" y2="175.16" style="fill: none;stroke: #fff;stroke-miterlimit: 10"/>
      <line x1="44" y1="174.29" x2="57.79" y2="162.64" style="fill: none;stroke: #fff;stroke-miterlimit: 10"/>
      <line x1="43.93" y1="171.05" x2="54.08" y2="162.61" style="fill: none;stroke: #fff;stroke-miterlimit: 10"/>
      <line x1="43.82" y1="167.93" x2="50.4" y2="162.59" style="fill: none;stroke: #fff;stroke-miterlimit: 10"/>
      <line x1="43.82" y1="164.98" x2="47.01" y2="162.61" style="fill: none;stroke: #fff;stroke-miterlimit: 10"/>
      <g>
        <line x1="61.28" y1="177.56" x2="44.06" y2="162.83" style="fill: none;stroke: #fff;stroke-miterlimit: 10"/>
        <line x1="57.85" y1="177.56" x2="44.06" y2="165.91" style="fill: none;stroke: #fff;stroke-miterlimit: 10"/>
        <line x1="54.2" y1="177.56" x2="44.06" y2="169.12" style="fill: none;stroke: #fff;stroke-miterlimit: 10"/>
        <line x1="50.78" y1="177.56" x2="44.19" y2="172.22" style="fill: none;stroke: #fff;stroke-miterlimit: 10"/>
        <line x1="47.31" y1="177.47" x2="44.12" y2="175.1" style="fill: none;stroke: #fff;stroke-miterlimit: 10"/>
        <line x1="61.1" y1="174.23" x2="47.31" y2="162.58" style="fill: none;stroke: #fff;stroke-miterlimit: 10"/>
        <line x1="61.17" y1="170.99" x2="51.02" y2="162.55" style="fill: none;stroke: #fff;stroke-miterlimit: 10"/>
        <line x1="61.28" y1="167.87" x2="54.7" y2="162.53" style="fill: none;stroke: #fff;stroke-miterlimit: 10"/>
        <line x1="61.28" y1="164.92" x2="58.09" y2="162.55" style="fill: none;stroke: #fff;stroke-miterlimit: 10"/>
      </g>
    </g>
    <g>
      <line x1="70.22" y1="177.74" x2="87.68" y2="163.01" style="fill: none;stroke: #fff;stroke-miterlimit: 10"/>
      <line x1="73.7" y1="177.74" x2="87.68" y2="166.09" style="fill: none;stroke: #fff;stroke-miterlimit: 10"/>
      <line x1="77.4" y1="177.74" x2="87.68" y2="169.3" style="fill: none;stroke: #fff;stroke-miterlimit: 10"/>
      <line x1="80.86" y1="177.74" x2="87.54" y2="172.4" style="fill: none;stroke: #fff;stroke-miterlimit: 10"/>
      <line x1="84.38" y1="177.65" x2="87.61" y2="175.28" style="fill: none;stroke: #fff;stroke-miterlimit: 10"/>
      <line x1="70.41" y1="174.41" x2="84.38" y2="162.75" style="fill: none;stroke: #fff;stroke-miterlimit: 10"/>
      <line x1="70.34" y1="171.17" x2="80.62" y2="162.73" style="fill: none;stroke: #fff;stroke-miterlimit: 10"/>
      <line x1="70.22" y1="168.05" x2="76.9" y2="162.71" style="fill: none;stroke: #fff;stroke-miterlimit: 10"/>
      <line x1="70.22" y1="165.1" x2="73.46" y2="162.72" style="fill: none;stroke: #fff;stroke-miterlimit: 10"/>
      <g>
        <line x1="87.92" y1="177.68" x2="70.47" y2="162.95" style="fill: none;stroke: #fff;stroke-miterlimit: 10"/>
        <line x1="84.44" y1="177.68" x2="70.47" y2="166.03" style="fill: none;stroke: #fff;stroke-miterlimit: 10"/>
        <line x1="80.75" y1="177.68" x2="70.47" y2="169.24" style="fill: none;stroke: #fff;stroke-miterlimit: 10"/>
        <line x1="77.28" y1="177.68" x2="70.61" y2="172.34" style="fill: none;stroke: #fff;stroke-miterlimit: 10"/>
        <line x1="73.77" y1="177.59" x2="70.54" y2="175.22" style="fill: none;stroke: #fff;stroke-miterlimit: 10"/>
        <line x1="87.73" y1="174.35" x2="73.76" y2="162.7" style="fill: none;stroke: #fff;stroke-miterlimit: 10"/>
        <line x1="87.81" y1="171.11" x2="77.53" y2="162.67" style="fill: none;stroke: #fff;stroke-miterlimit: 10"/>
        <line x1="87.92" y1="167.99" x2="81.25" y2="162.65" style="fill: none;stroke: #fff;stroke-miterlimit: 10"/>
        <line x1="87.92" y1="165.04" x2="84.69" y2="162.67" style="fill: none;stroke: #fff;stroke-miterlimit: 10"/>
      </g>
    </g>
    <g>
      <line x1="95.78" y1="177.35" x2="114.16" y2="162.62" style="fill: none;stroke: #fff;stroke-miterlimit: 10"/>
      <line x1="99.45" y1="177.35" x2="114.16" y2="165.7" style="fill: none;stroke: #fff;stroke-miterlimit: 10"/>
      <line x1="103.34" y1="177.35" x2="114.16" y2="168.91" style="fill: none;stroke: #fff;stroke-miterlimit: 10"/>
      <line x1="106.99" y1="177.35" x2="114.01" y2="172.01" style="fill: none;stroke: #fff;stroke-miterlimit: 10"/>
      <line x1="110.69" y1="177.26" x2="114.09" y2="174.89" style="fill: none;stroke: #fff;stroke-miterlimit: 10"/>
      <line x1="95.98" y1="174.02" x2="110.69" y2="162.37" style="fill: none;stroke: #fff;stroke-miterlimit: 10"/>
      <line x1="95.91" y1="170.78" x2="106.73" y2="162.34" style="fill: none;stroke: #fff;stroke-miterlimit: 10"/>
      <line x1="95.78" y1="167.66" x2="102.81" y2="162.32" style="fill: none;stroke: #fff;stroke-miterlimit: 10"/>
      <line x1="95.78" y1="164.71" x2="99.19" y2="162.34" style="fill: none;stroke: #fff;stroke-miterlimit: 10"/>
      <g>
        <line x1="114.42" y1="177.29" x2="96.04" y2="162.56" style="fill: none;stroke: #fff;stroke-miterlimit: 10"/>
        <line x1="110.75" y1="177.29" x2="96.04" y2="165.64" style="fill: none;stroke: #fff;stroke-miterlimit: 10"/>
        <line x1="106.87" y1="177.29" x2="96.04" y2="168.85" style="fill: none;stroke: #fff;stroke-miterlimit: 10"/>
        <line x1="103.22" y1="177.29" x2="96.19" y2="171.95" style="fill: none;stroke: #fff;stroke-miterlimit: 10"/>
        <line x1="99.52" y1="177.2" x2="96.11" y2="174.83" style="fill: none;stroke: #fff;stroke-miterlimit: 10"/>
        <line x1="114.22" y1="173.96" x2="99.51" y2="162.31" style="fill: none;stroke: #fff;stroke-miterlimit: 10"/>
        <line x1="114.3" y1="170.72" x2="103.47" y2="162.28" style="fill: none;stroke: #fff;stroke-miterlimit: 10"/>
        <line x1="114.42" y1="167.6" x2="107.39" y2="162.26" style="fill: none;stroke: #fff;stroke-miterlimit: 10"/>
        <line x1="114.42" y1="164.65" x2="111.02" y2="162.28" style="fill: none;stroke: #fff;stroke-miterlimit: 10"/>
      </g>
    </g>
    <g>
      <line x1="123.16" y1="177.53" x2="141.02" y2="162.79" style="fill: none;stroke: #fff;stroke-miterlimit: 10"/>
      <line x1="126.72" y1="177.53" x2="141.02" y2="165.87" style="fill: none;stroke: #fff;stroke-miterlimit: 10"/>
      <line x1="130.5" y1="177.53" x2="141.02" y2="169.09" style="fill: none;stroke: #fff;stroke-miterlimit: 10"/>
      <line x1="134.05" y1="177.53" x2="140.88" y2="172.19" style="fill: none;stroke: #fff;stroke-miterlimit: 10"/>
      <line x1="137.65" y1="177.44" x2="140.95" y2="175.07" style="fill: none;stroke: #fff;stroke-miterlimit: 10"/>
      <line x1="123.35" y1="174.2" x2="137.65" y2="162.54" style="fill: none;stroke: #fff;stroke-miterlimit: 10"/>
      <line x1="123.28" y1="170.96" x2="133.8" y2="162.51" style="fill: none;stroke: #fff;stroke-miterlimit: 10"/>
      <line x1="123.16" y1="167.84" x2="129.99" y2="162.5" style="fill: none;stroke: #fff;stroke-miterlimit: 10"/>
      <line x1="123.16" y1="164.88" x2="126.47" y2="162.51" style="fill: none;stroke: #fff;stroke-miterlimit: 10"/>
      <g>
        <line x1="141.27" y1="177.47" x2="123.41" y2="162.73" style="fill: none;stroke: #fff;stroke-miterlimit: 10"/>
        <line x1="137.71" y1="177.47" x2="123.41" y2="165.82" style="fill: none;stroke: #fff;stroke-miterlimit: 10"/>
        <line x1="133.93" y1="177.47" x2="123.41" y2="169.03" style="fill: none;stroke: #fff;stroke-miterlimit: 10"/>
        <line x1="130.39" y1="177.47" x2="123.55" y2="172.13" style="fill: none;stroke: #fff;stroke-miterlimit: 10"/>
        <line x1="126.79" y1="177.38" x2="123.48" y2="175.01" style="fill: none;stroke: #fff;stroke-miterlimit: 10"/>
        <line x1="141.08" y1="174.14" x2="126.78" y2="162.48" style="fill: none;stroke: #fff;stroke-miterlimit: 10"/>
        <line x1="141.16" y1="170.9" x2="130.64" y2="162.46" style="fill: none;stroke: #fff;stroke-miterlimit: 10"/>
        <line x1="141.27" y1="167.78" x2="134.44" y2="162.44" style="fill: none;stroke: #fff;stroke-miterlimit: 10"/>
        <line x1="141.27" y1="164.82" x2="137.97" y2="162.45" style="fill: none;stroke: #fff;stroke-miterlimit: 10"/>
      </g>
    </g>
    <g>
      <line x1="149.85" y1="177.62" x2="167.32" y2="162.88" style="fill: none;stroke: #fff;stroke-miterlimit: 10"/>
      <line x1="153.33" y1="177.62" x2="167.32" y2="165.97" style="fill: none;stroke: #fff;stroke-miterlimit: 10"/>
      <line x1="157.03" y1="177.62" x2="167.32" y2="169.18" style="fill: none;stroke: #fff;stroke-miterlimit: 10"/>
      <line x1="160.5" y1="177.62" x2="167.18" y2="172.28" style="fill: none;stroke: #fff;stroke-miterlimit: 10"/>
      <line x1="164.02" y1="177.53" x2="167.25" y2="175.16" style="fill: none;stroke: #fff;stroke-miterlimit: 10"/>
      <line x1="150.04" y1="174.29" x2="164.02" y2="162.63" style="fill: none;stroke: #fff;stroke-miterlimit: 10"/>
      <line x1="149.97" y1="171.05" x2="160.25" y2="162.61" style="fill: none;stroke: #fff;stroke-miterlimit: 10"/>
      <line x1="149.85" y1="167.93" x2="156.53" y2="162.59" style="fill: none;stroke: #fff;stroke-miterlimit: 10"/>
      <line x1="149.85" y1="164.97" x2="153.09" y2="162.6" style="fill: none;stroke: #fff;stroke-miterlimit: 10"/>
      <g>
        <line x1="167.56" y1="177.56" x2="150.1" y2="162.83" style="fill: none;stroke: #fff;stroke-miterlimit: 10"/>
        <line x1="164.08" y1="177.56" x2="150.1" y2="165.91" style="fill: none;stroke: #fff;stroke-miterlimit: 10"/>
        <line x1="160.38" y1="177.56" x2="150.1" y2="169.12" style="fill: none;stroke: #fff;stroke-miterlimit: 10"/>
        <line x1="156.92" y1="177.56" x2="150.24" y2="172.22" style="fill: none;stroke: #fff;stroke-miterlimit: 10"/>
        <line x1="153.4" y1="177.47" x2="150.16" y2="175.1" style="fill: none;stroke: #fff;stroke-miterlimit: 10"/>
        <line x1="167.38" y1="174.23" x2="153.39" y2="162.58" style="fill: none;stroke: #fff;stroke-miterlimit: 10"/>
        <line x1="167.45" y1="170.99" x2="157.16" y2="162.55" style="fill: none;stroke: #fff;stroke-miterlimit: 10"/>
        <line x1="167.56" y1="167.87" x2="160.88" y2="162.53" style="fill: none;stroke: #fff;stroke-miterlimit: 10"/>
        <line x1="167.56" y1="164.92" x2="164.33" y2="162.54" style="fill: none;stroke: #fff;stroke-miterlimit: 10"/>
      </g>
    </g>
    <g>
      <line x1="176.29" y1="177.62" x2="193.74" y2="162.88" style="fill: none;stroke: #fff;stroke-miterlimit: 10"/>
      <line x1="179.77" y1="177.62" x2="193.74" y2="165.96" style="fill: none;stroke: #fff;stroke-miterlimit: 10"/>
      <line x1="183.46" y1="177.62" x2="193.74" y2="169.18" style="fill: none;stroke: #fff;stroke-miterlimit: 10"/>
      <line x1="186.92" y1="177.62" x2="193.6" y2="172.28" style="fill: none;stroke: #fff;stroke-miterlimit: 10"/>
      <line x1="190.44" y1="177.53" x2="193.67" y2="175.16" style="fill: none;stroke: #fff;stroke-miterlimit: 10"/>
      <line x1="176.48" y1="174.29" x2="190.44" y2="162.63" style="fill: none;stroke: #fff;stroke-miterlimit: 10"/>
      <line x1="176.4" y1="171.05" x2="186.68" y2="162.6" style="fill: none;stroke: #fff;stroke-miterlimit: 10"/>
      <line x1="176.29" y1="167.93" x2="182.96" y2="162.59" style="fill: none;stroke: #fff;stroke-miterlimit: 10"/>
      <line x1="176.29" y1="164.97" x2="179.52" y2="162.6" style="fill: none;stroke: #fff;stroke-miterlimit: 10"/>
      <g>
        <line x1="193.98" y1="177.56" x2="176.53" y2="162.82" style="fill: none;stroke: #fff;stroke-miterlimit: 10"/>
        <line x1="190.5" y1="177.56" x2="176.53" y2="165.91" style="fill: none;stroke: #fff;stroke-miterlimit: 10"/>
        <line x1="186.81" y1="177.56" x2="176.53" y2="169.12" style="fill: none;stroke: #fff;stroke-miterlimit: 10"/>
        <line x1="183.35" y1="177.56" x2="176.67" y2="172.22" style="fill: none;stroke: #fff;stroke-miterlimit: 10"/>
        <line x1="179.83" y1="177.47" x2="176.6" y2="175.1" style="fill: none;stroke: #fff;stroke-miterlimit: 10"/>
        <line x1="193.79" y1="174.23" x2="179.83" y2="162.57" style="fill: none;stroke: #fff;stroke-miterlimit: 10"/>
        <line x1="193.87" y1="170.99" x2="183.59" y2="162.55" style="fill: none;stroke: #fff;stroke-miterlimit: 10"/>
        <line x1="193.98" y1="167.87" x2="187.31" y2="162.53" style="fill: none;stroke: #fff;stroke-miterlimit: 10"/>
        <line x1="193.98" y1="164.91" x2="190.75" y2="162.54" style="fill: none;stroke: #fff;stroke-miterlimit: 10"/>
      </g>
    </g>
    <g>
      <line x1="201.66" y1="177.59" x2="219.76" y2="162.86" style="fill: none;stroke: #fff;stroke-miterlimit: 10"/>
      <line x1="205.27" y1="177.59" x2="219.76" y2="165.94" style="fill: none;stroke: #fff;stroke-miterlimit: 10"/>
      <line x1="209.1" y1="177.59" x2="219.76" y2="169.15" style="fill: none;stroke: #fff;stroke-miterlimit: 10"/>
      <line x1="212.7" y1="177.59" x2="219.62" y2="172.25" style="fill: none;stroke: #fff;stroke-miterlimit: 10"/>
      <line x1="216.34" y1="177.51" x2="219.69" y2="175.13" style="fill: none;stroke: #fff;stroke-miterlimit: 10"/>
      <line x1="201.86" y1="174.26" x2="216.35" y2="162.61" style="fill: none;stroke: #fff;stroke-miterlimit: 10"/>
      <line x1="201.78" y1="171.02" x2="212.44" y2="162.58" style="fill: none;stroke: #fff;stroke-miterlimit: 10"/>
      <line x1="201.66" y1="167.9" x2="208.59" y2="162.56" style="fill: none;stroke: #fff;stroke-miterlimit: 10"/>
      <line x1="201.66" y1="164.95" x2="205.01" y2="162.58" style="fill: none;stroke: #fff;stroke-miterlimit: 10"/>
      <g>
        <line x1="220.02" y1="177.54" x2="201.92" y2="162.8" style="fill: none;stroke: #fff;stroke-miterlimit: 10"/>
        <line x1="216.41" y1="177.54" x2="201.92" y2="165.88" style="fill: none;stroke: #fff;stroke-miterlimit: 10"/>
        <line x1="212.58" y1="177.54" x2="201.92" y2="169.09" style="fill: none;stroke: #fff;stroke-miterlimit: 10"/>
        <line x1="208.98" y1="177.54" x2="202.06" y2="172.2" style="fill: none;stroke: #fff;stroke-miterlimit: 10"/>
        <line x1="205.34" y1="177.45" x2="201.99" y2="175.08" style="fill: none;stroke: #fff;stroke-miterlimit: 10"/>
        <line x1="219.82" y1="174.2" x2="205.33" y2="162.55" style="fill: none;stroke: #fff;stroke-miterlimit: 10"/>
        <line x1="219.9" y1="170.96" x2="209.24" y2="162.52" style="fill: none;stroke: #fff;stroke-miterlimit: 10"/>
        <line x1="220.02" y1="167.84" x2="213.09" y2="162.5" style="fill: none;stroke: #fff;stroke-miterlimit: 10"/>
        <line x1="220.02" y1="164.89" x2="216.66" y2="162.52" style="fill: none;stroke: #fff;stroke-miterlimit: 10"/>
      </g>
    </g>
    <g>
      <line x1="228.32" y1="177.35" x2="245.69" y2="162.62" style="fill: none;stroke: #fff;stroke-miterlimit: 10"/>
      <line x1="231.78" y1="177.35" x2="245.69" y2="165.7" style="fill: none;stroke: #fff;stroke-miterlimit: 10"/>
      <line x1="235.46" y1="177.35" x2="245.69" y2="168.91" style="fill: none;stroke: #fff;stroke-miterlimit: 10"/>
      <line x1="238.9" y1="177.35" x2="245.55" y2="172.01" style="fill: none;stroke: #fff;stroke-miterlimit: 10"/>
      <line x1="242.4" y1="177.26" x2="245.62" y2="174.89" style="fill: none;stroke: #fff;stroke-miterlimit: 10"/>
      <line x1="228.5" y1="174.02" x2="242.41" y2="162.37" style="fill: none;stroke: #fff;stroke-miterlimit: 10"/>
      <line x1="228.43" y1="170.78" x2="238.66" y2="162.34" style="fill: none;stroke: #fff;stroke-miterlimit: 10"/>
      <line x1="228.32" y1="167.66" x2="234.96" y2="162.32" style="fill: none;stroke: #fff;stroke-miterlimit: 10"/>
      <line x1="228.32" y1="164.71" x2="231.53" y2="162.34" style="fill: none;stroke: #fff;stroke-miterlimit: 10"/>
      <g>
        <line x1="245.93" y1="177.29" x2="228.56" y2="162.56" style="fill: none;stroke: #fff;stroke-miterlimit: 10"/>
        <line x1="242.47" y1="177.29" x2="228.56" y2="165.64" style="fill: none;stroke: #fff;stroke-miterlimit: 10"/>
        <line x1="238.79" y1="177.29" x2="228.56" y2="168.85" style="fill: none;stroke: #fff;stroke-miterlimit: 10"/>
        <line x1="235.34" y1="177.29" x2="228.7" y2="171.95" style="fill: none;stroke: #fff;stroke-miterlimit: 10"/>
        <line x1="231.84" y1="177.2" x2="228.63" y2="174.83" style="fill: none;stroke: #fff;stroke-miterlimit: 10"/>
        <line x1="245.74" y1="173.96" x2="231.84" y2="162.31" style="fill: none;stroke: #fff;stroke-miterlimit: 10"/>
        <line x1="245.81" y1="170.72" x2="235.58" y2="162.28" style="fill: none;stroke: #fff;stroke-miterlimit: 10"/>
        <line x1="245.93" y1="167.6" x2="239.29" y2="162.26" style="fill: none;stroke: #fff;stroke-miterlimit: 10"/>
        <line x1="245.93" y1="164.65" x2="242.71" y2="162.28" style="fill: none;stroke: #fff;stroke-miterlimit: 10"/>
      </g>
    </g>
    <line x1="135.12" y1="249.31" x2="143.59" y2="240.84" style="fill: none;stroke: #fff;stroke-miterlimit: 10"/>
    <line x1="122.59" y1="261.85" x2="125.97" y2="258.46" style="fill: none;stroke: #fff;stroke-miterlimit: 10"/>
    <line x1="104.5" y1="279.93" x2="113.71" y2="270.72" style="fill: none;stroke: #fff;stroke-miterlimit: 10"/>
    <line x1="138.42" y1="249.31" x2="146.86" y2="240.87" style="fill: none;stroke: #fff;stroke-miterlimit: 10"/>
    <line x1="122.34" y1="265.39" x2="129.27" y2="258.46" style="fill: none;stroke: #fff;stroke-miterlimit: 10"/>
    <line x1="104.89" y1="282.84" x2="113.77" y2="273.96" style="fill: none;stroke: #fff;stroke-miterlimit: 10"/>
    <line x1="141.59" y1="249.31" x2="149.75" y2="241.15" style="fill: none;stroke: #fff;stroke-miterlimit: 10"/>
    <line x1="122.43" y1="268.47" x2="132.44" y2="258.46" style="fill: none;stroke: #fff;stroke-miterlimit: 10"/>
    <line x1="104.51" y1="286.39" x2="113.71" y2="277.19" style="fill: none;stroke: #fff;stroke-miterlimit: 10"/>
    <line x1="144.77" y1="249.31" x2="153.14" y2="240.94" style="fill: none;stroke: #fff;stroke-miterlimit: 10"/>
    <line x1="122.43" y1="271.65" x2="135.63" y2="258.46" style="fill: none;stroke: #fff;stroke-miterlimit: 10"/>
    <line x1="104.62" y1="289.46" x2="113.71" y2="280.37" style="fill: none;stroke: #fff;stroke-miterlimit: 10"/>
    <line x1="147.93" y1="249.31" x2="156.2" y2="241.04" style="fill: none;stroke: #fff;stroke-miterlimit: 10"/>
    <line x1="122.43" y1="274.81" x2="138.78" y2="258.46" style="fill: none;stroke: #fff;stroke-miterlimit: 10"/>
    <line x1="104.9" y1="292.35" x2="113.57" y2="283.68" style="fill: none;stroke: #fff;stroke-miterlimit: 10"/>
    <line x1="179.24" y1="293.1" x2="183.58" y2="288.81" style="fill: none;stroke: #fff;stroke-miterlimit: 10"/>
    <line x1="176.61" y1="292.63" x2="183.44" y2="285.87" style="fill: none;stroke: #fff;stroke-miterlimit: 10"/>
    <line x1="175.6" y1="290.67" x2="183.81" y2="282.55" style="fill: none;stroke: #fff;stroke-miterlimit: 10"/>
    <line x1="175.61" y1="287.69" x2="183.67" y2="279.72" style="fill: none;stroke: #fff;stroke-miterlimit: 10"/>
    <line x1="175.46" y1="284.93" x2="183.57" y2="276.9" style="fill: none;stroke: #fff;stroke-miterlimit: 10"/>
    <line x1="175.61" y1="281.87" x2="183.86" y2="273.71" style="fill: none;stroke: #fff;stroke-miterlimit: 10"/>
    <line x1="164.2" y1="293.16" x2="166.24" y2="291.14" style="fill: none;stroke: #fff;stroke-miterlimit: 10"/>
    <line x1="175.61" y1="278.64" x2="183.73" y2="270.6" style="fill: none;stroke: #fff;stroke-miterlimit: 10"/>
    <line x1="160.96" y1="293.15" x2="166.24" y2="287.92" style="fill: none;stroke: #fff;stroke-miterlimit: 10"/>
    <line x1="175.61" y1="275.49" x2="183.75" y2="267.43" style="fill: none;stroke: #fff;stroke-miterlimit: 10"/>
    <line x1="157.79" y1="293.13" x2="166.1" y2="284.9" style="fill: none;stroke: #fff;stroke-miterlimit: 10"/>
    <line x1="175.6" y1="272.25" x2="183.69" y2="264.25" style="fill: none;stroke: #fff;stroke-miterlimit: 10"/>
    <line x1="154.53" y1="293.11" x2="166.24" y2="281.52" style="fill: none;stroke: #fff;stroke-miterlimit: 10"/>
    <line x1="175.6" y1="268.99" x2="184.11" y2="260.57" style="fill: none;stroke: #fff;stroke-miterlimit: 10"/>
    <line x1="151.25" y1="293.1" x2="166.1" y2="278.4" style="fill: none;stroke: #fff;stroke-miterlimit: 10"/>
    <line x1="175.73" y1="265.64" x2="184.42" y2="257.05" style="fill: none;stroke: #fff;stroke-miterlimit: 10"/>
    <line x1="147.78" y1="293.32" x2="166.35" y2="274.94" style="fill: none;stroke: #fff;stroke-miterlimit: 10"/>
    <line x1="175.6" y1="262.58" x2="183.82" y2="254.45" style="fill: none;stroke: #fff;stroke-miterlimit: 10"/>
    <line x1="147.95" y1="289.96" x2="166.35" y2="271.74" style="fill: none;stroke: #fff;stroke-miterlimit: 10"/>
    <line x1="175.6" y1="259.3" x2="183.81" y2="251.18" style="fill: none;stroke: #fff;stroke-miterlimit: 10"/>
    <line x1="147.95" y1="286.68" x2="166.24" y2="268.57" style="fill: none;stroke: #fff;stroke-miterlimit: 10"/>
    <line x1="175.6" y1="256.15" x2="183.54" y2="248.29" style="fill: none;stroke: #fff;stroke-miterlimit: 10"/>
    <line x1="147.95" y1="283.52" x2="166.24" y2="265.41" style="fill: none;stroke: #fff;stroke-miterlimit: 10"/>
    <line x1="138.08" y1="293.3" x2="140.3" y2="291.1" style="fill: none;stroke: #fff;stroke-miterlimit: 10"/>
    <line x1="175.6" y1="252.98" x2="183.77" y2="244.89" style="fill: none;stroke: #fff;stroke-miterlimit: 10"/>
    <line x1="147.95" y1="280.35" x2="166.1" y2="262.39" style="fill: none;stroke: #fff;stroke-miterlimit: 10"/>
    <line x1="135.01" y1="293.17" x2="140.31" y2="287.92" style="fill: none;stroke: #fff;stroke-miterlimit: 10"/>
    <line x1="175.6" y1="249.84" x2="183.68" y2="241.84" style="fill: none;stroke: #fff;stroke-miterlimit: 10"/>
    <line x1="147.95" y1="277.21" x2="166.24" y2="259.1" style="fill: none;stroke: #fff;stroke-miterlimit: 10"/>
    <line x1="132.12" y1="292.88" x2="140.3" y2="284.79" style="fill: none;stroke: #fff;stroke-miterlimit: 10"/>
    <line x1="151.44" y1="249.31" x2="159.93" y2="240.91" style="fill: none;stroke: #fff;stroke-miterlimit: 10"/>
    <line x1="122.43" y1="278.03" x2="140.3" y2="260.35" style="fill: none;stroke: #fff;stroke-miterlimit: 10"/>
    <line x1="107.32" y1="292.99" x2="113.71" y2="286.67" style="fill: none;stroke: #fff;stroke-miterlimit: 10"/>
    <line x1="154.68" y1="249.31" x2="162.94" y2="241.14" style="fill: none;stroke: #fff;stroke-miterlimit: 10"/>
    <line x1="122.43" y1="281.24" x2="140.38" y2="263.47" style="fill: none;stroke: #fff;stroke-miterlimit: 10"/>
    <line x1="110.32" y1="293.22" x2="113.71" y2="289.87" style="fill: none;stroke: #fff;stroke-miterlimit: 10"/>
    <line x1="157.79" y1="249.31" x2="166.05" y2="241.14" style="fill: none;stroke: #fff;stroke-miterlimit: 10"/>
    <line x1="147.9" y1="259.1" x2="148.55" y2="258.46" style="fill: none;stroke: #fff;stroke-miterlimit: 10"/>
    <line x1="122.43" y1="284.32" x2="140.3" y2="266.63" style="fill: none;stroke: #fff;stroke-miterlimit: 10"/>
    <line x1="160.94" y1="249.16" x2="169.28" y2="240.91" style="fill: none;stroke: #fff;stroke-miterlimit: 10"/>
    <line x1="147.95" y1="262.02" x2="151.55" y2="258.46" style="fill: none;stroke: #fff;stroke-miterlimit: 10"/>
    <line x1="122.34" y1="287.38" x2="140.3" y2="269.6" style="fill: none;stroke: #fff;stroke-miterlimit: 10"/>
    <line x1="163.73" y1="249.31" x2="172.63" y2="240.51" style="fill: none;stroke: #fff;stroke-miterlimit: 10"/>
    <line x1="147.95" y1="264.93" x2="154.59" y2="258.37" style="fill: none;stroke: #fff;stroke-miterlimit: 10"/>
    <line x1="122.43" y1="290.2" x2="140.3" y2="272.51" style="fill: none;stroke: #fff;stroke-miterlimit: 10"/>
    <line x1="166.92" y1="249.31" x2="175.18" y2="241.14" style="fill: none;stroke: #fff;stroke-miterlimit: 10"/>
    <line x1="147.95" y1="268.09" x2="157.68" y2="258.46" style="fill: none;stroke: #fff;stroke-miterlimit: 10"/>
    <line x1="122.57" y1="293.22" x2="140.3" y2="275.67" style="fill: none;stroke: #fff;stroke-miterlimit: 10"/>
    <line x1="169.99" y1="249.31" x2="178.88" y2="240.51" style="fill: none;stroke: #fff;stroke-miterlimit: 10"/>
    <line x1="148.06" y1="271.02" x2="160.75" y2="258.46" style="fill: none;stroke: #fff;stroke-miterlimit: 10"/>
    <line x1="126.27" y1="292.59" x2="140.3" y2="278.7" style="fill: none;stroke: #fff;stroke-miterlimit: 10"/>
    <line x1="173.11" y1="249.31" x2="181.86" y2="240.65" style="fill: none;stroke: #fff;stroke-miterlimit: 10"/>
    <line x1="147.89" y1="274.28" x2="163.87" y2="258.46" style="fill: none;stroke: #fff;stroke-miterlimit: 10"/>
    <line x1="129.25" y1="292.74" x2="140.3" y2="281.8" style="fill: none;stroke: #fff;stroke-miterlimit: 10"/>
  </g>
</svg>
