<svg id="photo-earth" xmlns="http://www.w3.org/2000/svg" viewBox="0 0 300 300">
  <g id="outline">
    <polygon points="17.13 72.02 40.11 253.3 286.23 221.64 263.51 41.38 17.13 72.02" style="fill: none;stroke: #fff;stroke-miterlimit: 10;stroke-width: 2px"/>
    <polygon points="30.15 82.45 50.86 238.62 272.7 211.35 252.22 56.06 30.15 82.45" style="fill: none;stroke: #fff;stroke-miterlimit: 10;stroke-width: 2px"/>
    <path d="M51.27,238.43c53.1-74.57,118.56-135.72,197.71-182" style="fill: none;stroke: #fff;stroke-miterlimit: 10;stroke-width: 2px"/>
    <path d="M93.26,213.28c-1.05.4-1.42,1.5-2.88,2.6a5.06,5.06,0,0,1-.75.48,17.73,17.73,0,0,0-2.53,1.1,16.71,16.71,0,0,0-3.63,2.78c-.77.8-.54.74-2.51,3.47-2.68,3.7-2.62,3.12-3.5,4.66-.68,1.2-.83,1.75-1.44,1.93-1.16.35-3-.92-3.28-2.39-.24-1.24.74-2,.32-2.63-.58-.89-2.84.19-3.29-.48-.59-.85,2.31-3.71,4.94-6.59s.82-1.23,7-8.53c5-5.88,7.5-8.81,8.54-9.53,2.12-1.45,5.43-3.2,7-5.82A16.08,16.08,0,0,1,99,192a31.58,31.58,0,0,1,2.61-2.38c2.31-2.22,2.42-3.34,4-3.83.35-.11.47-.09,1.8-.43a10.44,10.44,0,0,0,2.22-.69c.65-.39.59-.67,1.71-2.16a24.52,24.52,0,0,1,2.13-2.42c1.28-1.29,1.7-1.42,2-1.45.67,0,1,.34,1.65.24a2.5,2.5,0,0,0,1.51-1c1.2-1.37.8-2.2,1.68-3.59a6.44,6.44,0,0,1,3.52-2.6c1.39-.33,2.16.14,2.74-.49s.07-1.35.7-2.4a3.6,3.6,0,0,1,1.59-1.34c1.29-.61,2.15-.18,3.61-.22,1.08,0,2.42-.65,5.12-1.87,2.2-1,2.83-1.5,4.37-1.68.82-.1,1,0,2-.17,1.74-.28,1.92-.68,3.32-.8a6.92,6.92,0,0,1,2.58.18c.92.26,1.11.55,1.54.43.9-.27.63-1.77,1.67-2.31a2.79,2.79,0,0,1,2.1.13c.82.24,2.05.6,2.43,1.49.56,1.32-1.1,3.17-2.15,4.33-1.37,1.52-1.9,1.46-3.67,3.27-1.4,1.43-1.11,1.52-2.35,2.79-1.47,1.5-1.94,1.43-4.84,3.71-1.86,1.45-2,1.74-3.48,2.74-1.63,1.11-2.47,1.66-3.7,1.84-1.41.21-1.58-.33-3.56-.26a6.78,6.78,0,0,0-3.61.87,7.23,7.23,0,0,0-2.24,2.6c-.93,1.49-.73,1.84-1.53,2.92a12.31,12.31,0,0,1-2.5,2.19,30.72,30.72,0,0,1-3.81,2.66c-2,1.09-3,1.2-3.17,2s.6,1.1.5,2.1c-.12,1.18-1.26,1.81-1.11,2s1.41-.59,3.39-1.13c1.12-.31,2.3-.63,2.67-.16.52.66-1.09,2.34-.56,3,.31.37.93,0,2.26.1.56.06,2.35.24,2.87,1.38a2.89,2.89,0,0,1-.51,2.51c-.7,1-1.38.79-2.31,1.66-1.45,1.37-1.35,3.32-1.75,3.29s-.15-3.4-1.62-4.07c-.84-.38-1.41.53-2.51.13,0,0-.55-.2-2.19-2.5a5.17,5.17,0,0,0-2.26.54c-.84.57-.55,1.51-1.12,3.29a10.19,10.19,0,0,1-2.14,3.7c-1.12,1.33-3,2.84-3.55,2.44-.13-.09-.13-.25.3-3.41a14.24,14.24,0,0,1,.26-2.45.43.43,0,0,0,0-.33c-.29-.49-2.77-.05-4.44,1.39-.49.42-.39.48-1.41,1.45a8.7,8.7,0,0,1-2,1.59c-.93.48-1,.2-1.77.59a3.29,3.29,0,0,1-1.73,1.9C95.12,213.85,94.47,212.82,93.26,213.28Z" style="fill: none;stroke: #fff;stroke-miterlimit: 10;stroke-width: 2px"/>
    <path d="M223,72.42a4.48,4.48,0,0,1,2.27,0l7.15-.14,7.1-.14c1.08-.28,4-.88,5.1-.16.56.37.06,1.23.32,1.85.76,1.85-.48,3.41-.7,4.31A5.49,5.49,0,0,1,243,80.89c-.94,1-1.74.77-3.52,1.6-1.55.72-1.25,1-3.82,2.81s-3.11,1.63-4,2.79c-1.22,1.58-1.57,3.68-1.1,4s.88-.62,2.66-1.86a38,38,0,0,1,4.12-2.25c.91-.46,1.85-.89,3.71-1.75,2.55-1.18,3.15-1.41,3.38-1.16s.09.59-.85,2.47a21.13,21.13,0,0,1-2.15,3.86c-1.25,1.34-2.21,1.13-4.47,2.21-3.5,1.68-5.93,4.45-5.63,4.93.2.32,1.52-.46,4.88-.93a8.91,8.91,0,0,1,2.66-.09,10.8,10.8,0,0,1,2.91,1c1.18.51,1.77.77,1.84,1.07.24.86-1.48,2-3.52,3.37s-3.18,2.12-4.47,2.21c-1.49.1-1.76-.52-3.5-.35a8.68,8.68,0,0,0-3.3,1.09c-1.69.91-1.74,1.53-3.24,2.34a12.86,12.86,0,0,1-3.65,1.05s-1.8.43-5.48,1.76-3.61,2.06-7.45,3.69c-5.53,2.33-6.41,1.11-8.82,3.2-1.29,1.12-2.24,2.51-4.17,2.77-1,.13-2.43,0-2.59-.61-.32-1.1,4.45-2,7.72-6.5,1.66-2.29,2.94-5.08,2.49-5.42s-2.66,2.79-7.48,5.81a38.86,38.86,0,0,1-5.6,2.81c-5.93,2.63-6.89,2.11-10.32,4.12-2.26,1.32-1.27,1.22-6.13,4.7-5.1,3.66-5.17,3-7.41,5.11s-2.85,3.25-4.59,3.44-2.24-1.15-4.3-1.31c-3-.23-3.86,2.56-8,3.63-2.88.76-6.2.36-6.48-.64A468.33,468.33,0,0,1,223,72.42Z" style="fill: none;stroke: #fff;stroke-miterlimit: 10;stroke-width: 2px"/>
    <path d="M254.88,104.15c-.91-.54-2.35,0-5.25,1.15a14.22,14.22,0,0,0-4.61,2.38c-1.89,1.61-2.41,3.23-3.6,3.12-.7-.06-.7-.64-1.8-1.08a4,4,0,0,0-3.52.14c-1.22.86-.84,2.34-1.86,2.69-.8.27-1.18-.58-2.4-.46a4.51,4.51,0,0,0-2.31,1.28c-1.53,1.2-2,2.11-2.34,2-.54-.23.53-2.61-.37-3.31-.62-.48-2-.06-2.63.75-.11.15-.17.26-.6,1.87h0s-2,2.67-4.11,2.76c-1.56.06-2.15-1.25-3.25-.85-.87.33-.83,1.27-1.67,2.35-.36.47-1,1-4.43,2.22-4.53,1.53-5.51,1.21-6.52,2.47s-.62,2.05-1.68,2.69-1.94,0-3.47.19c-2,.17-2.87,1.41-5.16,3a53.61,53.61,0,0,1-6.2,3.17c-5,2.37-5.82,2.43-10.07,4.39-1.51.69-4.2,2.1-9.57,4.92-6.94,3.64-8.76,4.68-9.77,5.26-2.13,1.24-8.84,5.12-8.57,5.67s4.9-1.49,7.21-2.44c3.78-1.55,5.8-2.6,11.5-5.36,15.25-7.38,12.53-5.56,12.72-5.4.65.56,4.5-3.36,6.32-2.2.84.53.92,1.47,1.83,1.64s1.46-.45,3.39-2.09A27.49,27.49,0,0,1,196,134c1.93-.93,2.34-.16,4.37-1,2.21-.92,2.08-2,4.49-3.43a11.4,11.4,0,0,1,5.62-1.81c3.1-.07,3.79,1.53,6.19,1,1.94-.45,1.76-1.56,3.91-2.24,2.76-.88,3.78.72,6.23-.06,2.27-.72,1.76-2.2,4.68-3.94a13.79,13.79,0,0,1,6.84-1.76,8.88,8.88,0,0,1,4.3.54c1.58.73,1.8,1.59,3,1.7s1.35-.61,3.71-1.56c1.64-.66,1.94-.47,4.22-1.36,1.81-.71,2.21-1.06,2.49-1.44s.58-1,.61-3a19.11,19.11,0,0,0-.32-3.78C255.31,106,256,104.81,254.88,104.15Z" style="fill: none;stroke: #fff;stroke-miterlimit: 10;stroke-width: 2px"/>
    <path d="M167.91,224.23c7.73-1.53,6.62-4,6.64-4.32,0-.86-1.65-1.7-2.83-2.07-2.26-.7-4.34.46-4.6-.08-.18-.37.82-1,2.24-3,.66-.94.51-.9,1-1.5,1.73-2.31,3.75-2.55,3.7-3.52,0-.73-1.25-1.26-1.84-1.44-1.55-.46-2.17.52-3.6.08a11.82,11.82,0,0,1-2.33-1.76c-1.88-1.58-1.84-1.68-2.17-1.76-1.31-.35-2.44,1-5.19,3.22a26.15,26.15,0,0,1-4.69,3.37c-3.17,1.53-4.24.38-7.67,2a30.21,30.21,0,0,0-4.37,2.87c-2.15,1.55-2.56,2-4.85,3.71-3.35,2.47-5,3.7-5.67,3.23s0-1.45.55-4.93c.87-5.16.31-5.73.05-5.91-.66-.45-1.37.37-3.6.56-1.8.16-2.38-.28-3.45-.25-2.42.05-3.28,2.41-6.77,5.87-.47.47-3,2.5-7.91,6.56-2.42,2-4.33,3.52-4,5,.13.55.28,1.05.9,1.25Z" style="fill: none;stroke: #fff;stroke-miterlimit: 10;stroke-width: 2px"/>
  </g>
  <g id="lines">
    <line x1="144.96" y1="163.96" x2="137.83" y2="180.82" style="fill: none;stroke: #fff;stroke-miterlimit: 10"/>
    <line x1="142.06" y1="164.39" x2="134.96" y2="181.18" style="fill: none;stroke: #fff;stroke-miterlimit: 10"/>
    <line x1="147.82" y1="163.04" x2="140.69" y2="179.9" style="fill: none;stroke: #fff;stroke-miterlimit: 10"/>
    <line x1="150" y1="163.34" x2="144.16" y2="177.15" style="fill: none;stroke: #fff;stroke-miterlimit: 10"/>
    <line x1="152.26" y1="163.16" x2="147.41" y2="174.64" style="fill: none;stroke: #fff;stroke-miterlimit: 10"/>
    <line x1="155.19" y1="161.49" x2="150.34" y2="172.97" style="fill: none;stroke: #fff;stroke-miterlimit: 10"/>
    <line x1="139.25" y1="164.51" x2="132.15" y2="181.3" style="fill: none;stroke: #fff;stroke-miterlimit: 10"/>
    <line x1="135.83" y1="166.21" x2="128.88" y2="182.66" style="fill: none;stroke: #fff;stroke-miterlimit: 10"/>
    <line x1="132.86" y1="167.26" x2="123.37" y2="189.7" style="fill: none;stroke: #fff;stroke-miterlimit: 10"/>
    <line x1="130.31" y1="167.1" x2="119.7" y2="192.19" style="fill: none;stroke: #fff;stroke-miterlimit: 10"/>
    <line x1="125.41" y1="171.82" x2="116.38" y2="193.16" style="fill: none;stroke: #fff;stroke-miterlimit: 10"/>
    <line x1="121.92" y1="172.9" x2="107.33" y2="206.85" style="fill: none;stroke: #fff;stroke-miterlimit: 10"/>
    <line x1="117.73" y1="189.97" x2="108.71" y2="211.31" style="fill: none;stroke: #fff;stroke-miterlimit: 10"/>
    <line x1="117.91" y1="196.41" x2="115.01" y2="203.28" style="fill: none;stroke: #fff;stroke-miterlimit: 10"/>
    <line x1="116.15" y1="179.09" x2="104.28" y2="207.15" style="fill: none;stroke: #fff;stroke-miterlimit: 10"/>
    <line x1="111.72" y1="182.72" x2="99.85" y2="210.9" style="fill: none;stroke: #fff;stroke-miterlimit: 10"/>
    <line x1="107.75" y1="185.5" x2="96.12" y2="213.02" style="fill: none;stroke: #fff;stroke-miterlimit: 10"/>
    <line x1="104.56" y1="186.84" x2="93.19" y2="213.73" style="fill: none;stroke: #fff;stroke-miterlimit: 10"/>
    <line x1="99.89" y1="191.25" x2="89.35" y2="216.18" style="fill: none;stroke: #fff;stroke-miterlimit: 10"/>
    <line x1="94.43" y1="197.87" x2="85.6" y2="218.76" style="fill: none;stroke: #fff;stroke-miterlimit: 10"/>
    <line x1="91.01" y1="199.63" x2="81.29" y2="222.62" style="fill: none;stroke: #fff;stroke-miterlimit: 10"/>
    <line x1="86.76" y1="204.03" x2="75.81" y2="229.93" style="fill: none;stroke: #fff;stroke-miterlimit: 10"/>
    <line x1="81.58" y1="210.08" x2="73.46" y2="229.27" style="fill: none;stroke: #fff;stroke-miterlimit: 10"/>
    <line x1="120.85" y1="197.1" x2="117.39" y2="205.27" style="fill: none;stroke: #fff;stroke-miterlimit: 10"/>
    <line x1="122.9" y1="199.39" x2="120.25" y2="205.66" style="fill: none;stroke: #fff;stroke-miterlimit: 10"/>
    <line x1="125.53" y1="200.2" x2="122.88" y2="206.47" style="fill: none;stroke: #fff;stroke-miterlimit: 10"/>
    <line x1="76.07" y1="216.65" x2="72.06" y2="226.13" style="fill: none;stroke: #fff;stroke-miterlimit: 10"/>
    <line x1="241.51" y1="71.94" x2="214.92" y2="111.08" style="fill: none;stroke: #fff;stroke-miterlimit: 10"/>
    <line x1="238.21" y1="72.34" x2="209.88" y2="114.04" style="fill: none;stroke: #fff;stroke-miterlimit: 10"/>
    <line x1="243.91" y1="72.45" x2="218.08" y2="110.46" style="fill: none;stroke: #fff;stroke-miterlimit: 10"/>
    <line x1="244.7" y1="75.07" x2="221.58" y2="109.1" style="fill: none;stroke: #fff;stroke-miterlimit: 10"/>
    <line x1="239.06" y1="86.94" x2="224.55" y2="108.3" style="fill: none;stroke: #fff;stroke-miterlimit: 10"/>
    <line x1="242.58" y1="85.42" x2="228.88" y2="105.87" style="fill: none;stroke: #fff;stroke-miterlimit: 10"/>
    <line x1="234.92" y1="72.66" x2="205.68" y2="115.7" style="fill: none;stroke: #fff;stroke-miterlimit: 10"/>
    <line x1="231.71" y1="72.95" x2="202.18" y2="116.41" style="fill: none;stroke: #fff;stroke-miterlimit: 10"/>
    <line x1="229.11" y1="72.64" x2="203.07" y2="110.97" style="fill: none;stroke: #fff;stroke-miterlimit: 10"/>
    <line x1="226.07" y1="72.82" x2="200.98" y2="109.76" style="fill: none;stroke: #fff;stroke-miterlimit: 10"/>
    <line x1="222.15" y1="73.83" x2="194.3" y2="114.82" style="fill: none;stroke: #fff;stroke-miterlimit: 10"/>
    <line x1="216.52" y1="77.3" x2="188.36" y2="118.23" style="fill: none;stroke: #fff;stroke-miterlimit: 10"/>
    <line x1="210.23" y1="81.24" x2="184.22" y2="119.52" style="fill: none;stroke: #fff;stroke-miterlimit: 10"/>
    <line x1="204.27" y1="85.27" x2="179.98" y2="121.02" style="fill: none;stroke: #fff;stroke-miterlimit: 10"/>
    <line x1="198.37" y1="89.37" x2="174.22" y2="124.92" style="fill: none;stroke: #fff;stroke-miterlimit: 10"/>
    <line x1="192.19" y1="94.18" x2="168.36" y2="129.25" style="fill: none;stroke: #fff;stroke-miterlimit: 10"/>
    <line x1="185.98" y1="98.72" x2="162.07" y2="133.91" style="fill: none;stroke: #fff;stroke-miterlimit: 10"/>
    <line x1="179.12" y1="104.44" x2="159.51" y2="133.31" style="fill: none;stroke: #fff;stroke-miterlimit: 10"/>
    <line x1="172.85" y1="109.29" x2="156.95" y2="132.71" style="fill: none;stroke: #fff;stroke-miterlimit: 10"/>
    <line x1="167.27" y1="113.6" x2="153.24" y2="134.25" style="fill: none;stroke: #fff;stroke-miterlimit: 10"/>
    <line x1="160.47" y1="119.3" x2="148.64" y2="136.72" style="fill: none;stroke: #fff;stroke-miterlimit: 10"/>
    <line x1="151.17" y1="128.51" x2="145.39" y2="137.02" style="fill: none;stroke: #fff;stroke-miterlimit: 10"/>
    <line x1="237.42" y1="97.44" x2="232.18" y2="105.26" style="fill: none;stroke: #fff;stroke-miterlimit: 10"/>
    <line x1="240.5" y1="97.23" x2="235.26" y2="105.05" style="fill: none;stroke: #fff;stroke-miterlimit: 10"/>
    <line x1="181.6" y1="134.55" x2="191.53" y2="137.46" style="fill: none;stroke: #fff;stroke-miterlimit: 10"/>
    <line x1="185.7" y1="133.14" x2="194.2" y2="135.63" style="fill: none;stroke: #fff;stroke-miterlimit: 10"/>
    <line x1="178.36" y1="135.97" x2="184.52" y2="137.77" style="fill: none;stroke: #fff;stroke-miterlimit: 10"/>
    <line x1="175.72" y1="137.41" x2="181.57" y2="139.13" style="fill: none;stroke: #fff;stroke-miterlimit: 10"/>
    <line x1="188.51" y1="131.31" x2="197.22" y2="133.87" style="fill: none;stroke: #fff;stroke-miterlimit: 10"/>
    <line x1="192" y1="129.74" x2="200.8" y2="132.32" style="fill: none;stroke: #fff;stroke-miterlimit: 10"/>
    <line x1="194.34" y1="128.01" x2="203.39" y2="130.65" style="fill: none;stroke: #fff;stroke-miterlimit: 10"/>
    <line x1="197.58" y1="126.44" x2="206.75" y2="129.12" style="fill: none;stroke: #fff;stroke-miterlimit: 10"/>
    <line x1="202.81" y1="125.18" x2="211.87" y2="127.83" style="fill: none;stroke: #fff;stroke-miterlimit: 10"/>
    <line x1="204.68" y1="122.78" x2="220.06" y2="127.18" style="fill: none;stroke: #fff;stroke-miterlimit: 10"/>
    <line x1="208.9" y1="121.03" x2="226.85" y2="126.4" style="fill: none;stroke: #fff;stroke-miterlimit: 10"/>
    <line x1="213.68" y1="119.66" x2="229.39" y2="124.25" style="fill: none;stroke: #fff;stroke-miterlimit: 10"/>
    <line x1="215.38" y1="117.47" x2="232.51" y2="122.48" style="fill: none;stroke: #fff;stroke-miterlimit: 10"/>
    <line x1="221.41" y1="116.71" x2="235.82" y2="120.93" style="fill: none;stroke: #fff;stroke-miterlimit: 10"/>
    <line x1="226.98" y1="115.65" x2="248.46" y2="121.8" style="fill: none;stroke: #fff;stroke-miterlimit: 10"/>
    <line x1="229.12" y1="113.72" x2="251.78" y2="120.35" style="fill: none;stroke: #fff;stroke-miterlimit: 10"/>
    <line x1="234.24" y1="112.55" x2="255.78" y2="118.93" style="fill: none;stroke: #fff;stroke-miterlimit: 10"/>
    <line x1="235.67" y1="110.78" x2="256.73" y2="116.94" style="fill: none;stroke: #fff;stroke-miterlimit: 10"/>
    <line x1="242.29" y1="110.2" x2="256.03" y2="114.22" style="fill: none;stroke: #fff;stroke-miterlimit: 10"/>
    <line x1="243.96" y1="107.87" x2="256.56" y2="111.56" style="fill: none;stroke: #fff;stroke-miterlimit: 10"/>
    <line x1="246.62" y1="105.93" x2="256.4" y2="108.79" style="fill: none;stroke: #fff;stroke-miterlimit: 10"/>
    <line x1="111.13" y1="224.62" x2="120.86" y2="229.37" style="fill: none;stroke: #fff;stroke-miterlimit: 10"/>
    <line x1="113.19" y1="222.54" x2="126.49" y2="229.24" style="fill: none;stroke: #fff;stroke-miterlimit: 10"/>
    <line x1="115.59" y1="220.72" x2="130.89" y2="228.3" style="fill: none;stroke: #fff;stroke-miterlimit: 10"/>
    <line x1="117.7" y1="218.89" x2="135.41" y2="227.67" style="fill: none;stroke: #fff;stroke-miterlimit: 10"/>
    <line x1="118.94" y1="216.81" x2="139.84" y2="227.16" style="fill: none;stroke: #fff;stroke-miterlimit: 10"/>
    <line x1="134.84" y1="221.8" x2="144.42" y2="226.55" style="fill: none;stroke: #fff;stroke-miterlimit: 10"/>
    <line x1="122.23" y1="215.55" x2="131.67" y2="220.24" style="fill: none;stroke: #fff;stroke-miterlimit: 10"/>
    <line x1="136.6" y1="219.94" x2="149.93" y2="226.55" style="fill: none;stroke: #fff;stroke-miterlimit: 10"/>
    <line x1="139.08" y1="218.33" x2="153.94" y2="225.76" style="fill: none;stroke: #fff;stroke-miterlimit: 10"/>
    <line x1="141.86" y1="217.34" x2="157.05" y2="224.87" style="fill: none;stroke: #fff;stroke-miterlimit: 10"/>
    <line x1="143.16" y1="215.29" x2="161.47" y2="224.36" style="fill: none;stroke: #fff;stroke-miterlimit: 10"/>
    <line x1="145.55" y1="213.81" x2="166.76" y2="223.99" style="fill: none;stroke: #fff;stroke-miterlimit: 10"/>
    <line x1="149.42" y1="212.85" x2="170.55" y2="223.32" style="fill: none;stroke: #fff;stroke-miterlimit: 10"/>
    <line x1="153.73" y1="212.25" x2="172.84" y2="221.72" style="fill: none;stroke: #fff;stroke-miterlimit: 10"/>
    <line x1="156.49" y1="210.74" x2="170.23" y2="217.61" style="fill: none;stroke: #fff;stroke-miterlimit: 10"/>
    <line x1="158.46" y1="209.39" x2="169.36" y2="214.77" style="fill: none;stroke: #fff;stroke-miterlimit: 10"/>
    <line x1="159.83" y1="207.37" x2="171.49" y2="213.15" style="fill: none;stroke: #fff;stroke-miterlimit: 10"/>
    <line x1="108.93" y1="226.57" x2="115.76" y2="229.9" style="fill: none;stroke: #fff;stroke-miterlimit: 10"/>
    <line x1="124.2" y1="213.4" x2="131.6" y2="217.01" style="fill: none;stroke: #fff;stroke-miterlimit: 10"/>
    <line x1="106.78" y1="228.17" x2="112.43" y2="230.93" style="fill: none;stroke: #fff;stroke-miterlimit: 10"/>
    <line x1="128.05" y1="212.83" x2="132.63" y2="215.07" style="fill: none;stroke: #fff;stroke-miterlimit: 10"/>
    <line x1="161.31" y1="205.78" x2="172.98" y2="211.56" style="fill: none;stroke: #fff;stroke-miterlimit: 10"/>
    <line x1="173.01" y1="138.85" x2="178.86" y2="140.56" style="fill: none;stroke: #fff;stroke-miterlimit: 10"/>
    <line x1="170.28" y1="140.36" x2="174.84" y2="141.7" style="fill: none;stroke: #fff;stroke-miterlimit: 10"/>
    <line x1="167.64" y1="141.89" x2="172.2" y2="143.22" style="fill: none;stroke: #fff;stroke-miterlimit: 10"/>
    <line x1="164.64" y1="143.42" x2="169.2" y2="144.75" style="fill: none;stroke: #fff;stroke-miterlimit: 10"/>
    <line x1="161.96" y1="144.94" x2="166.52" y2="146.28" style="fill: none;stroke: #fff;stroke-miterlimit: 10"/>
    <line x1="159.05" y1="146.29" x2="163.61" y2="147.62" style="fill: none;stroke: #fff;stroke-miterlimit: 10"/>
    <line x1="156.27" y1="147.63" x2="160.83" y2="148.96" style="fill: none;stroke: #fff;stroke-miterlimit: 10"/>
  </g>
</svg>
