<svg id="SolarSystem" xmlns="http://www.w3.org/2000/svg" viewBox="0 0 300 300">
  <g id="solar-system">
    <g id="outlines">
      <circle cx="149.26" cy="149" r="38.11" style="fill: none;stroke: #fff;stroke-miterlimit: 10;stroke-width: 2px"/>
      <circle cx="249.02" cy="164.32" r="22.81" style="fill: none;stroke: #fff;stroke-miterlimit: 10;stroke-width: 2px"/>
      <circle cx="205.13" cy="123.43" r="9.87" style="fill: none;stroke: #fff;stroke-miterlimit: 10;stroke-width: 2px"/>
      <circle cx="124.09" cy="75.43" r="11.74" style="fill: none;stroke: #fff;stroke-miterlimit: 10;stroke-width: 2px"/>
      <circle cx="171.06" cy="233.72" r="10.55" style="fill: none;stroke: #fff;stroke-miterlimit: 10;stroke-width: 2px"/>
      <circle cx="97.53" cy="271.51" r="18.38" style="fill: none;stroke: #fff;stroke-miterlimit: 10;stroke-width: 2px"/>
      <circle cx="61.79" cy="194.94" r="10.21" style="fill: none;stroke: #fff;stroke-miterlimit: 10;stroke-width: 2px"/>
      <circle cx="41.7" cy="89.72" r="17.7" style="fill: none;stroke: #fff;stroke-miterlimit: 10;stroke-width: 2px"/>
      <path d="M224.21,50.55A15.64,15.64,0,1,1,196,63.47" style="fill: none;stroke: #fff;stroke-miterlimit: 10;stroke-width: 2px"/>
      <path d="M195.32,60.15a19.63,19.63,0,0,1,1-7.16A15.64,15.64,0,0,1,222,47.76" style="fill: none;stroke: #fff;stroke-miterlimit: 10;stroke-width: 2px"/>
      <path d="M210.39,132.14a63,63,0,1,1-8.85-18.3" style="fill: none;stroke: #fff;stroke-miterlimit: 10;stroke-width: 2px"/>
      <path d="M135.39,75.79A76.43,76.43,0,0,1,150,74.38a75.59,75.59,0,1,1-34.95,8.55" style="fill: none;stroke: #fff;stroke-linecap: round;stroke-miterlimit: 10;stroke-width: 2px;stroke-dasharray: 4,6"/>
      <path d="M191.34,72.3a88,88,0,0,1,46.48,72.06" style="fill: none;stroke: #fff;stroke-miterlimit: 10;stroke-width: 2px"/>
      <path d="M128.66,64.61a88.39,88.39,0,0,1,54.81,4" style="fill: none;stroke: #fff;stroke-miterlimit: 10;stroke-width: 2px"/>
      <path d="M161.44,237.26A88,88,0,0,1,113.79,69.77" style="fill: none;stroke: #fff;stroke-miterlimit: 10;stroke-width: 2px"/>
      <path d="M232.67,180.22a88.23,88.23,0,0,1-51.17,52" style="fill: none;stroke: #fff;stroke-miterlimit: 10;stroke-width: 2px"/>
      <path d="M216.72,73.13a101.57,101.57,0,0,1,34.72,68.38" style="fill: none;stroke: #fff;stroke-linecap: round;stroke-miterlimit: 10;stroke-width: 2px;stroke-dasharray: 4,6"/>
      <path d="M55.2,187.13a101.83,101.83,0,0,1,140-128.34" style="fill: none;stroke: #fff;stroke-linecap: round;stroke-miterlimit: 10;stroke-width: 2px;stroke-dasharray: 4,6"/>
      <path d="M245,186.76A101.82,101.82,0,0,1,64.12,204.65" style="fill: none;stroke: #fff;stroke-linecap: round;stroke-miterlimit: 10;stroke-width: 2px;stroke-dasharray: 4,6"/>
      <path d="M224.62,66.25a111.88,111.88,0,0,1,37.47,79.37" style="fill: none;stroke: #fff;stroke-miterlimit: 10;stroke-width: 2px"/>
      <path d="M58.71,84.81a112.27,112.27,0,0,1,140-35.88" style="fill: none;stroke: #fff;stroke-miterlimit: 10;stroke-width: 2px"/>
      <path d="M256.29,185.94A112.2,112.2,0,1,1,46.46,106.78" style="fill: none;stroke: #fff;stroke-miterlimit: 10;stroke-width: 2px"/>
      <g>
        <path d="M51.55,75l1.23-1.58" style="fill: none;stroke: #fff;stroke-linecap: round;stroke-miterlimit: 10;stroke-width: 2px"/>
        <path d="M56.59,68.84A123.83,123.83,0,0,1,208,40.68" style="fill: none;stroke: #fff;stroke-linecap: round;stroke-miterlimit: 10;stroke-width: 2px;stroke-dasharray: 3.9816908836364746,5.972536087036133"/>
        <path d="M210.65,42.11c.58.33,1.16.66,1.73,1" style="fill: none;stroke: #fff;stroke-linecap: round;stroke-miterlimit: 10;stroke-width: 2px"/>
      </g>
      <g>
        <path d="M86.93,256.49l-1.71-1" style="fill: none;stroke: #fff;stroke-linecap: round;stroke-miterlimit: 10;stroke-width: 2px"/>
        <path d="M80.09,252.12A123.94,123.94,0,0,1,32.66,110.6" style="fill: none;stroke: #fff;stroke-linecap: round;stroke-miterlimit: 10;stroke-width: 2px;stroke-dasharray: 4.080878257751465,6.121317386627197"/>
        <path d="M33.67,107.71c.23-.63.46-1.25.7-1.87" style="fill: none;stroke: #fff;stroke-linecap: round;stroke-miterlimit: 10;stroke-width: 2px"/>
      </g>
      <g>
        <path d="M224.65,51.3l1.58,1.22" style="fill: none;stroke: #fff;stroke-linecap: round;stroke-miterlimit: 10;stroke-width: 2px"/>
        <path d="M230.91,56.37A123.79,123.79,0,0,1,120.6,270.23" style="fill: none;stroke: #fff;stroke-linecap: round;stroke-miterlimit: 10;stroke-width: 2px;stroke-dasharray: 4.039767742156982,6.059651851654053"/>
        <path d="M117.66,269.48l-1.93-.54" style="fill: none;stroke: #fff;stroke-linecap: round;stroke-miterlimit: 10;stroke-width: 2px"/>
      </g>
      <path d="M80.21,265.36A134.94,134.94,0,0,1,25.8,97.5" style="fill: none;stroke: #fff;stroke-miterlimit: 10;stroke-width: 2px"/>
      <path d="M238.7,48.48A134.86,134.86,0,0,1,113.88,279.92" style="fill: none;stroke: #fff;stroke-miterlimit: 10;stroke-width: 2px"/>
      <path d="M40,72.11A134.83,134.83,0,0,1,233.87,44.45" style="fill: none;stroke: #fff;stroke-miterlimit: 10;stroke-width: 2px"/>
      <path d="M226.53,57.28c9-5.27,14.62-10.06,13.66-12.14s-8.29-.88-18.17,2.62c-4.18,1.48-8.81,3.37-13.62,5.61S199.08,58,195.23,60.2c-9,5.26-14.6,10-13.64,12.13s8.28.89,18.15-2.61m-1.34-1.57c-4.79,1.53-8.07,2-8.52,1s2-3.1,6.1-5.72a121.34,121.34,0,0,1,13.22-7.06,114.58,114.58,0,0,1,15-5.86c4.08-1.21,6.82-1.51,7.22-.64s-1.74,2.9-5.55,5.36" style="fill: none;stroke: #fff;stroke-miterlimit: 10;stroke-width: 2px"/>
    </g>
    <g id="paths">
      <path d="M118.93,127.94a13.76,13.76,0,0,0,2.45.91c.8.22,1.64.32,2.59.63a3.91,3.91,0,0,1-2.85.33A3.09,3.09,0,0,1,118.93,127.94Z" style="fill: #fff"/>
      <path d="M113.88,138.94c1.35.2,2.57.53,3.82.82a28,28,0,0,1,3.75,1.13,9.26,9.26,0,0,1-4-.16A8.47,8.47,0,0,1,113.88,138.94Z" style="fill: #fff"/>
      <path d="M113.88,136a64.57,64.57,0,0,0,7.1,2c2.4.5,4.81.9,7.25,1.18s4.87.48,7.32.65c1.23.09,2.46.14,3.69.18l3.7.17c-1.23.15-2.46.24-3.7.32s-2.47.09-3.71.1a61.3,61.3,0,0,1-7.42-.43,47.7,47.7,0,0,1-7.31-1.43A34.06,34.06,0,0,1,113.88,136Z" style="fill: #fff"/>
      <path d="M137.38,137.51c4-.38,7.93-.62,11.85-1.1a82,82,0,0,0,11.65-2.15,36.12,36.12,0,0,1-11.54,3.15A55.6,55.6,0,0,1,137.38,137.51Z" style="fill: #fff"/>
      <path d="M145,130.93c1.57-.08,3,0,4.52-.06a33.22,33.22,0,0,0,4.45-.45,7.52,7.52,0,0,1-4.42,1.45A9.89,9.89,0,0,1,145,130.93Z" style="fill: #fff"/>
      <path d="M149.13,128c4.06-.87,8.09-1.67,12-2.81a69.11,69.11,0,0,0,11.51-4.37,34.51,34.51,0,0,1-11.24,5.33A49.35,49.35,0,0,1,149.13,128Z" style="fill: #fff"/>
      <path d="M120.3,126.06a36.08,36.08,0,0,0,4.91,1.1c1.64.3,3.31.51,5,1a14.26,14.26,0,0,1-5.17,0,12.45,12.45,0,0,1-2.52-.71A6.91,6.91,0,0,1,120.3,126.06Z" style="fill: #fff"/>
      <path d="M122.18,123.5a21.39,21.39,0,0,0,2.18.91,23.08,23.08,0,0,1,2.26.88,3.44,3.44,0,0,1-2.6.06A2.81,2.81,0,0,1,122.18,123.5Z" style="fill: #fff"/>
      <path d="M124.4,121.71a1.62,1.62,0,0,0,.57.14,1.74,1.74,0,0,1,.48.14,1.81,1.81,0,0,1,.91.83,1.42,1.42,0,0,1-1.85-.34A.68.68,0,0,1,124.4,121.71Z" style="fill: #fff"/>
      <path d="M119.36,146.94c3.16.52,6.32.95,9.5,1.21s6.35.39,9.53.34,6.35-.22,9.52-.51c1.59-.15,3.17-.34,4.75-.56l2.38-.33,2.37-.36c-1.54.45-3.1.82-4.66,1.17s-3.15.6-4.74.84a70.31,70.31,0,0,1-9.61.75,67.16,67.16,0,0,1-9.62-.58A60.16,60.16,0,0,1,119.36,146.94Z" style="fill: #fff"/>
      <path d="M127.26,142.42c2.64-.09,5.24,0,7.84,0s5.2,0,7.84.14a31.92,31.92,0,0,1-7.85.86A31.39,31.39,0,0,1,127.26,142.42Z" style="fill: #fff"/>
      <path d="M163.77,136c2.86-1.06,5.72-2,8.51-3.05a72.69,72.69,0,0,0,8.21-3.73,24.32,24.32,0,0,1-7.85,4.66A34.78,34.78,0,0,1,163.77,136Z" style="fill: #fff"/>
      <path d="M172.13,135.45c1.68-.7,3.33-1.26,4.93-2s3.18-1.44,4.86-2.14a12.9,12.9,0,0,1-4.47,3.07A12.62,12.62,0,0,1,172.13,135.45Z" style="fill: #fff"/>
      <path d="M133.21,145.19c4.33-.18,8.64-.41,12.93-.86a114.08,114.08,0,0,0,12.77-2,86.07,86.07,0,0,0,12.41-3.53c1-.36,2-.78,3-1.17s2-.88,2.95-1.31,1.94-1,2.92-1.42l2.85-1.54c-.9.6-1.8,1.2-2.72,1.77s-1.88,1.1-2.83,1.63-1.93,1-2.92,1.45-2,.9-3,1.31a77.39,77.39,0,0,1-12.48,3.78,98.65,98.65,0,0,1-12.91,1.76A108.45,108.45,0,0,1,133.21,145.19Z" style="fill: #fff"/>
      <path d="M131.24,116a67.31,67.31,0,0,0,7.88.35c2.63,0,5.26-.12,7.94,0a31.72,31.72,0,0,1-7.93,1A20.22,20.22,0,0,1,131.24,116Z" style="fill: #fff"/>
      <path d="M126.55,119a31.29,31.29,0,0,0,4.48.68c1.51.12,3,.19,4.52.22,3,.09,6,0,9.12.18a40.61,40.61,0,0,1-9.14.82,30.89,30.89,0,0,1-4.6-.45A14.57,14.57,0,0,1,126.55,119Z" style="fill: #fff"/>
      <path d="M148.79,118.15c2.49-.77,5-1.32,7.45-2,1.24-.32,2.46-.67,3.66-1.06a17.7,17.7,0,0,0,3.5-1.51,9.46,9.46,0,0,1-3.21,2.23,22.48,22.48,0,0,1-3.69,1.3A30.9,30.9,0,0,1,148.79,118.15Z" style="fill: #fff"/>
      <path d="M152.66,114.35a23.87,23.87,0,0,1,3.58-1,28,28,0,0,0,3.52-1,3.94,3.94,0,0,1-1.48,1.27,7,7,0,0,1-1.82.67A8.7,8.7,0,0,1,152.66,114.35Z" style="fill: #fff"/>
      <path d="M153.42,119.52c2.34-.7,4.66-1.26,7-1.94s4.54-1.43,6.86-2.19a20.61,20.61,0,0,1-6.58,3.15A23.59,23.59,0,0,1,153.42,119.52Z" style="fill: #fff"/>
      <path d="M112.8,146.73a45,45,0,0,0,6.35,3.12,44.36,44.36,0,0,0,6.81,1.88,15.19,15.19,0,0,1-7.17-.95A15.5,15.5,0,0,1,112.8,146.73Z" style="fill: #fff"/>
      <path d="M142.94,152a53.27,53.27,0,0,0,5.55-.2c1.82-.16,3.6-.52,5.49-.83a12.15,12.15,0,0,1-5.4,1.83A11.54,11.54,0,0,1,142.94,152Z" style="fill: #fff"/>
      <path d="M114.29,151a94.48,94.48,0,0,0,10.42,3.29A75.7,75.7,0,0,0,135.49,156a31.44,31.44,0,0,1-11-.78A34.63,34.63,0,0,1,114.29,151Z" style="fill: #fff"/>
      <path d="M119.36,155.65A99,99,0,0,0,131,158.2c3.92.62,7.89.91,11.9,1.18a43.44,43.44,0,0,1-12.05-.19A39.35,39.35,0,0,1,119.36,155.65Z" style="fill: #fff"/>
      <path d="M113.88,156.58a50.09,50.09,0,0,0,5.86,2.4,48.87,48.87,0,0,0,6.08,1.57c2.05.41,4.14.67,6.23.88,1,.11,2.1.17,3.16.22s2.11.1,3.18.16c-1.06.16-2.12.25-3.18.33s-2.13.07-3.2.05a37,37,0,0,1-6.38-.66,32.3,32.3,0,0,1-6.16-1.83A25.72,25.72,0,0,1,113.88,156.58Z" style="fill: #fff"/>
      <path d="M142.21,163.4c1.72,0,3.35,0,5,0s3.27-.12,5-.08a12.27,12.27,0,0,1-5,1.08A11.51,11.51,0,0,1,142.21,163.4Z" style="fill: #fff"/>
      <path d="M143.33,157c2.67-.39,5.31-.76,7.94-1.24s5.24-1,7.81-1.71,5.12-1.46,7.62-2.37c1.26-.45,2.49-1,3.71-1.5s2.43-1.11,3.65-1.68c-1.1.77-2.26,1.46-3.43,2.12s-2.41,1.23-3.64,1.77a50.55,50.55,0,0,1-7.66,2.63,61.37,61.37,0,0,1-7.94,1.5A64,64,0,0,1,143.33,157Z" style="fill: #fff"/>
      <path d="M160.88,156.3c2.12-.93,4.25-1.81,6.36-2.74s4.2-1.88,6.25-2.91,4.09-2.09,6.09-3.22c1-.56,2-1.16,2.95-1.77s1.94-1.25,2.92-1.87c-.83.8-1.73,1.54-2.63,2.27s-1.87,1.38-2.84,2a55.6,55.6,0,0,1-6,3.46,64.49,64.49,0,0,1-6.41,2.72A62,62,0,0,1,160.88,156.3Z" style="fill: #fff"/>
      <path d="M151.93,159.2c2.87-.62,5.71-1.11,8.53-1.73s5.61-1.31,8.46-2a29.88,29.88,0,0,1-8.25,3A33.79,33.79,0,0,1,151.93,159.2Z" style="fill: #fff"/>
      <path d="M173.17,153.5c2.07-1.27,4.21-2.32,6.32-3.42s4.2-2.2,6.34-3.35a21.57,21.57,0,0,1-5.89,4.23A29.08,29.08,0,0,1,173.17,153.5Z" style="fill: #fff"/>
      <path d="M160.9,160.88c2.18-.72,4.36-1.41,6.5-2.18s4.28-1.57,6.36-2.47,4.15-1.86,6.18-2.89c1-.52,2-1.06,3-1.63l1.5-.84c.48-.3,1-.59,1.48-.87-.87.76-1.79,1.44-2.71,2.13s-1.92,1.28-2.9,1.88a50.24,50.24,0,0,1-6.16,3.14,53.4,53.4,0,0,1-6.51,2.28A51.85,51.85,0,0,1,160.9,160.88Z" style="fill: #fff"/>
      <path d="M135.49,169.27c4.06.45,8.11.77,12.18.82a92.93,92.93,0,0,0,12.14-.57,90,90,0,0,0,12-2.1c2-.47,3.93-1,5.88-1.61l2.91-.92,2.89-1c-.93.43-1.86.84-2.8,1.25l-2.84,1.13c-1.93.7-3.87,1.33-5.84,1.9a79.78,79.78,0,0,1-12.06,2.34,81.25,81.25,0,0,1-12.28.35A77.41,77.41,0,0,1,135.49,169.27Z" style="fill: #fff"/>
      <path d="M116.73,165.53a39.53,39.53,0,0,0,5.15,1.74,29.31,29.31,0,0,0,5.38.72,9.66,9.66,0,0,1-5.61.25A10.48,10.48,0,0,1,116.73,165.53Z" style="fill: #fff"/>
      <path d="M119.38,170c3.21.91,6.42,1.77,9.66,2.47s6.51,1.3,9.79,1.74,6.58.75,9.9,1c1.65.1,3.31.16,5,.18l2.5,0h2.5c-1.66.21-3.32.34-5,.45s-3.34.11-5,.1a79.66,79.66,0,0,1-10-.73,82,82,0,0,1-9.84-2A73.46,73.46,0,0,1,119.38,170Z" style="fill: #fff"/>
      <path d="M123.46,174.36c2.56.64,5.1,1.23,7.67,1.7s5.15.86,7.74,1.13,5.19.46,7.8.58c1.31.06,2.62.09,3.92.11s2.62,0,3.94,0c-1.3.2-2.61.32-3.92.45s-2.63.14-4,.17a61.44,61.44,0,0,1-7.9-.36,57.21,57.21,0,0,1-7.79-1.37A49.53,49.53,0,0,1,123.46,174.36Z" style="fill: #fff"/>
      <path d="M150.87,183.47c3.31-.54,6.58-1,9.84-1.56s6.51-1.18,9.82-1.69a46.23,46.23,0,0,1-9.65,2.68A42.54,42.54,0,0,1,150.87,183.47Z" style="fill: #fff"/>
      <path d="M166.07,177.28a29,29,0,0,1,5.38-1.59,28.53,28.53,0,0,1,5.57-.6,26.86,26.86,0,0,1-5.37,1.58A28.13,28.13,0,0,1,166.07,177.28Z" style="fill: #fff"/>
      <path d="M126.74,179c2.11.34,4.1.87,6.13,1.23A53.88,53.88,0,0,0,139,181a13.37,13.37,0,0,1-6.35.21A18.27,18.27,0,0,1,126.74,179Z" style="fill: #fff"/>
      <path d="M168.51,165.53a52.89,52.89,0,0,0,8-2.63c2.57-1.07,5-2.39,7.54-3.7a24.19,24.19,0,0,1-7.15,4.62A20.16,20.16,0,0,1,168.51,165.53Z" style="fill: #fff"/>
      <path d="M130.21,170c3.18.73,6.38,1.38,9.59,1.84a94.54,94.54,0,0,0,19.41.76l2.43-.18,2.43-.26,2.43-.28,2.42-.34c-1.57.44-3.17.78-4.78,1.11l-2.42.39-2.44.32a65.86,65.86,0,0,1-9.83.36,64.25,64.25,0,0,1-9.78-1.13A60.43,60.43,0,0,1,130.21,170Z" style="fill: #fff"/>
      <path d="M228.79,156.6a55.23,55.23,0,0,0,8.26,1.6c2.78.34,5.58.49,8.42.78a29.79,29.79,0,0,1-8.54.21A20.47,20.47,0,0,1,228.79,156.6Z" style="fill: #fff"/>
      <path d="M242.28,157.48c2.28-.38,4.54-.56,6.77-.84s4.45-.59,6.72-1a17.25,17.25,0,0,1-6.6,2A24.11,24.11,0,0,1,242.28,157.48Z" style="fill: #fff"/>
      <path d="M246.65,153.71a15,15,0,0,1,2.56-.32,14.07,14.07,0,0,1,2.59,0,4.46,4.46,0,0,1-5.15.3Z" style="fill: #fff"/>
      <path d="M249,152c2.31-.66,4.6-1.16,6.84-1.82a62.65,62.65,0,0,0,6.67-2.3,16.94,16.94,0,0,1-6.39,3.26A22.29,22.29,0,0,1,249,152Z" style="fill: #fff"/>
      <path d="M232.47,150.91c1,.14,1.92.27,2.86.42a12.29,12.29,0,0,1,2.83.76,5.8,5.8,0,0,1-3,.23A4.31,4.31,0,0,1,232.47,150.91Z" style="fill: #fff"/>
      <path d="M231.69,152c.64.12,1,.21,1.46.31a5.49,5.49,0,0,1,1.43.57,1.79,1.79,0,0,1-1.69.4A1.52,1.52,0,0,1,231.69,152Z" style="fill: #fff"/>
      <path d="M233.55,149.44a7.54,7.54,0,0,1,1.33.33,3.64,3.64,0,0,1,1.22.7,1.59,1.59,0,0,1-1.56.24A1.42,1.42,0,0,1,233.55,149.44Z" style="fill: #fff"/>
      <path d="M234.83,148.41a.86.86,0,0,1,.79-.08c.16.11.29.27.34.72a.74.74,0,0,1-.84.15A.73.73,0,0,1,234.83,148.41Z" style="fill: #fff"/>
      <path d="M231.94,162.89a80.27,80.27,0,0,0,10.92.69,106.33,106.33,0,0,0,10.92-.8,35.72,35.72,0,0,1-10.91,1.79A32.36,32.36,0,0,1,231.94,162.89Z" style="fill: #fff"/>
      <path d="M236.47,160.3a39.07,39.07,0,0,1,9,.06,14.05,14.05,0,0,1-9-.06Z" style="fill: #fff"/>
      <path d="M228.79,158.3c.83.22,1.45.38,2.15.51a11.3,11.3,0,0,1,2.2.61,3.37,3.37,0,0,1-2.4.37A2.58,2.58,0,0,1,228.79,158.3Z" style="fill: #fff"/>
      <path d="M257.43,156.6c1.6-.77,3.22-1.33,4.81-1.95s3.14-1.26,4.78-1.94a11.35,11.35,0,0,1-4.42,2.87A15,15,0,0,1,257.43,156.6Z" style="fill: #fff"/>
      <path d="M262.23,156.3A21.47,21.47,0,0,1,265,155a20.11,20.11,0,0,1,2.87-1,5.55,5.55,0,0,1-2.49,2A5.49,5.49,0,0,1,262.23,156.3Z" style="fill: #fff"/>
      <path d="M239.88,161.89c2.49-.19,5-.36,7.42-.65s4.89-.66,7.3-1.18a56.13,56.13,0,0,0,7.1-2c1.17-.4,2.31-.86,3.44-1.36l1.69-.77,1.67-.84a34.53,34.53,0,0,1-3.14,2c-1.1.59-2.23,1.14-3.38,1.64A39.28,39.28,0,0,1,254.8,161a47.78,47.78,0,0,1-7.44,1A51.89,51.89,0,0,1,239.88,161.89Z" style="fill: #fff"/>
      <path d="M238.75,145.14l4.53,0a33.56,33.56,0,0,1,4.56.2,13,13,0,0,1-4.56.8A9.41,9.41,0,0,1,238.75,145.14Z" style="fill: #fff"/>
      <path d="M236.06,146.85c.89.11,1.74.18,2.6.22s1.71.07,2.58.08a49.19,49.19,0,0,1,5.23.31,16.48,16.48,0,0,1-5.26.69,14.09,14.09,0,0,1-2.66-.31A7.26,7.26,0,0,1,236.06,146.85Z" style="fill: #fff"/>
      <path d="M248.83,146.37a29.85,29.85,0,0,1,4.22-1.34c.71-.17,1.4-.36,2.1-.55a17.58,17.58,0,0,0,2.07-.72,4.74,4.74,0,0,1-1.79,1.44,10.48,10.48,0,0,1-2.12.8A12.73,12.73,0,0,1,248.83,146.37Z" style="fill: #fff"/>
      <path d="M251.05,144.19a6.21,6.21,0,0,1,2-.8c.67-.15,1.27-.23,2.07-.34a2,2,0,0,1-.79.88,3.5,3.5,0,0,1-1.06.44A3.59,3.59,0,0,1,251.05,144.19Z" style="fill: #fff"/>
      <path d="M251.49,147.16a34.9,34.9,0,0,1,3.93-1.32c1.31-.37,2.58-.77,4-1.05a9.21,9.21,0,0,1-3.71,2A10.16,10.16,0,0,1,251.49,147.16Z" style="fill: #fff"/>
      <path d="M228.17,162.78c1.31.55,2.48,1.13,3.72,1.59s2.49.82,3.84,1.27a7.11,7.11,0,0,1-4.2-.34A7.32,7.32,0,0,1,228.17,162.78Z" style="fill: #fff"/>
      <path d="M245.47,165.81a12.29,12.29,0,0,1,3.14-.65,12.76,12.76,0,0,1,3.2.06,7.3,7.3,0,0,1-3.11.94A7.6,7.6,0,0,1,245.47,165.81Z" style="fill: #fff"/>
      <path d="M229,165.22c2.07.57,4,1.21,6,1.68s4,.83,6.13,1.21a15.05,15.05,0,0,1-6.37-.24A16.28,16.28,0,0,1,229,165.22Z" style="fill: #fff"/>
      <path d="M231.94,167.9c2.28.45,4.48.93,6.73,1.25s4.49.56,6.8.89a20,20,0,0,1-6.95.1A18.68,18.68,0,0,1,231.94,167.9Z" style="fill: #fff"/>
      <path d="M228.79,168.43a36,36,0,0,0,6.89,2.07c2.35.47,4.73.66,7.18.93a18.66,18.66,0,0,1-7.37,0A14.66,14.66,0,0,1,228.79,168.43Z" style="fill: #fff"/>
      <path d="M245.05,172.35a18.2,18.2,0,0,1,2.87-.22,15.79,15.79,0,0,1,2.87.16,5.24,5.24,0,0,1-2.86.84A5.05,5.05,0,0,1,245.05,172.35Z" style="fill: #fff"/>
      <path d="M245.7,168.65c3-.6,6-1.12,9-1.9a58.71,58.71,0,0,0,8.66-3,23.33,23.33,0,0,1-8.4,3.95A30.37,30.37,0,0,1,245.7,168.65Z" style="fill: #fff"/>
      <path d="M255.77,168.27c2.39-1.22,4.8-2.26,7.14-3.43s4.65-2.41,7-3.75a22.74,22.74,0,0,1-6.52,4.64A29.12,29.12,0,0,1,255.77,168.27Z" style="fill: #fff"/>
      <path d="M250.63,169.93c1.63-.52,3.25-.83,4.85-1.19s3.21-.71,4.91-1a13.05,13.05,0,0,1-4.7,1.92A14.11,14.11,0,0,1,250.63,169.93Z" style="fill: #fff"/>
      <path d="M262.82,166.66a22.83,22.83,0,0,1,3.53-2.15c1.22-.62,2.41-1.21,3.74-1.73a9.36,9.36,0,0,1-3.28,2.62A11.71,11.71,0,0,1,262.82,166.66Z" style="fill: #fff"/>
      <path d="M255.78,170.9c2.47-1,4.92-1.84,7.3-2.87s4.7-2.16,7.06-3.38a21.75,21.75,0,0,1-6.67,4.3A25,25,0,0,1,255.78,170.9Z" style="fill: #fff"/>
      <path d="M241.19,175.71c2.35.18,4.67.32,7,.31a64.27,64.27,0,0,0,6.94-.37A66.33,66.33,0,0,0,262,174.5c1.13-.25,2.26-.55,3.38-.87l1.68-.48c.56-.18,1.12-.36,1.68-.52-1,.54-2.12,1-3.2,1.46s-2.22.81-3.35,1.15a39.86,39.86,0,0,1-14,1.55A38.15,38.15,0,0,1,241.19,175.71Z" style="fill: #fff"/>
      <path d="M230.42,173.57c1.1.24,2,.57,3,.79s1.94.38,3,.62a4.57,4.57,0,0,1-3.27.35A4.94,4.94,0,0,1,230.42,173.57Z" style="fill: #fff"/>
      <path d="M232,176.13a111.72,111.72,0,0,0,11.19,2.21,112.86,112.86,0,0,0,11.38.88A39.67,39.67,0,0,1,232,176.13Z" style="fill: #fff"/>
      <path d="M234.29,178.64c3,.58,5.9,1.1,8.87,1.41s5.93.45,9,.63a29.65,29.65,0,0,1-9.07.36A26.92,26.92,0,0,1,234.29,178.64Z" style="fill: #fff"/>
      <path d="M250,183.87c1.89-.48,3.75-.78,5.62-1.11s3.73-.63,5.67-.76a19.15,19.15,0,0,1-5.51,1.75A18.36,18.36,0,0,1,250,183.87Z" style="fill: #fff"/>
      <path d="M258.75,180.31a9.6,9.6,0,0,1,3.05-1.11,9.2,9.2,0,0,1,3.24-.14,9.61,9.61,0,0,1-3.05,1.12A9.48,9.48,0,0,1,258.75,180.31Z" style="fill: #fff"/>
      <path d="M236.17,181.31a26.11,26.11,0,0,1,3.56.49c1.15.23,2.27.4,3.5.66a6.28,6.28,0,0,1-3.68.33A8,8,0,0,1,236.17,181.31Z" style="fill: #fff"/>
      <path d="M260.15,173.57c1.56-.57,3-1.08,4.48-1.71s2.87-1.31,4.41-1.93a11,11,0,0,1-4,2.85A9.6,9.6,0,0,1,260.15,173.57Z" style="fill: #fff"/>
      <path d="M238.16,176.13a74.65,74.65,0,0,0,11.08,1.35,78.79,78.79,0,0,0,11.15-.46,33.05,33.05,0,0,1-11.19,1.46A32.32,32.32,0,0,1,238.16,176.13Z" style="fill: #fff"/>
      <path d="M196.4,122.63c1.21-.2,2.3-.32,3.43-.48a20.63,20.63,0,0,1,3.48-.23,7.59,7.59,0,0,1-3.36,1.22A6,6,0,0,1,196.4,122.63Z" style="fill: #fff"/>
      <path d="M201.88,121.64a10.62,10.62,0,0,1,2.53-1.29,18.08,18.08,0,0,1,2.69-.8,4.85,4.85,0,0,1-2.34,1.74A5.83,5.83,0,0,1,201.88,121.64Z" style="fill: #fff"/>
      <path d="M203.25,119.69a1.57,1.57,0,0,1,.9-.74,1.63,1.63,0,0,1,1.14.11,1.26,1.26,0,0,1-.86.85A1.32,1.32,0,0,1,203.25,119.69Z" style="fill: #fff"/>
      <path d="M204,118.79a13.93,13.93,0,0,1,2.41-1.67,28.39,28.39,0,0,1,2.59-1.33A4.79,4.79,0,0,1,207,118,5.73,5.73,0,0,1,204,118.79Z" style="fill: #fff"/>
      <path d="M197.3,120a2.67,2.67,0,0,1,1.17-.4,1.92,1.92,0,0,1,1.23.31,1.46,1.46,0,0,1-1.16.68A1.3,1.3,0,0,1,197.3,120Z" style="fill: #fff"/>
      <path d="M197.1,120.49c.4-.21.47-.3.62-.31a1.2,1.2,0,0,1,.62.38.64.64,0,0,1-.64.62A.61.61,0,0,1,197.1,120.49Z" style="fill: #fff"/>
      <path d="M197.59,119.29c.39-.21.46-.3.59-.3s.25.11.53.46a.6.6,0,0,1-.63.54A.58.58,0,0,1,197.59,119.29Z" style="fill: #fff"/>
      <path d="M198,118.75c.3-.27.31-.37.36-.37s.06.11.15.51c-.09.4-.25.48-.39.46S197.84,119.13,198,118.75Z" style="fill: #fff"/>
      <path d="M198.28,124.83c1.51-.42,2.94-.71,4.37-1.1s2.83-.8,4.36-1.12a10.23,10.23,0,0,1-4.11,2.09A9.75,9.75,0,0,1,198.28,124.83Z" style="fill: #fff"/>
      <path d="M199.84,123.34a4.21,4.21,0,0,1,1.71-.82,4.15,4.15,0,0,1,1.9,0,2.94,2.94,0,0,1-1.67,1A3,3,0,0,1,199.84,123.34Z" style="fill: #fff"/>
      <path d="M196.57,123.31a1.43,1.43,0,0,1,.93-.38,1.4,1.4,0,0,1,.92.39,1,1,0,0,1-1.85,0Z" style="fill: #fff"/>
      <path d="M207.86,119.77a6.29,6.29,0,0,1,1.56-1.5,8.63,8.63,0,0,1,1.89-1,3.08,3.08,0,0,1-1.32,1.83A3.52,3.52,0,0,1,207.86,119.77Z" style="fill: #fff"/>
      <path d="M209.75,119.18a2.34,2.34,0,0,1,.79-1,2.4,2.4,0,0,1,1.22-.47,1.47,1.47,0,0,1-.62,1.27A1.49,1.49,0,0,1,209.75,119.18Z" style="fill: #fff"/>
      <path d="M201.36,123.64c1.9-.87,3.78-1.57,5.58-2.46a36,36,0,0,0,5.2-3.1,11.71,11.71,0,0,1-4.76,4A15.79,15.79,0,0,1,201.36,123.64Z" style="fill: #fff"/>
      <path d="M199.24,117.05a6,6,0,0,1,1.74-.74,4.16,4.16,0,0,1,1.91-.1,2.87,2.87,0,0,1-1.66,1.06A2.55,2.55,0,0,1,199.24,117.05Z" style="fill: #fff"/>
      <path d="M198.34,118a12.1,12.1,0,0,1,2-.68,5.46,5.46,0,0,1,2.19-.11,3.68,3.68,0,0,1-2,1.08,3.9,3.9,0,0,1-1.13.09A2.09,2.09,0,0,1,198.34,118Z" style="fill: #fff"/>
      <path d="M203.4,116.54a4.1,4.1,0,0,1,1.41-1.22,8,8,0,0,1,.79-.36c.28-.11.55-.18.89-.3a1.52,1.52,0,0,1-.43.94,3,3,0,0,1-.77.6A2.87,2.87,0,0,1,203.4,116.54Z" style="fill: #fff"/>
      <path d="M204.07,115.44a1.27,1.27,0,0,1,.59-.78,1.12,1.12,0,0,1,.38-.1c.14,0,.29,0,.55,0a.75.75,0,0,1-.1.62.91.91,0,0,1-.38.35A1,1,0,0,1,204.07,115.44Z" style="fill: #fff"/>
      <path d="M204.54,116.59a3.93,3.93,0,0,1,1.29-1.18,4.28,4.28,0,0,1,1.65-.56,2.37,2.37,0,0,1-1.14,1.43A2.46,2.46,0,0,1,204.54,116.59Z" style="fill: #fff"/>
      <path d="M196.76,125.16a6.06,6.06,0,0,1,1.69,0,5.76,5.76,0,0,1,1.62.43,2,2,0,0,1-1.74.57A2.1,2.1,0,0,1,196.76,125.16Z" style="fill: #fff"/>
      <path d="M204,124.65a2.36,2.36,0,0,1,1.1-.81,2.25,2.25,0,0,1,1.38-.06,1.7,1.7,0,0,1-1,1A1.65,1.65,0,0,1,204,124.65Z" style="fill: #fff"/>
      <path d="M197.35,126.05a13.1,13.1,0,0,1,2.58-.22,14.63,14.63,0,0,1,2.58.17,4.18,4.18,0,0,1-2.57.83A4.34,4.34,0,0,1,197.35,126.05Z" style="fill: #fff"/>
      <path d="M198.78,126.83a17.24,17.24,0,0,1,2.79-.46,14.1,14.1,0,0,1,2.84,0,5.24,5.24,0,0,1-2.74,1A5,5,0,0,1,198.78,126.83Z" style="fill: #fff"/>
      <path d="M197.58,127.36c1.07-.08,2-.09,2.95-.15a22.29,22.29,0,0,1,3,0,5.17,5.17,0,0,1-2.92,1.05A4.46,4.46,0,0,1,197.58,127.36Z" style="fill: #fff"/>
      <path d="M204.47,127.31a1.87,1.87,0,0,1,1.05-.71,1.9,1.9,0,0,1,1.24.11,1.39,1.39,0,0,1-1,.86A1.53,1.53,0,0,1,204.47,127.31Z" style="fill: #fff"/>
      <path d="M204.36,125.76c1.09-.76,2.19-1.3,3.27-1.91s2.13-1.19,3.31-1.8a7,7,0,0,1-2.83,2.68A8.2,8.2,0,0,1,204.36,125.76Z" style="fill: #fff"/>
      <path d="M208.36,124.61a16.32,16.32,0,0,1,2.32-2.31,25.8,25.8,0,0,1,2.61-2,6.27,6.27,0,0,1-2,2.73A7.3,7.3,0,0,1,208.36,124.61Z" style="fill: #fff"/>
      <path d="M206.47,125.79a5.33,5.33,0,0,1,1.69-1.23,5.79,5.79,0,0,1,2-.6,3.33,3.33,0,0,1-1.56,1.5A3.43,3.43,0,0,1,206.47,125.79Z" style="fill: #fff"/>
      <path d="M211,123.26a3.34,3.34,0,0,1,1-1.43,4,4,0,0,1,1.52-.85,2.37,2.37,0,0,1-.86,1.6A2.61,2.61,0,0,1,211,123.26Z" style="fill: #fff"/>
      <path d="M208.62,125.66a20.59,20.59,0,0,1,2.46-2.11,27.68,27.68,0,0,1,2.67-1.82,6,6,0,0,1-2.07,2.62A6.52,6.52,0,0,1,208.62,125.66Z" style="fill: #fff"/>
      <path d="M203.27,129c1.88-.55,3.7-1,5.46-1.69s3.46-1.46,5.25-2.29a12.46,12.46,0,0,1-4.9,3.23A12.69,12.69,0,0,1,203.27,129Z" style="fill: #fff"/>
      <path d="M198.74,129.26A3,3,0,0,1,200,129a3.41,3.41,0,0,1,1.28.24A1.4,1.4,0,0,1,200,130,1.45,1.45,0,0,1,198.74,129.26Z" style="fill: #fff"/>
      <path d="M199.61,130.13c1.6-.25,3.13-.34,4.66-.53s3.06-.38,4.68-.49a11,11,0,0,1-4.57,1.49A11.17,11.17,0,0,1,199.61,130.13Z" style="fill: #fff"/>
      <path d="M200.79,130.9c1.27-.3,2.45-.43,3.65-.61a31,31,0,0,1,3.69-.35,8,8,0,0,1-3.55,1.34A7.55,7.55,0,0,1,200.79,130.9Z" style="fill: #fff"/>
      <path d="M207.61,131.42a7.33,7.33,0,0,1,2-1.27,6.72,6.72,0,0,1,2.31-.6,4.38,4.38,0,0,1-1.91,1.52A4.22,4.22,0,0,1,207.61,131.42Z" style="fill: #fff"/>
      <path d="M210.75,129.13a2,2,0,0,1,2.39-1.13,1.92,1.92,0,0,1-1,1A2,2,0,0,1,210.75,129.13Z" style="fill: #fff"/>
      <path d="M201.81,131.78a3,3,0,0,1,1.46-.45,3.74,3.74,0,0,1,1.48.2,1.76,1.76,0,0,1-1.42.8A2,2,0,0,1,201.81,131.78Z" style="fill: #fff"/>
      <path d="M210.64,126.29a8.2,8.2,0,0,1,1.44-1.36,6.34,6.34,0,0,1,1.75-1,2.87,2.87,0,0,1-1.15,1.78A2.67,2.67,0,0,1,210.64,126.29Z" style="fill: #fff"/>
      <path d="M202.09,129.51c1.56-.33,3-.53,4.51-.85s2.91-.7,4.47-1a10.34,10.34,0,0,1-9,1.86Z" style="fill: #fff"/>
      <path d="M113.5,76.89c1.36-.48,2.62-.9,3.9-1.39a36.18,36.18,0,0,1,4-1.3,10.23,10.23,0,0,1-3.62,2.24A7.81,7.81,0,0,1,113.5,76.89Z" style="fill: #fff"/>
      <path d="M119.63,74.25a16.68,16.68,0,0,1,2.66-2.1c.92-.6,1.81-1.19,2.86-1.74A6.17,6.17,0,0,1,122.84,73,7.77,7.77,0,0,1,119.63,74.25Z" style="fill: #fff"/>
      <path d="M120.71,71.61a3.19,3.19,0,0,1,.92-.92,2.34,2.34,0,0,1,1.28-.37,1.56,1.56,0,0,1-.75,1.22A1.41,1.41,0,0,1,120.71,71.61Z" style="fill: #fff"/>
      <path d="M121.38,70.34a24.32,24.32,0,0,1,2.43-2.52c.85-.77,1.64-1.54,2.59-2.32a6.17,6.17,0,0,1-1.91,3A7.52,7.52,0,0,1,121.38,70.34Z" style="fill: #fff"/>
      <path d="M113.84,73.56a4.2,4.2,0,0,1,1.28-.7,2.71,2.71,0,0,1,1.49-.06,2,2,0,0,1-1.19,1A1.67,1.67,0,0,1,113.84,73.56Z" style="fill: #fff"/>
      <path d="M113.74,74.21c.38-.29.48-.39.66-.44a1.38,1.38,0,0,1,.81.18.77.77,0,0,1-.6.8A.71.71,0,0,1,113.74,74.21Z" style="fill: #fff"/>
      <path d="M114,72.67c.36-.28.45-.38.62-.41a1.19,1.19,0,0,1,.73.29.7.7,0,0,1-.6.71A.67.67,0,0,1,114,72.67Z" style="fill: #fff"/>
      <path d="M114.32,71.93c-.16-.17,0-.4.1-.47a.45.45,0,0,1,.31-.09c.16,0,.25.18.23.59-.24.33-.36.39-.43.39s0,0,0-.11A.26.26,0,0,0,114.32,71.93Z" style="fill: #fff"/>
      <path d="M116.29,79c1.67-.82,3.28-1.53,4.85-2.37s3.09-1.73,4.74-2.58a13.28,13.28,0,0,1-4.28,3.46A12.41,12.41,0,0,1,116.29,79Z" style="fill: #fff"/>
      <path d="M117.71,76.8a6,6,0,0,1,1.81-1.34,5.88,5.88,0,0,1,2.16-.66A3.92,3.92,0,0,1,120,76.35,4,4,0,0,1,117.71,76.8Z" style="fill: #fff"/>
      <path d="M113.88,77.64a1.77,1.77,0,0,1,1-.62,1.91,1.91,0,0,1,1.16.13,1.23,1.23,0,0,1-1,.84A1.29,1.29,0,0,1,113.88,77.64Z" style="fill: #fff"/>
      <path d="M126.1,70.46a9.28,9.28,0,0,1,1.49-2.1,15,15,0,0,1,1.86-1.76A4,4,0,0,1,128.34,69,4.81,4.81,0,0,1,126.1,70.46Z" style="fill: #fff"/>
      <path d="M128.15,69.26a3.43,3.43,0,0,1,.72-1.36,3.37,3.37,0,0,1,1.22-.94,1.9,1.9,0,0,1-.46,1.58A1.93,1.93,0,0,1,128.15,69.26Z" style="fill: #fff"/>
      <path d="M119.57,76.73c2-1.45,4-2.78,5.9-4.3a36.09,36.09,0,0,0,5.17-5.1,14.67,14.67,0,0,1-4.54,5.87A20.3,20.3,0,0,1,119.57,76.73Z" style="fill: #fff"/>
      <path d="M115.31,69.61a10.16,10.16,0,0,1,1.87-1.25,6.3,6.3,0,0,1,2.17-.71,4,4,0,0,1-1.71,1.6A3.33,3.33,0,0,1,115.31,69.61Z" style="fill: #fff"/>
      <path d="M114.51,71c.8-.48,1.47-.88,2.24-1.25a8.22,8.22,0,0,1,2.48-.81,5.18,5.18,0,0,1-2,1.71,5.65,5.65,0,0,1-1.28.42A2.74,2.74,0,0,1,114.51,71Z" style="fill: #fff"/>
      <path d="M120,67.89a6.08,6.08,0,0,1,1.39-1.73c.27-.22.53-.45.82-.65l.9-.65a1.91,1.91,0,0,1-.31,1.16,4,4,0,0,1-.74.89A3.86,3.86,0,0,1,120,67.89Z" style="fill: #fff"/>
      <path d="M120.51,66.43a1.61,1.61,0,0,1,.54-1,1.52,1.52,0,0,1,.41-.24,4.29,4.29,0,0,1,.59-.18.87.87,0,0,1,0,.69,1.28,1.28,0,0,1-.35.49A1.24,1.24,0,0,1,120.51,66.43Z" style="fill: #fff"/>
      <path d="M121.37,67.64A5.62,5.62,0,0,1,122.63,66a6,6,0,0,1,1.7-1.18,3.07,3.07,0,0,1-1,1.9A3.22,3.22,0,0,1,121.37,67.64Z" style="fill: #fff"/>
      <path d="M114.61,79.75a9.37,9.37,0,0,1,2-.39,10,10,0,0,1,2,0,2.62,2.62,0,0,1-1.9,1A2.67,2.67,0,0,1,114.61,79.75Z" style="fill: #fff"/>
      <path d="M122.9,77.2A3.28,3.28,0,0,1,124,76a3,3,0,0,1,1.54-.5,2.37,2.37,0,0,1-2.66,1.68Z" style="fill: #fff"/>
      <path d="M115.53,80.63a23.4,23.4,0,0,1,3-.86,28.5,28.5,0,0,1,3-.6,5.39,5.39,0,0,1-2.8,1.57A5.75,5.75,0,0,1,115.53,80.63Z" style="fill: #fff"/>
      <path d="M117.42,81.15A30.11,30.11,0,0,1,120.58,80a23,23,0,0,1,3.27-.9,6.74,6.74,0,0,1-2.95,1.84A6.43,6.43,0,0,1,117.42,81.15Z" style="fill: #fff"/>
      <path d="M116.15,82.1c1.23-.31,2.32-.55,3.43-.88s2.2-.7,3.44-1a6.91,6.91,0,0,1-3.16,1.92A5.82,5.82,0,0,1,116.15,82.1Z" style="fill: #fff"/>
      <path d="M124.19,80.17a4.06,4.06,0,0,1,1.14-.87,3.87,3.87,0,0,1,1.37-.44,1.7,1.7,0,0,1-2.51,1.31Z" style="fill: #fff"/>
      <path d="M123.64,78.4c1.1-1.12,2.26-2,3.36-3s2.16-2,3.31-3.07a8.94,8.94,0,0,1-2.64,3.82A10.86,10.86,0,0,1,123.64,78.4Z" style="fill: #fff"/>
      <path d="M128,76a33.89,33.89,0,0,1,2.21-3.23c.77-1,1.5-2,2.39-3.09A8,8,0,0,1,131,73.33,8.89,8.89,0,0,1,128,76Z" style="fill: #fff"/>
      <path d="M126.1,77.86a8,8,0,0,1,1.71-1.81,8.63,8.63,0,0,1,2.1-1.32,4.26,4.26,0,0,1-1.47,2.09A4.63,4.63,0,0,1,126.1,77.86Z" style="fill: #fff"/>
      <path d="M130.73,73.68a4.88,4.88,0,0,1,.87-1.88,5.78,5.78,0,0,1,1.46-1.46,3.17,3.17,0,0,1-.65,2A3.45,3.45,0,0,1,130.73,73.68Z" style="fill: #fff"/>
      <path d="M128.58,77.13A34.42,34.42,0,0,1,131,74.07c.83-1,1.6-1.94,2.54-2.91a7.89,7.89,0,0,1-1.77,3.55A8.82,8.82,0,0,1,128.58,77.13Z" style="fill: #fff"/>
      <path d="M123.24,82.52a61.63,61.63,0,0,0,6-3.37A55.86,55.86,0,0,0,134.67,75a15.83,15.83,0,0,1-4.9,5A16.34,16.34,0,0,1,123.24,82.52Z" style="fill: #fff"/>
      <path d="M118,84a4.91,4.91,0,0,1,1.45-.57,5.24,5.24,0,0,1,1.53-.16,1.74,1.74,0,0,1-1.3,1.13A1.84,1.84,0,0,1,118,84Z" style="fill: #fff"/>
      <path d="M119.27,84.78c1.81-.65,3.59-1.16,5.34-1.78s3.46-1.3,5.28-1.93a15.27,15.27,0,0,1-10.62,3.71Z" style="fill: #fff"/>
      <path d="M120.86,85.35c1.41-.61,2.77-1.07,4.13-1.6s2.7-1.07,4.18-1.5a10.55,10.55,0,0,1-3.82,2.43A9.83,9.83,0,0,1,120.86,85.35Z" style="fill: #fff"/>
      <path d="M129,84.13A10.52,10.52,0,0,1,131,82.18a10.13,10.13,0,0,1,2.48-1.41A6,6,0,0,1,131.63,83,5.84,5.84,0,0,1,129,84.13Z" style="fill: #fff"/>
      <path d="M132,80.6a2.67,2.67,0,0,1,.93-1.37,2.64,2.64,0,0,1,1.56-.59,2.75,2.75,0,0,1-2.49,2Z" style="fill: #fff"/>
      <path d="M122.29,86.11a4.39,4.39,0,0,1,1.6-.83,6.17,6.17,0,0,1,1.76-.25,2.26,2.26,0,0,1-1.47,1.21A2.59,2.59,0,0,1,122.29,86.11Z" style="fill: #fff"/>
      <path d="M131.11,77.32a14.84,14.84,0,0,1,1.39-1.92,10,10,0,0,1,1.7-1.67,3.75,3.75,0,0,1-.93,2.32A3.49,3.49,0,0,1,131.11,77.32Z" style="fill: #fff"/>
      <path d="M122,83.38c1.75-.72,3.43-1.35,5.07-2.12s3.22-1.63,4.91-2.47a13.22,13.22,0,0,1-10,4.59Z" style="fill: #fff"/>
      <path d="M27,81.28a55.2,55.2,0,0,0,6.2,2.28c2.09.66,4.23,1.17,6.37,1.89a21.16,21.16,0,0,1-6.66-.93A15,15,0,0,1,27,81.28Z" style="fill: #fff"/>
      <path d="M37.26,83.84c1.84-.06,3.6.1,5.36.19s3.5.18,5.33.25a12.38,12.38,0,0,1-5.39.75A16.72,16.72,0,0,1,37.26,83.84Z" style="fill: #fff"/>
      <path d="M41.16,81.53a4,4,0,0,1,2.08-.25,3.93,3.93,0,0,1,1.95.74,4.38,4.38,0,0,1-4-.49Z" style="fill: #fff"/>
      <path d="M43.23,80.57c1.89-.28,3.72-.36,5.54-.56s3.61-.44,5.49-.74A12.12,12.12,0,0,1,48.87,81,15.77,15.77,0,0,1,43.23,80.57Z" style="fill: #fff"/>
      <path d="M30.59,77.39a19.05,19.05,0,0,1,2.19.63,6.89,6.89,0,0,1,2,1.08A4,4,0,0,1,32.44,79,3.05,3.05,0,0,1,30.59,77.39Z" style="fill: #fff"/>
      <path d="M29.83,78.12a5.48,5.48,0,0,1,1.13.35,3,3,0,0,1,1,.73,1.29,1.29,0,0,1-1.41.17A1.15,1.15,0,0,1,29.83,78.12Z" style="fill: #fff"/>
      <path d="M31.63,76.41a3.69,3.69,0,0,1,1,.34,2.25,2.25,0,0,1,.79.81,1.17,1.17,0,0,1-1.3,0A1.05,1.05,0,0,1,31.63,76.41Z" style="fill: #fff"/>
      <path d="M32.76,75.79c.43-.06.53-.1.65,0s.16.24.13.67c-.33.27-.56.24-.74.12A.54.54,0,0,1,32.76,75.79Z" style="fill: #fff"/>
      <path d="M28.51,86.59a80.34,80.34,0,0,0,8.37,1.94c2.8.49,5.64.73,8.54,1a25.73,25.73,0,0,1-8.71,0A23.81,23.81,0,0,1,28.51,86.59Z" style="fill: #fff"/>
      <path d="M32.37,85.21a17,17,0,0,1,3.54.35,16.35,16.35,0,0,1,3.42,1,9.4,9.4,0,0,1-7-1.3Z" style="fill: #fff"/>
      <path d="M26.72,82.6a4.94,4.94,0,0,1,1.73.42,3.91,3.91,0,0,1,1.47,1,2.65,2.65,0,0,1-1.87-.14A2.32,2.32,0,0,1,26.72,82.6Z" style="fill: #fff"/>
      <path d="M49.1,85.26a33,33,0,0,1,4-.94c1.32-.24,2.59-.5,4-.73a8,8,0,0,1-3.8,1.71A10.06,10.06,0,0,1,49.1,85.26Z" style="fill: #fff"/>
      <path d="M52.85,85.7A11.06,11.06,0,0,1,55.14,85a10.36,10.36,0,0,1,2.39-.29,3.92,3.92,0,0,1-2.17,1.27A3.83,3.83,0,0,1,52.85,85.7Z" style="fill: #fff"/>
      <path d="M34.79,86.92a96.76,96.76,0,0,0,11.63.52,45.14,45.14,0,0,0,11.44-1.77,26.15,26.15,0,0,1-11.41,2.77A37.91,37.91,0,0,1,34.79,86.92Z" style="fill: #fff"/>
      <path d="M36.25,73.8c1.25.14,2.36.32,3.52.52a17.46,17.46,0,0,1,3.48.89,8.65,8.65,0,0,1-3.65.09A6.63,6.63,0,0,1,36.25,73.8Z" style="fill: #fff"/>
      <path d="M33.93,74.75c1.37.35,2.65.58,4,.85a24.79,24.79,0,0,1,4,1.08,11.09,11.09,0,0,1-4.18-.1,10.4,10.4,0,0,1-2-.63A5.34,5.34,0,0,1,33.93,74.75Z" style="fill: #fff"/>
      <path d="M43.87,76.16a17.09,17.09,0,0,1,3.45-.56L49,75.49c.57,0,1.12-.08,1.72-.18a3.46,3.46,0,0,1-1.56,1,7.71,7.71,0,0,1-1.76.34A8.35,8.35,0,0,1,43.87,76.16Z" style="fill: #fff"/>
      <path d="M45.89,74.78a3.68,3.68,0,0,1,1.66-.44,7.59,7.59,0,0,1,1.65.13,1.44,1.44,0,0,1-.71.65,2.59,2.59,0,0,1-.89.22A2.44,2.44,0,0,1,45.89,74.78Z" style="fill: #fff"/>
      <path d="M45.82,77.14A17.81,17.81,0,0,1,49,76.56a21.48,21.48,0,0,1,3.25-.15,6.38,6.38,0,0,1-3.15,1.14A7,7,0,0,1,45.82,77.14Z" style="fill: #fff"/>
      <path d="M25.61,86c1,.55,1.83,1.14,2.71,1.65s1.77,1,2.74,1.62a5.08,5.08,0,0,1-3.25-.76A5.22,5.22,0,0,1,25.61,86Z" style="fill: #fff"/>
      <path d="M38.57,90.72a9.73,9.73,0,0,1,5,.43A4.55,4.55,0,0,1,41,91.6,4.61,4.61,0,0,1,38.57,90.72Z" style="fill: #fff"/>
      <path d="M25.93,88c1.57.66,3,1.4,4.48,2s3,1.22,4.53,1.89a10.79,10.79,0,0,1-4.94-1A11.46,11.46,0,0,1,25.93,88Z" style="fill: #fff"/>
      <path d="M27.81,90.45c1.75.6,3.38,1.25,5.07,1.81S36.25,93.34,38,94a14.25,14.25,0,0,1-5.42-.79A13.12,13.12,0,0,1,27.81,90.45Z" style="fill: #fff"/>
      <path d="M25.31,90.43a34.85,34.85,0,0,0,5.08,2.46c1.73.69,3.53,1.18,5.37,1.82A13.31,13.31,0,0,1,30,93.82,10.67,10.67,0,0,1,25.31,90.43Z" style="fill: #fff"/>
      <path d="M37.34,95.72a6.84,6.84,0,0,1,2.27.06,7,7,0,0,1,2.17.7,4.12,4.12,0,0,1-4.44-.76Z" style="fill: #fff"/>
      <path d="M38.35,93c2.44-.12,4.83-.12,7.2-.32a58.6,58.6,0,0,0,7.12-1,17,17,0,0,1-7,2A21.5,21.5,0,0,1,38.35,93Z" style="fill: #fff"/>
      <path d="M46.19,94.06c2-.69,4-1.18,6-1.76s3.92-1.19,5.94-1.83a16.2,16.2,0,0,1-5.66,2.79A20.29,20.29,0,0,1,46.19,94.06Z" style="fill: #fff"/>
      <path d="M42,94.63a26.7,26.7,0,0,1,3.92-.36,34.6,34.6,0,0,1,3.93.06,8.86,8.86,0,0,1-3.9.94A9.76,9.76,0,0,1,42,94.63Z" style="fill: #fff"/>
      <path d="M51.87,93.8a13,13,0,0,1,3-1.28A19.2,19.2,0,0,1,58,91.81a6.54,6.54,0,0,1-2.87,1.67A7.91,7.91,0,0,1,51.87,93.8Z" style="fill: #fff"/>
      <path d="M45.83,96.1c2-.5,4-.84,6-1.31s3.93-1,6-1.52a15.52,15.52,0,0,1-5.73,2.49A17.76,17.76,0,0,1,45.83,96.1Z" style="fill: #fff"/>
      <path d="M33.88,97.79a63.86,63.86,0,0,0,10.8,1.78,61.64,61.64,0,0,0,10.93-.33,29,29,0,0,1-11,1.33A29.88,29.88,0,0,1,33.88,97.79Z" style="fill: #fff"/>
      <path d="M25.85,94.63a23.9,23.9,0,0,1,2.26.93c.71.33,1.41.58,2.22,1a3.27,3.27,0,0,1-2.62-.08A3.54,3.54,0,0,1,25.85,94.63Z" style="fill: #fff"/>
      <path d="M26.67,96.82c2.81,1.14,5.55,2.26,8.39,3.16s5.7,1.64,8.64,2.37a29.06,29.06,0,0,1-17-5.53Z" style="fill: #fff"/>
      <path d="M28.14,99.09c2.26.79,4.44,1.58,6.69,2.22s4.5,1.2,6.81,1.84a21.29,21.29,0,0,1-7.09-.88A19.34,19.34,0,0,1,28.14,99.09Z" style="fill: #fff"/>
      <path d="M39.57,105.32a36.1,36.1,0,0,1,4.5-.18,31.29,31.29,0,0,1,4.49.31,12.79,12.79,0,0,1-4.5.69A12.39,12.39,0,0,1,39.57,105.32Z" style="fill: #fff"/>
      <path d="M46.82,103.79c.93-.1,1.69-.12,2.5-.17a11.57,11.57,0,0,1,2.54.07,4.21,4.21,0,0,1-2.5.93A3.44,3.44,0,0,1,46.82,103.79Z" style="fill: #fff"/>
      <path d="M29.22,101.41a13.33,13.33,0,0,1,2.72.78c.85.34,1.67.64,2.58,1.09a4.39,4.39,0,0,1-2.93-.15A5.39,5.39,0,0,1,29.22,101.41Z" style="fill: #fff"/>
      <path d="M48.84,98.77c1.29-.31,2.48-.52,3.68-.8s2.38-.59,3.7-.77a7.65,7.65,0,0,1-3.48,1.74A6.82,6.82,0,0,1,48.84,98.77Z" style="fill: #fff"/>
      <path d="M31.48,97.69a71.77,71.77,0,0,0,8.4,2.48,76.53,76.53,0,0,0,8.66,1.3,23.93,23.93,0,0,1-8.88-.33A23.59,23.59,0,0,1,31.48,97.69Z" style="fill: #fff"/>
      <path d="M82.36,263a52,52,0,0,0,6.39,2.47c2.16.71,4.37,1.27,6.59,2a21.86,21.86,0,0,1-6.9-1.07A15.48,15.48,0,0,1,82.36,263Z" style="fill: #fff"/>
      <path d="M93,265.82c1.9,0,3.72.17,5.55.28s3.64.24,5.53.32a12.86,12.86,0,0,1-5.6.68A17.52,17.52,0,0,1,93,265.82Z" style="fill: #fff"/>
      <path d="M97.1,263.47a5.53,5.53,0,0,1,2.14,0,7.66,7.66,0,0,1,2,.6,3,3,0,0,1-2.18.39A3.58,3.58,0,0,1,97.1,263.47Z" style="fill: #fff"/>
      <path d="M99.26,262.51c2-.25,3.86-.31,5.75-.49s3.75-.41,5.7-.71A12.76,12.76,0,0,1,105.1,263,16.65,16.65,0,0,1,99.26,262.51Z" style="fill: #fff"/>
      <path d="M86.19,259a22.24,22.24,0,0,1,2.25.69,8,8,0,0,1,2.12,1.13,4.18,4.18,0,0,1-2.48-.19A3.22,3.22,0,0,1,86.19,259Z" style="fill: #fff"/>
      <path d="M85.39,259.78a8.51,8.51,0,0,1,1.16.39,3.23,3.23,0,0,1,1,.77,1.39,1.39,0,0,1-1.45.14A1.21,1.21,0,0,1,85.39,259.78Z" style="fill: #fff"/>
      <path d="M87.28,258a4.12,4.12,0,0,1,1.06.39,2.38,2.38,0,0,1,.82.83,1.23,1.23,0,0,1-1.34,0A1.09,1.09,0,0,1,87.28,258Z" style="fill: #fff"/>
      <path d="M88.46,257.4c.43.1.54.07.59.1a2.65,2.65,0,0,1,.21.59.55.55,0,0,1-.84.18A.54.54,0,0,1,88.46,257.4Z" style="fill: #fff"/>
      <path d="M83.9,268.55a78.54,78.54,0,0,0,8.65,2.14c2.91.55,5.85.84,8.85,1.15a27.11,27.11,0,0,1-9-.16A24.94,24.94,0,0,1,83.9,268.55Z" style="fill: #fff"/>
      <path d="M87.93,267.18a18.8,18.8,0,0,1,3.65.42,18,18,0,0,1,3.54,1,10,10,0,0,1-7.19-1.44Z" style="fill: #fff"/>
      <path d="M82.09,264.38a5.53,5.53,0,0,1,1.79.47A4.06,4.06,0,0,1,85.4,266a2.87,2.87,0,0,1-1.93-.19A2.52,2.52,0,0,1,82.09,264.38Z" style="fill: #fff"/>
      <path d="M105.28,267.46a35.69,35.69,0,0,1,4.13-.91c1.37-.23,2.7-.49,4.15-.72a8.51,8.51,0,0,1-4,1.71A10.79,10.79,0,0,1,105.28,267.46Z" style="fill: #fff"/>
      <path d="M109.16,268a14.52,14.52,0,0,1,4.87-1,4,4,0,0,1-2.28,1.27A4,4,0,0,1,109.16,268Z" style="fill: #fff"/>
      <path d="M90.41,269a100,100,0,0,0,12.06.72A45.43,45.43,0,0,0,114.36,268a27.44,27.44,0,0,1-11.87,2.71A40.07,40.07,0,0,1,90.41,269Z" style="fill: #fff"/>
      <path d="M92.11,255.39c1.28.18,2.43.38,3.64.6a19.57,19.57,0,0,1,3.6.95,9.14,9.14,0,0,1-3.79,0A7,7,0,0,1,92.11,255.39Z" style="fill: #fff"/>
      <path d="M89.69,256.34c1.4.4,2.73.66,4.11,1a26.42,26.42,0,0,1,4.12,1.15,11.88,11.88,0,0,1-4.33-.18,10.13,10.13,0,0,1-2.08-.68A5.2,5.2,0,0,1,89.69,256.34Z" style="fill: #fff"/>
      <path d="M100,257.94a18.17,18.17,0,0,1,3.58-.51l1.76-.1a16.52,16.52,0,0,0,1.78-.18,3.68,3.68,0,0,1-1.64,1,8.29,8.29,0,0,1-1.83.33A9.12,9.12,0,0,1,100,257.94Z" style="fill: #fff"/>
      <path d="M102.1,256.54a4,4,0,0,1,1.72-.42,9.82,9.82,0,0,1,1.71.14,1.44,1.44,0,0,1-.75.65,2.51,2.51,0,0,1-.92.21A2.55,2.55,0,0,1,102.1,256.54Z" style="fill: #fff"/>
      <path d="M102,259a20.17,20.17,0,0,1,3.34-.54,26.39,26.39,0,0,1,3.37-.13,6.66,6.66,0,0,1-3.28,1.13A7.2,7.2,0,0,1,102,259Z" style="fill: #fff"/>
      <path d="M80.9,267.87c1,.59,1.87,1.22,2.78,1.77s1.83,1.05,2.82,1.69a5.3,5.3,0,0,1-3.35-.84A5.53,5.53,0,0,1,80.9,267.87Z" style="fill: #fff"/>
      <path d="M94.28,273a12.43,12.43,0,0,1,2.6,0,13,13,0,0,1,2.56.47,4.28,4.28,0,0,1-2.66.52A4.33,4.33,0,0,1,94.28,273Z" style="fill: #fff"/>
      <path d="M81.21,270c1.6.72,3.07,1.52,4.6,2.2s3.08,1.3,4.69,2a11.25,11.25,0,0,1-5.1-1.1A12,12,0,0,1,81.21,270Z" style="fill: #fff"/>
      <path d="M83.12,272.55c1.8.65,3.49,1.36,5.23,2s3.49,1.16,5.27,1.85a14.92,14.92,0,0,1-5.61-.91A13.8,13.8,0,0,1,83.12,272.55Z" style="fill: #fff"/>
      <path d="M80.52,272.49a35.63,35.63,0,0,0,5.23,2.64c1.79.74,3.66,1.27,5.56,1.94a14,14,0,0,1-5.93-1A11.33,11.33,0,0,1,80.52,272.49Z" style="fill: #fff"/>
      <path d="M92.93,278.14a7.9,7.9,0,0,1,2.36.15,8.6,8.6,0,0,1,2.24.7,3.74,3.74,0,0,1-2.43.28A4,4,0,0,1,92.93,278.14Z" style="fill: #fff"/>
      <path d="M94,275.28c2.54-.08,5,0,7.48-.21a58.87,58.87,0,0,0,7.39-1,17.94,17.94,0,0,1-7.33,2A22.55,22.55,0,0,1,94,275.28Z" style="fill: #fff"/>
      <path d="M102.14,276.54c2.09-.67,4.17-1.15,6.23-1.73s4.08-1.18,6.17-1.83a16.93,16.93,0,0,1-5.91,2.8A21.26,21.26,0,0,1,102.14,276.54Z" style="fill: #fff"/>
      <path d="M97.77,277.08a28.39,28.39,0,0,1,4.07-.3,37.24,37.24,0,0,1,4.07.09,9.39,9.39,0,0,1-4,.91A10.43,10.43,0,0,1,97.77,277.08Z" style="fill: #fff"/>
      <path d="M108,276.35a14.17,14.17,0,0,1,3.14-1.27,21.85,21.85,0,0,1,3.28-.71,6.83,6.83,0,0,1-3,1.67A8.19,8.19,0,0,1,108,276.35Z" style="fill: #fff"/>
      <path d="M101.74,278.65c2.12-.47,4.21-.8,6.27-1.25s4.09-1,6.19-1.52a16.25,16.25,0,0,1-6,2.49A18.58,18.58,0,0,1,101.74,278.65Z" style="fill: #fff"/>
      <path d="M89.32,280.24a65.36,65.36,0,0,0,11.17,2,61.61,61.61,0,0,0,11.35-.22,30,30,0,0,1-11.43,1.21A31.06,31.06,0,0,1,89.32,280.24Z" style="fill: #fff"/>
      <path d="M81,276.86c.9.31,1.59.69,2.33,1s1.45.62,2.29,1.05a3.45,3.45,0,0,1-2.71-.14A3.73,3.73,0,0,1,81,276.86Z" style="fill: #fff"/>
      <path d="M81.85,279.14c2.89,1.23,5.72,2.44,8.65,3.41s5.9,1.78,8.94,2.56a28.94,28.94,0,0,1-9.26-1.61A29.59,29.59,0,0,1,81.85,279.14Z" style="fill: #fff"/>
      <path d="M83.34,281.51c2.33.86,4.58,1.72,6.91,2.42s4.66,1.29,7,2a22.35,22.35,0,0,1-7.35-1A20.28,20.28,0,0,1,83.34,281.51Z" style="fill: #fff"/>
      <path d="M95.12,288.13a40.73,40.73,0,0,1,4.67-.1,33.83,33.83,0,0,1,4.66.36,13.89,13.89,0,0,1-4.69.64A13.06,13.06,0,0,1,95.12,288.13Z" style="fill: #fff"/>
      <path d="M102.66,286.64a7.13,7.13,0,0,1,5.22,0,7,7,0,0,1-5.22,0Z" style="fill: #fff"/>
      <path d="M84.43,283.94a13.78,13.78,0,0,1,2.81.86c.87.36,1.72.68,2.66,1.15a4.64,4.64,0,0,1-3-.22A5.75,5.75,0,0,1,84.43,283.94Z" style="fill: #fff"/>
      <path d="M104.82,281.46c1.35-.28,2.58-.48,3.83-.76s2.49-.58,3.85-.77a8.13,8.13,0,0,1-3.64,1.75A7.13,7.13,0,0,1,104.82,281.46Z" style="fill: #fff"/>
      <path d="M86.83,280.11a72.85,72.85,0,0,0,8.67,2.7,75.7,75.7,0,0,0,9,1.45,25.9,25.9,0,0,1-17.65-4.15Z" style="fill: #fff"/>
      <path d="M52.91,191.72c1.3.14,2.48.3,3.7.43a26.4,26.4,0,0,1,3.71.63,8.59,8.59,0,0,1-3.83.37A6.74,6.74,0,0,1,52.91,191.72Z" style="fill: #fff"/>
      <path d="M58.9,192.11a13.19,13.19,0,0,1,3-.65,26.5,26.5,0,0,1,3-.18,5.3,5.3,0,0,1-2.9,1.18A6.59,6.59,0,0,1,58.9,192.11Z" style="fill: #fff"/>
      <path d="M60.84,190.43A2.68,2.68,0,0,1,62,190a2,2,0,0,1,1.18.27A1.35,1.35,0,0,1,62,191,1.23,1.23,0,0,1,60.84,190.43Z" style="fill: #fff"/>
      <path d="M61.9,189.69a16.62,16.62,0,0,1,3-1.07c1-.27,1.94-.55,3-.76a5.33,5.33,0,0,1-2.77,1.72A6.46,6.46,0,0,1,61.9,189.69Z" style="fill: #fff"/>
      <path d="M54.54,189.19a3.24,3.24,0,0,1,1.32-.08,2.26,2.26,0,0,1,1.21.6,1.6,1.6,0,0,1-1.38.38A1.42,1.42,0,0,1,54.54,189.19Z" style="fill: #fff"/>
      <path d="M54.19,189.67c.45-.1.57-.16.72-.13s.3.15.57.52a.69.69,0,0,1-.82.45A.65.65,0,0,1,54.19,189.67Z" style="fill: #fff"/>
      <path d="M55,188.54c.44-.1.54-.16.69-.12s.24.17.45.57a.64.64,0,0,1-.79.37A.6.6,0,0,1,55,188.54Z" style="fill: #fff"/>
      <path d="M55.59,188.08c.36-.2.45-.24.49-.23a1.87,1.87,0,0,0,0,.51c-.13.4-.41.41-.54.34S55.36,188.42,55.59,188.08Z" style="fill: #fff"/>
      <path d="M54.3,194.52c1.68,0,3.26.06,4.86,0s3.18-.11,4.85-.07a11.39,11.39,0,0,1-4.84,1.07A10.77,10.77,0,0,1,54.3,194.52Z" style="fill: #fff"/>
      <path d="M56.32,193.37a5.32,5.32,0,0,1,4,0,3.34,3.34,0,0,1-2,.6A3.4,3.4,0,0,1,56.32,193.37Z" style="fill: #fff"/>
      <path d="M52.91,192.48a2.1,2.1,0,0,1,1-.11,1.56,1.56,0,0,1,.9.6,1.17,1.17,0,0,1-1.11.38A1,1,0,0,1,52.91,192.48Z" style="fill: #fff"/>
      <path d="M65.64,191.72a7,7,0,0,1,2-1.13,10.72,10.72,0,0,1,2.22-.6A3.46,3.46,0,0,1,68,191.53,4.08,4.08,0,0,1,65.64,191.72Z" style="fill: #fff"/>
      <path d="M67.77,191.59a2.87,2.87,0,0,1,1.12-.85,2.74,2.74,0,0,1,1.38-.2,1.73,1.73,0,0,1-2.5,1.05Z" style="fill: #fff"/>
      <path d="M57.84,194.07c2.21-.38,4.37-.62,6.48-1.08a36.17,36.17,0,0,0,6.24-1.93,12.93,12.93,0,0,1-6,2.91A17.52,17.52,0,0,1,57.84,194.07Z" style="fill: #fff"/>
      <path d="M57.33,186.62a7.9,7.9,0,0,1,2-.28,5,5,0,0,1,2,.36,3.39,3.39,0,0,1-2,.64A2.85,2.85,0,0,1,57.33,186.62Z" style="fill: #fff"/>
      <path d="M56.14,187.38a17,17,0,0,1,2.3-.14,6.27,6.27,0,0,1,2.32.42,4.2,4.2,0,0,1-2.34.58,4.5,4.5,0,0,1-1.2-.2A2.35,2.35,0,0,1,56.14,187.38Z" style="fill: #fff"/>
      <path d="M61.82,187.17a4.57,4.57,0,0,1,1.8-.86c.31-.07.61-.14.92-.18s.62-.07,1-.12a1.6,1.6,0,0,1-.71.84,3.07,3.07,0,0,1-.95.42A3.25,3.25,0,0,1,61.82,187.17Z" style="fill: #fff"/>
      <path d="M62.8,186.2a1.39,1.39,0,0,1,.83-.62,1.22,1.22,0,0,1,.43,0c.15,0,.3.07.55.13a.76.76,0,0,1-.27.6,1.08,1.08,0,0,1-.48.26A1.07,1.07,0,0,1,62.8,186.2Z" style="fill: #fff"/>
      <path d="M63,187.52a4.49,4.49,0,0,1,1.67-.85,4.92,4.92,0,0,1,1.85-.2A2.61,2.61,0,0,1,65,187.63,2.81,2.81,0,0,1,63,187.52Z" style="fill: #fff"/>
      <path d="M52.63,194.47a7.09,7.09,0,0,1,1.75.44,7.5,7.5,0,0,1,1.61.83,2.26,2.26,0,0,1-2,.11A2.3,2.3,0,0,1,52.63,194.47Z" style="fill: #fff"/>
      <path d="M60.32,195.81a3.77,3.77,0,0,1,1.37-.45,3,3,0,0,1,1.45.19,1.77,1.77,0,0,1-1.34.81A1.68,1.68,0,0,1,60.32,195.81Z" style="fill: #fff"/>
      <path d="M53,195.55a16.23,16.23,0,0,1,2.75.48,19.43,19.43,0,0,1,2.66.81,4.65,4.65,0,0,1-2.9.16A4.83,4.83,0,0,1,53,195.55Z" style="fill: #fff"/>
      <path d="M54.3,196.74a20.63,20.63,0,0,1,3,.29,16.06,16.06,0,0,1,3,.67,5.89,5.89,0,0,1-3.13.31A5.56,5.56,0,0,1,54.3,196.74Z" style="fill: #fff"/>
      <path d="M52.91,197c1.12.22,2.09.47,3.11.65a28.82,28.82,0,0,1,3.14.69,5.84,5.84,0,0,1-3.33.29A4.93,4.93,0,0,1,52.91,197Z" style="fill: #fff"/>
      <path d="M60.14,198.72a2.62,2.62,0,0,1,1.26-.37,2.23,2.23,0,0,1,1.29.35,1.56,1.56,0,0,1-1.26.64A1.45,1.45,0,0,1,60.14,198.72Z" style="fill: #fff"/>
      <path d="M60.42,197.08c1.34-.49,2.64-.76,3.93-1.11s2.54-.71,3.91-1.06a7.67,7.67,0,0,1-3.66,2A9.23,9.23,0,0,1,60.42,197.08Z" style="fill: #fff"/>
      <path d="M64.9,196.91a20.3,20.3,0,0,1,3-1.78,35.1,35.1,0,0,1,3.22-1.41A6.88,6.88,0,0,1,68.4,196,8.13,8.13,0,0,1,64.9,196.91Z" style="fill: #fff"/>
      <path d="M62.61,197.65a6.56,6.56,0,0,1,2.11-.81A7,7,0,0,1,67,196.7a3.62,3.62,0,0,1-2,1.12A3.84,3.84,0,0,1,62.61,197.65Z" style="fill: #fff"/>
      <path d="M68,196.19a3.94,3.94,0,0,1,1.44-1.2,4.58,4.58,0,0,1,1.79-.52,2.67,2.67,0,0,1-1.33,1.41A3,3,0,0,1,68,196.19Z" style="fill: #fff"/>
      <path d="M64.91,198.08A23.73,23.73,0,0,1,68,196.55a34.34,34.34,0,0,1,3.25-1.25,6.71,6.71,0,0,1-2.86,2.17A7.44,7.44,0,0,1,64.91,198.08Z" style="fill: #fff"/>
      <path d="M58.42,200.22c2.11-.05,4.14-.07,6.17-.31a60.84,60.84,0,0,0,6.07-1.06,13.83,13.83,0,0,1-6,2.06A14.06,14.06,0,0,1,58.42,200.22Z" style="fill: #fff"/>
      <path d="M53.63,199.27a3.81,3.81,0,0,1,1.4.08,4.4,4.4,0,0,1,1.29.54,1.52,1.52,0,0,1-1.52.43A1.61,1.61,0,0,1,53.63,199.27Z" style="fill: #fff"/>
      <path d="M54.31,200.4c1.73.19,3.36.5,5,.71s3.3.38,5,.67a13.08,13.08,0,0,1-10-1.38Z" style="fill: #fff"/>
      <path d="M55.35,201.52c1.39,0,2.67.23,4,.35s2.6.26,4,.56a8.94,8.94,0,0,1-4.07.43A8.43,8.43,0,0,1,55.35,201.52Z" style="fill: #fff"/>
      <path d="M62.34,203.84a8.4,8.4,0,0,1,2.46-.76,8.06,8.06,0,0,1,2.56-.07,4.88,4.88,0,0,1-2.4,1.05A4.82,4.82,0,0,1,62.34,203.84Z" style="fill: #fff"/>
      <path d="M66.23,202.26a2.25,2.25,0,0,1,2.79-.55,2.29,2.29,0,0,1-2.79.55Z" style="fill: #fff"/>
      <path d="M56.19,202.71a3.51,3.51,0,0,1,1.63-.06,4.74,4.74,0,0,1,1.51.57,2,2,0,0,1-1.69.42A2.19,2.19,0,0,1,56.19,202.71Z" style="fill: #fff"/>
      <path d="M66.85,199.27a10,10,0,0,1,1.88-1,7.62,7.62,0,0,1,2.07-.6,3.19,3.19,0,0,1-1.68,1.52A3,3,0,0,1,66.85,199.27Z" style="fill: #fff"/>
      <path d="M57.07,200.4c1.71.1,3.31.28,4.94.33s3.23,0,4.94.07a11.47,11.47,0,0,1-9.88-.4Z" style="fill: #fff"/>
      <path d="M206.65,53a1.33,1.33,0,0,1,.45-.89,2.59,2.59,0,0,1,.77-.53,2.62,2.62,0,0,1,1.84-.13,3.66,3.66,0,0,1-1.43,1c-.26.1-.5.2-.77.28Z" style="fill: #fff"/>
      <path d="M207.68,51.31c1.19-1.15,2.44-2.1,3.63-3.12s2.35-2,3.59-3.12A9.82,9.82,0,0,1,212,49,12.15,12.15,0,0,1,207.68,51.31Z" style="fill: #fff"/>
      <path d="M197.31,54.94a10.24,10.24,0,0,1,1.81-.62,4.6,4.6,0,0,1,1.95-.11,3,3,0,0,1-1.73,1.08A2.33,2.33,0,0,1,197.31,54.94Z" style="fill: #fff"/>
      <path d="M197.1,55.85a4.87,4.87,0,0,1,.94-.33,2.16,2.16,0,0,1,1,.14,1,1,0,0,1-.9.85A.94.94,0,0,1,197.1,55.85Z" style="fill: #fff"/>
      <path d="M197.6,53.7a3.06,3.06,0,0,1,.88-.29,1.82,1.82,0,0,1,.93.29.94.94,0,0,1-.89.71A.87.87,0,0,1,197.6,53.7Z" style="fill: #fff"/>
      <path d="M198.12,52.7c.3-.31.4-.37.5-.37s.13.12.35.48c-.06.42-.32.53-.51.51S198.1,53.12,198.12,52.7Z" style="fill: #fff"/>
      <path d="M200,62.86c2.34-.79,4.6-1.59,6.79-2.58s4.3-2.13,6.5-3.26a20,20,0,0,1-6.1,4.17A18.1,18.1,0,0,1,200,62.86Z" style="fill: #fff"/>
      <path d="M202.07,60c1-.4,2-.61,2.88-1a13,13,0,0,0,2.63-1.37,3,3,0,0,1-.86,1.41,4.23,4.23,0,0,1-1.42.9A4.72,4.72,0,0,1,202.07,60Z" style="fill: #fff"/>
      <path d="M199.71,49.53c.93-.52,1.78-.93,2.69-1.34a12.4,12.4,0,0,1,2.89-.94,6.46,6.46,0,0,1-2.49,1.86A5,5,0,0,1,199.71,49.53Z" style="fill: #fff"/>
      <path d="M198.49,51.35c1.13-.42,2.11-.87,3.17-1.3A16.59,16.59,0,0,1,205,49a8.2,8.2,0,0,1-3,2,7.2,7.2,0,0,1-1.72.48A3.87,3.87,0,0,1,198.49,51.35Z" style="fill: #fff"/>
      <path d="M206.16,47.68a11.52,11.52,0,0,1,2.14-2.11l1.15-.88c.39-.29.77-.57,1.18-.92a2.82,2.82,0,0,1-.62,1.46,6,6,0,0,1-1.08,1.12A6.55,6.55,0,0,1,206.16,47.68Z" style="fill: #fff"/>
      <path d="M207,45.67a2.79,2.79,0,0,1,.93-1.16,4.69,4.69,0,0,1,1.27-.65,1.13,1.13,0,0,1-.15.85,2.15,2.15,0,0,1-.52.6A1.91,1.91,0,0,1,207,45.67Z" style="fill: #fff"/>
      <path d="M208,47.48a12.06,12.06,0,0,1,2-2,13.68,13.68,0,0,1,2.28-1.63,5,5,0,0,1-1.64,2.39A5.29,5.29,0,0,1,208,47.48Z" style="fill: #fff"/>
      <path d="M197.62,63.78c1-.1,1.81-.06,2.66-.1s1.68-.08,2.66,0a3.83,3.83,0,0,1-2.63,1A4,4,0,0,1,197.62,63.78Z" style="fill: #fff"/>
      <path d="M208.93,61.18A14.6,14.6,0,0,1,210.72,60a12.3,12.3,0,0,1,1.92-.91,2.89,2.89,0,0,1-1.43,1.79A2.84,2.84,0,0,1,208.93,61.18Z" style="fill: #fff"/>
      <path d="M198.75,65.14c1.41-.29,2.75-.42,4.08-.65s2.63-.48,4.06-.68A8.15,8.15,0,0,1,203,65.48,8.57,8.57,0,0,1,198.75,65.14Z" style="fill: #fff"/>
      <path d="M201.19,66.11c1.51-.42,2.94-.72,4.38-1.1s2.86-.79,4.4-1.08a10.48,10.48,0,0,1-4.15,2A9.8,9.8,0,0,1,201.19,66.11Z" style="fill: #fff"/>
      <path d="M199.41,67.29a33.55,33.55,0,0,0,4.69-.62c1.52-.31,3-.78,4.63-1.14a10.31,10.31,0,0,1-4.43,2.12A8.17,8.17,0,0,1,199.41,67.29Z" style="fill: #fff"/>
      <path d="M210.29,65.54a6.64,6.64,0,0,1,1.63-1,5.5,5.5,0,0,1,1.86-.54,2.74,2.74,0,0,1-1.44,1.44A2.56,2.56,0,0,1,210.29,65.54Z" style="fill: #fff"/>
      <path d="M209.77,63c1.66-1.31,3.34-2.46,4.93-3.74s3.09-2.63,4.61-4.08a13.8,13.8,0,0,1-4,4.86A16.72,16.72,0,0,1,209.77,63Z" style="fill: #fff"/>
      <path d="M215.82,60.07c1.07-1.51,2.25-2.85,3.38-4.23s2.24-2.75,3.44-4.16a13.35,13.35,0,0,1-2.67,4.8A16.21,16.21,0,0,1,215.82,60.07Z" style="fill: #fff"/>
      <path d="M213.09,62.5a18.46,18.46,0,0,1,2.57-2.18,20.55,20.55,0,0,1,2.85-1.78,6.91,6.91,0,0,1-2.26,2.59A7.48,7.48,0,0,1,213.09,62.5Z" style="fill: #fff"/>
      <path d="M219.72,57.16a9.47,9.47,0,0,1,1.49-2.42,12.56,12.56,0,0,1,2-2A5.22,5.22,0,0,1,222,55.36,6,6,0,0,1,219.72,57.16Z" style="fill: #fff"/>
      <path d="M216.48,61.77c1.19-1.39,2.44-2.61,3.63-3.91s2.33-2.6,3.58-3.93a12.87,12.87,0,0,1-2.85,4.62A14.24,14.24,0,0,1,216.48,61.77Z" style="fill: #fff"/>
      <path d="M208.77,68.75a54.52,54.52,0,0,0,8.45-3.89,56.12,56.12,0,0,0,7.58-5.38,23.9,23.9,0,0,1-16,9.27Z" style="fill: #fff"/>
      <path d="M201.67,70.2a13.31,13.31,0,0,1,2-.43,17.31,17.31,0,0,1,2-.25,2.56,2.56,0,0,1-1.87,1.23A2.66,2.66,0,0,1,201.67,70.2Z" style="fill: #fff"/>
      <path d="M203.24,71.46c2.5-.53,4.94-1,7.34-1.67s4.76-1.47,7.18-2.28a22.22,22.22,0,0,1-14.52,3.95Z" style="fill: #fff"/>
      <path d="M205.29,72.47c2-.53,3.85-1,5.72-1.57s3.71-1.24,5.66-1.81a16,16,0,0,1-5.37,2.76A14.58,14.58,0,0,1,205.29,72.47Z" style="fill: #fff"/>
      <path d="M216.18,71.71a23.7,23.7,0,0,1,3.06-2.32,20.92,20.92,0,0,1,3.36-1.87,9.79,9.79,0,0,1-2.82,2.7A9.46,9.46,0,0,1,216.18,71.71Z" style="fill: #fff"/>
      <path d="M220.62,67.1a6.6,6.6,0,0,1,1.61-1.46,8.8,8.8,0,0,1,1.91-1,3.08,3.08,0,0,1-1.35,1.83A3.48,3.48,0,0,1,220.62,67.1Z" style="fill: #fff"/>
      <path d="M207.1,73.7a8.85,8.85,0,0,1,2.26-.76,15.27,15.27,0,0,1,2.33-.35,3.39,3.39,0,0,1-2.12,1.33A4,4,0,0,1,207.1,73.7Z" style="fill: #fff"/>
      <path d="M219.8,62.35c.75-.89,1.48-1.61,2.2-2.4a26.65,26.65,0,0,1,2.32-2.31,6.26,6.26,0,0,1-1.59,3A5.53,5.53,0,0,1,219.8,62.35Z" style="fill: #fff"/>
      <path d="M207,69.82a63.55,63.55,0,0,0,7.05-2.2c2.29-.87,4.47-2,6.72-3.09a18.64,18.64,0,0,1-6.36,4A18.1,18.1,0,0,1,207,69.82Z" style="fill: #fff"/>
      <path d="M188.66,66.31c-.89.73-1.79,1.42-2.62,2.16a12.6,12.6,0,0,0-1.16,1.15,3,3,0,0,0-.73,1.19c0,.16,0,.13.1.25a1.66,1.66,0,0,0,.61.23,7.38,7.38,0,0,0,1.59.17c1.1,0,2.23,0,3.38-.1a11.59,11.59,0,0,1-3.35.88,6.87,6.87,0,0,1-1.81,0,2.27,2.27,0,0,1-1-.36,1.36,1.36,0,0,1-.46-.51,1.66,1.66,0,0,1-.09-.37c0-.11,0-.22,0-.33a3.56,3.56,0,0,1,1-1.67,10.18,10.18,0,0,1,1.37-1.12A12.85,12.85,0,0,1,188.66,66.31Z" style="fill: #fff"/>
      <path d="M230.85,46.36a12.81,12.81,0,0,1,3.29-1.07,9.29,9.29,0,0,1,1.76-.16,3.64,3.64,0,0,1,1.91.47,2.61,2.61,0,0,1,.24.23,1.77,1.77,0,0,1,.19.33,1.34,1.34,0,0,1,0,.68,2.42,2.42,0,0,1-.45.94,6.7,6.7,0,0,1-1.27,1.28,11.72,11.72,0,0,1-3,1.72c.85-.77,1.71-1.51,2.48-2.3a7.65,7.65,0,0,0,1-1.23,1.77,1.77,0,0,0,.27-.59c0-.18,0-.15-.1-.25a3.08,3.08,0,0,0-1.36-.34c-.53,0-1.08,0-1.64,0C233.11,46.12,232,46.25,230.85,46.36Z" style="fill: #fff"/>
      <path d="M187,69.09a24.29,24.29,0,0,1,5.34-5.56,21.71,21.71,0,0,1,6.81-3.59c-2.13,1.45-4.21,2.84-6.21,4.39S189.07,67.49,187,69.09Z" style="fill: #fff"/>
      <path d="M235.62,47.25c-2.55.37-5.06.6-7.55,1s-4.93.92-7.45,1.46a21.43,21.43,0,0,1,7.3-2.45A24.85,24.85,0,0,1,235.62,47.25Z" style="fill: #fff"/>
      <path d="M170.65,243.67c-.46-.21-.44-.89-.18-1.33a7.37,7.37,0,0,0,.85-1.24,2.56,2.56,0,0,0,0-1.2,3.1,3.1,0,0,0-.54-1.67,2.7,2.7,0,0,0-1.28-.76,12.58,12.58,0,0,0-3.64-.72,2,2,0,0,1-1.45-.46c-.33-.4-.26-1-.59-1.42-.17-.21-.43-.33-.58-.55a1.52,1.52,0,0,1-.17-1,.85.85,0,0,1,.13-.47,1,1,0,0,1,.49-.27,4.73,4.73,0,0,0,1.45-.78,10.84,10.84,0,0,1,1-.79c.57-.34,1.25-.45,1.81-.8,1-.64,1.69-2.34.28-2.86a8.84,8.84,0,0,1-1.7-.74,2.52,2.52,0,0,1-1.16-1.39" style="fill: none;stroke: #fff;stroke-miterlimit: 10"/>
      <path d="M175.33,225a.89.89,0,0,0,.15,1.16c.25.21.61.27.81.52a1,1,0,0,1-.11,1.15c-.25.34-.6.58-.84.92a4.24,4.24,0,0,0-.12,3.45c.3.54.9,1,.8,1.64a1.91,1.91,0,0,1-.18.47l-1.08,2.06a4.42,4.42,0,0,0-.5,1.26,3.61,3.61,0,0,0,.14,1.66,7.89,7.89,0,0,0,1,2.15,1.67,1.67,0,0,0,1.26.88" style="fill: none;stroke: #fff;stroke-miterlimit: 10"/>
      <path d="M179.8,229.52h-1.26a.66.66,0,0,0-.34.06c-.28.15-.24.55-.29.86a3.28,3.28,0,0,1-.62,1.22A1.52,1.52,0,0,0,177,233a2.42,2.42,0,0,0,1.07.06,1.86,1.86,0,0,1,1.07,0,1.33,1.33,0,0,1,.43.42,1.54,1.54,0,0,0,.62.57.55.55,0,0,0,.71-.26" style="fill: none;stroke: #fff;stroke-miterlimit: 10"/>
      <path d="M171.3,223.92a2,2,0,0,1-.26,1.7,3.34,3.34,0,0,0-.48.44c-.17.28-.09.67-.26.95a1.19,1.19,0,0,1-.34.33,1.57,1.57,0,0,1-1.4.45,2.45,2.45,0,0,1-.45-.29c-.48-.35-1.06-.55-1.57-.85a2.15,2.15,0,0,1-1.11-1.35" style="fill: none;stroke: #fff;stroke-miterlimit: 10"/>
      <path d="M246.65,153.71a6.25,6.25,0,0,1,2.54-.65,6.44,6.44,0,0,1,2.61.35,6.1,6.1,0,0,1-2.55.65A6.35,6.35,0,0,1,246.65,153.71Z" style="fill: #fff"/>
    </g>
  </g>
</svg>
