<svg id="Layer_2" data-name="Layer 2" xmlns="http://www.w3.org/2000/svg" viewBox="0 0 300 300">
  
  <g>
    <path d="M120.43,175.78C107.92,161.11,22.63,58.32,46.51,11.14a5.38,5.38,0,0,1,4.37-2.91c46.58-3.82,84.44,65.36,122.35,133.36a3.16,3.16,0,0,0,2.91,1.6c7.3-.38,33.88.12,54.71,24.83C251,192,256.41,223,257.66,233a3.31,3.31,0,0,1-3.77,3.7c-3.57-.53-9-3.48-14.36-14.62C230.83,204,209.7,194.87,201,198.6a1.37,1.37,0,0,0-.67,1.82l6.27,13.8a1,1,0,0,1-.38,1.3l-11.16,7.31,21.1,36.31a3.63,3.63,0,0,1,.36,2.86h0a2.9,2.9,0,0,1-3.07,2.08h0a3.65,3.65,0,0,1-2.59-1.47l-25-33.78-10.69,7a1,1,0,0,1-1.33-.16L163,224a1.37,1.37,0,0,0-2.13.16c-3,4.53-11,20.09,3.8,42.24,9.4,14.09,10.92,20.5,10.29,23.42a2.79,2.79,0,0,1-4.08,1.75c-6.58-3.54-36.59-21.1-50.73-53.8-13.32-30.8-3.1-52.18.62-58.38A3.12,3.12,0,0,0,120.43,175.78Z" style="fill: none;stroke: #fff;stroke-miterlimit: 10;stroke-width: 2px"/>
    <path d="M124.51,179.58l8.54,10.19c2.86,3.38,5.7,6.78,8.61,10.12s5.76,6.72,8.65,10.08L159,220c-1.6-1.53-3.14-3.12-4.7-4.7l-4.56-4.85c-3-3.26-5.93-6.6-8.84-9.95s-5.7-6.79-8.45-10.28S127,183.24,124.51,179.58Z" style="fill: #fff"/>
    <path d="M175.69,214.54q-10.56-13.42-20.83-27.07L144.63,173.8,144,173c-.21-.31-.46-.63-.64-1a11.22,11.22,0,0,1-1-2.1,11.52,11.52,0,0,1,.56-9.06,9,9,0,0,1,3.08-3.58,8.79,8.79,0,0,1,4.52-1.47A11.64,11.64,0,0,1,159,159a12.1,12.1,0,0,1,1.5,1.77c.45.67.78,1.29,1.13,1.9l8.4,14.87q8.37,14.88,16.41,30-9.06-14.49-17.76-29.18L160,163.64c-.37-.61-.72-1.24-1.07-1.76a10.4,10.4,0,0,0-1.26-1.47,9.83,9.83,0,0,0-3.26-2,9.63,9.63,0,0,0-3.79-.6,6.81,6.81,0,0,0-3.5,1.15,7,7,0,0,0-2.42,2.81,9.55,9.55,0,0,0-.51,7.53A9.61,9.61,0,0,0,145,171c.16.29.35.54.53.82l.63.86,10,13.87Q166.07,200.43,175.69,214.54Z" style="fill: #fff"/>
    <circle cx="97.75" cy="83.39" r="24.04" style="fill: none;stroke: #fff;stroke-miterlimit: 10;stroke-width: 2px"/>
    <path d="M107,97.5a16.86,16.86,0,1,1,4.88-23.35A16.88,16.88,0,0,1,107,97.5Z" style="fill: none;stroke: #fff;stroke-miterlimit: 10;stroke-width: 2px"/>
    <circle cx="123.56" cy="122.85" r="10.62" style="fill: none;stroke: #fff;stroke-miterlimit: 10"/>
    <path d="M127.81,129.34a7.76,7.76,0,1,1,2.24-10.74A7.77,7.77,0,0,1,127.81,129.34Z" style="fill: none;stroke: #fff;stroke-miterlimit: 10"/>
    <path d="M42.91,39.39A58.94,58.94,0,0,1,59.4,23.11a46.13,46.13,0,0,1,21.23-7.48" style="fill: none;stroke: #fff;stroke-miterlimit: 10;stroke-width: 2px"/>
    <path d="M55.88,79.62s3.95-15.77,22-27.56,34.57-7.67,34.57-7.67" style="fill: none;stroke: #fff;stroke-miterlimit: 10;stroke-width: 2px"/>
    <line x1="107.04" y1="159.35" x2="162.79" y2="122.89" style="fill: none;stroke: #fff;stroke-miterlimit: 10;stroke-width: 2px"/>
    <line x1="116.27" y1="170.82" x2="169.95" y2="135.7" style="fill: none;stroke: #fff;stroke-miterlimit: 10;stroke-width: 2px"/>
    <path d="M137.46,192.56a29.91,29.91,0,0,1,2-3.4,35,35,0,0,1,2.4-3.16,37.15,37.15,0,0,1,2.74-2.87,28.56,28.56,0,0,1,3.07-2.52L145,183.53c-.86,1-1.74,2-2.58,3s-1.67,2-2.51,3Z" style="fill: #fff"/>
    <path d="M167,168a29.48,29.48,0,0,1,3.63-1.5,34.63,34.63,0,0,1,3.78-1.05,36.27,36.27,0,0,1,3.87-.63,30.18,30.18,0,0,1,3.92-.19c-1.28.28-2.56.51-3.83.76s-2.54.51-3.8.79-2.52.58-3.78.87Z" style="fill: #fff"/>
    <circle cx="56.52" cy="68.24" r="0.98" style="fill: none;stroke: #fff;stroke-miterlimit: 10"/>
    <circle cx="61.53" cy="60.89" r="0.98" style="fill: none;stroke: #fff;stroke-miterlimit: 10"/>
    <circle cx="67.57" cy="54.61" r="0.98" style="fill: none;stroke: #fff;stroke-miterlimit: 10"/>
    <circle cx="74.75" cy="48.74" r="0.98" style="fill: none;stroke: #fff;stroke-miterlimit: 10"/>
    <circle cx="82.79" cy="44.65" r="0.98" style="fill: none;stroke: #fff;stroke-miterlimit: 10"/>
    <circle cx="90.7" cy="41.81" r="0.98" style="fill: none;stroke: #fff;stroke-miterlimit: 10"/>
    <circle cx="99.27" cy="40.01" r="0.98" style="fill: none;stroke: #fff;stroke-miterlimit: 10"/>
    <circle cx="115.77" cy="162.25" r="0.98" style="fill: none;stroke: #fff;stroke-miterlimit: 10"/>
    <circle cx="120.83" cy="158.94" r="0.98" style="fill: none;stroke: #fff;stroke-miterlimit: 10"/>
    <circle cx="126" cy="155.56" r="0.98" style="fill: none;stroke: #fff;stroke-miterlimit: 10"/>
    <circle cx="131.12" cy="152.21" r="0.98" style="fill: none;stroke: #fff;stroke-miterlimit: 10"/>
    <circle cx="136.39" cy="148.76" r="0.98" style="fill: none;stroke: #fff;stroke-miterlimit: 10"/>
    <circle cx="141.6" cy="145.35" r="0.98" style="fill: none;stroke: #fff;stroke-miterlimit: 10"/>
    <circle cx="146.81" cy="141.94" r="0.98" style="fill: none;stroke: #fff;stroke-miterlimit: 10"/>
    <circle cx="152.02" cy="138.53" r="0.98" style="fill: none;stroke: #fff;stroke-miterlimit: 10"/>
    <circle cx="157.27" cy="135.1" r="0.98" style="fill: none;stroke: #fff;stroke-miterlimit: 10"/>
    <circle cx="162.45" cy="131.71" r="0.98" style="fill: none;stroke: #fff;stroke-miterlimit: 10"/>
    <path d="M123.24,183.76l4,5c1.32,1.66,2.64,3.3,4,4.92,2.7,3.26,5.38,6.52,8.15,9.71s5.52,6.4,8.31,9.57c1.4,1.59,2.81,3.16,4.23,4.73l4.26,4.7c-1.58-1.41-3.09-2.89-4.62-4.37s-3-3-4.44-4.54c-2.92-3.07-5.72-6.25-8.5-9.44s-5.42-6.51-8-9.88S125.53,187.33,123.24,183.76Z" style="fill: #fff"/>
    <path d="M121.46,188.09l8.14,9.72c2.73,3.23,5.43,6.47,8.21,9.65s5.5,6.42,8.26,9.62l8.29,9.6c-1.53-1.46-3-3-4.5-4.48l-4.36-4.61c-2.89-3.1-5.67-6.29-8.45-9.48s-5.44-6.48-8.05-9.81S123.84,191.59,121.46,188.09Z" style="fill: #fff"/>
    <path d="M120.18,192l8.14,9.72c2.73,3.23,5.43,6.47,8.21,9.65s5.5,6.42,8.26,9.62l8.28,9.6c-1.53-1.46-3-3-4.49-4.48l-4.37-4.61c-2.88-3.1-5.66-6.29-8.44-9.48s-5.44-6.48-8.05-9.81S122.56,195.48,120.18,192Z" style="fill: #fff"/>
    <path d="M119.26,196.43l8.14,9.72c2.73,3.23,5.43,6.47,8.21,9.65s5.5,6.42,8.26,9.62l8.29,9.6c-1.54-1.46-3-3-4.5-4.48l-4.37-4.61c-2.88-3.1-5.66-6.29-8.44-9.48s-5.44-6.48-8-9.81S121.64,199.93,119.26,196.43Z" style="fill: #fff"/>
    <path d="M118.48,201.1l8.14,9.72c2.73,3.22,5.44,6.47,8.22,9.65s5.5,6.41,8.25,9.61l8.29,9.6c-1.53-1.46-3-3-4.5-4.47l-4.36-4.61c-2.88-3.1-5.66-6.29-8.44-9.48s-5.44-6.48-8.05-9.82S120.87,204.59,118.48,201.1Z" style="fill: #fff"/>
    <path d="M119.08,206.94c1.31,1.67,2.59,3.36,3.91,5s2.62,3.32,4,5c2.67,3.28,5.33,6.55,8.1,9.75s5.51,6.4,8.33,9.55c1.4,1.58,2.83,3.14,4.27,4.69s2.89,3.09,4.33,4.64c-3.2-2.78-6.22-5.75-9.17-8.8s-5.74-6.23-8.52-9.44-5.4-6.53-7.94-9.92S121.34,210.53,119.08,206.94Z" style="fill: #fff"/>
    <path d="M119,212.68c1.31,1.67,2.58,3.36,3.91,5s2.61,3.33,3.94,5c2.66,3.28,5.32,6.56,8.09,9.76s5.5,6.41,8.32,9.56q2.11,2.36,4.29,4.67l2.16,2.32,2.19,2.3c-3.22-2.76-6.25-5.72-9.2-8.77s-5.75-6.23-8.52-9.43-5.39-6.55-7.93-9.94S121.26,216.27,119,212.68Z" style="fill: #fff"/>
    <path d="M120.22,219.94c1.4,1.77,2.78,3.56,4.2,5.31s2.82,3.53,4.25,5.27c2.86,3.49,5.71,7,8.67,10.4s5.87,6.85,8.85,10.23q2.24,2.55,4.54,5c1.5,1.69,3.07,3.31,4.62,5-3.41-3-6.61-6.19-9.72-9.47s-6.1-6.68-9-10.1-5.77-7-8.51-10.57S122.67,223.74,120.22,219.94Z" style="fill: #fff"/>
    <path d="M122.59,228.46c2.74,4,5.68,7.92,8.73,11.71s6.19,7.52,9.46,11.12,6.56,7.19,10,10.65c1.71,1.73,3.45,3.43,5.24,5.08s3.62,3.25,5.52,4.79a90,90,0,0,1-11.3-9.32c-3.54-3.36-6.9-6.92-10.18-10.53s-6.38-7.41-9.32-11.32A110.27,110.27,0,0,1,122.59,228.46Z" style="fill: #fff"/>
    <path d="M125.38,238.58a141.48,141.48,0,0,0,8.91,11.63c3.15,3.73,6.39,7.38,9.78,10.9s6.8,7,10.33,10.39c1.77,1.69,3.55,3.36,5.39,5s3.69,3.21,5.6,4.74a105.39,105.39,0,0,1-11.51-9.14c-3.65-3.28-7.13-6.74-10.53-10.27s-6.61-7.25-9.65-11.11l-2.24-2.92-2.16-3-2-3.07C126.62,240.68,126,239.63,125.38,238.58Z" style="fill: #fff"/>
    <g>
      <path d="M175.32,146.34c2.35,3.77,4.51,7.64,6.6,11.55s4.07,7.89,6,11.86,3.79,8,5.57,12.08l2.61,6.12c.83,2.06,1.67,4.11,2.43,6.2l-5.74-12c-1.92-4-3.8-8-5.77-12s-3.87-8-5.82-11.95Z" style="fill: #fff"/>
      <path d="M179.67,146.85c2.34,3.53,4.48,7.19,6.54,10.89s4,7.48,5.85,11.28,3.6,7.66,5.25,11.57c.81,1.95,1.61,3.91,2.38,5.88s1.49,4,2.15,6l-2.6-5.79c-.87-1.93-1.74-3.85-2.64-5.76-1.78-3.83-3.56-7.67-5.44-11.45s-3.72-7.58-5.63-11.35q-1.42-2.83-2.9-5.64Z" style="fill: #fff"/>
      <path d="M184.34,147c2.25,3.59,4.32,7.28,6.33,11s3.89,7.52,5.77,11.31,3.62,7.65,5.3,11.53l2.48,5.85c.78,2,1.57,3.92,2.3,5.91L201,181.11c-1.82-3.81-3.62-7.63-5.5-11.41s-3.69-7.6-5.55-11.4Z" style="fill: #fff"/>
      <path d="M188.42,147.33c2.25,3.59,4.32,7.28,6.33,11s3.89,7.51,5.77,11.3,3.62,7.66,5.3,11.54L208.3,187c.78,2,1.57,3.93,2.3,5.92l-5.48-11.44c-1.82-3.81-3.62-7.64-5.5-11.42s-3.69-7.6-5.55-11.39Z" style="fill: #fff"/>
      <path d="M192.87,148.28c2.25,3.58,4.32,7.27,6.33,11s3.88,7.52,5.77,11.31,3.61,7.65,5.3,11.53l2.47,5.84c.78,2,1.58,3.93,2.3,5.92l-5.47-11.44c-1.83-3.81-3.63-7.64-5.5-11.42s-3.7-7.6-5.56-11.39Z" style="fill: #fff"/>
      <path d="M197.45,149.44c2.25,3.58,4.32,7.27,6.33,11s3.89,7.52,5.77,11.31,3.62,7.65,5.3,11.53l2.48,5.84c.78,2,1.57,3.93,2.3,5.92l-5.48-11.44c-1.82-3.81-3.62-7.63-5.5-11.42s-3.69-7.6-5.55-11.39Z" style="fill: #fff"/>
      <path d="M202.57,152.33c2.38,3.5,4.56,7.14,6.64,10.83s4,7.47,5.91,11.26,3.62,7.66,5.23,11.58,3.13,7.88,4.39,11.93c-.84-2-1.64-3.9-2.51-5.83s-1.7-3.87-2.58-5.79c-1.76-3.84-3.54-7.68-5.42-11.46s-3.75-7.57-5.69-11.33q-1.44-2.82-3-5.61C204.61,156,203.57,154.19,202.57,152.33Z" style="fill: #fff"/>
      <path d="M207.86,154.56c2.39,3.5,4.57,7.14,6.66,10.82s4,7.46,5.93,11.25,3.62,7.67,5.23,11.59,3.12,7.89,4.35,11.95l-1.22-2.93-1.26-2.92c-.84-1.94-1.69-3.87-2.57-5.79-1.75-3.85-3.53-7.68-5.42-11.46s-3.76-7.57-5.71-11.32c-1-1.88-2-3.75-3-5.6S208.86,156.43,207.86,154.56Z" style="fill: #fff"/>
      <path d="M214,158.57c2.5,3.77,4.79,7.68,7,11.63s4.25,8,6.28,12,3.87,8.17,5.63,12.34,3.42,8.38,4.78,12.69c-.89-2.07-1.75-4.16-2.69-6.21s-1.83-4.13-2.79-6.17c-1.9-4.09-3.81-8.18-5.83-12.22s-4-8.08-6-12.1q-1.54-3-3.13-6C216.18,162.55,215.08,160.57,214,158.57Z" style="fill: #fff"/>
      <path d="M220.88,164.16a110.36,110.36,0,0,1,7.91,12.33c2.39,4.26,4.55,8.64,6.63,13.07s3.91,8.95,5.57,13.55a88.6,88.6,0,0,1,4,14.08c-.64-2.35-1.34-4.68-2.18-7s-1.65-4.58-2.55-6.84c-1.8-4.52-3.7-9-5.76-13.41s-4.15-8.8-6.4-13.11S223.48,168.29,220.88,164.16Z" style="fill: #fff"/>
      <path d="M229,170.77c.72,1,1.43,2,2.13,3l2,3.09L235,180l1.78,3.22c2.31,4.33,4.36,8.8,6.31,13.29s3.66,9.11,5.19,13.77a104.33,104.33,0,0,1,3.76,14.21c-.63-2.37-1.3-4.72-2.09-7s-1.56-4.64-2.4-6.93c-1.68-4.59-3.44-9.14-5.38-13.63s-3.92-8.94-6.07-13.33A140.39,140.39,0,0,0,229,170.77Z" style="fill: #fff"/>
    </g>
    <path d="M86.6,74.79a14.27,14.27,0,1,1,2.5,20" style="fill: none;stroke: #fff;stroke-miterlimit: 10;stroke-width: 0.25px"/>
    <path d="M86.69,76.72a13.1,13.1,0,1,1,4.33,18" style="fill: none;stroke: #fff;stroke-miterlimit: 10;stroke-width: 0.25px"/>
    <path d="M89.24,75.3a11.94,11.94,0,1,1,.37,16.88" style="fill: none;stroke: #fff;stroke-miterlimit: 10;stroke-width: 0.25px"/>
    <path d="M87.91,79.49a10.75,10.75,0,1,1,5.88,14" style="fill: none;stroke: #fff;stroke-miterlimit: 10;stroke-width: 0.25px"/>
    <path d="M88.27,82.05a9.71,9.71,0,1,1,8.09,11.1" style="fill: none;stroke: #fff;stroke-miterlimit: 10;stroke-width: 0.25px"/>
    <path d="M90.35,79.61a8.49,8.49,0,1,1,3.56,11.46" style="fill: none;stroke: #fff;stroke-miterlimit: 10;stroke-width: 0.25px"/>
    <path d="M91,81.23a7.24,7.24,0,1,1,4.52,9.18" style="fill: none;stroke: #fff;stroke-miterlimit: 10;stroke-width: 0.25px"/>
    <path d="M93.07,79.83a6.07,6.07,0,1,1,1.06,8.52" style="fill: none;stroke: #fff;stroke-miterlimit: 10;stroke-width: 0.25px"/>
    <path d="M94.85,79.81a4.81,4.81,0,1,1-.73,6.76" style="fill: none;stroke: #fff;stroke-miterlimit: 10;stroke-width: 0.25px"/>
    <path d="M94.31,82.5a3.7,3.7,0,1,1,2.5,4.61" style="fill: none;stroke: #fff;stroke-miterlimit: 10;stroke-width: 0.25px"/>
    <path d="M95.83,81.92a2.61,2.61,0,1,1,.39,3.67" style="fill: none;stroke: #fff;stroke-miterlimit: 10;stroke-width: 0.25px"/>
    <path d="M97,82.17a1.63,1.63,0,1,1-.53,2.24" style="fill: none;stroke: #fff;stroke-miterlimit: 10;stroke-width: 0.25px"/>
    <path d="M97.35,83.16a.64.64,0,0,1,.91-.12.65.65,0,1,1-.8,1" style="fill: none;stroke: #fff;stroke-miterlimit: 10;stroke-width: 0.25px"/>
    <path d="M129.21,127.44a7.23,7.23,0,1,1-.85-10.2" style="fill: none;stroke: #fff;stroke-miterlimit: 10;stroke-width: 0.25px"/>
    <path d="M126.78,128a6.07,6.07,0,1,1,2.13-8.32" style="fill: none;stroke: #fff;stroke-miterlimit: 10;stroke-width: 0.25px"/>
    <path d="M125.13,127.35a4.81,4.81,0,1,1,3.15-6" style="fill: none;stroke: #fff;stroke-miterlimit: 10;stroke-width: 0.25px"/>
    <path d="M126.61,125a3.7,3.7,0,1,1-.64-5.19" style="fill: none;stroke: #fff;stroke-miterlimit: 10;stroke-width: 0.25px"/>
    <path d="M125,125a2.62,2.62,0,1,1,1-3.57" style="fill: none;stroke: #fff;stroke-miterlimit: 10;stroke-width: 0.25px"/>
    <path d="M124,124.36a1.63,1.63,0,0,1-.57-3.2,1.64,1.64,0,0,1,1.89,1.32" style="fill: none;stroke: #fff;stroke-miterlimit: 10;stroke-width: 0.25px"/>
    <line x1="77.2" y1="52.48" x2="58.42" y2="23.78" style="fill: none;stroke: #fff;stroke-miterlimit: 10;stroke-width: 0.5px"/>
    <path d="M70.26,57.82c-7.47-9.28-14-18.79-18.78-28.7" style="fill: none;stroke: #fff;stroke-miterlimit: 10;stroke-width: 0.5px"/>
    <path d="M84.65,48.41A146.29,146.29,0,0,0,65.87,19.7" style="fill: none;stroke: #fff;stroke-miterlimit: 10;stroke-width: 0.5px"/>
    <path d="M92.86,46A150.82,150.82,0,0,0,74.08,17.29" style="fill: none;stroke: #fff;stroke-miterlimit: 10;stroke-width: 0.5px"/>
    <path d="M64.51,64.54a150.73,150.73,0,0,1-18.78-28.7" style="fill: none;stroke: #fff;stroke-miterlimit: 10;stroke-width: 0.5px"/>
    <path d="M101.71,44.63C98.57,37.62,93.17,29,84.28,18" style="fill: none;stroke: #fff;stroke-miterlimit: 10;stroke-width: 0.5px"/>
    <path d="M60.15,72.49a104.56,104.56,0,0,1-15.71-24" style="fill: none;stroke: #fff;stroke-miterlimit: 10;stroke-width: 0.5px"/>
    <line x1="140.46" y1="154.99" x2="132.44" y2="142.74" style="fill: none;stroke: #fff;stroke-miterlimit: 10;stroke-width: 0.5px"/>
    <line x1="145.67" y1="151.58" x2="137.65" y2="139.33" style="fill: none;stroke: #fff;stroke-miterlimit: 10;stroke-width: 0.5px"/>
    <line x1="150.89" y1="148.17" x2="142.87" y2="135.92" style="fill: none;stroke: #fff;stroke-miterlimit: 10;stroke-width: 0.5px"/>
    <line x1="156.1" y1="144.76" x2="148.08" y2="132.51" style="fill: none;stroke: #fff;stroke-miterlimit: 10;stroke-width: 0.5px"/>
    <line x1="161.35" y1="141.33" x2="153.33" y2="129.07" style="fill: none;stroke: #fff;stroke-miterlimit: 10;stroke-width: 0.5px"/>
    <line x1="166.52" y1="137.94" x2="158.5" y2="125.69" style="fill: none;stroke: #fff;stroke-miterlimit: 10;stroke-width: 0.5px"/>
    <line x1="135.2" y1="158.44" x2="127.18" y2="146.18" style="fill: none;stroke: #fff;stroke-miterlimit: 10;stroke-width: 0.5px"/>
    <line x1="130.08" y1="161.79" x2="122.06" y2="149.53" style="fill: none;stroke: #fff;stroke-miterlimit: 10;stroke-width: 0.5px"/>
    <line x1="124.9" y1="165.17" x2="116.88" y2="152.91" style="fill: none;stroke: #fff;stroke-miterlimit: 10;stroke-width: 0.5px"/>
    <line x1="119.84" y1="168.48" x2="111.82" y2="156.22" style="fill: none;stroke: #fff;stroke-miterlimit: 10;stroke-width: 0.5px"/>
    <line x1="138.11" y1="157.11" x2="130.09" y2="144.86" style="fill: none;stroke: #fff;stroke-miterlimit: 10;stroke-width: 0.5px"/>
    <line x1="143.07" y1="153.29" x2="135.05" y2="141.03" style="fill: none;stroke: #fff;stroke-miterlimit: 10;stroke-width: 0.5px"/>
    <line x1="148.55" y1="150.29" x2="140.53" y2="138.03" style="fill: none;stroke: #fff;stroke-miterlimit: 10;stroke-width: 0.5px"/>
    <line x1="153.49" y1="146.47" x2="145.47" y2="134.21" style="fill: none;stroke: #fff;stroke-miterlimit: 10;stroke-width: 0.5px"/>
    <line x1="158.46" y1="142.65" x2="150.44" y2="130.39" style="fill: none;stroke: #fff;stroke-miterlimit: 10;stroke-width: 0.5px"/>
    <line x1="163.87" y1="139.54" x2="155.85" y2="127.28" style="fill: none;stroke: #fff;stroke-miterlimit: 10;stroke-width: 0.5px"/>
    <line x1="132.38" y1="159.71" x2="124.36" y2="147.46" style="fill: none;stroke: #fff;stroke-miterlimit: 10;stroke-width: 0.5px"/>
    <line x1="127.42" y1="163.38" x2="119.4" y2="151.12" style="fill: none;stroke: #fff;stroke-miterlimit: 10;stroke-width: 0.5px"/>
    <line x1="122.11" y1="166.43" x2="114.09" y2="154.17" style="fill: none;stroke: #fff;stroke-miterlimit: 10;stroke-width: 0.5px"/>
    <line x1="117.09" y1="169.71" x2="109.07" y2="157.45" style="fill: none;stroke: #fff;stroke-miterlimit: 10;stroke-width: 0.5px"/>
    <line x1="168.71" y1="135.95" x2="160.69" y2="123.69" style="fill: none;stroke: #fff;stroke-miterlimit: 10;stroke-width: 0.5px"/>
    <path d="M62.14,66.09a149.93,149.93,0,0,1-18.78-28.7" style="fill: none;stroke: #fff;stroke-miterlimit: 10;stroke-width: 0.5px"/>
    <path d="M61.56,70.19A150.34,150.34,0,0,1,42.78,41.48" style="fill: none;stroke: #fff;stroke-miterlimit: 10;stroke-width: 0.5px"/>
    <path d="M67.85,59.4c-7.47-9.29-14-18.79-18.78-28.71" style="fill: none;stroke: #fff;stroke-miterlimit: 10;stroke-width: 0.5px"/>
    <path d="M66.14,62c-7.47-9.29-14-18.79-18.78-28.71" style="fill: none;stroke: #fff;stroke-miterlimit: 10;stroke-width: 0.5px"/>
    <path d="M57.59,73.42C55,71,51.48,66.24,48.25,60" style="fill: none;stroke: #fff;stroke-miterlimit: 10;stroke-width: 0.5px"/>
    <path d="M90,46.36A150.33,150.33,0,0,0,71.19,17.65" style="fill: none;stroke: #fff;stroke-miterlimit: 10;stroke-width: 0.5px"/>
    <path d="M87.48,47.62A150.33,150.33,0,0,0,68.7,18.91" style="fill: none;stroke: #fff;stroke-miterlimit: 10;stroke-width: 0.5px"/>
    <path d="M97.75,43.58C94.6,36.56,89.2,28,80.31,16.93" style="fill: none;stroke: #fff;stroke-miterlimit: 10;stroke-width: 0.5px"/>
    <path d="M94.73,43.82c-3.14-7-8.54-15.61-17.43-26.65" style="fill: none;stroke: #fff;stroke-miterlimit: 10;stroke-width: 0.5px"/>
    <path d="M103.67,43.08c-1-3.85-6-12.55-11-18.38" style="fill: none;stroke: #fff;stroke-miterlimit: 10;stroke-width: 0.5px"/>
    <path d="M106.66,43c-1.15-3.36-4.13-8.47-8.54-13.93" style="fill: none;stroke: #fff;stroke-miterlimit: 10;stroke-width: 0.5px"/>
    <path d="M82.33,49.93A146.75,146.75,0,0,0,63.55,21.22" style="fill: none;stroke: #fff;stroke-miterlimit: 10;stroke-width: 0.5px"/>
    <path d="M79.43,51A186.5,186.5,0,0,0,60.66,22.31" style="fill: none;stroke: #fff;stroke-miterlimit: 10;stroke-width: 0.5px"/>
    <path d="M72.59,56.3c-7.47-9.29-14-18.8-18.77-28.71" style="fill: none;stroke: #fff;stroke-miterlimit: 10;stroke-width: 0.5px"/>
    <path d="M74.71,54.11A213.6,213.6,0,0,1,55.93,25.4" style="fill: none;stroke: #fff;stroke-miterlimit: 10;stroke-width: 0.5px"/>
    <path d="M165.55,194c-4.05-5.16-8-10.39-11.94-15.62-2-2.61-3.92-5.26-5.88-7.89l-.73-1a5.86,5.86,0,0,1-.66-1.17,5.59,5.59,0,0,1-.41-2.62,6.06,6.06,0,0,1,2.66-4.45,5.88,5.88,0,0,1,5.14-.66,5.57,5.57,0,0,1,3,2.53l.61,1.06c1.62,2.85,3.27,5.68,4.86,8.55l4.8,8.58c1.57,2.88,3.16,5.74,4.71,8.64-1.74-2.78-3.42-5.6-5.14-8.39l-5-8.44c-1.7-2.81-3.32-5.66-5-8.48l-.62-1.06a5.06,5.06,0,0,0-.68-.9,4.58,4.58,0,0,0-1.86-1.19,4.88,4.88,0,0,0-4.27.6,5.09,5.09,0,0,0-2.26,3.69,4.68,4.68,0,0,0,.32,2.19,4.61,4.61,0,0,0,.54,1l.72,1c1.92,2.65,3.87,5.29,5.76,8C158,183.27,161.84,188.61,165.55,194Z" style="fill: #fff"/>
    <path d="M159.65,181.94c-2.29-2.77-4.49-5.61-6.68-8.46-1.1-1.41-2.17-2.85-3.25-4.28l-.41-.54a3.88,3.88,0,0,1-.38-.69,3.25,3.25,0,0,1-.25-1.54,3.55,3.55,0,0,1,1.56-2.6,3.43,3.43,0,0,1,3-.39,3.23,3.23,0,0,1,1.31.85,4.07,4.07,0,0,1,.46.63l.33.59c.87,1.57,1.77,3.12,2.62,4.7l2.57,4.74c.83,1.59,1.68,3.17,2.48,4.78-1-1.5-1.93-3-2.9-4.54l-2.82-4.59c-.94-1.53-1.84-3.08-2.77-4.62l-.34-.58a2.53,2.53,0,0,0-.34-.45,2.24,2.24,0,0,0-.92-.59,2.47,2.47,0,0,0-2.14.3,2.54,2.54,0,0,0-1.14,1.85,2.14,2.14,0,0,0,.16,1.09,2.12,2.12,0,0,0,.27.49l.39.55c1,1.46,2.1,2.91,3.11,4.39C155.65,176,157.7,178.92,159.65,181.94Z" style="fill: #fff"/>
    <path d="M154.36,151.71a12,12,0,0,1,4.62,1.57,14.92,14.92,0,0,1,3.8,3.14,21.08,21.08,0,0,1,4.43,8.64,42.37,42.37,0,0,0-5.18-8A18.91,18.91,0,0,0,154.36,151.71Z" style="fill: #fff"/>
    <path d="M158.83,148.94a17.79,17.79,0,0,1,3.56,1.07,11.89,11.89,0,0,1,3.2,2,14.34,14.34,0,0,1,2.42,2.87,20.56,20.56,0,0,1,1.75,3.27,65,65,0,0,0-4.83-5.39,16.47,16.47,0,0,0-2.89-2.06C161,150.11,159.9,149.57,158.83,148.94Z" style="fill: #fff"/>
    <path d="M163.26,146a11.18,11.18,0,0,1,2.43.58,9.1,9.1,0,0,1,2.26,1.15,8.91,8.91,0,0,1,1.77,1.81,17.18,17.18,0,0,1,1.36,2.07c-1.43-.89-2.5-2.19-3.72-3.08S164.64,147,163.26,146Z" style="fill: #fff"/>
    <path d="M137.78,162.55a19,19,0,0,0,1.86,9.18,41.77,41.77,0,0,0,5.24,7.94,21.15,21.15,0,0,1-6.15-7.52,15,15,0,0,1-1.36-4.74A12.42,12.42,0,0,1,137.78,162.55Z" style="fill: #fff"/>
    <path d="M133.46,165.54c.15,1.23.2,2.46.34,3.65a16,16,0,0,0,.73,3.46,65.17,65.17,0,0,0,3,6.6,19.5,19.5,0,0,1-2.29-2.92,14.48,14.48,0,0,1-1.66-3.37,11.56,11.56,0,0,1-.56-3.73A18.16,18.16,0,0,1,133.46,165.54Z" style="fill: #fff"/>
    <path d="M129,168.44c.32,1.64.34,3.27.68,4.76s1.08,3,1.32,4.65a19.32,19.32,0,0,1-1.34-2.08,8.52,8.52,0,0,1-.95-2.35,8.67,8.67,0,0,1-.15-2.53A10.78,10.78,0,0,1,129,168.44Z" style="fill: #fff"/>
    <path d="M81.72,58.88c.79-.53,1.6-1.06,2.42-1.57s1.71-.87,2.58-1.31,1.81-.68,2.71-1,1.88-.5,2.82-.75a28.3,28.3,0,0,1,22.22,4.65c.76.6,1.55,1.18,2.28,1.81s1.42,1.32,2.08,2,1.25,1.48,1.84,2.24,1.07,1.6,1.59,2.4A32.06,32.06,0,0,0,114,59.51,30.46,30.46,0,0,0,92.39,55,31.77,31.77,0,0,0,81.72,58.88Z" style="fill: #fff"/>
    <path d="M113,108.27c-.8.53-1.61,1-2.42,1.56s-1.73.86-2.59,1.3-1.81.66-2.72,1-1.88.49-2.82.73a28.28,28.28,0,0,1-22.2-4.75c-.76-.61-1.54-1.19-2.27-1.82s-1.41-1.34-2.07-2-1.24-1.48-1.83-2.24-1.06-1.61-1.58-2.42a31.9,31.9,0,0,0,8.18,7.88,30.37,30.37,0,0,0,21.63,4.64A31.83,31.83,0,0,0,113,108.27Z" style="fill: #fff"/>
    <path d="M111.33,130.85a13.29,13.29,0,0,1-2.41-5.24,13.92,13.92,0,0,1,2.33-11.16,13.31,13.31,0,0,1,4.31-3.84,16.8,16.8,0,0,0-3.83,4.16,15.44,15.44,0,0,0-2.25,10.73A16.77,16.77,0,0,0,111.33,130.85Z" style="fill: #fff"/>
    <path d="M135.8,114.84a13.29,13.29,0,0,1,2.41,5.24,14,14,0,0,1-2.33,11.17,13.27,13.27,0,0,1-4.31,3.83,16.63,16.63,0,0,0,3.83-4.16,15.39,15.39,0,0,0,2.1-5.16,15.56,15.56,0,0,0,.14-5.57A16.51,16.51,0,0,0,135.8,114.84Z" style="fill: #fff"/>
  </g>
</svg>
