<svg id="sputnikOne" xmlns="http://www.w3.org/2000/svg" viewBox="0 0 300 300">
  <g id="sputnik">
    <g id="outline">
      <path d="M237.13,125.09a43.65,43.65,0,1,1,8.79.89c-1.13,0-2.24,0-3.35-.13h-.14" style="fill: none;stroke: #fff;stroke-miterlimit: 10"/>
      <line x1="202.31" y1="83.94" x2="134.67" y2="113.95" style="fill: none;stroke: #fff;stroke-miterlimit: 10"/>
      <line x1="202.72" y1="88.53" x2="135.96" y2="116.26" style="fill: none;stroke: #fff;stroke-miterlimit: 10"/>
      <circle cx="133.23" cy="116.26" r="2.73" style="fill: none;stroke: #fff;stroke-miterlimit: 10"/>
      <line x1="256.24" y1="124.75" x2="182.4" y2="206.35" style="fill: none;stroke: #fff;stroke-miterlimit: 10"/>
      <path d="M264.81,121.69a2,2,0,0,1-.45,3.06,4.34,4.34,0,0,1-2.68,1,1.58,1.58,0,0,0-1.2.53L184.56,208" style="fill: none;stroke: #fff;stroke-miterlimit: 10"/>
      <path d="M216.58,50.05,213,49.7a4.5,4.5,0,0,0-1.79.2L16.07,112.78" style="fill: none;stroke: #fff;stroke-miterlimit: 10"/>
      <path d="M14.93,108.21,210.5,46a7.56,7.56,0,0,1,6.93-1.71s7.85-5.22,15-6.23a13.09,13.09,0,0,1,7.21,1.12" style="fill: none;stroke: #fff;stroke-miterlimit: 10"/>
      <circle cx="114.44" cy="258.55" r="3.52" style="fill: none;stroke: #fff;stroke-miterlimit: 10"/>
      <path d="M214.27,52.31s6.52,17.25,14.28,30.79C236.41,96.81,249,112.18,249,112.18" style="fill: none;stroke: #fff;stroke-miterlimit: 10"/>
      <path d="M218.46,48.43a150.75,150.75,0,0,0,15.07,32.8c9.85,15.51,19,27,19,27" style="fill: none;stroke: #fff;stroke-miterlimit: 10"/>
      <path d="M252.17,115.35a101.48,101.48,0,0,0,8.42,8.1" style="fill: none;stroke: #fff;stroke-miterlimit: 10"/>
      <line x1="255.14" y1="112.18" x2="264.27" y2="121.94" style="fill: none;stroke: #fff;stroke-miterlimit: 10"/>
      <path d="M232.63,40.77s6.85,17.68,15.71,32.3,14.47,21.12,14.47,21.12" style="fill: none;stroke: #fff;stroke-miterlimit: 10"/>
      <path d="M237.05,39.61a217.39,217.39,0,0,0,14.13,27.87c8.18,13.27,15,22.28,15,22.28" style="fill: none;stroke: #fff;stroke-miterlimit: 10"/>
      <path d="M270.06,95.84A128.37,128.37,0,0,0,281.25,108" style="fill: none;stroke: #fff;stroke-miterlimit: 10"/>
      <path d="M266.61,99.76A85.4,85.4,0,0,0,278,111.9" style="fill: none;stroke: #fff;stroke-miterlimit: 10"/>
      <circle cx="229.4" cy="53.68" r="2.82" style="fill: none;stroke: #fff;stroke-miterlimit: 10"/>
      <circle cx="235.47" cy="66.41" r="2.82" style="fill: none;stroke: #fff;stroke-miterlimit: 10"/>
      <circle cx="242.44" cy="79.42" r="2.82" style="fill: none;stroke: #fff;stroke-miterlimit: 10"/>
      <circle cx="250.54" cy="91.35" r="2.82" style="fill: none;stroke: #fff;stroke-miterlimit: 10"/>
      <circle cx="266.61" cy="111.9" r="2.82" style="fill: none;stroke: #fff;stroke-miterlimit: 10"/>
      <path d="M115.15,255.1s132.57-140,138.25-148c4.5-6.4,10.48-14.31,12.75-17.3a1.82,1.82,0,0,1,2.47-.4c1.56,1,3.53,3,1.88,5.88-2.9,5-153,161.57-153,161.57" style="fill: none;stroke: #fff;stroke-miterlimit: 10"/>
      <circle cx="181.83" cy="208.9" r="2.73" style="fill: none;stroke: #fff;stroke-miterlimit: 10"/>
      <circle cx="13.07" cy="111.07" r="3.52" style="fill: none;stroke: #fff;stroke-miterlimit: 10"/>
    </g>
    <g id="paths">
      <path d="M203,89.73a100.87,100.87,0,0,0,21,30.3" style="fill: none;stroke: #fff;stroke-miterlimit: 10;stroke-width: 0.75px"/>
      <path d="M203.27,73.07c8.06,20.56,19.47,37.57,35.11,50.68" style="fill: none;stroke: #fff;stroke-miterlimit: 10;stroke-width: 0.5px"/>
      <path d="M213.12,53.65l.18,1.48a12.31,12.31,0,0,0,.33,1.46,28.37,28.37,0,0,0,.87,2.85c.65,1.88,1.4,3.74,2.2,5.56,1.6,3.65,3.36,7.23,5.23,10.75s3.8,7,5.87,10.42c1,1.7,2.11,3.38,3.24,5,.59.81,1.11,1.66,1.75,2.42.31.39.61.8.93,1.17l1,1.08a52.63,52.63,0,0,1-7.1-9.6c-2.1-3.4-4.07-6.87-5.95-10.39s-3.59-7.14-5.17-10.8c-.78-1.84-1.52-3.7-2.15-5.59a26.24,26.24,0,0,1-.82-2.88,12.61,12.61,0,0,1-.3-1.46Z" style="fill: #fff"/>
      <path d="M211.39,55.76c1.28,3.67,2.59,7.34,4.11,10.91s3.1,7.13,4.81,10.62a110.31,110.31,0,0,1-5-10.52C213.83,63.15,212.47,59.5,211.39,55.76Z" style="fill: #fff"/>
      <path d="M210,57.65c1.39,3.9,2.79,7.8,4.39,11.61s3.26,7.61,5,11.36c-1.94-3.66-3.63-7.45-5.24-11.26S211.2,61.62,210,57.65Z" style="fill: #fff"/>
      <path d="M207.87,62.32q1.13,3,2.29,6c.78,2,1.56,4,2.42,6s1.71,3.94,2.62,5.88,1.87,3.88,2.86,5.79c-1.15-1.82-2.22-3.7-3.2-5.62s-1.88-3.88-2.74-5.86-1.62-4-2.32-6S208.45,64.4,207.87,62.32Z" style="fill: #fff"/>
      <path d="M206.31,64q1.26,3.52,2.67,7c.94,2.31,1.91,4.61,3,6.87s2.09,4.53,3.18,6.77,2.21,4.48,3.34,6.71q-1.94-3.21-3.68-6.54c-1.16-2.21-2.25-4.46-3.3-6.73s-2-4.59-2.86-6.94S207,66.42,206.31,64Z" style="fill: #fff"/>
      <path d="M205.12,66.82c.91,2.48,1.9,4.91,2.95,7.33s2.13,4.8,3.29,7.17,2.31,4.72,3.5,7.07l3.6,7c-1.37-2.25-2.69-4.54-3.94-6.85s-2.45-4.67-3.61-7-2.22-4.78-3.2-7.23A78.66,78.66,0,0,1,205.12,66.82Z" style="fill: #fff"/>
      <path d="M204.29,69.23c.76,2.6,1.66,5.15,2.67,7.65s2.13,5,3.35,7.37,2.48,4.8,3.79,7.17l4,7.08c-1.48-2.26-2.93-4.55-4.3-6.89s-2.67-4.72-3.89-7.14-2.32-4.91-3.27-7.45A57.08,57.08,0,0,1,204.29,69.23Z" style="fill: #fff"/>
      <path d="M202.72,76.16c8.54,19.34,19.68,35.87,34.33,48.59" style="fill: none;stroke: #fff;stroke-miterlimit: 10;stroke-width: 0.5px"/>
      <path d="M202.72,78.76c7.83,17.74,18.42,33.39,32.75,46" style="fill: none;stroke: #fff;stroke-miterlimit: 10;stroke-width: 0.5px"/>
      <path d="M202.31,80.75c7.3,16.89,17.33,31.36,30.34,43.17" style="fill: none;stroke: #fff;stroke-miterlimit: 10;stroke-width: 0.75px"/>
      <path d="M202.29,83.1c6.82,16.17,16,29.66,27.93,40" style="fill: none;stroke: #fff;stroke-miterlimit: 10;stroke-width: 0.75px"/>
      <path d="M202.31,86.12c6,13.46,14.8,26.47,24.24,35.22" style="fill: none;stroke: #fff;stroke-miterlimit: 10;stroke-width: 0.75px"/>
      <path d="M204,94.54a87.16,87.16,0,0,0,16.2,23.06" style="fill: none;stroke: #fff;stroke-miterlimit: 10;stroke-width: 0.75px"/>
      <polygon points="247.88 113.43 244.56 108.97 248.07 113.27 247.88 113.43" style="fill: #fff"/>
      <path d="M259.14,124a93.92,93.92,0,0,1-8.26-7.32l.18-.17A93.9,93.9,0,0,0,259.14,124Z" style="fill: #fff"/>
      <polygon points="246.36 115.13 240.33 108 246.54 114.96 246.36 115.13" style="fill: #fff"/>
      <polygon points="256.51 124.78 249.6 118.48 249.78 118.31 256.51 124.78" style="fill: #fff"/>
      <path d="M245.05,116.66q-4.23-4.44-8.12-9.18,4,4.65,8.3,9Z" style="fill: #fff"/>
      <polygon points="254.23 125.28 248.32 119.95 248.5 119.77 254.23 125.28" style="fill: #fff"/>
      <path d="M242.64,119a96.4,96.4,0,0,1-11.19-12.45A96.83,96.83,0,0,0,243,118.66Z" style="fill: #fff"/>
      <polygon points="250.39 125.67 245.91 122.02 246.24 121.65 250.39 125.67" style="fill: #fff"/>
      <path d="M241.33,120.46a137.64,137.64,0,0,1-14.62-16.38,137.41,137.41,0,0,0,15,16Z" style="fill: #fff"/>
      <polygon points="247.47 125.67 244.64 123.5 244.97 123.13 247.47 125.67" style="fill: #fff"/>
      <path d="M240,121.87A163,163,0,0,1,223,102.45a161.17,161.17,0,0,0,17.41,19Z" style="fill: #fff"/>
      <polygon points="244.56 125.66 243.05 124.64 243.39 124.27 244.56 125.66" style="fill: #fff"/>
      <path d="M239.08,123a115.1,115.1,0,0,1-19.2-21.73,114.81,114.81,0,0,0,19.53,21.35Z" style="fill: #fff"/>
      <path d="M209.34,60.65c.75,2.37,1.61,4.71,2.5,7s1.88,4.61,2.9,6.88,2.06,4.53,3.18,6.75,2.28,4.43,3.52,6.58c-1.32-2.1-2.54-4.28-3.67-6.5s-2.23-4.46-3.25-6.73-2-4.59-2.83-6.92S210,63.05,209.34,60.65Z" style="fill: #fff"/>
      <path d="M243.81,117.78c-2.66-2.7-5.24-5.48-7.75-8.31s-5-5.71-7.28-8.72c2.33,3,4.83,5.83,7.37,8.64s5.15,5.55,7.83,8.22Z" style="fill: #fff"/>
      <polygon points="251.85 125.03 247.08 120.98 247.25 120.8 251.85 125.03" style="fill: #fff"/>
      <path d="M224.67,87.44a71.49,71.49,0,0,0,3.74,6.41,63.73,63.73,0,0,0,4.48,5.91A27.74,27.74,0,0,1,228,94.12,29.36,29.36,0,0,1,224.67,87.44Z" style="fill: #fff"/>
      <path d="M268.11,44.91a85.68,85.68,0,0,1,21,31.61" style="fill: none;stroke: #fff;stroke-miterlimit: 10;stroke-width: 0.75px"/>
      <path d="M255.6,39.66a133.33,133.33,0,0,1,33,51.49" style="fill: none;stroke: #fff;stroke-miterlimit: 10;stroke-width: 0.5px"/>
      <path d="M258,40.62a118.3,118.3,0,0,1,31,48.57" style="fill: none;stroke: #fff;stroke-miterlimit: 10;stroke-width: 0.5px"/>
      <path d="M260,41a110.1,110.1,0,0,1,29.38,45.33" style="fill: none;stroke: #fff;stroke-miterlimit: 10;stroke-width: 0.75px"/>
      <path d="M262.2,41.84C275,53.54,284.67,68.45,289.55,84" style="fill: none;stroke: #fff;stroke-miterlimit: 10;stroke-width: 0.75px"/>
      <path d="M265.4,43.39a95.86,95.86,0,0,1,24.11,37" style="fill: none;stroke: #fff;stroke-miterlimit: 10;stroke-width: 0.75px"/>
      <path d="M272.15,47.66A78.14,78.14,0,0,1,288.3,72.39" style="fill: none;stroke: #fff;stroke-miterlimit: 10;stroke-width: 0.75px"/>
      <path d="M254,39.66C268.22,54,280,72.85,288.26,92.93" style="fill: none;stroke: #fff;stroke-miterlimit: 10;stroke-width: 0.5px"/>
      <path d="M239.62,39.16a196,196,0,0,0,9.53,20.08c3.5,6.55,7.4,12.86,11.44,19.08a217.46,217.46,0,0,1-11.66-19A170.78,170.78,0,0,1,239.62,39.16Z" style="fill: #fff"/>
      <path d="M241.74,39.23c1.52,3.58,3.06,7.15,4.81,10.62s3.56,6.91,5.48,10.29A110.26,110.26,0,0,1,246.33,50,116.49,116.49,0,0,1,241.74,39.23Z" style="fill: #fff"/>
      <path d="M243.31,38.67c1.73,3.76,3.48,7.51,5.42,11.17s3.94,7.28,6,10.86c-2.27-3.47-4.29-7.09-6.24-10.75S244.84,42.51,243.31,38.67Z" style="fill: #fff"/>
      <path d="M244.85,38.71c2.06,3.88,4.19,7.72,6.49,11.47s4.64,7.46,7,11.16c-2.56-3.58-4.92-7.29-7.23-11S246.72,42.69,244.85,38.71Z" style="fill: #fff"/>
      <path d="M281.74,105.69a79.08,79.08,0,0,1-5.76-5.53A62.21,62.21,0,0,1,271,94c1.67,2.07,3.37,4.12,5.21,6S279.85,103.81,281.74,105.69Z" style="fill: #fff"/>
      <path d="M283.16,104.64a79.81,79.81,0,0,1-8.13-9.1q-3.69-4.86-7.14-9.89c2.47,3.23,4.81,6.56,7.34,9.74A99.7,99.7,0,0,0,283.16,104.64Z" style="fill: #fff"/>
      <path d="M283.85,102.93a66.09,66.09,0,0,1-8.45-10.41l-3.72-5.59c-1.24-1.86-2.48-3.72-3.79-5.54,2.78,3.52,5.14,7.33,7.71,11,1.25,1.85,2.53,3.68,3.9,5.45A60.34,60.34,0,0,0,283.85,102.93Z" style="fill: #fff"/>
      <path d="M284.49,101.29a33.36,33.36,0,0,1-4.94-5.54c-1.48-2-2.83-4.08-4.12-6.19s-2.5-4.28-3.73-6.43-2.46-4.3-3.81-6.38c1.43,2,2.7,4.16,3.95,6.3s2.5,4.27,3.8,6.38,2.59,4.22,4,6.22A40.48,40.48,0,0,0,284.49,101.29Z" style="fill: #fff"/>
      <path d="M252.49,39.23c1.81,1.91,3.54,3.9,5.2,6s3.27,4.13,4.86,6.22,3.12,4.25,4.61,6.42,2.94,4.37,4.32,6.61L266.85,58c-1.56-2.12-3.11-4.25-4.7-6.34s-3.16-4.2-4.76-6.29S254.17,41.26,252.49,39.23Z" style="fill: #fff"/>
      <path d="M287.92,94.19c-1.14-2.28-2.34-4.52-3.54-6.76S282,83,280.72,80.73s-2.48-4.44-3.73-6.65-2.53-4.42-3.83-6.6c1.46,2.08,2.84,4.23,4.16,6.4s2.59,4.39,3.84,6.61,2.42,4.48,3.56,6.76S286.94,91.84,287.92,94.19Z" style="fill: #fff"/>
      <path d="M251,39.16q2.31,2.91,4.52,5.91c1.48,2,2.9,4,4.33,6s2.79,4.1,4.14,6.19,2.65,4.19,3.9,6.34l-8.45-12.24-4.23-6.12C253.75,43.26,252.35,41.21,251,39.16Z" style="fill: #fff"/>
      <path d="M287.42,95.86l-3.68-6.26-3.66-6.27c-1.21-2.1-2.46-4.17-3.7-6.25l-3.77-6.2c1.43,2,2.79,4,4.1,6s2.56,4.12,3.8,6.2,2.41,4.2,3.56,6.33S286.34,93.69,287.42,95.86Z" style="fill: #fff"/>
      <path d="M249,38.82q2.06,2.93,4,5.91l3.93,6,3.83,6.05c1.27,2,2.51,4.07,3.73,6.12Q262.49,60,260.51,57l-3.93-6-3.83-6.05Q250.84,41.9,249,38.82Z" style="fill: #fff"/>
      <path d="M286.76,97.73c-1.25-1.87-2.49-3.75-3.7-5.65l-3.58-5.71L276,80.6q-1.73-2.89-3.38-5.84c1.26,1.86,2.5,3.74,3.7,5.64l3.59,5.71,3.49,5.77Q285.12,94.78,286.76,97.73Z" style="fill: #fff"/>
      <path d="M246.89,39.16c1.29,1.88,2.57,3.77,3.81,5.69l3.71,5.76L258,56.43c1.19,1.94,2.35,3.91,3.49,5.89q-2-2.82-3.82-5.69L254,50.87l-3.61-5.82Q248.6,42.13,246.89,39.16Z" style="fill: #fff"/>
      <path d="M271.48,78.76q1.88,2.55,3.68,5.14l3.56,5.22,3.47,5.28c1.15,1.77,2.26,3.56,3.36,5.36q-1.87-2.55-3.68-5.14l-3.56-5.22-3.47-5.29C273.69,82.34,272.58,80.56,271.48,78.76Z" style="fill: #fff"/>
      <path d="M258,66.3c.88,1.27,1.69,2.59,2.5,3.91s1.59,2.67,2.3,4.05c-.89-1.28-1.7-2.6-2.51-3.92S258.72,67.68,258,66.3Z" style="fill: #fff"/>
      <path d="M265.08,66.3c.89,1.27,1.69,2.59,2.51,3.91s1.58,2.67,2.29,4.05c-.89-1.28-1.69-2.6-2.51-3.92S265.79,67.68,265.08,66.3Z" style="fill: #fff"/>
      <path d="M220.57,93.75l4.81,8a38.38,38.38,0,0,1-2.62-3.85A46.23,46.23,0,0,1,220.57,93.75Z" style="fill: #fff"/>
      <path d="M242.44,85.18a5.58,5.58,0,0,1-4.21-1.55,5.82,5.82,0,0,1,0-8.42,5.58,5.58,0,0,1,4.21-1.55,6,6,0,0,0-3.94,1.83,5.72,5.72,0,0,0,0,7.87A6,6,0,0,0,242.44,85.18Z" style="fill: #fff"/>
      <path d="M231.3,70.42a5.57,5.57,0,0,1-2.09-4,5.83,5.83,0,0,1,5.64-6.25A5.59,5.59,0,0,1,239,61.87a6,6,0,0,0-4.15-1.28,5.7,5.7,0,0,0-5.27,5.84A5.92,5.92,0,0,0,231.3,70.42Z" style="fill: #fff"/>
      <path d="M223.66,52.72a5.63,5.63,0,0,1,2-4,5.82,5.82,0,0,1,8.36,1,5.62,5.62,0,0,1,1,4.36A6,6,0,0,0,233.75,50a5.72,5.72,0,0,0-7.82-.92A5.94,5.94,0,0,0,223.66,52.72Z" style="fill: #fff"/>
      <path d="M251.73,85.63a5.58,5.58,0,0,1,3.87,2.27,5.81,5.81,0,0,1-1.47,8.28,5.56,5.56,0,0,1-4.42.79,6,6,0,0,0,4.2-1.1,5.71,5.71,0,0,0,1.38-7.75A5.94,5.94,0,0,0,251.73,85.63Z" style="fill: #fff"/>
      <path d="M266.35,117.79a5.61,5.61,0,0,1-4.21-1.55,5.82,5.82,0,0,1,0-8.42,5.61,5.61,0,0,1,4.21-1.55,6,6,0,0,0-3.94,1.82,5.72,5.72,0,0,0,0,7.87A6,6,0,0,0,266.35,117.79Z" style="fill: #fff"/>
      <path d="M245.72,94.33A5.2,5.2,0,0,1,244.53,90a5.15,5.15,0,0,1,2.62-3.67A6.87,6.87,0,0,0,245.76,88a6.28,6.28,0,0,0-.74,2A6.68,6.68,0,0,0,245.72,94.33Z" style="fill: #fff"/>
      <path d="M246.94,75.35a5.27,5.27,0,0,1-.08,8.15A7.47,7.47,0,0,0,248,81.56a6.4,6.4,0,0,0,.38-2.12A6.61,6.61,0,0,0,246.94,75.35Z" style="fill: #fff"/>
      <path d="M241.54,67.23a5.25,5.25,0,0,1-6.33,5.13A7,7,0,0,0,237.4,72a6.46,6.46,0,0,0,1.88-1.06A6.6,6.6,0,0,0,241.54,67.23Z" style="fill: #fff"/>
      <path d="M232.89,58.16a5.21,5.21,0,0,1-4.24,1.55,5.15,5.15,0,0,1-3.87-2.31,7.43,7.43,0,0,0,1.83,1.25,6.36,6.36,0,0,0,2.09.56A6.67,6.67,0,0,0,232.89,58.16Z" style="fill: #fff"/>
      <path d="M270.65,107.82a5.26,5.26,0,0,1,.11,8.15,7.12,7.12,0,0,0,1-2,6.46,6.46,0,0,0,.34-2.13A6.66,6.66,0,0,0,270.65,107.82Z" style="fill: #fff"/>
      <path d="M247.08,94.54a4.41,4.41,0,0,1-1.69-3.14,4.64,4.64,0,0,1,4.51-5,4.42,4.42,0,0,1,3.3,1.37,4.77,4.77,0,0,0-3.28-1,4.56,4.56,0,0,0-3,1.47,4.51,4.51,0,0,0-1.16,3.12A4.73,4.73,0,0,0,247.08,94.54Z" style="fill: #fff"/>
      <path d="M255.2,92a4.08,4.08,0,0,1-5,4.07,5.33,5.33,0,0,0,5-4.07Z" style="fill: #fff"/>
      <path d="M237.68,78.6a4.6,4.6,0,0,1,1.67-3.33,4.83,4.83,0,0,1,7,.82,4.65,4.65,0,0,1,.84,3.64,5.07,5.07,0,0,0-1.14-3.4,4.75,4.75,0,0,0-6.44-.76A5,5,0,0,0,237.68,78.6Z" style="fill: #fff"/>
      <path d="M245.33,83.35a4.27,4.27,0,0,1-6.72-.63,5.59,5.59,0,0,0,3.25,1.46A5.65,5.65,0,0,0,245.33,83.35Z" style="fill: #fff"/>
      <path d="M235.15,71.24a4.8,4.8,0,0,1-3.63-1.31,5,5,0,0,1,0-7.27,4.8,4.8,0,0,1,3.63-1.31,5.13,5.13,0,0,0-3.36,1.59,4.9,4.9,0,0,0,0,6.71A5.13,5.13,0,0,0,235.15,71.24Z" style="fill: #fff"/>
      <path d="M239.25,62.69a4.45,4.45,0,0,1,.09,7,5.71,5.71,0,0,0-.09-7Z" style="fill: #fff"/>
      <path d="M261.71,111.31a4.76,4.76,0,0,1,1.72-3.44,5,5,0,0,1,7.18.85,4.75,4.75,0,0,1,.87,3.75,5.16,5.16,0,0,0-1.17-3.51,4.88,4.88,0,0,0-6.64-.79A5.15,5.15,0,0,0,261.71,111.31Z" style="fill: #fff"/>
      <path d="M269.59,116a4.42,4.42,0,0,1-6.93-.65,5.9,5.9,0,0,0,3.36,1.51A5.81,5.81,0,0,0,269.59,116Z" style="fill: #fff"/>
      <path d="M230.37,48.85a4.73,4.73,0,0,1,3.29,1.9,5,5,0,0,1,.89,3.79,5.06,5.06,0,0,1-2.14,3.25,4.72,4.72,0,0,1-3.75.64,5.09,5.09,0,0,0,3.53-1,4.8,4.8,0,0,0,1.15-6.5A5.05,5.05,0,0,0,230.37,48.85Z" style="fill: #fff"/>
      <path d="M225.29,56.19a4.38,4.38,0,0,1,1.21-6.77,5.63,5.63,0,0,0-1.21,6.77Z" style="fill: #fff"/>
      <path d="M241,80.28a1.72,1.72,0,0,1,.46-2.23,2,2,0,0,1,2.36.24c0,.19-.94,0-1.76.68S241.13,80.31,241,80.28Z" style="fill: none;stroke: #fff;stroke-miterlimit: 10;stroke-width: 0.5px"/>
      <path d="M234,67.2a1.7,1.7,0,0,1,.45-2.23,2,2,0,0,1,2.36.24c0,.19-.93,0-1.76.69S234.19,67.23,234,67.2Z" style="fill: none;stroke: #fff;stroke-miterlimit: 10;stroke-width: 0.5px"/>
      <path d="M227.94,54.54a1.7,1.7,0,0,1,.46-2.23,2,2,0,0,1,2.35.24c0,.19-.93,0-1.76.68S228.1,54.57,227.94,54.54Z" style="fill: none;stroke: #fff;stroke-miterlimit: 10;stroke-width: 0.5px"/>
      <path d="M249.08,92.28a1.71,1.71,0,0,1,.45-2.24,2,2,0,0,1,2.36.24c0,.19-.94,0-1.76.69S249.24,92.31,249.08,92.28Z" style="fill: none;stroke: #fff;stroke-miterlimit: 10;stroke-width: 0.5px"/>
      <path d="M265.14,112.8a1.7,1.7,0,0,1,.46-2.23,2,2,0,0,1,2.35.24c0,.19-.93,0-1.76.68S265.3,112.83,265.14,112.8Z" style="fill: none;stroke: #fff;stroke-miterlimit: 10;stroke-width: 0.5px"/>
    </g>
    <g id="lines">
      <line x1="133.23" y1="113.53" x2="133.23" y2="118.99" style="fill: none;stroke: #fff;stroke-miterlimit: 10;stroke-width: 0.5px"/>
      <line x1="134.26" y1="113.74" x2="134.22" y2="118.8" style="fill: none;stroke: #fff;stroke-miterlimit: 10;stroke-width: 0.5px"/>
      <line x1="135.13" y1="114.31" x2="135.15" y2="118.2" style="fill: none;stroke: #fff;stroke-miterlimit: 10;stroke-width: 0.5px"/>
      <line x1="132.24" y1="113.95" x2="132.2" y2="118.6" style="fill: none;stroke: #fff;stroke-miterlimit: 10;stroke-width: 0.5px"/>
      <line x1="131.44" y1="114.49" x2="131.37" y2="117.94" style="fill: none;stroke: #fff;stroke-miterlimit: 10;stroke-width: 0.5px"/>
      <line x1="181.8" y1="206.2" x2="181.8" y2="211.65" style="fill: none;stroke: #fff;stroke-miterlimit: 10;stroke-width: 0.5px"/>
      <line x1="182.83" y1="206.4" x2="182.79" y2="211.47" style="fill: none;stroke: #fff;stroke-miterlimit: 10;stroke-width: 0.5px"/>
      <line x1="183.71" y1="206.97" x2="183.72" y2="210.86" style="fill: none;stroke: #fff;stroke-miterlimit: 10;stroke-width: 0.5px"/>
      <line x1="180.82" y1="206.62" x2="180.77" y2="211.27" style="fill: none;stroke: #fff;stroke-miterlimit: 10;stroke-width: 0.5px"/>
      <line x1="180.01" y1="207.15" x2="179.94" y2="210.61" style="fill: none;stroke: #fff;stroke-miterlimit: 10;stroke-width: 0.5px"/>
      <line x1="114.41" y1="255.13" x2="114.41" y2="261.98" style="fill: none;stroke: #fff;stroke-miterlimit: 10;stroke-width: 0.5px"/>
      <line x1="115.7" y1="255.38" x2="115.65" y2="261.74" style="fill: none;stroke: #fff;stroke-miterlimit: 10;stroke-width: 0.5px"/>
      <line x1="116.8" y1="256.1" x2="116.82" y2="260.98" style="fill: none;stroke: #fff;stroke-miterlimit: 10;stroke-width: 0.5px"/>
      <line x1="113.16" y1="255.65" x2="113.11" y2="261.49" style="fill: none;stroke: #fff;stroke-miterlimit: 10;stroke-width: 0.5px"/>
      <line x1="112.16" y1="256.32" x2="112.07" y2="260.67" style="fill: none;stroke: #fff;stroke-miterlimit: 10;stroke-width: 0.5px"/>
      <line x1="13.04" y1="107.64" x2="13.04" y2="114.5" style="fill: none;stroke: #fff;stroke-miterlimit: 10;stroke-width: 0.5px"/>
      <line x1="14.33" y1="107.9" x2="14.28" y2="114.26" style="fill: none;stroke: #fff;stroke-miterlimit: 10;stroke-width: 0.5px"/>
      <line x1="15.43" y1="108.61" x2="15.45" y2="113.5" style="fill: none;stroke: #fff;stroke-miterlimit: 10;stroke-width: 0.5px"/>
      <line x1="11.8" y1="108.17" x2="11.74" y2="114.01" style="fill: none;stroke: #fff;stroke-miterlimit: 10;stroke-width: 0.5px"/>
      <line x1="10.79" y1="108.84" x2="10.7" y2="113.18" style="fill: none;stroke: #fff;stroke-miterlimit: 10;stroke-width: 0.5px"/>
      <path d="M267.55,90.32a15.53,15.53,0,0,1,.06,6.74,15.14,15.14,0,0,1-.06-6.74Z" style="fill: #fff"/>
      <path d="M266.1,91.77a13.86,13.86,0,0,1,.4,3.37,13.38,13.38,0,0,1-.34,3.38,13.4,13.4,0,0,1-.41-3.37A13.87,13.87,0,0,1,266.1,91.77Z" style="fill: #fff"/>
      <path d="M264.42,93.69a15.18,15.18,0,0,1,.06,6.75,15.58,15.58,0,0,1-.06-6.75Z" style="fill: #fff"/>
      <path d="M262.78,95.71a13.78,13.78,0,0,1,.4,3.36,13.38,13.38,0,0,1-.34,3.38,15.14,15.14,0,0,1-.06-6.74Z" style="fill: #fff"/>
      <path d="M261.26,97.38a15.14,15.14,0,0,1,.06,6.74,15.53,15.53,0,0,1-.06-6.74Z" style="fill: #fff"/>
      <path d="M259.68,99.55a15.58,15.58,0,0,1,.06,6.75,15.18,15.18,0,0,1-.06-6.75Z" style="fill: #fff"/>
      <path d="M258,101.89A12.88,12.88,0,0,1,258,108a11.11,11.11,0,0,1-.41-3.06A11.54,11.54,0,0,1,258,101.89Z" style="fill: #fff"/>
      <path d="M269,90.84a7.55,7.55,0,0,1,.05,4.7,6.62,6.62,0,0,1-.4-2.34A7.15,7.15,0,0,1,269,90.84Z" style="fill: #fff"/>
      <path d="M256.35,104.42a5.76,5.76,0,0,1,.4,2.18,6,6,0,0,1-.36,2.19,6.64,6.64,0,0,1,0-4.37Z" style="fill: #fff"/>
      <path d="M221.43,43.17a5.73,5.73,0,0,1-1.05,1.95,6.06,6.06,0,0,1-1.64,1.5,5.78,5.78,0,0,1,1-2A6,6,0,0,1,221.43,43.17Z" style="fill: #fff"/>
      <path d="M224.14,41.61a6.59,6.59,0,0,1-2.7,3.45,6.61,6.61,0,0,1,2.7-3.45Z" style="fill: #fff"/>
      <path d="M226.92,40.27a6,6,0,0,1-1,2,5.78,5.78,0,0,1-1.65,1.49,5.93,5.93,0,0,1,1.06-1.95A6.06,6.06,0,0,1,226.92,40.27Z" style="fill: #fff"/>
      <path d="M218.09,45.41a6,6,0,0,1-1.06,2,5.74,5.74,0,0,1-1.64,1.49,6,6,0,0,1,1.05-2A5.91,5.91,0,0,1,218.09,45.41Z" style="fill: #fff"/>
      <path d="M216.07,45.41a6,6,0,0,1-1,2,5.78,5.78,0,0,1-1.65,1.49,5.85,5.85,0,0,1,1.06-2A5.74,5.74,0,0,1,216.07,45.41Z" style="fill: #fff"/>
      <path d="M213.73,45.41a6,6,0,0,1-1,2A5.78,5.78,0,0,1,211,48.85a6,6,0,0,1,1.06-2A5.87,5.87,0,0,1,213.73,45.41Z" style="fill: #fff"/>
      <path d="M229.23,39.61a3.36,3.36,0,0,1-.69,1.49,3.25,3.25,0,0,1-1.27,1,3.25,3.25,0,0,1,.68-1.49A3.35,3.35,0,0,1,229.23,39.61Z" style="fill: #fff"/>
      <path d="M231.34,39.27a1.43,1.43,0,0,1-.29,1,1.39,1.39,0,0,1-.88.52,1.31,1.31,0,0,1,.29-1A1.36,1.36,0,0,1,231.34,39.27Z" style="fill: #fff"/>
    </g>
  </g>
</svg>
