<svg id="titan-fall" xmlns="http://www.w3.org/2000/svg" viewBox="0 0 300 300">
  <g>
    <path d="M101.37,40.79a1.11,1.11,0,0,0,.66,1c10.23,4.53,20.85,5.15,31.89,5.64a309.92,309.92,0,0,0,41.45-.65A80.9,80.9,0,0,0,197.53,42a1.74,1.74,0,0,0,1.1-1.63v-7a4.25,4.25,0,0,0-.69-2.35C191,20.42,183.82,13.74,171.59,10.67c-12.4-3.13-29.42-3.47-41.66.39-11.4,3.59-22.11,11.33-27.33,19.69a5.8,5.8,0,0,0-1.23,3Z" style="fill: none;stroke: #fff;stroke-miterlimit: 10;stroke-width: 2.1145195960998535px"/>
    <line x1="150" y1="138.81" x2="150" y2="257.09" style="fill: none;stroke: #fff;stroke-miterlimit: 10;stroke-width: 1.0572597980499268px"/>
    <line x1="169.19" y1="260.14" x2="150" y2="237.11" style="fill: none;stroke: #fff;stroke-miterlimit: 10;stroke-width: 1.0572597980499268px"/>
    <line x1="132.89" y1="260.26" x2="150" y2="237.11" style="fill: none;stroke: #fff;stroke-miterlimit: 10;stroke-width: 1.0572597980499268px"/>
    <path d="M123.91,286.85c4.42,2.59,7.91,3,11.82,3.65a94.38,94.38,0,0,0,30.66,0,28,28,0,0,0,9.68-3.55,3.42,3.42,0,0,0,2-2.74v-1.64A1.58,1.58,0,0,1,179.6,281h4.23a1.59,1.59,0,0,0,1.59-1.59h0a1.59,1.59,0,0,0-1.59-1.59H179.6a1.58,1.58,0,0,1-1.58-1.58v-2.08a16.54,16.54,0,0,0-.85-5.22l0-.1a16.46,16.46,0,0,0-4-6.46h0a8.6,8.6,0,0,0-6.1-2.53H155.29a1.59,1.59,0,0,1-1.59-1.58h0a1.59,1.59,0,0,0-1.59-1.59h-4.22a1.59,1.59,0,0,0-1.59,1.59h0a1.59,1.59,0,0,1-1.59,1.58h-9.5a13.37,13.37,0,0,0-6.89,1.91h0a12.41,12.41,0,0,0-3.58,3.23h0a8.51,8.51,0,0,0-1.7,5.09v.87a1.59,1.59,0,0,1-1.59,1.59H107.71a1.59,1.59,0,0,0-1.59,1.58v5.29a1.59,1.59,0,0,0,1.59,1.59H120.4a1.58,1.58,0,0,1,1.58,1.58v1.7A3.16,3.16,0,0,0,123.91,286.85Z" style="fill: none;stroke: #fff;stroke-miterlimit: 10;stroke-width: 2.1145195960998535px"/>
    <path d="M122.29,285.38c8-3.74,17.44-5.6,28.24-5.44,11.77.37,21.08,2.07,27.18,5.44" style="fill: none;stroke: #fff;stroke-miterlimit: 10;stroke-width: 1.0572597980499268px"/>
    <path d="M122.21,280.91c8-3.75,17.44-5.61,28.24-5.45,11.77.37,22,2.68,28.1,6.06" style="fill: none;stroke: #fff;stroke-miterlimit: 10;stroke-width: 1.0572597980499268px"/>
    <path d="M121.15,276.68A66.55,66.55,0,0,1,150,270.94c11.77-.06,22.17,2.27,28.26,6.14" style="fill: none;stroke: #fff;stroke-miterlimit: 10;stroke-width: 1.0572597980499268px"/>
    <line x1="121.45" y1="272" x2="121.45" y2="282.57" style="fill: none;stroke: #fff;stroke-miterlimit: 10;stroke-width: 1.0572597980499268px"/>
    <path d="M157.4,288.39c0,.87-3.31,1.06-7.4,1.06s-7.4-.19-7.4-1.06,3.31-1.59,7.4-1.59S157.4,287.51,157.4,288.39Z" style="fill: none;stroke: #fff;stroke-miterlimit: 10;stroke-width: 0.5286298990249634px"/>
    <line x1="139.43" y1="260.37" x2="139.43" y2="271.47" style="fill: none;stroke: #fff;stroke-miterlimit: 10;stroke-width: 1.0572597980499268px"/>
    <line x1="141.54" y1="260.9" x2="141.54" y2="271.47" style="fill: none;stroke: #fff;stroke-miterlimit: 10;stroke-width: 1.0572597980499268px"/>
    <line x1="137.31" y1="260.49" x2="137.31" y2="271.59" style="fill: none;stroke: #fff;stroke-miterlimit: 10;stroke-width: 1.0572597980499268px"/>
    <line x1="135.2" y1="260.63" x2="135.2" y2="272.12" style="fill: none;stroke: #fff;stroke-miterlimit: 10;stroke-width: 1.0572597980499268px"/>
    <line x1="133.13" y1="260.9" x2="133.13" y2="272.69" style="fill: none;stroke: #fff;stroke-miterlimit: 10;stroke-width: 1.0572597980499268px"/>
    <line x1="131.05" y1="261.37" x2="131.05" y2="272.97" style="fill: none;stroke: #fff;stroke-miterlimit: 10;stroke-width: 1.0572597980499268px"/>
    <line x1="128.96" y1="261.75" x2="128.96" y2="273.36" style="fill: none;stroke: #fff;stroke-miterlimit: 10;stroke-width: 1.0572597980499268px"/>
    <line x1="126.95" y1="262.7" x2="126.95" y2="274.3" style="fill: none;stroke: #fff;stroke-miterlimit: 10;stroke-width: 1.0572597980499268px"/>
    <line x1="124.9" y1="264.63" x2="124.9" y2="275.04" style="fill: none;stroke: #fff;stroke-miterlimit: 10;stroke-width: 1.0572597980499268px"/>
    <line x1="122.9" y1="268.13" x2="122.9" y2="275.87" style="fill: none;stroke: #fff;stroke-miterlimit: 10;stroke-width: 1.0572597980499268px"/>
    <line x1="143.63" y1="259.75" x2="143.63" y2="271.23" style="fill: none;stroke: #fff;stroke-miterlimit: 10;stroke-width: 1.0572597980499268px"/>
    <line x1="145.77" y1="259.17" x2="145.77" y2="270.65" style="fill: none;stroke: #fff;stroke-miterlimit: 10;stroke-width: 1.0572597980499268px"/>
    <line x1="147.87" y1="259.94" x2="147.87" y2="270.65" style="fill: none;stroke: #fff;stroke-miterlimit: 10;stroke-width: 1.0572597980499268px"/>
    <path d="M145.15,260.12a29,29,0,0,1,9.25,0" style="fill: none;stroke: #fff;stroke-miterlimit: 10;stroke-width: 1.0572597980499268px"/>
    <line x1="150" y1="259.94" x2="150" y2="270.65" style="fill: none;stroke: #fff;stroke-miterlimit: 10;stroke-width: 1.0572597980499268px"/>
    <line x1="152.04" y1="260.14" x2="152.04" y2="270.85" style="fill: none;stroke: #fff;stroke-miterlimit: 10;stroke-width: 1.0572597980499268px"/>
    <line x1="154.12" y1="260.14" x2="154.12" y2="270.85" style="fill: none;stroke: #fff;stroke-miterlimit: 10;stroke-width: 1.0572597980499268px"/>
    <line x1="156.17" y1="260.52" x2="156.17" y2="271.23" style="fill: none;stroke: #fff;stroke-miterlimit: 10;stroke-width: 1.0572597980499268px"/>
    <line x1="158.34" y1="260.35" x2="158.34" y2="271.06" style="fill: none;stroke: #fff;stroke-miterlimit: 10;stroke-width: 1.0572597980499268px"/>
    <line x1="160.47" y1="260.72" x2="160.47" y2="271.44" style="fill: none;stroke: #fff;stroke-miterlimit: 10;stroke-width: 1.0572597980499268px"/>
    <line x1="162.56" y1="260.35" x2="162.56" y2="271.64" style="fill: none;stroke: #fff;stroke-miterlimit: 10;stroke-width: 1.0572597980499268px"/>
    <line x1="164.66" y1="260.06" x2="164.66" y2="272.1" style="fill: none;stroke: #fff;stroke-miterlimit: 10;stroke-width: 1.0572597980499268px"/>
    <line x1="166.82" y1="260.35" x2="166.82" y2="272.39" style="fill: none;stroke: #fff;stroke-miterlimit: 10;stroke-width: 1.0572597980499268px"/>
    <line x1="168.89" y1="260.35" x2="168.89" y2="273.18" style="fill: none;stroke: #fff;stroke-miterlimit: 10;stroke-width: 1.0572597980499268px"/>
    <line x1="170.87" y1="261.15" x2="170.87" y2="273.98" style="fill: none;stroke: #fff;stroke-miterlimit: 10;stroke-width: 1.0572597980499268px"/>
    <line x1="172.8" y1="261.92" x2="172.8" y2="274.75" style="fill: none;stroke: #fff;stroke-miterlimit: 10;stroke-width: 1.0572597980499268px"/>
    <line x1="174.76" y1="264.1" x2="174.76" y2="275.23" style="fill: none;stroke: #fff;stroke-miterlimit: 10;stroke-width: 1.0572597980499268px"/>
    <line x1="176.72" y1="266.88" x2="176.72" y2="275.91" style="fill: none;stroke: #fff;stroke-miterlimit: 10;stroke-width: 1.0572597980499268px"/>
    <line x1="122.21" y1="272" x2="122.21" y2="275.98" style="fill: none;stroke: #fff;stroke-miterlimit: 10;stroke-width: 1.0572597980499268px"/>
    <line x1="150" y1="140.9" x2="192.21" y2="43.76" style="fill: none;stroke: #fff;stroke-miterlimit: 10;stroke-width: 0.5286298990249634px"/>
    <line x1="150" y1="140.9" x2="106.68" y2="43.6" style="fill: none;stroke: #fff;stroke-miterlimit: 10;stroke-width: 0.5286298990249634px"/>
    <line x1="143.63" y1="47.84" x2="150" y2="140.9" style="fill: none;stroke: #fff;stroke-miterlimit: 10;stroke-width: 0.5286298990249634px"/>
    <line x1="156.37" y1="47.79" x2="150" y2="140.9" style="fill: none;stroke: #fff;stroke-miterlimit: 10;stroke-width: 0.5286298990249634px"/>
    <line x1="167.45" y1="47.84" x2="150" y2="140.9" style="fill: none;stroke: #fff;stroke-miterlimit: 10;stroke-width: 0.5286298990249634px"/>
    <line x1="133.92" y1="47.45" x2="150" y2="140.9" style="fill: none;stroke: #fff;stroke-miterlimit: 10;stroke-width: 0.5286298990249634px"/>
    <line x1="178.02" y1="46.53" x2="150" y2="140.9" style="fill: none;stroke: #fff;stroke-miterlimit: 10;stroke-width: 0.5286298990249634px"/>
    <line x1="122.16" y1="46.7" x2="150" y2="140.9" style="fill: none;stroke: #fff;stroke-miterlimit: 10;stroke-width: 0.5286298990249634px"/>
    <line x1="185.54" y1="45.37" x2="150" y2="140.9" style="fill: none;stroke: #fff;stroke-miterlimit: 10;stroke-width: 0.5286298990249634px"/>
    <line x1="114.87" y1="45.68" x2="150" y2="140.9" style="fill: none;stroke: #fff;stroke-miterlimit: 10;stroke-width: 0.5286298990249634px"/>
    <line x1="153.18" y1="47.84" x2="150" y2="138.81" style="fill: none;stroke: #fff;stroke-miterlimit: 10;stroke-width: 0.2643149495124817px"/>
    <line x1="164.89" y1="47.52" x2="150" y2="138.81" style="fill: none;stroke: #fff;stroke-miterlimit: 10;stroke-width: 0.2643149495124817px"/>
    <line x1="158.73" y1="47.84" x2="150" y2="138.81" style="fill: none;stroke: #fff;stroke-miterlimit: 10;stroke-width: 0.2643149495124817px"/>
    <line x1="145.62" y1="47.84" x2="150" y2="138.81" style="fill: none;stroke: #fff;stroke-miterlimit: 10;stroke-width: 0.2643149495124817px"/>
    <line x1="140.8" y1="47.84" x2="150" y2="138.81" style="fill: none;stroke: #fff;stroke-miterlimit: 10;stroke-width: 0.2643149495124817px"/>
    <line x1="136.08" y1="47.54" x2="150" y2="138.81" style="fill: none;stroke: #fff;stroke-miterlimit: 10;stroke-width: 0.2643149495124817px"/>
    <line x1="130.81" y1="47.31" x2="150" y2="138.81" style="fill: none;stroke: #fff;stroke-miterlimit: 10;stroke-width: 0.2643149495124817px"/>
    <line x1="124.95" y1="46.94" x2="150" y2="138.81" style="fill: none;stroke: #fff;stroke-miterlimit: 10;stroke-width: 0.2643149495124817px"/>
    <line x1="120.05" y1="46.46" x2="150" y2="138.81" style="fill: none;stroke: #fff;stroke-miterlimit: 10;stroke-width: 0.2643149495124817px"/>
    <line x1="116.99" y1="46.04" x2="150" y2="138.81" style="fill: none;stroke: #fff;stroke-miterlimit: 10;stroke-width: 0.2643149495124817px"/>
    <line x1="112.31" y1="45.16" x2="150" y2="140.9" style="fill: none;stroke: #fff;stroke-miterlimit: 10;stroke-width: 0.2643149495124817px"/>
    <line x1="108.86" y1="44.28" x2="150" y2="140.9" style="fill: none;stroke: #fff;stroke-miterlimit: 10;stroke-width: 0.2643149495124817px"/>
    <line x1="170.25" y1="47.21" x2="150" y2="140.9" style="fill: none;stroke: #fff;stroke-miterlimit: 10;stroke-width: 0.2643149495124817px"/>
    <line x1="175.37" y1="46.8" x2="150" y2="140.9" style="fill: none;stroke: #fff;stroke-miterlimit: 10;stroke-width: 0.2643149495124817px"/>
    <line x1="179.96" y1="46.29" x2="150" y2="140.9" style="fill: none;stroke: #fff;stroke-miterlimit: 10;stroke-width: 0.2643149495124817px"/>
    <line x1="183.49" y1="45.75" x2="150" y2="140.9" style="fill: none;stroke: #fff;stroke-miterlimit: 10;stroke-width: 0.2643149495124817px"/>
    <line x1="187.72" y1="44.91" x2="150" y2="140.9" style="fill: none;stroke: #fff;stroke-miterlimit: 10;stroke-width: 0.2643149495124817px"/>
    <line x1="190.55" y1="44.22" x2="150" y2="140.9" style="fill: none;stroke: #fff;stroke-miterlimit: 10;stroke-width: 0.2643149495124817px"/>
    <path d="M102.2,39.13a34.22,34.22,0,0,1,11.11-2.33,15.34,15.34,0,0,1,8.6,0,15.79,15.79,0,0,1,9.85,0,17.11,17.11,0,0,1,11.93-.35,22.47,22.47,0,0,1,12.62,0c4.25-1,8.21-1.37,11.46,0,3.41-1.28,6.43-1.24,9,.28,4.06-1.46,7.6-1.63,10.54-.28a45.45,45.45,0,0,1,11.3,2.68" style="fill: none;stroke: #fff;stroke-miterlimit: 10;stroke-width: 2.1145195960998535px"/>
    <line x1="150.15" y1="275.45" x2="150.15" y2="279.93" style="fill: none;stroke: #fff;stroke-miterlimit: 10;stroke-width: 0.5286298990249634px"/>
    <line x1="151.19" y1="275.32" x2="151.19" y2="279.79" style="fill: none;stroke: #fff;stroke-miterlimit: 10;stroke-width: 0.5286298990249634px"/>
    <line x1="152.25" y1="275.45" x2="152.25" y2="279.93" style="fill: none;stroke: #fff;stroke-miterlimit: 10;stroke-width: 0.5286298990249634px"/>
    <line x1="153.32" y1="275.45" x2="153.32" y2="279.93" style="fill: none;stroke: #fff;stroke-miterlimit: 10;stroke-width: 0.5286298990249634px"/>
    <line x1="154.35" y1="275.68" x2="154.35" y2="280.16" style="fill: none;stroke: #fff;stroke-miterlimit: 10;stroke-width: 0.5286298990249634px"/>
    <line x1="155.38" y1="275.68" x2="155.38" y2="280.16" style="fill: none;stroke: #fff;stroke-miterlimit: 10;stroke-width: 0.5286298990249634px"/>
    <line x1="156.42" y1="275.95" x2="156.42" y2="280.43" style="fill: none;stroke: #fff;stroke-miterlimit: 10;stroke-width: 0.5286298990249634px"/>
    <line x1="157.46" y1="275.82" x2="157.46" y2="280.29" style="fill: none;stroke: #fff;stroke-miterlimit: 10;stroke-width: 0.5286298990249634px"/>
    <line x1="158.52" y1="275.95" x2="158.52" y2="280.43" style="fill: none;stroke: #fff;stroke-miterlimit: 10;stroke-width: 0.5286298990249634px"/>
    <line x1="159.59" y1="275.95" x2="159.59" y2="280.43" style="fill: none;stroke: #fff;stroke-miterlimit: 10;stroke-width: 0.5286298990249634px"/>
    <line x1="160.62" y1="276.18" x2="160.62" y2="280.65" style="fill: none;stroke: #fff;stroke-miterlimit: 10;stroke-width: 0.5286298990249634px"/>
    <line x1="161.65" y1="276.4" x2="161.65" y2="280.87" style="fill: none;stroke: #fff;stroke-miterlimit: 10;stroke-width: 0.5286298990249634px"/>
    <line x1="162.66" y1="276.46" x2="162.66" y2="280.93" style="fill: none;stroke: #fff;stroke-miterlimit: 10;stroke-width: 0.5286298990249634px"/>
    <line x1="163.73" y1="276.59" x2="163.73" y2="281.07" style="fill: none;stroke: #fff;stroke-miterlimit: 10;stroke-width: 0.5286298990249634px"/>
    <line x1="164.79" y1="276.89" x2="164.79" y2="281.37" style="fill: none;stroke: #fff;stroke-miterlimit: 10;stroke-width: 0.5286298990249634px"/>
    <line x1="165.83" y1="277.08" x2="165.83" y2="281.55" style="fill: none;stroke: #fff;stroke-miterlimit: 10;stroke-width: 0.5286298990249634px"/>
    <line x1="166.86" y1="277.34" x2="166.86" y2="281.81" style="fill: none;stroke: #fff;stroke-miterlimit: 10;stroke-width: 0.5286298990249634px"/>
    <line x1="167.87" y1="277.71" x2="167.87" y2="282.18" style="fill: none;stroke: #fff;stroke-miterlimit: 10;stroke-width: 0.5286298990249634px"/>
    <line x1="168.94" y1="277.84" x2="168.94" y2="282.32" style="fill: none;stroke: #fff;stroke-miterlimit: 10;stroke-width: 0.5286298990249634px"/>
    <line x1="170" y1="278.14" x2="170" y2="282.62" style="fill: none;stroke: #fff;stroke-miterlimit: 10;stroke-width: 0.5286298990249634px"/>
    <line x1="171.04" y1="278.39" x2="171.04" y2="282.87" style="fill: none;stroke: #fff;stroke-miterlimit: 10;stroke-width: 0.5286298990249634px"/>
    <line x1="172.07" y1="278.77" x2="172.07" y2="283.25" style="fill: none;stroke: #fff;stroke-miterlimit: 10;stroke-width: 0.5286298990249634px"/>
    <line x1="173.12" y1="279.15" x2="173.12" y2="283.62" style="fill: none;stroke: #fff;stroke-miterlimit: 10;stroke-width: 0.5286298990249634px"/>
    <line x1="174.19" y1="279.28" x2="174.19" y2="283.76" style="fill: none;stroke: #fff;stroke-miterlimit: 10;stroke-width: 0.5286298990249634px"/>
    <line x1="175.25" y1="279.58" x2="175.25" y2="284.06" style="fill: none;stroke: #fff;stroke-miterlimit: 10;stroke-width: 0.5286298990249634px"/>
    <line x1="176.29" y1="280.08" x2="176.29" y2="284.56" style="fill: none;stroke: #fff;stroke-miterlimit: 10;stroke-width: 0.5286298990249634px"/>
    <line x1="149.12" y1="275.56" x2="149.12" y2="280.03" style="fill: none;stroke: #fff;stroke-miterlimit: 10;stroke-width: 0.5286298990249634px"/>
    <line x1="148.09" y1="275.42" x2="148.09" y2="279.9" style="fill: none;stroke: #fff;stroke-miterlimit: 10;stroke-width: 0.5286298990249634px"/>
    <line x1="147.02" y1="275.56" x2="147.02" y2="280.03" style="fill: none;stroke: #fff;stroke-miterlimit: 10;stroke-width: 0.5286298990249634px"/>
    <line x1="145.96" y1="275.56" x2="145.96" y2="280.03" style="fill: none;stroke: #fff;stroke-miterlimit: 10;stroke-width: 0.5286298990249634px"/>
    <line x1="144.93" y1="275.78" x2="144.93" y2="280.26" style="fill: none;stroke: #fff;stroke-miterlimit: 10;stroke-width: 0.5286298990249634px"/>
    <line x1="143.89" y1="275.78" x2="143.89" y2="280.26" style="fill: none;stroke: #fff;stroke-miterlimit: 10;stroke-width: 0.5286298990249634px"/>
    <line x1="142.85" y1="276.05" x2="142.85" y2="280.53" style="fill: none;stroke: #fff;stroke-miterlimit: 10;stroke-width: 0.5286298990249634px"/>
    <line x1="141.82" y1="275.92" x2="141.82" y2="280.39" style="fill: none;stroke: #fff;stroke-miterlimit: 10;stroke-width: 0.5286298990249634px"/>
    <line x1="140.75" y1="276.05" x2="140.75" y2="280.53" style="fill: none;stroke: #fff;stroke-miterlimit: 10;stroke-width: 0.5286298990249634px"/>
    <line x1="139.69" y1="276.05" x2="139.69" y2="280.53" style="fill: none;stroke: #fff;stroke-miterlimit: 10;stroke-width: 0.5286298990249634px"/>
    <line x1="138.65" y1="276.28" x2="138.65" y2="280.76" style="fill: none;stroke: #fff;stroke-miterlimit: 10;stroke-width: 0.5286298990249634px"/>
    <line x1="137.62" y1="276.5" x2="137.62" y2="280.97" style="fill: none;stroke: #fff;stroke-miterlimit: 10;stroke-width: 0.5286298990249634px"/>
    <line x1="136.61" y1="276.56" x2="136.61" y2="281.04" style="fill: none;stroke: #fff;stroke-miterlimit: 10;stroke-width: 0.5286298990249634px"/>
    <line x1="135.55" y1="276.7" x2="135.55" y2="281.17" style="fill: none;stroke: #fff;stroke-miterlimit: 10;stroke-width: 0.5286298990249634px"/>
    <line x1="134.48" y1="276.99" x2="134.48" y2="281.47" style="fill: none;stroke: #fff;stroke-miterlimit: 10;stroke-width: 0.5286298990249634px"/>
    <line x1="133.45" y1="277.18" x2="133.45" y2="281.65" style="fill: none;stroke: #fff;stroke-miterlimit: 10;stroke-width: 0.5286298990249634px"/>
    <line x1="132.42" y1="277.44" x2="132.42" y2="281.92" style="fill: none;stroke: #fff;stroke-miterlimit: 10;stroke-width: 0.5286298990249634px"/>
    <line x1="131.4" y1="277.81" x2="131.4" y2="282.29" style="fill: none;stroke: #fff;stroke-miterlimit: 10;stroke-width: 0.5286298990249634px"/>
    <line x1="130.34" y1="277.94" x2="130.34" y2="282.42" style="fill: none;stroke: #fff;stroke-miterlimit: 10;stroke-width: 0.5286298990249634px"/>
    <line x1="129.27" y1="278.24" x2="129.27" y2="282.72" style="fill: none;stroke: #fff;stroke-miterlimit: 10;stroke-width: 0.5286298990249634px"/>
    <line x1="128.24" y1="278.5" x2="128.24" y2="282.97" style="fill: none;stroke: #fff;stroke-miterlimit: 10;stroke-width: 0.5286298990249634px"/>
    <line x1="127.21" y1="278.87" x2="127.21" y2="283.35" style="fill: none;stroke: #fff;stroke-miterlimit: 10;stroke-width: 0.5286298990249634px"/>
    <line x1="126.15" y1="279.25" x2="126.15" y2="283.73" style="fill: none;stroke: #fff;stroke-miterlimit: 10;stroke-width: 0.5286298990249634px"/>
    <line x1="125.09" y1="279.38" x2="125.09" y2="283.86" style="fill: none;stroke: #fff;stroke-miterlimit: 10;stroke-width: 0.5286298990249634px"/>
    <line x1="124.02" y1="279.68" x2="124.02" y2="284.16" style="fill: none;stroke: #fff;stroke-miterlimit: 10;stroke-width: 0.5286298990249634px"/>
    <path d="M130.81,287.49c.8-.95,1.68-1.84,2.55-2.73s1.77-1.74,2.73-2.54c-.81,1-1.68,1.84-2.55,2.73S131.77,286.69,130.81,287.49Z" style="fill: #fff"/>
    <path d="M133.66,288.13c.91-1.06,1.88-2.05,2.86-3.05s2-1.95,3-2.86c-.91,1.06-1.89,2-2.86,3S134.72,287.22,133.66,288.13Z" style="fill: #fff"/>
    <path d="M136.87,288.56c1-1.21,2.17-2.34,3.29-3.48s2.27-2.24,3.47-3.29c-1,1.21-2.17,2.34-3.29,3.48S138.07,287.51,136.87,288.56Z" style="fill: #fff"/>
    <path d="M139.9,289.26c1.16-1.32,2.4-2.57,3.63-3.82s2.49-2.46,3.81-3.63c-1.16,1.32-2.4,2.57-3.63,3.82S141.22,288.09,139.9,289.26Z" style="fill: #fff"/>
    <path d="M147,285.83c.65-.8,1.37-1.53,2.08-2.27s1.46-1.43,2.26-2.07c-.64.8-1.36,1.53-2.07,2.26S147.85,285.18,147,285.83Z" style="fill: #fff"/>
    <path d="M150.83,285.65c.64-.8,1.36-1.53,2.07-2.26s1.46-1.43,2.27-2.08c-.65.8-1.37,1.53-2.08,2.26S151.63,285,150.83,285.65Z" style="fill: #fff"/>
    <path d="M127.83,287.06a26.11,26.11,0,0,1,1.8-2,24,24,0,0,1,2-1.79,28.85,28.85,0,0,1-3.78,3.77Z" style="fill: #fff"/>
    <path d="M154.25,286c.65-.8,1.37-1.53,2.08-2.26s1.46-1.43,2.26-2.08c-.64.8-1.36,1.53-2.07,2.26S155.05,285.38,154.25,286Z" style="fill: #fff"/>
    <path d="M157.43,286.66c.64-.8,1.36-1.53,2.07-2.27s1.46-1.43,2.26-2.07c-.64.8-1.36,1.53-2.07,2.26S158.23,286,157.43,286.66Z" style="fill: #fff"/>
    <path d="M158.27,289.44c1-1.21,2.17-2.34,3.29-3.48s2.27-2.24,3.48-3.29c-1,1.2-2.18,2.34-3.29,3.48S159.47,288.38,158.27,289.44Z" style="fill: #fff"/>
    <path d="M161.84,289.39c.91-1.06,1.89-2.05,2.86-3.05s2-1.95,3.05-2.86c-.91,1.06-1.89,2-2.86,3S162.9,288.48,161.84,289.39Z" style="fill: #fff"/>
    <path d="M165.6,289c.73-.89,1.53-1.7,2.33-2.52s1.63-1.6,2.52-2.33c-.73.88-1.54,1.7-2.33,2.52S166.48,288.28,165.6,289Z" style="fill: #fff"/>
    <path d="M169.75,287.94a17.35,17.35,0,0,1,1.45-1.64,16,16,0,0,1,1.63-1.44,16.07,16.07,0,0,1-1.45,1.63A17.38,17.38,0,0,1,169.75,287.94Z" style="fill: #fff"/>
    <path d="M169.3,287.3c-1-.81-1.84-1.68-2.74-2.55S164.82,283,164,282c1,.8,1.84,1.67,2.73,2.54S168.49,286.34,169.3,287.3Z" style="fill: #fff"/>
    <path d="M166.45,287.93c-1.06-.91-2-1.89-3-2.86s-2-2-2.86-3.05c1.06.91,2.05,1.89,3.05,2.86S165.54,286.87,166.45,287.93Z" style="fill: #fff"/>
    <path d="M163.24,288.36c-1.2-1.05-2.34-2.18-3.48-3.29s-2.24-2.27-3.29-3.48c1.21,1.05,2.34,2.17,3.48,3.29S162.19,287.15,163.24,288.36Z" style="fill: #fff"/>
    <path d="M160.21,289.06c-1.32-1.17-2.57-2.4-3.82-3.63s-2.46-2.5-3.63-3.82c1.32,1.17,2.57,2.4,3.82,3.63S159,287.74,160.21,289.06Z" style="fill: #fff"/>
    <path d="M153.06,285.63c-.8-.65-1.53-1.37-2.26-2.08s-1.43-1.46-2.08-2.26c.8.64,1.53,1.36,2.27,2.07S152.42,284.83,153.06,285.63Z" style="fill: #fff"/>
    <path d="M149.28,285.45c-.8-.65-1.53-1.36-2.26-2.08s-1.43-1.46-2.08-2.26c.8.65,1.53,1.36,2.26,2.08S148.63,284.65,149.28,285.45Z" style="fill: #fff"/>
    <path d="M172.27,286.86c-.7-.55-1.34-1.18-2-1.79s-1.24-1.28-1.79-2a26.51,26.51,0,0,1,3.77,3.77Z" style="fill: #fff"/>
    <path d="M145.85,285.83c-.8-.65-1.53-1.36-2.26-2.08s-1.43-1.46-2.08-2.26c.8.65,1.53,1.36,2.27,2.08S145.21,285,145.85,285.83Z" style="fill: #fff"/>
    <path d="M142.68,286.46c-.8-.65-1.53-1.37-2.26-2.08s-1.43-1.46-2.08-2.26c.8.64,1.53,1.36,2.27,2.07S142,285.66,142.68,286.46Z" style="fill: #fff"/>
    <path d="M141.84,289.24c-1.21-1.05-2.34-2.18-3.48-3.29s-2.24-2.28-3.29-3.48c1.21,1,2.34,2.17,3.48,3.29S140.79,288,141.84,289.24Z" style="fill: #fff"/>
    <path d="M138.27,289.19c-1.06-.91-2.05-1.89-3.05-2.86s-2-2-2.86-3.05c1.06.91,2,1.89,3,2.86S137.36,288.13,138.27,289.19Z" style="fill: #fff"/>
    <path d="M134.51,288.81c-.89-.73-1.7-1.54-2.52-2.33s-1.6-1.64-2.33-2.52c.89.73,1.7,1.53,2.52,2.33S133.78,287.92,134.51,288.81Z" style="fill: #fff"/>
    <path d="M130.36,287.74a18.88,18.88,0,0,1-1.64-1.45,16,16,0,0,1-1.44-1.63,16,16,0,0,1,1.63,1.44A18.88,18.88,0,0,1,130.36,287.74Z" style="fill: #fff"/>
    <path d="M121.91,36.8a16.6,16.6,0,0,1-2.35-7.36,8.73,8.73,0,0,1,1.6-5.4,81.4,81.4,0,0,1,12.34-14" style="fill: none;stroke: #fff;stroke-miterlimit: 10;stroke-width: 1.0572597980499268px"/>
    <path d="M131.76,36.8c-1.07-4.09-1.56-7.88-.61-10.92,1.57-5.76,4.77-11.43,9.25-17" style="fill: none;stroke: #fff;stroke-miterlimit: 10;stroke-width: 1.0572597980499268px"/>
    <path d="M143.69,36.45l-.58-9.9a9,9,0,0,1,.13-2.2l3-16" style="fill: none;stroke: #fff;stroke-miterlimit: 10;stroke-width: 1.0572597980499268px"/>
    <path d="M156.31,36.45V25.56c0-.3,0-.6-.05-.9A81.49,81.49,0,0,0,152.4,8.24" style="fill: none;stroke: #fff;stroke-miterlimit: 10;stroke-width: 1.0572597980499268px"/>
    <path d="M167.77,36.45a40.28,40.28,0,0,0,1.2-8.11,14.09,14.09,0,0,0-1.29-6.29,98.4,98.4,0,0,0-7.56-13.69" style="fill: none;stroke: #fff;stroke-miterlimit: 10;stroke-width: 1.0572597980499268px"/>
    <path d="M176.79,36.73a35.93,35.93,0,0,0,1.13-7,12.57,12.57,0,0,0-1.49-6.41,72.55,72.55,0,0,0-9.68-13.65" style="fill: none;stroke: #fff;stroke-miterlimit: 10;stroke-width: 1.0572597980499268px"/>
    <path d="M187.33,36.45a19.48,19.48,0,0,0,.62-6.66,11.27,11.27,0,0,0-2-5.42,71.46,71.46,0,0,0-12.26-13.14" style="fill: none;stroke: #fff;stroke-miterlimit: 10;stroke-width: 1.0572597980499268px"/>
    <line x1="156.37" y1="47.79" x2="156.31" y2="36.45" style="fill: none;stroke: #fff;stroke-miterlimit: 10;stroke-width: 1.0572597980499268px"/>
    <line x1="167.45" y1="47.84" x2="167.77" y2="36.45" style="fill: none;stroke: #fff;stroke-miterlimit: 10;stroke-width: 1.0572597980499268px"/>
    <line x1="176.16" y1="46.73" x2="176.79" y2="36.73" style="fill: none;stroke: #fff;stroke-miterlimit: 10;stroke-width: 1.0572597980499268px"/>
    <line x1="185.54" y1="45.37" x2="187.33" y2="36.45" style="fill: none;stroke: #fff;stroke-miterlimit: 10;stroke-width: 1.0572597980499268px"/>
    <line x1="144.67" y1="47.79" x2="143.69" y2="36.45" style="fill: none;stroke: #fff;stroke-miterlimit: 10;stroke-width: 1.0572597980499268px"/>
    <line x1="133.92" y1="47.45" x2="131.76" y2="36.8" style="fill: none;stroke: #fff;stroke-miterlimit: 10;stroke-width: 1.0572597980499268px"/>
    <line x1="123.95" y1="46.86" x2="121.91" y2="36.8" style="fill: none;stroke: #fff;stroke-miterlimit: 10;stroke-width: 1.0572597980499268px"/>
    <path d="M115.58,45.81l-2.27-9a16.38,16.38,0,0,1-1.42-3.36,9.61,9.61,0,0,1,1.52-8.15c2.86-4,8.37-8.77,12.4-12.75" style="fill: none;stroke: #fff;stroke-miterlimit: 10;stroke-width: 1.0572597980499268px"/>
    <path d="M132.83,26.4a4.66,4.66,0,0,1,.91,1.32,6.55,6.55,0,0,1,.27.74,3.52,3.52,0,0,1,.15.81,3.78,3.78,0,0,1-.52-.63,4.74,4.74,0,0,1-.38-.7A4.41,4.41,0,0,1,132.83,26.4Z" style="fill: #fff"/>
    <path d="M133.89,24.44a11.45,11.45,0,0,1,1.33,2.26,11.81,11.81,0,0,1,.5,1.21,8.82,8.82,0,0,1,.36,1.27,8.74,8.74,0,0,1-.73-1.1c-.23-.38-.42-.77-.61-1.16A12.52,12.52,0,0,1,133.89,24.44Z" style="fill: #fff"/>
    <path d="M135.52,23.44a16.34,16.34,0,0,1,1.55,2.76,15.43,15.43,0,0,1,.6,1.46,10.74,10.74,0,0,1,.47,1.52,14.47,14.47,0,0,1-.84-1.35c-.26-.46-.48-.94-.71-1.41A17.9,17.9,0,0,1,135.52,23.44Z" style="fill: #fff"/>
    <path d="M137.63,23.43a9.15,9.15,0,0,1,1.19,1.92c.15.34.3.69.42,1a6.7,6.7,0,0,1,.29,1.11,7.17,7.17,0,0,1-.66-.93,10.52,10.52,0,0,1-.53-1A8.75,8.75,0,0,1,137.63,23.43Z" style="fill: #fff"/>
    <path d="M139.5,23.47a4.84,4.84,0,0,1,.93,1.36,5.4,5.4,0,0,1,.29.76,3.3,3.3,0,0,1,.16.83,4.57,4.57,0,0,1-.53-.65,5.57,5.57,0,0,1-.4-.71A4.7,4.7,0,0,1,139.5,23.47Z" style="fill: #fff"/>
    <path d="M121.31,27.62a4.35,4.35,0,0,1,.9,1.33,4.7,4.7,0,0,1,.28.74,4.19,4.19,0,0,1,.15.8,3.41,3.41,0,0,1-.52-.63,5.83,5.83,0,0,1-.39-.69A4.39,4.39,0,0,1,121.31,27.62Z" style="fill: #fff"/>
    <path d="M122.36,25.66a11.3,11.3,0,0,1,1.34,2.26c.18.4.35.8.49,1.21a8,8,0,0,1,.37,1.27,8.74,8.74,0,0,1-.73-1.1,11.61,11.61,0,0,1-.61-1.16A12.12,12.12,0,0,1,122.36,25.66Z" style="fill: #fff"/>
    <path d="M124,24.66a17.86,17.86,0,0,1,1.55,2.76c.21.48.43,1,.6,1.46a13.36,13.36,0,0,1,.47,1.52,12.63,12.63,0,0,1-.84-1.35c-.26-.46-.49-.93-.71-1.41A16.76,16.76,0,0,1,124,24.66Z" style="fill: #fff"/>
    <path d="M126.11,24.66a8.9,8.9,0,0,1,1.19,1.92c.15.34.3.68.42,1a6.85,6.85,0,0,1,.29,1.1,6.55,6.55,0,0,1-.66-.93,9.41,9.41,0,0,1-.53-1A8.68,8.68,0,0,1,126.11,24.66Z" style="fill: #fff"/>
    <path d="M128,24.7a4.61,4.61,0,0,1,.94,1.36,6.28,6.28,0,0,1,.29.76,4.25,4.25,0,0,1,.16.82,3.22,3.22,0,0,1-.53-.65,5,5,0,0,1-.4-.71A4.83,4.83,0,0,1,128,24.7Z" style="fill: #fff"/>
    <path d="M113,29.3a4.43,4.43,0,0,1,.9,1.32,5.22,5.22,0,0,1,.28.75,3.34,3.34,0,0,1,.15.8,3.41,3.41,0,0,1-.52-.63,6.75,6.75,0,0,1-.39-.69A4.45,4.45,0,0,1,113,29.3Z" style="fill: #fff"/>
    <path d="M114.08,27.34a11,11,0,0,1,1.34,2.26,10.56,10.56,0,0,1,.49,1.21,7.73,7.73,0,0,1,.37,1.27,8.74,8.74,0,0,1-.73-1.1,12.81,12.81,0,0,1-.61-1.16A12.12,12.12,0,0,1,114.08,27.34Z" style="fill: #fff"/>
    <path d="M116.19,27.1A8.75,8.75,0,0,1,117.38,29a7.8,7.8,0,0,1,.42,1,6.85,6.85,0,0,1,.29,1.1,7.47,7.47,0,0,1-.66-.93,10.36,10.36,0,0,1-.53-1A9.12,9.12,0,0,1,116.19,27.1Z" style="fill: #fff"/>
    <path d="M105.38,30.4a4.46,4.46,0,0,1,.91,1.32,5.17,5.17,0,0,1,.27.75,3,3,0,0,1,.15.8,3.41,3.41,0,0,1-.52-.63,5.2,5.2,0,0,1-.38-.69A4.69,4.69,0,0,1,105.38,30.4Z" style="fill: #fff"/>
    <path d="M106.44,28.44a12,12,0,0,1,1.34,2.26c.17.4.35.79.49,1.21a8.82,8.82,0,0,1,.36,1.27,8.74,8.74,0,0,1-.73-1.1,10.62,10.62,0,0,1-.6-1.16A11.55,11.55,0,0,1,106.44,28.44Z" style="fill: #fff"/>
    <path d="M108.55,28.2a9.15,9.15,0,0,1,1.19,1.92c.15.34.3.68.42,1a6.85,6.85,0,0,1,.29,1.1,6,6,0,0,1-.66-.93,8.51,8.51,0,0,1-.53-1A8.68,8.68,0,0,1,108.55,28.2Z" style="fill: #fff"/>
    <path d="M166.71,25.75a4.4,4.4,0,0,1-.42,1.54,4.7,4.7,0,0,1-.39.69,3.4,3.4,0,0,1-.52.64,4.15,4.15,0,0,1,.15-.81,4.7,4.7,0,0,1,.28-.74A4.43,4.43,0,0,1,166.71,25.75Z" style="fill: #fff"/>
    <path d="M165.66,23.78a11.82,11.82,0,0,1-.86,2.49c-.19.39-.38.78-.6,1.16a11.14,11.14,0,0,1-.74,1.1,9,9,0,0,1,.37-1.28c.14-.41.31-.81.49-1.21A12.11,12.11,0,0,1,165.66,23.78Z" style="fill: #fff"/>
    <path d="M164,22.79a17.35,17.35,0,0,1-1.07,3c-.22.47-.45.95-.71,1.41a13.71,13.71,0,0,1-.84,1.35,12.22,12.22,0,0,1,.47-1.52c.17-.5.39-1,.6-1.46A17.41,17.41,0,0,1,164,22.79Z" style="fill: #fff"/>
    <path d="M161.91,22.78a8.68,8.68,0,0,1-.71,2.14,8.51,8.51,0,0,1-.53,1,5.84,5.84,0,0,1-.66.93,6.85,6.85,0,0,1,.29-1.1c.12-.36.27-.7.42-1A9.15,9.15,0,0,1,161.91,22.78Z" style="fill: #fff"/>
    <path d="M160.05,22.82a4.83,4.83,0,0,1-.46,1.58,4.47,4.47,0,0,1-.4.71,3,3,0,0,1-.53.65,4.41,4.41,0,0,1,.16-.82,7,7,0,0,1,.29-.76A4.61,4.61,0,0,1,160.05,22.82Z" style="fill: #fff"/>
    <path d="M186,28.09a4.39,4.39,0,0,1-.42,1.55,6.75,6.75,0,0,1-.39.69,3.41,3.41,0,0,1-.52.63,3.54,3.54,0,0,1,.15-.8,4.7,4.7,0,0,1,.28-.74A4.35,4.35,0,0,1,186,28.09Z" style="fill: #fff"/>
    <path d="M184.93,26.13a12.12,12.12,0,0,1-.86,2.48,12.81,12.81,0,0,1-.61,1.16,8.74,8.74,0,0,1-.73,1.1,8.82,8.82,0,0,1,.36-1.27c.14-.41.32-.81.5-1.21A11,11,0,0,1,184.93,26.13Z" style="fill: #fff"/>
    <path d="M183.29,25.13a16.76,16.76,0,0,1-1.07,3c-.23.48-.45.95-.71,1.41a12.63,12.63,0,0,1-.84,1.35,13.36,13.36,0,0,1,.47-1.52,15.43,15.43,0,0,1,.6-1.46A16.34,16.34,0,0,1,183.29,25.13Z" style="fill: #fff"/>
    <path d="M181.18,25.13a8.68,8.68,0,0,1-.71,2.14,9.41,9.41,0,0,1-.53,1,6.55,6.55,0,0,1-.66.93,6.58,6.58,0,0,1,.29-1.1c.12-.36.27-.7.42-1A8.9,8.9,0,0,1,181.18,25.13Z" style="fill: #fff"/>
    <path d="M176.64,26.87a5.16,5.16,0,0,1-.81,2.24,3.41,3.41,0,0,1-.52.63,3.06,3.06,0,0,1,.15-.8,4.66,4.66,0,0,1,.27-.74A4.5,4.5,0,0,1,176.64,26.87Z" style="fill: #fff"/>
    <path d="M175.64,25a11.82,11.82,0,0,1-.86,2.49c-.19.39-.38.78-.6,1.16a9.62,9.62,0,0,1-.74,1.1,8.49,8.49,0,0,1,.37-1.27,12.93,12.93,0,0,1,.49-1.22A12.11,12.11,0,0,1,175.64,25Z" style="fill: #fff"/>
    <path d="M173.74,24.55a8.68,8.68,0,0,1-.71,2.14c-.17.34-.33.67-.53,1a6.55,6.55,0,0,1-.66.93,6.33,6.33,0,0,1,.29-1.1,9.41,9.41,0,0,1,.42-1A8.9,8.9,0,0,1,173.74,24.55Z" style="fill: #fff"/>
    <path d="M171.87,24.59a4.65,4.65,0,0,1-.45,1.58,5,5,0,0,1-.4.71,4.07,4.07,0,0,1-.53.65,3.14,3.14,0,0,1,.16-.82,5.25,5.25,0,0,1,1.22-2.12Z" style="fill: #fff"/>
    <path d="M194.52,28.81a4.51,4.51,0,0,1-.42,1.55,6.75,6.75,0,0,1-.39.69,3.41,3.41,0,0,1-.52.63,3.34,3.34,0,0,1,.15-.8,5.22,5.22,0,0,1,.28-.75A4.43,4.43,0,0,1,194.52,28.81Z" style="fill: #fff"/>
    <path d="M193.13,27.25a9.12,9.12,0,0,1-.71,2.14c-.17.34-.33.67-.53,1a7.47,7.47,0,0,1-.66.93,5.94,5.94,0,0,1,.29-1.1,7.8,7.8,0,0,1,.42-1A8.39,8.39,0,0,1,193.13,27.25Z" style="fill: #fff"/>
    <path d="M190.88,27.29a4.82,4.82,0,0,1-.45,1.58,5.42,5.42,0,0,1-.4.71,4.07,4.07,0,0,1-.53.65,3.14,3.14,0,0,1,.16-.82,5,5,0,0,1,.29-.76A4.57,4.57,0,0,1,190.88,27.29Z" style="fill: #fff"/>
    <path d="M145.88,24.61a4.37,4.37,0,0,1,.33,1.57,4.21,4.21,0,0,1,0,.79,3.37,3.37,0,0,1-.17.8,3.29,3.29,0,0,1-.23-.78,5.51,5.51,0,0,1-.1-.79A4.58,4.58,0,0,1,145.88,24.61Z" style="fill: #fff"/>
    <path d="M147.6,23.2a12.09,12.09,0,0,1,.38,2.59c0,.44,0,.87,0,1.31a8.45,8.45,0,0,1-.14,1.32,8.55,8.55,0,0,1-.26-1.3,11.42,11.42,0,0,1-.12-1.3A11.53,11.53,0,0,1,147.6,23.2Z" style="fill: #fff"/>
    <path d="M149.49,22.9a16.75,16.75,0,0,1,.39,3.14c0,.52,0,1.05,0,1.58a14.29,14.29,0,0,1-.15,1.58,12,12,0,0,1-.26-1.57c-.07-.52-.09-1.05-.12-1.57A17.61,17.61,0,0,1,149.49,22.9Z" style="fill: #fff"/>
    <path d="M151.44,23.69a8.6,8.6,0,0,1,.37,2.23,10.46,10.46,0,0,1,0,1.12,7.29,7.29,0,0,1-.15,1.13,6.37,6.37,0,0,1-.26-1.11,8.33,8.33,0,0,1-.11-1.12A8.59,8.59,0,0,1,151.44,23.69Z" style="fill: #fff"/>
    <path d="M153.16,24.44a4.84,4.84,0,0,1,.34,1.61,5.65,5.65,0,0,1,0,.82,3.53,3.53,0,0,1-.17.82,4.27,4.27,0,0,1-.24-.8,5.6,5.6,0,0,1-.1-.81A4.85,4.85,0,0,1,153.16,24.44Z" style="fill: #fff"/>
  </g>
</svg>
