<svg id="start" xmlns="http://www.w3.org/2000/svg" viewBox="0 0 300 300">
    <g>
    <circle cx="150" cy="150" r="132.03" style="fill: none;stroke: #fff;stroke-miterlimit: 10;stroke-width: 8px"/>
    <circle cx="150" cy="150" r="110.03" style="fill: none;stroke: #fff;stroke-miterlimit: 10;stroke-width: 8px"/>
  </g>
  <g>
    <path d="M74.46,147.23H69.85V95.4h4.61Z" style="fill: #fff"/>
    <path d="M104.46,147.23h-3.18L87.44,109.11v38.12H83.1V95.4h3.44l13.58,37.46V95.4h4.34Z" style="fill: #fff"/>
    <path d="M117.61,147.23H113V95.4h4.61Z" style="fill: #fff"/>
    <path d="M144.1,99.48h-8v47.75h-4.61V99.48H123.4V95.4h20.7Z" style="fill: #fff"/>
    <path d="M154.37,147.23h-4.6V95.4h4.6Z" style="fill: #fff"/>
    <path d="M183.91,147.23h-4.57l-1.82-11.52h-10.3l-1.82,11.52H161v-.13l9.24-51.83h4.53Zm-7-15.6-4.54-28.08-4.57,28.08Z" style="fill: #fff"/>
    <path d="M208,99.48h-8v47.75h-4.61V99.48h-8.08V95.4H208Z" style="fill: #fff"/>
    <path d="M230.4,147.23h-17V95.4h16.83v4.08H218v19.34h11.13V123H218v20.2H230.4Z" style="fill: #fff"/>
    <path d="M77.67,197.1H74.42V179.51H65.6V197.1H62.34V160.49H65.6v16.1h8.82v-16.1h3.25Z" style="fill: #fff"/>
    <path d="M98.23,160.7l-4.44,14.81q-.84,2.22-2.22,7.42V197.1H88.31V182.93a25,25,0,0,0-1-3.75c-.75-2.24-1.16-3.47-1.22-3.67L81.65,160.7v-.21H85l5,18.32,5-18.32h3.27Z" style="fill: #fff"/>
    <path d="M116.72,180a2.52,2.52,0,0,1-2.62,2.62h-8.64V197.1h-3.25V160.49H114.1a2.58,2.58,0,0,1,1.88.72,2.54,2.54,0,0,1,.74,1.88Zm-3.25-.28v-16.3h-8v16.3Z" style="fill: #fff"/>
    <path d="M133.89,197.1h-12V160.49h11.89v2.88h-8.63V177H133V180h-7.86v14.28h8.77Z" style="fill: #fff"/>
    <path d="M154.55,197.1h-3.42l-6.8-19.6.44-.66h5.8V163.37h-8.35V197.1H139V160.49h12.26a2.47,2.47,0,0,1,2.59,2.6V177q0,2.66-3.55,2.65c-.23,0-.58,0-1,0l-1,0Q151.41,188.3,154.55,197.1Z" style="fill: #fff"/>
    <path d="M172.31,194.51a2.48,2.48,0,0,1-2.6,2.59H161.2a2.47,2.47,0,0,1-2.6-2.59v-9.29h3.25v9h7.21V160.49h3.25Z" style="fill: #fff"/>
    <path d="M193.34,194.51a2.51,2.51,0,0,1-.73,1.87,2.6,2.6,0,0,1-1.89.72h-10a2.47,2.47,0,0,1-2.6-2.59v-34h3.25v33.74h8.68V160.49h3.25Z" style="fill: #fff"/>
    <path d="M217.3,197.1h-3.07V173.92q0-.49.33-2.88l-6,22.63h-.65l-6-22.63q.33,2.42.33,2.88V197.1h-3.07V160.49h3l5.94,23.82a9.85,9.85,0,0,1,.1,1.05,9,9,0,0,1,.09-1.05l5.94-23.82h3Z" style="fill: #fff"/>
    <path d="M237.66,180a2.52,2.52,0,0,1-2.63,2.62H226.4V197.1h-3.25V160.49H235a2.59,2.59,0,0,1,1.89.72,2.54,2.54,0,0,1,.74,1.88Zm-3.26-.28v-16.3h-8v16.3Z" style="fill: #fff"/>
  </g>
</svg>
