<svg id="Layer_3" data-name="Layer 3" xmlns="http://www.w3.org/2000/svg" viewBox="0 0 1080 1080">
  
  <g>
    <path d="M315.9,638.54c-114-.08-227-16-286.52-43.47a1.58,1.58,0,0,1-.91-1.54c2.45-39.79,8.57-76.86,19.1-110.73,27.68-89,85.82-155.91,187.78-191.9a297,297,0,0,1,196.57-.61C569.06,338.15,625.83,446,643.19,574.44a1.6,1.6,0,0,1-.78,1.59c-19.78,11.45-43.3,21.2-69.48,29.35" style="fill: none;stroke: #fff;stroke-miterlimit: 10;stroke-width: 2px"/>
    <path d="M643.42,595.45c1.15-.45,4.1-1.69,5.24-2.15a5.51,5.51,0,0,0,3.28-3.28,28.64,28.64,0,0,0,1.52-8.87A18.78,18.78,0,0,0,649.27,569a41.67,41.67,0,0,0-7.4-6.79" style="fill: none;stroke: #fff;stroke-miterlimit: 10;stroke-width: 2px"/>
    <path d="M29.89,580.16a25.37,25.37,0,0,0-8.21,9.3c-.07.15-.14.32-.2.48l-.66,1.69a16.69,16.69,0,0,0-1.13,6v2.79a5.36,5.36,0,0,0,3.39,5h0l.57.19c59.15,24.16,142,39.84,233,44.29" style="fill: none;stroke: #fff;stroke-miterlimit: 10;stroke-width: 2px"/>
    <polygon points="270.33 512.68 303.4 443.59 366.6 441.02 405.55 504.59 376.89 569.63 303.4 569.63 270.33 512.68" style="fill: none;stroke: #fff;stroke-miterlimit: 10;stroke-width: 2px"/>
    <polyline points="366.6 441.02 396.17 384.41 458.17 390.14 488.53 447.05 470.06 505.33 405.55 504.59" style="fill: none;stroke: #fff;stroke-miterlimit: 10;stroke-width: 2px"/>
    <polyline points="488.53 447.05 540.19 459.92 575.07 503 561.54 555.79 510.46 566.65 470.06 505.33" style="fill: none;stroke: #fff;stroke-miterlimit: 10;stroke-width: 2px"/>
    <polyline points="396.17 384.41 356.12 338.18 385.5 308.25 451.39 319.79 485.15 358.08" style="fill: none;stroke: #fff;stroke-miterlimit: 10;stroke-width: 2px"/>
    <polyline points="303.4 443.59 262.04 392.49 287.69 344.37 356.12 338.18" style="fill: none;stroke: #fff;stroke-miterlimit: 10;stroke-width: 2px"/>
    <polyline points="270.33 512.68 203.89 518.58 180.94 466.89 197.82 411.23 262.04 392.49" style="fill: none;stroke: #fff;stroke-miterlimit: 10;stroke-width: 2px"/>
    <polyline points="197.82 411.23 160.58 389.4 188.01 342.54 250.1 322.26 287.69 344.37" style="fill: none;stroke: #fff;stroke-miterlimit: 10;stroke-width: 2px"/>
    <polyline points="249.65 322.41 276.42 293.51 347.01 287.13 386.98 308.51" style="fill: none;stroke: #fff;stroke-miterlimit: 10;stroke-width: 2px"/>
    <polyline points="180.94 466.89 140.87 518.58 97.48 502.44 106.48 436.67 160.58 389.4" style="fill: none;stroke: #fff;stroke-miterlimit: 10;stroke-width: 2px"/>
    <polyline points="376.68 570 337.35 508.32 303.17 570.03 232.54 576.73 166.02 571.16 109.71 566.97 69.97 556.86 44.96 544.58 51.12 483.54 83.73 428.9 106.48 436.67 140.49 450.31 181.13 467.31 239.37 455.54 303.4 443.59" style="fill: none;stroke: #fff;stroke-miterlimit: 10;stroke-width: 2px"/>
    <polyline points="248.21 286.91 276.42 293.51 220.11 309.42 160.58 335.45" style="fill: none;stroke: #fff;stroke-miterlimit: 10;stroke-width: 2px"/>
    <polyline points="366.12 440.3 328.67 385.76 303.4 443.59 337.35 508.32 366.6 441.02 428.94 443.59 488.53 447.05 526.07 510.16 540.19 459.92 566.76 439.91 539.63 385.43 485.15 358.08 458.17 390.14" style="fill: none;stroke: #fff;stroke-miterlimit: 10;stroke-width: 2px"/>
    <path d="M337.58,635.82l-34-65.78a.25.25,0,0,0-.44,0l-38.35,67.36a.07.07,0,0,1-.12,0l-32.16-60.66-35.93,55.78a.14.14,0,0,1-.24,0L166,571.16l37.87-52.58h-63L166,571.16,135,623.64a.41.41,0,0,1-.74,0L109.71,567l-22,46.22a.51.51,0,0,1-1-.07L70,556.86l27.51-54.42L109.71,567l31.16-48.39-.38-68.27-43,52.13L70.89,493l-19.77-9.49L48,482.72" style="fill: none;stroke: #fff;stroke-miterlimit: 10;stroke-width: 2px"/>
    <path d="M412.91,627.7,377.11,570a.25.25,0,0,0-.43,0l-36.56,65.88" style="fill: none;stroke: #fff;stroke-miterlimit: 10;stroke-width: 2px"/>
    <polyline points="472.03 621.56 443.56 568.66 419.61 627.21" style="fill: none;stroke: #fff;stroke-miterlimit: 10;stroke-width: 2px"/>
    <polyline points="525.91 591.77 510.46 566.65 478.39 621.36" style="fill: none;stroke: #fff;stroke-miterlimit: 10;stroke-width: 2px"/>
    <path d="M636.11,579.55l-10.39-44.87a.36.36,0,0,1,0-.1l-6-58.69a1.11,1.11,0,0,0-1.77-.78l-15.61,11.5a.91.91,0,0,1-1.28-.19l-32.22-43.65a.92.92,0,0,0-1.65.67l7.67,58.17a.91.91,0,0,0,1.38.67l24.52-14.62a.92.92,0,0,1,1.29.37l23.5,46.35a1,1,0,0,1,.09.53l-6.48,49.39a1.17,1.17,0,0,1-2.23.34l-15.49-33.47a.92.92,0,0,0-1.71.12l-14.69,47.42a1.29,1.29,0,0,1-2.4.18l-20.19-41.17a.91.91,0,0,0-1.68.08l-14.52,39.44" style="fill: none;stroke: #fff;stroke-miterlimit: 10;stroke-width: 2px"/>
    <path d="M377.11,570l66.45-1.33,66.22-2a.92.92,0,0,0,.86-.67l14.94-54.08a.92.92,0,0,1,1.61-.32l34,43.75a.94.94,0,0,0,.88.35L600.31,549a1,1,0,0,0,.29-.1l25-14.26.14-.09,6.53-5.46a1.71,1.71,0,0,1,2.8,1.31l1,49.12" style="fill: none;stroke: #fff;stroke-miterlimit: 10;stroke-width: 2px"/>
    <path d="M45,544.58,70.89,493,70,556.86l-15.23,47a.23.23,0,0,1-.44,0Z" style="fill: none;stroke: #fff;stroke-miterlimit: 10;stroke-width: 2px"/>
    <polyline points="405.55 504.59 443.56 568.66 469.48 504.79 428.94 443.59 405.55 504.59 337.35 508.32 270.33 512.68 232.54 576.73 203.89 518.58 239.37 455.54 269.58 511.83" style="fill: none;stroke: #fff;stroke-miterlimit: 10;stroke-width: 2px"/>
    <polyline points="469.48 504.79 526.07 510.16 575.07 503 600.46 549 601.63 487.16 584.86 427.1 618.64 473.88" style="fill: none;stroke: #fff;stroke-miterlimit: 10;stroke-width: 2px"/>
    <path d="M488.53,447.05l24.6-40.42,26.5-21.2-35.43-45L557,370.06a.81.81,0,0,1,.11,1.33l-17.48,14" style="fill: none;stroke: #fff;stroke-miterlimit: 10;stroke-width: 2px"/>
    <polyline points="540.19 459.92 513.13 406.63 566.76 439.91 584.86 427.1 593.59 418.83" style="fill: none;stroke: #fff;stroke-miterlimit: 10;stroke-width: 2px"/>
    <polyline points="458.17 390.14 422.76 344.8 485.15 358.08 513.13 406.63 458.17 390.14 428.94 443.59 396.17 384.41" style="fill: none;stroke: #fff;stroke-miterlimit: 10;stroke-width: 2px"/>
    <polyline points="160.58 389.4 132.59 379.28 112.53 373.54" style="fill: none;stroke: #fff;stroke-miterlimit: 10;stroke-width: 2px"/>
    <polyline points="160.58 335.45 132.59 379.28 188.01 342.54" style="fill: none;stroke: #fff;stroke-miterlimit: 10;stroke-width: 2px"/>
    <polyline points="188.01 342.54 220.11 309.42 250.1 286.36" style="fill: none;stroke: #fff;stroke-miterlimit: 10;stroke-width: 2px"/>
    <polyline points="70.89 427.34 83.73 428.9 132.59 379.28 106.48 436.67 70.89 493.03 83.73 428.9 112.53 373.54 160.58 335.45 188.01 342.54 221.78 363.17 250.1 322.26 220.11 309.42 197.82 306.61 160.58 335.45 152.25 333.64" style="fill: none;stroke: #fff;stroke-miterlimit: 10;stroke-width: 2px"/>
    <polyline points="250.1 322.26 316.51 311.18 385.5 308.25 422.76 344.8 356.12 338.18 328.67 385.76 287.69 344.37 221.78 363.17 160.58 389.4 140.49 450.31 197.82 411.23" style="fill: none;stroke: #fff;stroke-miterlimit: 10;stroke-width: 2px"/>
    <polyline points="287.69 344.37 316.51 311.18 356.12 338.18" style="fill: none;stroke: #fff;stroke-miterlimit: 10;stroke-width: 2px"/>
    <polyline points="385.5 308.25 414.72 294.91 424.74 287.75" style="fill: none;stroke: #fff;stroke-miterlimit: 10;stroke-width: 2px"/>
    <polygon points="347.01 287.13 414.72 294.91 373.49 276.61 347.01 287.13 316.51 311.18 276.42 293.51 310.96 275.19 347.01 287.13" style="fill: none;stroke: #fff;stroke-miterlimit: 10;stroke-width: 2px"/>
    <path d="M261.45,391.76l-39.68-28.59-24,48.06,41.55,44.31L262,392.49l66.63-6.73,67.32-1,26.77-39.95,28.63-25,16.13-14.52a.32.32,0,0,0-.16-.56l-52.64-9.79,36.67,24.87,52.81,20.69-36.45-34.65" style="fill: none;stroke: #fff;stroke-miterlimit: 10;stroke-width: 2px"/>
    <polyline points="485.15 358.08 504.2 340.47 517.05 333.95" style="fill: none;stroke: #fff;stroke-miterlimit: 10;stroke-width: 2px"/>
    <polyline points="539.63 385.43 584.86 427.1 557.11 371.39" style="fill: none;stroke: #fff;stroke-miterlimit: 10;stroke-width: 2px"/>
    <path d="M45,544.58l-9.56-4.4a.44.44,0,0,0-.63.4v56.61Z" style="fill: none;stroke: #fff;stroke-miterlimit: 10;stroke-width: 2px"/>
    <line x1="112.53" y1="373.54" x2="109.29" y2="372.05" style="fill: none;stroke: #fff;stroke-miterlimit: 10;stroke-width: 2px"/>
    <path d="M875.82,637.11c67.61,12.24,170.51,4.37,184.49-30.38-1-72.87-30.35-120.88-102-131.8a106.59,106.59,0,0,0-31.7,0c-61.85,9.15-96.53,40.29-106.62,95" style="fill: none;stroke: #fff;stroke-miterlimit: 10;stroke-width: 2px"/>
    <path d="M941.51,473.75c-8.57,33.42-10.69,97.6-11.4,168.49" style="fill: none;stroke: #fff;stroke-miterlimit: 10;stroke-width: 2px"/>
    <path d="M956.27,642.37c.62-73.43-2.58-135.14-14.76-168.62" style="fill: none;stroke: #fff;stroke-miterlimit: 10;stroke-width: 2px"/>
    <path d="M979.45,640.42c.28-83.19-8.4-147.23-37.94-166.67" style="fill: none;stroke: #fff;stroke-miterlimit: 10;stroke-width: 2px"/>
    <path d="M904.47,640.81c1.61-83.33,10.94-146.76,37-167.06" style="fill: none;stroke: #fff;stroke-miterlimit: 10;stroke-width: 2px"/>
    <path d="M1002,637.2c3.31-85.42-15.73-141.39-60.48-163.45" style="fill: none;stroke: #fff;stroke-miterlimit: 10;stroke-width: 2px"/>
    <path d="M884,593.54c3-54.39,20.34-95.93,57.47-119.79" style="fill: none;stroke: #fff;stroke-miterlimit: 10;stroke-width: 2px"/>
    <path d="M864,581.72c6.39-47.45,28.43-85.69,77.55-108" style="fill: none;stroke: #fff;stroke-miterlimit: 10;stroke-width: 2px"/>
    <path d="M1021.71,632.53c4.6-75.77-15.29-133.68-80.2-158.78" style="fill: none;stroke: #fff;stroke-miterlimit: 10;stroke-width: 2px"/>
    <path d="M1036.88,627c4.48-77.17-23-131.36-95.37-153.23" style="fill: none;stroke: #fff;stroke-miterlimit: 10;stroke-width: 2px"/>
    <path d="M1048.54,620.46c.39-85.9-37.54-132.15-107-146.71" style="fill: none;stroke: #fff;stroke-miterlimit: 10;stroke-width: 2px"/>
    <path d="M848.85,577.6c7-46.62,31.36-84.49,92.66-103.85" style="fill: none;stroke: #fff;stroke-miterlimit: 10;stroke-width: 2px"/>
    <path d="M834,573.6c10.51-53.24,47.53-85.59,107.51-99.85" style="fill: none;stroke: #fff;stroke-miterlimit: 10;stroke-width: 2px"/>
    <path d="M825.47,571.27c10.87-53.43,47.19-87.71,116-97.52" style="fill: none;stroke: #fff;stroke-miterlimit: 10;stroke-width: 2px"/>
    <path d="M1056.74,612.82c-4.6-92.65-48.17-131.94-115.23-139.07" style="fill: none;stroke: #fff;stroke-miterlimit: 10;stroke-width: 2px"/>
    <path d="M825.58,548.52c77.9,20.8,153.7,22.34,226.56,0" style="fill: none;stroke: #fff;stroke-miterlimit: 10;stroke-width: 2px"/>
    <path d="M867.5,582.72c65.38,12.62,129.12,9.17,190.88-12" style="fill: none;stroke: #fff;stroke-miterlimit: 10;stroke-width: 2px"/>
    <path d="M892,613.4c58.95,6.65,132.2,1.68,168.35-20.26" style="fill: none;stroke: #fff;stroke-miterlimit: 10;stroke-width: 2px"/>
    <path d="M833.84,530.23c71.72,19.35,141.89,20.29,210.28,0" style="fill: none;stroke: #fff;stroke-miterlimit: 10;stroke-width: 2px"/>
    <path d="M848.66,510.34c59.92,15.82,120.54,16.69,182,0" style="fill: none;stroke: #fff;stroke-miterlimit: 10;stroke-width: 2px"/>
    <path d="M866.8,495.55c50.58,11.73,99.79,12.27,147.41,0" style="fill: none;stroke: #fff;stroke-miterlimit: 10;stroke-width: 2px"/>
    <path d="M886.21,485.55c36.53,6.4,73.57,6.64,108.81,0" style="fill: none;stroke: #fff;stroke-miterlimit: 10;stroke-width: 2px"/>
    <line x1="933.48" y1="490.33" x2="940.31" y2="474.87" style="fill: none;stroke: #fff;stroke-miterlimit: 10;stroke-width: 2px"/>
    <line x1="951.56" y1="490.27" x2="943.33" y2="475.9" style="fill: none;stroke: #fff;stroke-miterlimit: 10;stroke-width: 2px"/>
    <line x1="942.08" y1="489.7" x2="941.89" y2="477.67" style="fill: none;stroke: #fff;stroke-miterlimit: 10;stroke-width: 1.5px"/>
    <path d="M669.37,488.74c32.41,17.71,134.31,17.19,145.53-10.69-.63-46.42-19.33-77-65-84a67.65,67.65,0,0,0-20.19,0c-40.77,6-63,27-68.54,64.16" style="fill: none;stroke: #fff;stroke-miterlimit: 10;stroke-width: 2px"/>
    <path d="M739.22,393.34c-5.46,21.29-6.81,62.17-7.26,107.33" style="fill: none;stroke: #fff;stroke-miterlimit: 10;stroke-width: 2px"/>
    <path d="M748.62,500.75c.39-46.77-1.64-86.08-9.4-107.41" style="fill: none;stroke: #fff;stroke-miterlimit: 10;stroke-width: 2px"/>
    <path d="M763.39,499.51c.18-53-5.35-93.79-24.17-106.17" style="fill: none;stroke: #fff;stroke-miterlimit: 10;stroke-width: 2px"/>
    <path d="M715.63,499.76c1-53.08,7-93.49,23.59-106.42" style="fill: none;stroke: #fff;stroke-miterlimit: 10;stroke-width: 2px"/>
    <path d="M777.75,497.46c2.1-54.41-10-90.07-38.53-104.12" style="fill: none;stroke: #fff;stroke-miterlimit: 10;stroke-width: 2px"/>
    <path d="M702.92,498.28c-3.3-48.75,6.5-85.79,36.3-104.94" style="fill: none;stroke: #fff;stroke-miterlimit: 10;stroke-width: 2px"/>
    <path d="M688.89,495.64c-2.68-45.56,8.15-83.17,50.33-102.3" style="fill: none;stroke: #fff;stroke-miterlimit: 10;stroke-width: 2px"/>
    <path d="M790.31,494.49c2.93-48.27-9.74-85.16-51.09-101.15" style="fill: none;stroke: #fff;stroke-miterlimit: 10;stroke-width: 2px"/>
    <path d="M800,491c2.84-49.16-14.66-83.68-60.76-97.61" style="fill: none;stroke: #fff;stroke-miterlimit: 10;stroke-width: 2px"/>
    <path d="M807.4,486.8c.25-54.72-23.91-84.19-68.18-93.46" style="fill: none;stroke: #fff;stroke-miterlimit: 10;stroke-width: 2px"/>
    <path d="M679.1,492.87c-2.52-44.49,7.24-82.83,60.12-99.53" style="fill: none;stroke: #fff;stroke-miterlimit: 10;stroke-width: 2px"/>
    <path d="M670.05,460.85c5.62-36.24,29.51-58.09,69.17-67.51" style="fill: none;stroke: #fff;stroke-miterlimit: 10;stroke-width: 2px"/>
    <path d="M664.75,458.37c6.18-35.7,29.37-58.61,74.47-65" style="fill: none;stroke: #fff;stroke-miterlimit: 10;stroke-width: 2px"/>
    <path d="M812.63,481.93c-2.94-59-30.69-84.05-73.41-88.59" style="fill: none;stroke: #fff;stroke-miterlimit: 10;stroke-width: 2px"/>
    <path d="M665.37,441c49.62,13.25,97.91,14.23,144.33,0" style="fill: none;stroke: #fff;stroke-miterlimit: 10;stroke-width: 2px"/>
    <path d="M661.68,455.14c52.33,16.06,103.13,16.71,152,0" style="fill: none;stroke: #fff;stroke-miterlimit: 10;stroke-width: 2px"/>
    <path d="M676.88,475c47.32,13.74,93.43,12.41,138-5.6" style="fill: none;stroke: #fff;stroke-miterlimit: 10;stroke-width: 2px"/>
    <path d="M670.63,429.32c45.69,12.32,90.39,12.93,134,0" style="fill: none;stroke: #fff;stroke-miterlimit: 10;stroke-width: 2px"/>
    <path d="M680.07,416.65c38.17,10.08,76.79,10.63,115.93,0" style="fill: none;stroke: #fff;stroke-miterlimit: 10;stroke-width: 2px"/>
    <path d="M691.63,407.23c32.22,7.47,63.56,7.81,93.9,0" style="fill: none;stroke: #fff;stroke-miterlimit: 10;stroke-width: 2px"/>
    <path d="M704,400.86a194.75,194.75,0,0,0,69.32,0" style="fill: none;stroke: #fff;stroke-miterlimit: 10;stroke-width: 2px"/>
    <line x1="734.1" y1="403.9" x2="738.45" y2="394.05" style="fill: none;stroke: #fff;stroke-miterlimit: 10;stroke-width: 2px"/>
    <line x1="745.62" y1="403.87" x2="740.38" y2="394.71" style="fill: none;stroke: #fff;stroke-miterlimit: 10;stroke-width: 2px"/>
    <line x1="739.58" y1="403.5" x2="739.46" y2="395.84" style="fill: none;stroke: #fff;stroke-miterlimit: 10;stroke-width: 1.5px"/>
    <polyline points="874.04 669.82 925.56 675.8 925.56 719.16 956.34 759.9 956.34 781.57 825.64 806.14 670.13 783.6 669.52 771.84 662.17 672.92 789.89 656.08 802.25 658.1" style="fill: none;stroke: #fff;stroke-miterlimit: 10;stroke-width: 2px"/>
    <polyline points="668.73 761.09 825.64 784.33 956.34 759.9" style="fill: none;stroke: #fff;stroke-miterlimit: 10;stroke-width: 2px"/>
    <line x1="825.64" y1="806.14" x2="825.64" y2="784.33" style="fill: none;stroke: #fff;stroke-miterlimit: 10;stroke-width: 2px"/>
    <polyline points="802.06 703.58 789.89 702.04 674.31 719.16 676.61 762.26" style="fill: none;stroke: #fff;stroke-miterlimit: 10;stroke-width: 2px"/>
    <line x1="925.56" y1="719.17" x2="806.65" y2="704.16" style="fill: none;stroke: #fff;stroke-miterlimit: 10;stroke-width: 2px"/>
    <line x1="674.31" y1="719.17" x2="662.17" y2="672.92" style="fill: none;stroke: #fff;stroke-miterlimit: 10;stroke-width: 2px"/>
    <path d="M692.24,669,615.36,642.9a18.26,18.26,0,0,0-3.71-.9,16.83,16.83,0,0,0-14.58,5.37c-8.78,9.4-4.7,24.82,7.32,29.38l59.75,22.63" style="fill: none;stroke: #fff;stroke-miterlimit: 10;stroke-width: 2px"/>
    <path d="M613.17,457.82H661a15.91,15.91,0,0,1,6.18,1.14c13.9,5.84,13.75,29-3.71,32.52a4.78,4.78,0,0,1-.92.09h-37" style="fill: none;stroke: #fff;stroke-miterlimit: 10;stroke-width: 2px"/>
    <path d="M794.57,623.44l52,13.76c21.59,4.67,34.64.66,41.6-9.52,6.35-9.27,5.67-21.61-.88-30.74-7-9.7-18.6-15-34-18.57l-56.14-15c-22.76-4.08-36.52,6.06-43.64,26.69" style="fill: none;stroke: #fff;stroke-miterlimit: 10;stroke-width: 2px"/>
    <path d="M606.81,622.5l6.56-4.69a28.36,28.36,0,0,1,6-3.3c26.3-10.27,119-20.16,152.63-21.27a15.11,15.11,0,0,1,10.51,3.69c6.54,5.8,8,14.15,6.6,23.94a10.32,10.32,0,0,1-7.72,8.57c-25,6.24-113.91,17.12-150.17,18.95" style="fill: none;stroke: #fff;stroke-miterlimit: 10;stroke-width: 2px"/>
    <path d="M789.18,623.73c29.53,1.38,20.08-39.34-8.54-28.29" style="fill: none;stroke: #fff;stroke-miterlimit: 10;stroke-width: 2px"/>
    <rect x="272.61" y="644.18" width="237.8" height="37.45" rx="12" transform="translate(-69.55 46.35) rotate(-6.22)" style="fill: none;stroke: #fff;stroke-miterlimit: 10;stroke-width: 2px"/>
    <path d="M274,680.76l-2.33.25A16.06,16.06,0,0,1,254,666.82l-.59-5.38a16.07,16.07,0,0,1,14.19-17.66l204.55-22.3c8.75-1,16.7,4,17.66,12.8" style="fill: none;stroke: #fff;stroke-miterlimit: 10;stroke-width: 2px"/>
    <path d="M502.46,636.94a17.4,17.4,0,0,1,14-6.94,16.76,16.76,0,1,1,0,33.51,17.47,17.47,0,0,1-8.17-2" style="fill: none;stroke: #fff;stroke-miterlimit: 10;stroke-width: 2px"/>
    <path d="M479.79,622.21c12-10.18,30.27-4.24,33.5,7.36" style="fill: none;stroke: #fff;stroke-miterlimit: 10;stroke-width: 2px"/>
    <path d="M480.49,620.58c3.16-8.36,7.51-15.31,13.36-20.47a37.57,37.57,0,0,1,35.63-7.46l54.41,16.29.93.31c20.95,7.72,30.28,19.87,33.09,34.51" style="fill: none;stroke: #fff;stroke-miterlimit: 10;stroke-width: 2px"/>
    <path d="M528,659.16c27.42,8.84,49.59,17.92,71,14.49" style="fill: none;stroke: #fff;stroke-miterlimit: 10;stroke-width: 2px"/>
    <path d="M780.64,595.44c-2.36-12.23-23.47-12-24.83-1.31" style="fill: none;stroke: #fff;stroke-miterlimit: 10;stroke-width: 2px"/>
    <path d="M587.3,609.67c25.72-13.8,159.69-31,169.75-18.85" style="fill: none;stroke: #fff;stroke-miterlimit: 10;stroke-width: 2px"/>
    <path d="M806.65,743.89V651.31a.85.85,0,0,0-.86-.85h-2.36a.86.86,0,0,0-.86.85v92.58" style="fill: none;stroke: #fff;stroke-miterlimit: 10;stroke-width: 2px"/>
    <path d="M873.71,656.82v40.79a1.6,1.6,0,0,1-2.2,1.49c-4.49-1.82-15.09-5.64-24.62-5.64-12.5,0-12.89,3.55-25.25,3.55-11.93,0-14.8-3.8-15-4.07a0,0,0,0,1,0,0V651.49a.08.08,0,0,1,.13-.06c.8.68,5.22,4.16,13.28,4.16,8.94,0,18.15-4.28,30.38-4.28a76.81,76.81,0,0,1,21.81,3.53A2.07,2.07,0,0,1,873.71,656.82Z" style="fill: none;stroke: #fff;stroke-miterlimit: 10;stroke-width: 2px"/>
    <circle cx="804.61" cy="645.46" r="5" style="fill: none;stroke: #fff;stroke-miterlimit: 10;stroke-width: 2px"/>
    <g>
      <path d="M834.73,680.77a9.12,9.12,0,0,1-3.3-10.08,9.18,9.18,0,0,1,17.77,1,9,9,0,0,1-3.56,9.06c0-.37-.08-.72-.09-1.06,0-.11.11-.23.19-.32a8.05,8.05,0,0,0,.35-11.49,8.11,8.11,0,1,0-11.5,11.43.65.65,0,0,1,.22.65C834.77,680.21,834.76,680.46,834.73,680.77Z" style="fill: none;stroke: #fff;stroke-miterlimit: 10;stroke-width: 0.5px"/>
      <path d="M840.72,674.4c.34-.17.63-.32.93-.44a.43.43,0,0,1,.3.13,8.85,8.85,0,0,1,3,5.65,9.09,9.09,0,0,1-4.77,9.28,9.18,9.18,0,0,1-13.37-6.68,2,2,0,0,1,0-.37c.36.17.7.31,1,.48.08,0,.11.2.14.31a8.12,8.12,0,0,0,15.82,0,7.94,7.94,0,0,0-2.69-8.1Z" style="fill: none;stroke: #fff;stroke-miterlimit: 10;stroke-width: 0.5px"/>
      <path d="M830.41,673.25a9,9,0,0,1-3.31-10,9.17,9.17,0,0,1,10.35-6.32,9.07,9.07,0,0,1,7.48,8c-.36-.17-.7-.32-1-.5-.08,0-.11-.2-.13-.31a8.13,8.13,0,0,0-15.91.35,7.94,7.94,0,0,0,2.36,7.36.7.7,0,0,1,.26.68A6.43,6.43,0,0,0,830.41,673.25Z" style="fill: none;stroke: #fff;stroke-miterlimit: 10;stroke-width: 0.5px"/>
      <path d="M839.64,687.47c-.3.14-.55.29-.81.38a.51.51,0,0,1-.4-.08,8.61,8.61,0,0,1-3-5.85,9.18,9.18,0,0,1,11.92-9.73.45.45,0,0,1,.37.48c0,.53,0,1.06,0,1.59a.39.39,0,0,1-.32.4,9,9,0,0,1-3.37.43.94.94,0,0,1-.52-.27c-.28-.27-.52-.58-.86-1a8.46,8.46,0,0,0,5-.41,8,8,0,0,0-9.43,2.37A8.2,8.2,0,0,0,839.64,687.47Z" style="fill: none;stroke: #fff;stroke-miterlimit: 10;stroke-width: 0.5px"/>
      <path d="M840.92,657.56A9.12,9.12,0,0,1,850,673.27c0-.4-.09-.76-.1-1.13,0-.09.12-.19.2-.27A8.13,8.13,0,0,0,846.14,658a7.93,7.93,0,0,0-4,.18.56.56,0,0,1-.59-.1c-.2-.17-.44-.31-.66-.47A0,0,0,0,0,840.92,657.56Z" style="fill: none;stroke: #fff;stroke-miterlimit: 10;stroke-width: 0.5px"/>
      <path d="M850,673.59a9.12,9.12,0,0,1-9.06,15.71,10.61,10.61,0,0,1,.88-.61.56.56,0,0,1,.36,0,7.93,7.93,0,0,0,8.22-2.15,8.08,8.08,0,0,0-.16-11.42.76.76,0,0,1-.31-.79A5.47,5.47,0,0,0,850,673.59Z" style="fill: none;stroke: #fff;stroke-miterlimit: 10;stroke-width: 0.5px"/>
      <path d="M834.74,680.92a7.24,7.24,0,0,1,0,.9c0,.1-.14.23-.24.27a8.56,8.56,0,0,1-3.81.48,9,9,0,0,1-7.25-4.76,9.15,9.15,0,0,1,2.33-11.54,3.12,3.12,0,0,1,.27-.18c0,.41.08.77.09,1.13,0,.08-.09.18-.16.25a8.1,8.1,0,0,0,1.81,13.18,7.87,7.87,0,0,0,6.54.41Z" style="fill: none;stroke: #fff;stroke-miterlimit: 10;stroke-width: 0.5px"/>
      <path d="M854.29,680.82c0-.47-.09-.83-.09-1.19,0-.1.13-.21.22-.3a8.12,8.12,0,0,0,.05-11.75.61.61,0,0,1-.25-.67,4.8,4.8,0,0,0,0-.67s0-.06.07-.14a9,9,0,0,1,3.65,6.82A9.07,9.07,0,0,1,854.29,680.82Z" style="fill: none;stroke: #fff;stroke-miterlimit: 10;stroke-width: 0.5px"/>
      <path d="M832.71,673.43a8.32,8.32,0,0,0,5,.43,10.72,10.72,0,0,0-.78.91c-.26.41-.64.34-1,.34a9.1,9.1,0,0,1-2.93-.45.39.39,0,0,1-.34-.42c0-.55,0-1.11,0-1.66a.4.4,0,0,1,.2-.32,9.13,9.13,0,0,1,6.62.25c-.35.25-.64.48-1,.67-.08.05-.23,0-.34,0a8,8,0,0,0-5.06.11Z" style="fill: none;stroke: #fff;stroke-miterlimit: 10;stroke-width: 0.5px"/>
      <path d="M841.78,671.52a8.05,8.05,0,0,0,1.78-3c.16-.48.26-1,.39-1.47l-.12-.08c-.46.47-.94.92-1.36,1.43a7.72,7.72,0,0,0-1.56,3.23.72.72,0,0,1-.91.45.38.38,0,0,1-.17-.31,9,9,0,0,1,3-5.24.34.34,0,0,1,.31,0c.54.29,1.07.59,1.59.92a.4.4,0,0,1,.13.35,8.73,8.73,0,0,1-1.38,3.28.48.48,0,0,1-.26.21Z" style="fill: none;stroke: #fff;stroke-miterlimit: 10;stroke-width: 0.5px"/>
      <path d="M839.33,671.1a8.3,8.3,0,0,0-2.81-4.08c-.12.88.61,2.48,2,4.49-.52-.09-1-.17-1.47-.28-.08,0-.14-.12-.19-.19a9.34,9.34,0,0,1-1.36-3.18c0-.23,0-.39.19-.51.49-.28,1-.57,1.48-.83a.42.42,0,0,1,.39.05,8.81,8.81,0,0,1,2.17,2.83.5.5,0,0,1,0,.34C839.67,670.16,839.51,670.58,839.33,671.1Z" style="fill: none;stroke: #fff;stroke-miterlimit: 10;stroke-width: 0.5px"/>
      <path d="M852,680.93c0,.07,0,.08,0,.09.09.94,0,1.05-.9,1.29a9.22,9.22,0,0,1-5.28-.2c-.24-.08-.33-.19-.28-.44s0-.46.07-.75A8.23,8.23,0,0,0,852,680.93Z" style="fill: none;stroke: #fff;stroke-miterlimit: 10;stroke-width: 0.5px"/>
      <path d="M836.94,680.9a8.28,8.28,0,0,0,6.48,0c0,.39,0,.72-.1,1,0,.07-.14.15-.22.18a9,9,0,0,1-5.83,0,.41.41,0,0,1-.23-.22C837,681.6,837,681.29,836.94,680.9Z" style="fill: none;stroke: #fff;stroke-miterlimit: 10;stroke-width: 0.5px"/>
      <path d="M835.36,664.82c.17-.65.3-1.31.51-1.94a9.08,9.08,0,0,1,2.44-3.7.48.48,0,0,1,.68-.1c.19.11.4.2.65.33l-.31.28a7.92,7.92,0,0,0-2.72,4.39.51.51,0,0,1-.35.43,2.76,2.76,0,0,0-.39.18l-.38.18Z" style="fill: none;stroke: #fff;stroke-miterlimit: 10;stroke-width: 0.5px"/>
      <path d="M827.74,680c-.28-.2-.55-.37-.81-.57a.3.3,0,0,1-.06-.25,9,9,0,0,1,3.44-5.49s0,0,.1,0c0,.35.08.7.09,1a.45.45,0,0,1-.14.27,8.27,8.27,0,0,0-2.56,4.86A.46.46,0,0,1,827.74,680Z" style="fill: none;stroke: #fff;stroke-miterlimit: 10;stroke-width: 0.5px"/>
      <path d="M845.21,664.94c.73-.19,1.45-.43,2.19-.56a9.08,9.08,0,0,1,4.17.29c.31.1.47.23.46.56s0,.44,0,.67c-.58-.16-1.13-.34-1.69-.45a7.61,7.61,0,0,0-3.79.19.61.61,0,0,1-.67-.12c-.2-.17-.43-.29-.64-.44Z" style="fill: none;stroke: #fff;stroke-miterlimit: 10;stroke-width: 0.5px"/>
      <path d="M835.15,665.06c-.3.21-.58.42-.88.61a.33.33,0,0,1-.26,0,8.15,8.15,0,0,0-5.49.2,1.1,1.1,0,0,1-.21,0c0-.34,0-.65.08-1a.31.31,0,0,1,.2-.2,8.93,8.93,0,0,1,6.51.24S835.11,665,835.15,665.06Z" style="fill: none;stroke: #fff;stroke-miterlimit: 10;stroke-width: 0.5px"/>
      <path d="M843.4,680.81a8.94,8.94,0,0,1-2.95-3.69,14.85,14.85,0,0,1-.58-1.86.48.48,0,0,1,.18-.38c.06-.06.26,0,.35,0a1.47,1.47,0,0,1,.69.93,7.1,7.1,0,0,0,1.76,3,1.76,1.76,0,0,1,.51,1.19C843.38,680.3,843.39,680.51,843.4,680.81Z" style="fill: none;stroke: #fff;stroke-miterlimit: 10;stroke-width: 0.5px"/>
      <path d="M839.34,675.8c.17.49.33.92.47,1.35a.41.41,0,0,1,0,.27,9,9,0,0,1-2.64,3.25s-.07,0-.2.09c.12-.65,0-1.27.5-1.78a7.29,7.29,0,0,0,1.71-2.75C839.21,676.1,839.27,676,839.34,675.8Z" style="fill: none;stroke: #fff;stroke-miterlimit: 10;stroke-width: 0.5px"/>
    </g>
    <path d="M303.38,653.53c10.88,5.42,15.1,25.07,5.33,37.24" style="fill: none;stroke: #fff;stroke-miterlimit: 10;stroke-width: 2px"/>
    <path d="M321.1,651.52c11.81,4.62,16.24,27.59,3.6,37.28" style="fill: none;stroke: #fff;stroke-miterlimit: 10;stroke-width: 2px"/>
    <path d="M345.25,649.13c11.91,4.61,16.35,27.57,3.6,37.28" style="fill: none;stroke: #fff;stroke-miterlimit: 10;stroke-width: 2px"/>
    <path d="M370.37,646.47c11.91,4.61,16.35,27.57,3.6,37.28" style="fill: none;stroke: #fff;stroke-miterlimit: 10;stroke-width: 2px"/>
    <path d="M395.49,643.83c11.91,4.61,16.35,27.57,3.6,37.28" style="fill: none;stroke: #fff;stroke-miterlimit: 10;stroke-width: 2px"/>
    <path d="M419.83,640.91c11.91,4.62,16.35,27.58,3.6,37.28" style="fill: none;stroke: #fff;stroke-miterlimit: 10;stroke-width: 2px"/>
    <path d="M443.33,638.47c11.91,4.61,16.35,27.57,3.6,37.28" style="fill: none;stroke: #fff;stroke-miterlimit: 10;stroke-width: 2px"/>
    <path d="M468.51,635.88c11.9,4.61,16.35,27.57,3.6,37.28" style="fill: none;stroke: #fff;stroke-miterlimit: 10;stroke-width: 2px"/>
    <path d="M489.84,633.4c11.91,4.61,16.35,27.57,3.6,37.28" style="fill: none;stroke: #fff;stroke-miterlimit: 10;stroke-width: 2px"/>
    <path d="M632.49,610.8c11.91,4.61,16.35,27.57,3.6,37.28" style="fill: none;stroke: #fff;stroke-miterlimit: 10;stroke-width: 2px"/>
    <path d="M652.37,606.63c11.94,5,16.54,29.6,3.85,39.9" style="fill: none;stroke: #fff;stroke-miterlimit: 10;stroke-width: 2px"/>
    <path d="M672.34,603c12,5.25,16.66,30.79,4,41.43" style="fill: none;stroke: #fff;stroke-miterlimit: 10;stroke-width: 2px"/>
    <path d="M692.24,600.82c12,5.24,16.66,30.78,4,41.42" style="fill: none;stroke: #fff;stroke-miterlimit: 10;stroke-width: 2px"/>
    <path d="M711.36,598.17c12,5.32,16.7,31.15,4,41.9" style="fill: none;stroke: #fff;stroke-miterlimit: 10;stroke-width: 2px"/>
    <path d="M731,596.2c12,5.25,16.69,31.06,4,41.7" style="fill: none;stroke: #fff;stroke-miterlimit: 10;stroke-width: 2px"/>
    <path d="M751.55,594.54c12,5.05,16.57,29.81,3.88,40.17" style="fill: none;stroke: #fff;stroke-miterlimit: 10;stroke-width: 2px"/>
    <path d="M770.05,593.33c11.92,4.72,16.41,28.15,3.67,38" style="fill: none;stroke: #fff;stroke-miterlimit: 10;stroke-width: 2px"/>
    <path d="M617.91,615.28c10.65,3.76,15.19,21.27,6.74,31.39" style="fill: none;stroke: #fff;stroke-miterlimit: 10;stroke-width: 2px"/>
    <path d="M286.64,641.71c5,1.92,8.54,6.46,9.46,12.76" style="fill: none;stroke: #fff;stroke-miterlimit: 10;stroke-width: 2px"/>
    <path d="M301.69,640.07c5.65,1.85,7.88,7,8.3,12.89" style="fill: none;stroke: #fff;stroke-miterlimit: 10;stroke-width: 2px"/>
    <path d="M325.91,637.43c4.89,2.74,7.66,6.92,7.76,12.51" style="fill: none;stroke: #fff;stroke-miterlimit: 10;stroke-width: 2px"/>
    <path d="M350.9,634.7c5.5,2.57,8.34,6.68,8.83,12.24" style="fill: none;stroke: #fff;stroke-miterlimit: 10;stroke-width: 2px"/>
    <path d="M376,632c5.45,2,8.17,6.22,9.16,12.8" style="fill: none;stroke: #fff;stroke-miterlimit: 10;stroke-width: 2px"/>
    <path d="M399.78,629.48q8.16,4,9.15,12.8" style="fill: none;stroke: #fff;stroke-miterlimit: 10;stroke-width: 2px"/>
    <path d="M420.86,627.21c5.42,2.26,8.16,6.55,9.16,12.8" style="fill: none;stroke: #fff;stroke-miterlimit: 10;stroke-width: 2px"/>
    <path d="M443.33,624.59c5.62,2.35,8.5,6.64,9.15,12.8" style="fill: none;stroke: #fff;stroke-miterlimit: 10;stroke-width: 2px"/>
    <path d="M465.6,622.18A16.1,16.1,0,0,1,474.75,635" style="fill: none;stroke: #fff;stroke-miterlimit: 10;stroke-width: 2px"/>
    <path d="M685.51,589.66c5.65,2.17,7.24,4.4,7.59,10.76" style="fill: none;stroke: #fff;stroke-miterlimit: 10;stroke-width: 2px"/>
    <path d="M703.76,587.85c5.65,2.18,7.25,4.4,7.59,10.77" style="fill: none;stroke: #fff;stroke-miterlimit: 10;stroke-width: 2px"/>
    <path d="M725.77,586.68c6,2.72,6.06,4.46,6.08,10.28" style="fill: none;stroke: #fff;stroke-miterlimit: 10;stroke-width: 2px"/>
    <path d="M666.2,591.92c5.66,2.18,7.25,4.76,7.6,11.12" style="fill: none;stroke: #fff;stroke-miterlimit: 10;stroke-width: 2px"/>
    <path d="M645.49,595.1c5.66,2.18,7.17,4.74,7.52,11.1" style="fill: none;stroke: #fff;stroke-miterlimit: 10;stroke-width: 2px"/>
    <path d="M627.22,598.62c5.65,2.17,7.17,4.73,7.52,11.09" style="fill: none;stroke: #fff;stroke-miterlimit: 10;stroke-width: 2px"/>
    <path d="M606.74,602.94c6.14,2.86,8,5.82,8.82,12.91" style="fill: none;stroke: #fff;stroke-miterlimit: 10;stroke-width: 2px"/>
    <path d="M493.85,600.11c45.21,13.67,86.72,25,101.07,50.08" style="fill: none;stroke: #fff;stroke-miterlimit: 10;stroke-width: 2px"/>
    <path d="M506.11,593c40.51,11.14,81.85,22.26,91,54.35" style="fill: none;stroke: #fff;stroke-miterlimit: 10;stroke-width: 2px"/>
    <path d="M600.25,643.9c-1.53-28.19-40.36-41.73-80.24-52.85" style="fill: none;stroke: #fff;stroke-miterlimit: 10;stroke-width: 2px"/>
    <path d="M604.2,642.73c2.61-11.75-9.35-25.76-20.31-33.79" style="fill: none;stroke: #fff;stroke-miterlimit: 10;stroke-width: 2px"/>
    <path d="M609.37,641.87c2.44-6.57-2.25-16.72-6.69-23" style="fill: none;stroke: #fff;stroke-miterlimit: 10;stroke-width: 2px"/>
    <path d="M487,607.83C533.32,621.18,568.63,636,593.94,652" style="fill: none;stroke: #fff;stroke-miterlimit: 10;stroke-width: 2px"/>
    <path d="M592.36,655.81c-23.7-7-44.66-13.79-63.17-20.33" style="fill: none;stroke: #fff;stroke-miterlimit: 10;stroke-width: 2px"/>
    <path d="M533.7,649.57c14.64,5,35,8.1,58.66,10.15" style="fill: none;stroke: #fff;stroke-miterlimit: 10;stroke-width: 2px"/>
    <path d="M592.36,663.51c-9.08,3.12-30.94,1.63-54.73-1.2" style="fill: none;stroke: #fff;stroke-miterlimit: 10;stroke-width: 2px"/>
    <path d="M594.55,668.06c-5.81,2.8-15.53,3.53-26.87,3.41" style="fill: none;stroke: #fff;stroke-miterlimit: 10;stroke-width: 2px"/>
    <path d="M763.84,572.11c54.18,12.59,95.53,16.53,112.74,45.12" style="fill: none;stroke: #fff;stroke-miterlimit: 10;stroke-width: 2px"/>
    <path d="M758.42,579.29c46.19,10.77,97.43,22.68,117.92,40.07" style="fill: none;stroke: #fff;stroke-miterlimit: 10;stroke-width: 2px"/>
    <path d="M773.86,565.13c51.89,12.47,96.71,16.42,103.11,49.32" style="fill: none;stroke: #fff;stroke-miterlimit: 10;stroke-width: 2px"/>
    <path d="M879.24,614.14c.76-16.84-11-28.19-30.76-37.24" style="fill: none;stroke: #fff;stroke-miterlimit: 10;stroke-width: 2px"/>
    <path d="M805.53,602.79c20.83,5.48,43.62,11.36,70.29,18" style="fill: none;stroke: #fff;stroke-miterlimit: 10;stroke-width: 2px"/>
    <path d="M806.42,614.63c27.14,8.28,51.5,13.92,69.11,7.39" style="fill: none;stroke: #fff;stroke-miterlimit: 10;stroke-width: 2px"/>
    <path d="M878.05,622c-8.63,14.25-35.9,11.08-62.17,7.05" style="fill: none;stroke: #fff;stroke-miterlimit: 10;stroke-width: 2px"/>
    <path d="M879.6,624c-4.1,7.94-11.66,12.6-21.6,15" style="fill: none;stroke: #fff;stroke-miterlimit: 10;stroke-width: 2px"/>
    <path d="M881.82,614.25c1.4-11.91-3.42-22.1-7.33-28.64" style="fill: none;stroke: #fff;stroke-miterlimit: 10;stroke-width: 2px"/>
    <path d="M884,614.63c2.39-4.85,2.54-11.82,1.38-20" style="fill: none;stroke: #fff;stroke-miterlimit: 10;stroke-width: 2px"/>
    <path d="M881.39,624c.32,4-2.71,9.27-5.57,13.16" style="fill: none;stroke: #fff;stroke-miterlimit: 10;stroke-width: 2px"/>
    <line x1="892.51" y1="611.84" x2="884.09" y2="616.44" style="fill: none;stroke: #fff;stroke-miterlimit: 10;stroke-width: 2px"/>
    <line x1="883.17" y1="621.76" x2="886.03" y2="630.02" style="fill: none;stroke: #fff;stroke-miterlimit: 10;stroke-width: 2px"/>
    <line x1="882.9" y1="620.15" x2="890.05" y2="623.65" style="fill: none;stroke: #fff;stroke-miterlimit: 10;stroke-width: 2px"/>
    <line x1="882.76" y1="617.86" x2="891.66" y2="618.49" style="fill: none;stroke: #fff;stroke-miterlimit: 10;stroke-width: 2px"/>
    <circle cx="879.95" cy="618.9" r="4.65" style="fill: none;stroke: #fff;stroke-miterlimit: 10;stroke-width: 2px"/>
    <circle cx="879.95" cy="618.9" r="2.14" style="fill: none;stroke: #fff;stroke-miterlimit: 10;stroke-width: 2px"/>
    <circle cx="879.95" cy="618.9" r="0.71" style="fill: none;stroke: #fff;stroke-miterlimit: 10;stroke-width: 2px"/>
    <path d="M560.13,669.47c-3.24-30.93,19.8-53.62,46.68-47" style="fill: none;stroke: #fff;stroke-miterlimit: 10"/>
    <path d="M551.24,665.94C548,635,574,610.84,600.86,617.48" style="fill: none;stroke: #fff;stroke-miterlimit: 10"/>
    <path d="M544.66,662.31c-3.24-30.93,22.73-55.1,49.62-48.46" style="fill: none;stroke: #fff;stroke-miterlimit: 10"/>
    <path d="M537.9,661.65c-3.24-30.93,22.52-58.63,49.4-52" style="fill: none;stroke: #fff;stroke-miterlimit: 10"/>
    <path d="M532.22,636.55c7.29-20.25,26.66-34.3,46.65-29.36" style="fill: none;stroke: #fff;stroke-miterlimit: 10"/>
    <path d="M525.91,632.5c7.65-19.51,26.59-32.82,46.13-28" style="fill: none;stroke: #fff;stroke-miterlimit: 10"/>
    <path d="M519,630.19c7.77-19.25,26.57-32.31,46-27.52" style="fill: none;stroke: #fff;stroke-miterlimit: 10"/>
    <path d="M511.62,625.83c8.24-18.12,26.38-30.1,45.08-25.49" style="fill: none;stroke: #fff;stroke-miterlimit: 10"/>
    <path d="M505.4,620c8.9-16,25.82-26.07,43.2-21.77" style="fill: none;stroke: #fff;stroke-miterlimit: 10"/>
    <path d="M498.55,617.39c8.94-15.88,25.77-25.82,43.07-21.55" style="fill: none;stroke: #fff;stroke-miterlimit: 10"/>
    <path d="M489.67,617c8.65-16.9,26.09-27.75,44-23.32" style="fill: none;stroke: #fff;stroke-miterlimit: 10"/>
    <path d="M568.26,672.23c-3.06-29.22,17.89-48.86,42.89-45.34" style="fill: none;stroke: #fff;stroke-miterlimit: 10"/>
    <path d="M578.13,673.52c-2.72-26,14.48-43.71,35.88-41.22" style="fill: none;stroke: #fff;stroke-miterlimit: 10"/>
    <path d="M586.53,674.33c-2.81-26.83,9.34-41.06,29.86-36.39" style="fill: none;stroke: #fff;stroke-miterlimit: 10"/>
    <path d="M837.28,634.75c-6.41-30.43,9.62-53.42,37.05-49.59" style="fill: none;stroke: #fff;stroke-miterlimit: 10"/>
    <path d="M826.36,631.22c-4-27,12.18-50.74,36.17-50.81" style="fill: none;stroke: #fff;stroke-miterlimit: 10"/>
    <path d="M817.92,629.62c-3.95-25.38,10.86-48.68,32.59-51.77" style="fill: none;stroke: #fff;stroke-miterlimit: 10"/>
    <path d="M809.16,627.3c-3.15-24.18,11.55-47.3,31.72-52.25" style="fill: none;stroke: #fff;stroke-miterlimit: 10"/>
    <path d="M803.79,600c5.5-13.69,16.61-24.23,29.92-26.87" style="fill: none;stroke: #fff;stroke-miterlimit: 10"/>
    <path d="M798,595c5.9-12.33,16.48-21.59,29-23.93" style="fill: none;stroke: #fff;stroke-miterlimit: 10"/>
    <path d="M791.09,593.43c6.22-12.64,17.38-21.95,30.41-23.7" style="fill: none;stroke: #fff;stroke-miterlimit: 10"/>
    <path d="M781.36,594.67c6.17-14.62,18.78-25.46,33.55-26.6" style="fill: none;stroke: #fff;stroke-miterlimit: 10"/>
    <path d="M775.72,588.05c7.15-12.58,19.38-21.27,33.26-21.36" style="fill: none;stroke: #fff;stroke-miterlimit: 10"/>
    <path d="M768.66,586.2c8-13.93,22.26-23,38.07-20.81" style="fill: none;stroke: #fff;stroke-miterlimit: 10"/>
    <path d="M757.24,591.79c6.86-17.7,23.08-30.3,41.38-27.75" style="fill: none;stroke: #fff;stroke-miterlimit: 10"/>
    <path d="M847.88,637.48c-7.21-28.83,6-49.32,31.21-48.4" style="fill: none;stroke: #fff;stroke-miterlimit: 10"/>
    <path d="M860.11,638.39c-13.3-24.9,4.63-47.13,26.36-42.52" style="fill: none;stroke: #fff;stroke-miterlimit: 10"/>
    <path d="M881.41,634.35c-4.12,1.31-8,1.79-11.39-.2-14.92-11.4,1.49-37.84,16.45-30.81,2.68,1.71,3.88,5.07,5.28,8.14" style="fill: none;stroke: #fff;stroke-miterlimit: 10"/>
    <line x1="789.89" y1="702.04" x2="825.64" y2="784.33" style="fill: none;stroke: #fff;stroke-miterlimit: 10"/>
    <line x1="676.61" y1="762.26" x2="925.56" y2="719.17" style="fill: none;stroke: #fff;stroke-miterlimit: 10"/>
    <line x1="674.31" y1="719.17" x2="806.3" y2="739.81" style="fill: none;stroke: #fff;stroke-miterlimit: 10"/>
    <line x1="956.34" y1="759.9" x2="806.3" y2="739.81" style="fill: none;stroke: #fff;stroke-miterlimit: 10"/>
    <line x1="674.9" y1="730.34" x2="806.3" y2="739.81" style="fill: none;stroke: #fff;stroke-miterlimit: 10"/>
    <line x1="675.47" y1="741.03" x2="806.3" y2="739.81" style="fill: none;stroke: #fff;stroke-miterlimit: 10"/>
    <line x1="676.04" y1="751.56" x2="806.3" y2="739.81" style="fill: none;stroke: #fff;stroke-miterlimit: 10"/>
    <line x1="932.66" y1="728.56" x2="806.3" y2="739.81" style="fill: none;stroke: #fff;stroke-miterlimit: 10"/>
    <line x1="940" y1="738.27" x2="806.3" y2="739.81" style="fill: none;stroke: #fff;stroke-miterlimit: 10"/>
    <line x1="948.16" y1="749.07" x2="806.3" y2="739.81" style="fill: none;stroke: #fff;stroke-miterlimit: 10"/>
    <line x1="702.63" y1="766.11" x2="806.3" y2="739.81" style="fill: none;stroke: #fff;stroke-miterlimit: 10"/>
    <line x1="721.62" y1="768.93" x2="806.3" y2="739.81" style="fill: none;stroke: #fff;stroke-miterlimit: 10"/>
    <line x1="737.58" y1="771.46" x2="806.3" y2="739.81" style="fill: none;stroke: #fff;stroke-miterlimit: 10"/>
    <line x1="754.58" y1="773.81" x2="806.3" y2="739.81" style="fill: none;stroke: #fff;stroke-miterlimit: 10"/>
    <line x1="769.21" y1="775.97" x2="806.3" y2="739.81" style="fill: none;stroke: #fff;stroke-miterlimit: 10"/>
    <line x1="783.31" y1="778.06" x2="806.3" y2="739.81" style="fill: none;stroke: #fff;stroke-miterlimit: 10"/>
    <line x1="796.21" y1="779.97" x2="806.3" y2="739.81" style="fill: none;stroke: #fff;stroke-miterlimit: 10"/>
    <line x1="810.44" y1="781.5" x2="806.3" y2="739.81" style="fill: none;stroke: #fff;stroke-miterlimit: 10"/>
    <line x1="838.81" y1="781.87" x2="806.3" y2="739.81" style="fill: none;stroke: #fff;stroke-miterlimit: 10"/>
    <line x1="852.81" y1="779.25" x2="806.3" y2="739.81" style="fill: none;stroke: #fff;stroke-miterlimit: 10"/>
    <line x1="867.93" y1="776.42" x2="806.3" y2="739.81" style="fill: none;stroke: #fff;stroke-miterlimit: 10"/>
    <line x1="882.71" y1="773.66" x2="806.3" y2="739.81" style="fill: none;stroke: #fff;stroke-miterlimit: 10"/>
    <line x1="898.43" y1="770.72" x2="806.3" y2="739.81" style="fill: none;stroke: #fff;stroke-miterlimit: 10"/>
    <line x1="915.38" y1="767.56" x2="806.3" y2="739.81" style="fill: none;stroke: #fff;stroke-miterlimit: 10"/>
    <line x1="934.27" y1="764.02" x2="806.3" y2="739.81" style="fill: none;stroke: #fff;stroke-miterlimit: 10"/>
    <line x1="777.75" y1="704.16" x2="806.3" y2="739.81" style="fill: none;stroke: #fff;stroke-miterlimit: 10"/>
    <line x1="765.14" y1="705.71" x2="806.3" y2="739.81" style="fill: none;stroke: #fff;stroke-miterlimit: 10"/>
    <line x1="751.31" y1="707.76" x2="806.3" y2="739.81" style="fill: none;stroke: #fff;stroke-miterlimit: 10"/>
    <line x1="736.22" y1="709.99" x2="806.3" y2="739.81" style="fill: none;stroke: #fff;stroke-miterlimit: 10"/>
    <line x1="718.59" y1="712.61" x2="806.3" y2="739.81" style="fill: none;stroke: #fff;stroke-miterlimit: 10"/>
    <line x1="700.62" y1="715.27" x2="806.3" y2="739.81" style="fill: none;stroke: #fff;stroke-miterlimit: 10"/>
    <line x1="896.63" y1="715.51" x2="806.3" y2="739.81" style="fill: none;stroke: #fff;stroke-miterlimit: 10"/>
    <line x1="875.71" y1="712.87" x2="806.3" y2="739.81" style="fill: none;stroke: #fff;stroke-miterlimit: 10"/>
    <line x1="856.1" y1="710.4" x2="806.3" y2="739.81" style="fill: none;stroke: #fff;stroke-miterlimit: 10"/>
    <line x1="839.29" y1="708.28" x2="806.3" y2="739.81" style="fill: none;stroke: #fff;stroke-miterlimit: 10"/>
    <line x1="825.57" y1="706.55" x2="806.3" y2="739.81" style="fill: none;stroke: #fff;stroke-miterlimit: 10"/>
    <line x1="812.53" y1="704.9" x2="806.3" y2="739.81" style="fill: none;stroke: #fff;stroke-miterlimit: 10"/>
    <line x1="825.42" y1="804.01" x2="836.02" y2="782.56" style="fill: none;stroke: #fff;stroke-miterlimit: 10"/>
    <line x1="839.32" y1="803.19" x2="852.48" y2="778.92" style="fill: none;stroke: #fff;stroke-miterlimit: 10"/>
    <line x1="854.25" y1="800.91" x2="867.42" y2="776.64" style="fill: none;stroke: #fff;stroke-miterlimit: 10"/>
    <line x1="869.95" y1="797.93" x2="883.12" y2="773.66" style="fill: none;stroke: #fff;stroke-miterlimit: 10"/>
    <line x1="885.13" y1="795.23" x2="898.3" y2="770.97" style="fill: none;stroke: #fff;stroke-miterlimit: 10"/>
    <line x1="902.29" y1="791.82" x2="915.45" y2="767.55" style="fill: none;stroke: #fff;stroke-miterlimit: 10"/>
    <line x1="919.89" y1="788.55" x2="933.06" y2="764.28" style="fill: none;stroke: #fff;stroke-miterlimit: 10"/>
    <line x1="938.81" y1="784.25" x2="951.97" y2="759.98" style="fill: none;stroke: #fff;stroke-miterlimit: 10"/>
    <line x1="825.56" y1="802.73" x2="813.64" y2="782.92" style="fill: none;stroke: #fff;stroke-miterlimit: 10"/>
    <line x1="811.37" y1="803.68" x2="798.73" y2="780.37" style="fill: none;stroke: #fff;stroke-miterlimit: 10"/>
    <line x1="797.14" y1="801.89" x2="784.5" y2="778.58" style="fill: none;stroke: #fff;stroke-miterlimit: 10"/>
    <line x1="782.92" y1="799.62" x2="770.27" y2="776.31" style="fill: none;stroke: #fff;stroke-miterlimit: 10"/>
    <line x1="768.37" y1="797.38" x2="755.73" y2="774.07" style="fill: none;stroke: #fff;stroke-miterlimit: 10"/>
    <line x1="752.03" y1="795.42" x2="739.38" y2="772.11" style="fill: none;stroke: #fff;stroke-miterlimit: 10"/>
    <line x1="735.42" y1="792.55" x2="722.78" y2="769.24" style="fill: none;stroke: #fff;stroke-miterlimit: 10"/>
    <line x1="718.08" y1="790.24" x2="705.44" y2="766.93" style="fill: none;stroke: #fff;stroke-miterlimit: 10"/>
    <line x1="700.08" y1="787.96" x2="686.97" y2="763.79" style="fill: none;stroke: #fff;stroke-miterlimit: 10"/>
    <line x1="682.83" y1="785.41" x2="670.19" y2="762.1" style="fill: none;stroke: #fff;stroke-miterlimit: 10"/>
    <line x1="893.66" y1="793.57" x2="906.83" y2="769.3" style="fill: none;stroke: #fff;stroke-miterlimit: 10"/>
    <line x1="910.04" y1="791.05" x2="923.2" y2="766.78" style="fill: none;stroke: #fff;stroke-miterlimit: 10"/>
    <line x1="928.81" y1="786.53" x2="941.97" y2="762.26" style="fill: none;stroke: #fff;stroke-miterlimit: 10"/>
    <line x1="877.23" y1="796.47" x2="890.39" y2="772.2" style="fill: none;stroke: #fff;stroke-miterlimit: 10"/>
    <line x1="861.97" y1="799.65" x2="875.13" y2="775.38" style="fill: none;stroke: #fff;stroke-miterlimit: 10"/>
    <line x1="846.7" y1="801.64" x2="859.87" y2="777.37" style="fill: none;stroke: #fff;stroke-miterlimit: 10"/>
    <line x1="832.06" y1="804.63" x2="843.93" y2="780.6" style="fill: none;stroke: #fff;stroke-miterlimit: 10"/>
    <line x1="947.4" y1="783.71" x2="956.48" y2="765.34" style="fill: none;stroke: #fff;stroke-miterlimit: 10"/>
    <line x1="691.71" y1="786.76" x2="678.42" y2="762.26" style="fill: none;stroke: #fff;stroke-miterlimit: 10"/>
    <line x1="709.02" y1="789.23" x2="695.91" y2="765.06" style="fill: none;stroke: #fff;stroke-miterlimit: 10"/>
    <line x1="726.42" y1="791.17" x2="713.77" y2="767.86" style="fill: none;stroke: #fff;stroke-miterlimit: 10"/>
    <line x1="743.69" y1="794.01" x2="731.04" y2="770.7" style="fill: none;stroke: #fff;stroke-miterlimit: 10"/>
    <line x1="760.31" y1="796.55" x2="747.67" y2="773.24" style="fill: none;stroke: #fff;stroke-miterlimit: 10"/>
    <line x1="775.63" y1="798.53" x2="762.98" y2="775.22" style="fill: none;stroke: #fff;stroke-miterlimit: 10"/>
    <line x1="789.92" y1="800.54" x2="777.28" y2="777.23" style="fill: none;stroke: #fff;stroke-miterlimit: 10"/>
    <line x1="804.22" y1="802.71" x2="791.58" y2="779.4" style="fill: none;stroke: #fff;stroke-miterlimit: 10"/>
    <line x1="819.6" y1="805.85" x2="806.21" y2="781.17" style="fill: none;stroke: #fff;stroke-miterlimit: 10"/>
    <path d="M625.27,458a29.46,29.46,0,0,1,5.35,7.29,35.92,35.92,0,0,1,3.06,8.43,60.07,60.07,0,0,1,1.4,8.86c.16,1.49.25,3,.32,4.49s.12,3,.2,4.5l-1,0c.15-1.49.23-3,.29-4.47s0-3,0-4.47a49,49,0,0,0-1.2-8.87,31.72,31.72,0,0,0-3.25-8.31,23.08,23.08,0,0,0-5.77-6.69Z" style="fill: #fff"/>
    <path d="M632.66,457.73A29.76,29.76,0,0,1,638,465a36.19,36.19,0,0,1,3.08,8.42,58.94,58.94,0,0,1,1.42,8.87c.16,1.49.25,3,.32,4.48s.13,3,.21,4.51l-1,0c.15-1.49.23-3,.28-4.47s0-3,0-4.48a49.18,49.18,0,0,0-1.22-8.87,31.72,31.72,0,0,0-3.28-8.31,23,23,0,0,0-5.77-6.68Z" style="fill: #fff"/>
    <path d="M640.05,457.73a29.18,29.18,0,0,1,5.33,7.3,35.68,35.68,0,0,1,3,8.43,61.56,61.56,0,0,1,1.36,8.86c.15,1.49.24,3,.31,4.48s.12,3,.2,4.5l-1,0c.14-1.48.23-3,.29-4.46s0-3,0-4.48a49,49,0,0,0-1.17-8.86,31.47,31.47,0,0,0-3.21-8.32,22.71,22.71,0,0,0-5.75-6.69Z" style="fill: #fff"/>
    <path d="M646.72,457.73a30.43,30.43,0,0,1,5.35,7.2,35.13,35.13,0,0,1,3.1,8.33,56.57,56.57,0,0,1,1.42,8.78c.17,1.48.26,3,.33,4.45s.12,3,.2,4.46l-1,0c.15-1.47.23-2.95.29-4.43s0-3,0-4.44a47.35,47.35,0,0,0-1.22-8.78,31,31,0,0,0-3.3-8.22,23.49,23.49,0,0,0-5.76-6.59Z" style="fill: #fff"/>
    <path d="M653.72,457.73a29.55,29.55,0,0,1,5.3,7.21,34.55,34.55,0,0,1,3,8.34,58.92,58.92,0,0,1,1.35,8.78c.15,1.47.23,2.95.3,4.44s.12,3,.2,4.45l-1,0c.14-1.47.23-2.94.29-4.42s0-2.95,0-4.43a48.1,48.1,0,0,0-1.15-8.78,30.55,30.55,0,0,0-3.21-8.23,22.81,22.81,0,0,0-5.72-6.6Z" style="fill: #fff"/>
    <path d="M660.37,457.45a31.24,31.24,0,0,1,5.37,7,33.56,33.56,0,0,1,3.17,8.13,46.58,46.58,0,0,1,1.22,8.65c.1,1.46.1,2.92.07,4.38,0,.73,0,1.47-.05,2.2s-.09,1.47-.11,2.2l-1-.12c.27-1.43.48-2.86.64-4.31s.22-2.89.21-4.35a35,35,0,0,0-1-8.64,27.31,27.31,0,0,0-3.36-8,24,24,0,0,0-5.79-6.38Z" style="fill: #fff"/>
    <path d="M618,457.73A29.76,29.76,0,0,1,623.4,465a35.77,35.77,0,0,1,3.09,8.42,59,59,0,0,1,1.42,8.86c.17,1.5.26,3,.33,4.49s.13,3,.21,4.51l-1,0c.14-1.49.22-3,.28-4.47s0-3-.05-4.48a48.3,48.3,0,0,0-1.22-8.87,32.07,32.07,0,0,0-3.28-8.31,23.2,23.2,0,0,0-5.78-6.68Z" style="fill: #fff"/>
    <path d="M620.12,473.79c4.75.19,9.5.29,14.26.36s9.51.07,14.26.11,9.51,0,14.26-.1L670,474c2.38-.08,4.75-.13,7.13-.24v1c-2.38-.11-4.75-.16-7.13-.25l-7.13-.14c-4.75-.06-9.51-.08-14.26-.1s-9.51,0-14.26.12-9.51.16-14.26.35Z" style="fill: #fff"/>
    <path d="M622.12,480c4.42.19,8.84.29,13.25.36s8.84.07,13.26.11,8.84,0,13.25-.1l6.63-.14c2.21-.08,4.42-.13,6.63-.24v1c-2.21-.12-4.42-.17-6.63-.25l-6.63-.14c-4.41-.06-8.83-.08-13.25-.1s-8.84,0-13.26.11-8.83.17-13.25.36Z" style="fill: #fff"/>
    <path d="M618.64,468c4.78.19,9.57.28,14.35.35s9.57.07,14.36.12,9.57,0,14.35-.1l7.18-.14c2.39-.09,4.79-.14,7.18-.25v1c-2.39-.11-4.79-.16-7.18-.24l-7.18-.14q-7.17-.09-14.35-.1c-4.79,0-9.57,0-14.36.11s-9.57.17-14.35.36Z" style="fill: #fff"/>
    <path d="M615.85,462.28c4.79.19,9.58.28,14.37.35s9.57.07,14.36.11,9.58,0,14.37-.09l7.18-.14c2.39-.09,4.79-.14,7.18-.25v1c-2.39-.11-4.79-.16-7.18-.24l-7.18-.14c-4.79-.07-9.58-.09-14.37-.1s-9.57,0-14.36.11-9.58.16-14.37.35Z" style="fill: #fff"/>
    <path d="M624.34,485.68c4,.19,8,.29,12,.36s8,.07,12,.11,8,0,12-.1l6-.14c2-.08,4-.13,6-.24v1c-2-.12-4-.17-6-.25l-6-.14c-4-.06-8-.08-12-.1s-8,0-12,.12-8,.16-12,.35Z" style="fill: #fff"/>
    <path d="M300.49,654.07a24.51,24.51,0,0,1,6.86,7.87,24.83,24.83,0,0,1,2.89,9.91,28.83,28.83,0,0,1-1,10.28,31.94,31.94,0,0,1-1.79,4.9c-.39.78-.74,1.58-1.16,2.35s-.9,1.5-1.34,2.26l-.81-.58c.52-.68,1-1.37,1.52-2.06s.89-1.47,1.34-2.2a31,31,0,0,0,2-4.74,26.55,26.55,0,0,0,1.2-10.21,23.14,23.14,0,0,0-3.08-9.79,20.65,20.65,0,0,0-7.17-7.19Z" style="fill: #fff"/>
    <path d="M295.14,654.54A24.22,24.22,0,0,1,302,662.4a24.76,24.76,0,0,1,2.89,9.91,29.09,29.09,0,0,1-1,10.29,31.83,31.83,0,0,1-1.79,4.89c-.39.78-.74,1.59-1.16,2.35s-.9,1.51-1.34,2.27l-.81-.59c.51-.67,1-1.36,1.52-2.06s.89-1.46,1.34-2.19a32,32,0,0,0,2-4.74,26.77,26.77,0,0,0,1.2-10.22,23.09,23.09,0,0,0-3.08-9.78,20.49,20.49,0,0,0-7.17-7.19Z" style="fill: #fff"/>
    <path d="M289.93,655.19a24.39,24.39,0,0,1,6.86,7.87,24.83,24.83,0,0,1,2.89,9.91,28.81,28.81,0,0,1-1,10.28,31.9,31.9,0,0,1-1.78,4.9c-.39.78-.75,1.58-1.17,2.35s-.89,1.5-1.33,2.27l-.81-.59c.51-.68,1-1.37,1.52-2.06s.89-1.46,1.33-2.2a31.29,31.29,0,0,0,2-4.73A26.8,26.8,0,0,0,299.65,673a23.18,23.18,0,0,0-3.08-9.79A20.54,20.54,0,0,0,289.4,656Z" style="fill: #fff"/>
    <path d="M284.46,655.22a24.25,24.25,0,0,1,6.86,7.86,24.92,24.92,0,0,1,2.89,9.91,28.81,28.81,0,0,1-1,10.28,31.9,31.9,0,0,1-1.78,4.9c-.39.78-.75,1.58-1.17,2.35s-.89,1.5-1.33,2.27l-.81-.59c.51-.68,1-1.36,1.52-2.06s.88-1.46,1.33-2.2a30.86,30.86,0,0,0,2-4.73A26.78,26.78,0,0,0,294.18,673a23.23,23.23,0,0,0-3.08-9.78,20.52,20.52,0,0,0-7.18-7.19Z" style="fill: #fff"/>
    <path d="M281.16,657.2a24.55,24.55,0,0,1,5.54,7.71,25.34,25.34,0,0,1,2.22,9.13,29.23,29.23,0,0,1-1,9.35,32.36,32.36,0,0,1-1.52,4.48c-.33.72-.63,1.46-1,2.17s-.76,1.4-1.13,2.11l-.84-.55c.45-.63.89-1.27,1.33-1.92s.77-1.34,1.15-2a30.37,30.37,0,0,0,1.77-4.34,26.49,26.49,0,0,0,1.14-9.28,23.18,23.18,0,0,0-2.41-9,20.26,20.26,0,0,0-5.94-7.08Z" style="fill: #fff"/>
    <path d="M281.91,642.07a23.6,23.6,0,0,1,5.94,5.68,21.75,21.75,0,0,1,3.48,7.36,21.58,21.58,0,0,0-3.87-7.05,22.73,22.73,0,0,0-6.09-5.14Z" style="fill: #fff"/>
    <path d="M277.16,642.94a23.29,23.29,0,0,1,5.49,5.45,21.9,21.9,0,0,1,3.3,6.89,21.91,21.91,0,0,0-3.69-6.59,22.82,22.82,0,0,0-5.65-4.91Z" style="fill: #fff"/>
    <path d="M271.59,643.1a23.33,23.33,0,0,1,6.16,6,21.84,21.84,0,0,1,3.45,7.74,21.85,21.85,0,0,0-3.85-7.45,22.62,22.62,0,0,0-6.29-5.41Z" style="fill: #fff"/>
    <path d="M273.48,675.39a31.14,31.14,0,0,1-3.25,5.11" style="fill: none;stroke: #fff;stroke-miterlimit: 10;stroke-width: 0.5px"/>
    <path d="M266.19,643.2a23.06,23.06,0,0,1,7.42,7.83,22.59,22.59,0,0,1,2.9,10.27,21.93,21.93,0,0,0-10.85-17.25Z" style="fill: #fff"/>
    <path d="M262.94,645.19a24.32,24.32,0,0,1,5.85,7.61,23.77,23.77,0,0,1,2.33,9.2,27.4,27.4,0,0,1-1.12,9.43,30.35,30.35,0,0,1-1.68,4.49c-.36.72-.68,1.45-1.06,2.16s-.82,1.39-1.21,2.1l-.82-.59c.48-.62.94-1.25,1.4-1.89s.82-1.34,1.24-2a30.43,30.43,0,0,0,1.91-4.33,25.17,25.17,0,0,0,1.31-9.36,21.93,21.93,0,0,0-2.53-9.08,20,20,0,0,0-6.22-7Z" style="fill: #fff"/>
    <path d="M297.86,654.54a24.34,24.34,0,0,1,6.85,7.86,24.76,24.76,0,0,1,2.89,9.91,29.09,29.09,0,0,1-1,10.29,31.83,31.83,0,0,1-1.79,4.89c-.39.78-.74,1.59-1.16,2.35s-.9,1.51-1.34,2.27l-.81-.59c.51-.67,1-1.36,1.52-2.06s.89-1.46,1.33-2.19a32,32,0,0,0,2-4.74,26.77,26.77,0,0,0,1.2-10.22,23.09,23.09,0,0,0-3.08-9.78,20.49,20.49,0,0,0-7.17-7.19Z" style="fill: #fff"/>
    <path d="M292.81,655.17a24.22,24.22,0,0,1,6.67,7.93,25.56,25.56,0,0,1,2.81,9.87,29.76,29.76,0,0,1-.93,10.24c-.25.82-.43,1.67-.75,2.48s-.58,1.63-.95,2.41-.72,1.58-1.12,2.35-.87,1.51-1.29,2.28l-.82-.57c.5-.69,1-1.38,1.48-2.08s.86-1.46,1.29-2.2.71-1.55,1.07-2.32.57-1.61.87-2.42A27.27,27.27,0,0,0,302.26,673a23.76,23.76,0,0,0-3-9.76c-.44-.73-.94-1.42-1.41-2.13s-1.09-1.31-1.64-2l-1.89-1.71L292.26,656Z" style="fill: #fff"/>
    <path d="M287.22,655.19a24.51,24.51,0,0,1,6.86,7.87A24.83,24.83,0,0,1,297,673a28.81,28.81,0,0,1-1,10.28,31.9,31.9,0,0,1-1.78,4.9c-.39.78-.75,1.58-1.17,2.35s-.9,1.5-1.34,2.27l-.8-.59c.51-.68,1-1.37,1.52-2.06s.88-1.46,1.33-2.2a31.29,31.29,0,0,0,2-4.73A26.8,26.8,0,0,0,296.94,673a23.19,23.19,0,0,0-3.09-9.79,20.54,20.54,0,0,0-7.17-7.18Z" style="fill: #fff"/>
    <path d="M283.84,656.94a24.55,24.55,0,0,1,5.54,7.71,25.34,25.34,0,0,1,2.22,9.13,29.26,29.26,0,0,1-1,9.35,31.09,31.09,0,0,1-1.52,4.48c-.33.72-.63,1.46-1,2.17s-.76,1.4-1.13,2.11l-.83-.55q.68-.95,1.32-1.92c.41-.66.77-1.34,1.16-2a31.53,31.53,0,0,0,1.76-4.34,26.49,26.49,0,0,0,1.15-9.28,23.32,23.32,0,0,0-2.42-9,20.15,20.15,0,0,0-5.93-7.08Z" style="fill: #fff"/>
    <path d="M265.52,645a24.73,24.73,0,0,1,6,7.78,24.21,24.21,0,0,1,2.4,9.42,28,28,0,0,1-1.17,9.67,30.35,30.35,0,0,1-1.73,4.6c-.36.73-.7,1.49-1.09,2.21s-.84,1.42-1.25,2.14l-.81-.58c.48-.64,1-1.29,1.43-1.94s.84-1.37,1.27-2.06a29.79,29.79,0,0,0,2-4.44,25.79,25.79,0,0,0,1.36-9.59,22.47,22.47,0,0,0-2.6-9.32,20.47,20.47,0,0,0-6.39-7.13Z" style="fill: #fff"/>
    <path d="M268,642.47a23.21,23.21,0,0,1,7.71,7.62,21.35,21.35,0,0,1,3.08,10.27,21.16,21.16,0,0,0-3.5-10,22.42,22.42,0,0,0-7.79-7Z" style="fill: #fff"/>
    <path d="M273.75,642.48a23.6,23.6,0,0,1,6.16,6,22.14,22.14,0,0,1,3.45,7.75,21.94,21.94,0,0,0-3.85-7.45,22.62,22.62,0,0,0-6.29-5.41Z" style="fill: #fff"/>
    <path d="M279.39,642.48a23.65,23.65,0,0,1,5.64,5.29,22.14,22.14,0,0,1,3.48,6.8,21.55,21.55,0,0,0-3.87-6.49,22.92,22.92,0,0,0-5.78-4.75Z" style="fill: #fff"/>
    <path d="M284.46,641.66a23.47,23.47,0,0,1,6,5.68,22.13,22.13,0,0,1,3.48,7.36,21.79,21.79,0,0,0-3.88-7.05,22.69,22.69,0,0,0-6.08-5.14Z" style="fill: #fff"/>
    <path d="M514.37,630.17a10.3,10.3,0,0,1,4,2.79,16.17,16.17,0,0,1,2.66,4,28.29,28.29,0,0,1,2.57,9.16,29.27,29.27,0,0,1-.3,9.52,19.12,19.12,0,0,1-1.5,4.57,13.62,13.62,0,0,1-2.81,4l-.65-.76a11.49,11.49,0,0,0,3-3.48,18.66,18.66,0,0,0,1.72-4.38,26.64,26.64,0,0,0,.5-9.46,26.34,26.34,0,0,0-2.76-9.06,15.52,15.52,0,0,0-2.81-3.76,8.87,8.87,0,0,0-3.95-2.22Z" style="fill: #fff"/>
    <path d="M510.93,630.71A10.06,10.06,0,0,1,515,633.5a15.89,15.89,0,0,1,2.67,4,28.6,28.6,0,0,1,2.57,9.17,29.49,29.49,0,0,1-.31,9.51,19,19,0,0,1-1.49,4.57,13.66,13.66,0,0,1-2.81,4L515,664a11.38,11.38,0,0,0,3-3.49,18.26,18.26,0,0,0,1.73-4.38,27.09,27.09,0,0,0,.5-9.46,26,26,0,0,0-2.77-9,15.08,15.08,0,0,0-2.81-3.76,8.82,8.82,0,0,0-3.95-2.22Z" style="fill: #fff"/>
    <path d="M507.55,631.58a10.05,10.05,0,0,1,3.78,2.52,15.23,15.23,0,0,1,2.58,3.62,27.24,27.24,0,0,1,2.72,8.36,31.94,31.94,0,0,1,.29,8.79,21.89,21.89,0,0,1-.86,4.35,17.08,17.08,0,0,1-1.78,4.13l-.82-.57a14.3,14.3,0,0,0,2.12-3.73,21.57,21.57,0,0,0,1.11-4.21,28.29,28.29,0,0,0-.1-8.76,24.43,24.43,0,0,0-2.9-8.23,13.94,13.94,0,0,0-2.72-3.38,8.54,8.54,0,0,0-3.69-2Z" style="fill: #fff"/>
    <path d="M506,633.08l.85.67a5.42,5.42,0,0,1,.8.7,12.17,12.17,0,0,1,1.38,1.6,13.16,13.16,0,0,1,1.16,1.74l.52.91c.17.3.29.63.44.94a30.45,30.45,0,0,1,2.32,7.91,32.08,32.08,0,0,1,.27,8.25l-.29,2.05c-.14.68-.33,1.35-.49,2s-.44,1.33-.67,2-.62,1.27-.92,1.92l-.83-.55c.36-.56.75-1.1,1.09-1.69s.6-1.21.85-1.84.43-1.29.61-2l.42-2a26.29,26.29,0,0,0-.06-8.21,25.45,25.45,0,0,0-2.53-7.81,13.22,13.22,0,0,0-5.4-5.83Z" style="fill: #fff"/>
    <path d="M517.61,629.29a10.21,10.21,0,0,1,4.08,2.75,16,16,0,0,1,2.7,4,28.43,28.43,0,0,1,2.66,9.14,29.54,29.54,0,0,1-.21,9.52,19.07,19.07,0,0,1-1.45,4.58,13.79,13.79,0,0,1-2.77,4l-.66-.76a11.48,11.48,0,0,0,3-3.51,18.44,18.44,0,0,0,1.68-4.4,26.62,26.62,0,0,0,.41-9.46,26.12,26.12,0,0,0-2.85-9,15.38,15.38,0,0,0-2.85-3.73,8.67,8.67,0,0,0-4-2.18Z" style="fill: #fff"/>
    <path d="M524.81,631.7a20.54,20.54,0,0,1,3.6,6.36,34.19,34.19,0,0,1,1.79,14.24l-.22,1.8c-.1.6-.23,1.19-.35,1.79s-.32,1.18-.48,1.77l-.63,1.75-.89-.47c.29-.5.58-1,.84-1.54s.46-1.09.67-1.65.34-1.14.48-1.72l.35-1.76a25.4,25.4,0,0,0,.06-7.18,25.12,25.12,0,0,0-1.86-6.93,15.63,15.63,0,0,0-4-5.77Z" style="fill: #fff"/>
    <path d="M493.17,616.59a10.32,10.32,0,0,1,4.72,3.37,18.11,18.11,0,0,1,2.82,4.94,29.72,29.72,0,0,1,2,11.05,29.7,29.7,0,0,0-2.41-10.86,17.61,17.61,0,0,0-2.93-4.64,9.46,9.46,0,0,0-4.43-2.9Z" style="fill: #fff"/>
    <path d="M489.74,617.12a10.24,10.24,0,0,1,4.45,3.07,17.34,17.34,0,0,1,2.77,4.53,28.93,28.93,0,0,1,2.21,10.22,28.79,28.79,0,0,0-2.66-10,16.48,16.48,0,0,0-2.88-4.23,9.23,9.23,0,0,0-4.17-2.62Z" style="fill: #fff"/>
    <path d="M486.35,618a9.81,9.81,0,0,1,4.07,2.67,15.92,15.92,0,0,1,2.68,4,27.48,27.48,0,0,1,2.49,9.06,27.3,27.3,0,0,0-2.93-8.82,15.62,15.62,0,0,0-2.77-3.66,9,9,0,0,0-3.81-2.24Z" style="fill: #fff"/>
    <path d="M484.78,619.49a14.23,14.23,0,0,1,4.92,5.84A26.87,26.87,0,0,1,492,632.5a26.46,26.46,0,0,0-2.72-6.93,13.43,13.43,0,0,0-5-5.21Z" style="fill: #fff"/>
    <path d="M498.9,616.85a12.93,12.93,0,0,1,3.2,3.36,19.67,19.67,0,0,1,2.07,4.06,29.4,29.4,0,0,1,1.83,8.81,29.3,29.3,0,0,0-2.29-8.62,15.22,15.22,0,0,0-5.36-6.78Z" style="fill: #fff"/>
    <path d="M503.63,618.11a17.94,17.94,0,0,1,3.73,6.42,29,29,0,0,1,1.52,7.17,29,29,0,0,0-2-7,17.46,17.46,0,0,0-4-5.88Z" style="fill: #fff"/>
    <path d="M261.23,646.14a22.78,22.78,0,0,1,5.3,7.35,23.4,23.4,0,0,1,2,8.73,27.61,27.61,0,0,1-1.06,8.9,29.65,29.65,0,0,1-1.53,4.26c-.32.68-.62,1.38-1,2s-.74,1.33-1.1,2l-.82-.57c.43-.59.86-1.2,1.29-1.81s.76-1.27,1.14-1.91a29.82,29.82,0,0,0,1.77-4.1,24.93,24.93,0,0,0,1.25-8.83,21.51,21.51,0,0,0-2.23-8.62,18.47,18.47,0,0,0-5.68-6.71Z" style="fill: #fff"/>
    <path d="M790.31,593.55a8.78,8.78,0,0,1,3.54,2.51,14.69,14.69,0,0,1,2.31,3.56,26.79,26.79,0,0,1,2.2,8.08,27.6,27.6,0,0,1-.26,8.36,16.52,16.52,0,0,1-1.28,4,11.85,11.85,0,0,1-2.43,3.57l-.65-.75a10,10,0,0,0,2.63-3,16.3,16.3,0,0,0,1.51-3.86,23,23,0,0,0,.45-8.31,22.34,22.34,0,0,0-2.4-8,13.47,13.47,0,0,0-2.45-3.32,7.54,7.54,0,0,0-3.44-1.95Z" style="fill: #fff"/>
    <path d="M787.32,594a8.88,8.88,0,0,1,3.55,2.51,14.36,14.36,0,0,1,2.3,3.56,26.22,26.22,0,0,1,2.2,8.08,27.35,27.35,0,0,1-.25,8.37,16.58,16.58,0,0,1-1.28,4,12,12,0,0,1-2.43,3.57l-.65-.75a10.21,10.21,0,0,0,2.63-3,16.84,16.84,0,0,0,1.51-3.85,23.05,23.05,0,0,0,.45-8.32,22.55,22.55,0,0,0-2.4-8,13.47,13.47,0,0,0-2.45-3.32,7.46,7.46,0,0,0-3.45-1.94Z" style="fill: #fff"/>
    <path d="M784.34,594.42a8.91,8.91,0,0,1,3.33,2.33A13.62,13.62,0,0,1,789.9,600a25.79,25.79,0,0,1,2.33,7.46,30.92,30.92,0,0,1,.28,7.81,20.56,20.56,0,0,1-.72,3.88,15.92,15.92,0,0,1-1.52,3.72l-.82-.56a13,13,0,0,0,1.86-3.32,19.13,19.13,0,0,0,1-3.75,25.06,25.06,0,0,0-.07-7.78,21.64,21.64,0,0,0-2.53-7.34,13.24,13.24,0,0,0-2.37-3,7.51,7.51,0,0,0-3.25-1.76Z" style="fill: #fff"/>
    <path d="M793.12,592.77a8.88,8.88,0,0,1,3.57,2.48,14.45,14.45,0,0,1,2.34,3.53,26.52,26.52,0,0,1,2.28,8.06,27.65,27.65,0,0,1-.18,8.37,16.77,16.77,0,0,1-1.24,4,11.8,11.8,0,0,1-2.39,3.59l-.66-.75a10.05,10.05,0,0,0,2.6-3.07,16.44,16.44,0,0,0,1.47-3.87,22.81,22.81,0,0,0,.37-8.32,22.36,22.36,0,0,0-2.48-7.94,13.38,13.38,0,0,0-2.47-3.29,7.6,7.6,0,0,0-3.47-1.91Z" style="fill: #fff"/>
    <path d="M799.41,595.55a18.33,18.33,0,0,1,3.09,5.66,30.12,30.12,0,0,1,1.42,6.2,31.33,31.33,0,0,1,.14,6.35l-.18,1.59c-.09.52-.2,1-.3,1.58s-.27,1-.4,1.57l-.54,1.55-.89-.46c.25-.44.51-.89.74-1.35s.41-1,.6-1.45.29-1,.42-1.51l.32-1.55a23.33,23.33,0,0,0-1.56-12.43,13.59,13.59,0,0,0-3.54-5.06Z" style="fill: #fff"/>
    <path d="M766,586.12a8.6,8.6,0,0,1,3.87,2.93,16.05,16.05,0,0,1,2.26,4.14,15.87,15.87,0,0,0-2.64-3.82,7.8,7.8,0,0,0-3.77-2.29Z" style="fill: #fff"/>
    <path d="M762.56,587.12a8.3,8.3,0,0,1,3.53,2.52,14.29,14.29,0,0,1,2.19,3.59,14.2,14.2,0,0,0-2.55-3.24,7.54,7.54,0,0,0-3.45-1.91Z" style="fill: #fff"/>
    <path d="M759.23,588.45a8.12,8.12,0,0,1,3.09,2.13,12.43,12.43,0,0,1,2,3,12.61,12.61,0,0,0-2.39-2.65,7.3,7.3,0,0,0-3-1.53Z" style="fill: #fff"/>
    <path d="M769.74,586.41a8.68,8.68,0,0,1,3.85,2.81,15.28,15.28,0,0,1,2.3,4,15.28,15.28,0,0,0-2.67-3.68,7.83,7.83,0,0,0-3.75-2.17Z" style="fill: #fff"/>
    <path d="M612.71,618a12,12,0,0,1,3,2.37l.65.69c.2.24.38.5.57.75s.38.49.56.75l.49.8a28.64,28.64,0,0,1,2.89,6.85,36.17,36.17,0,0,1,1.26,7.32c0,.62.07,1.25.07,1.87l-.06,1.88-.17,1.88c-.11.62-.22,1.24-.32,1.87l-1-.28c.2-.57.38-1.15.56-1.73l.38-1.8.2-1.83c0-.62,0-1.23.07-1.85a27.17,27.17,0,0,0-1.06-7.33,23,23,0,0,0-3.08-6.71,11.89,11.89,0,0,0-5.45-4.62Z" style="fill: #fff"/>
    <path d="M610.54,619.4a16.74,16.74,0,0,1,4.33,5.14,29.73,29.73,0,0,1,2.54,6.12,36.56,36.56,0,0,1,1.29,6.49c0,.56.12,1.11.15,1.66l0,1.67,0,1.68c0,.56-.09,1.12-.12,1.69l-1-.18c.13-.53.26-1.06.37-1.59l.24-1.62.1-1.64c0-.55,0-1.1,0-1.65a26.7,26.7,0,0,0-1.08-6.51,22.7,22.7,0,0,0-2.73-6,12.89,12.89,0,0,0-4.63-4.45Z" style="fill: #fff"/>
    <path d="M614.23,616.33a12.19,12.19,0,0,1,6.63,5.26,27.63,27.63,0,0,1,3.42,7.67,34.32,34.32,0,0,1,1.26,8.31,24,24,0,0,1-.23,4.23,19.84,19.84,0,0,1-1,4.18l-.91-.4a15.69,15.69,0,0,0,1.4-3.87,23.78,23.78,0,0,0,.5-4.14,27.47,27.47,0,0,0-1.06-8.3,23.07,23.07,0,0,0-3.6-7.53,13.71,13.71,0,0,0-2.91-2.93,8.57,8.57,0,0,0-3.7-1.53Z" style="fill: #fff"/>
    <path d="M600.32,605a11.88,11.88,0,0,1,3.71,3.14,19.37,19.37,0,0,1,2.45,4.09,29,29,0,0,1,2.33,9.13,29.08,29.08,0,0,0-2.78-8.91,18.53,18.53,0,0,0-2.57-3.82,10.92,10.92,0,0,0-3.57-2.72Z" style="fill: #fff"/>
    <path d="M596.9,606a16.3,16.3,0,0,1,5.44,6.92,29.43,29.43,0,0,1,2.33,8.4,29,29,0,0,0-2.78-8.18,15.55,15.55,0,0,0-5.52-6.29Z" style="fill: #fff"/>
    <path d="M602.62,603.57a9.63,9.63,0,0,1,4,2.38,15.36,15.36,0,0,1,2.77,3.66,26.67,26.67,0,0,1,2.89,8.56,26.69,26.69,0,0,0-3.31-8.31,14.84,14.84,0,0,0-2.85-3.35,8.84,8.84,0,0,0-3.77-2Z" style="fill: #fff"/>
    <path d="M593.69,607.2a13.83,13.83,0,0,1,3.75,4,23.2,23.2,0,0,1,2.3,4.89,22.52,22.52,0,0,0-2.71-4.6,12.91,12.91,0,0,0-3.87-3.47Z" style="fill: #fff"/>
  </g>
</svg>
