<svg id="Layer_2" data-name="Layer 2" xmlns="http://www.w3.org/2000/svg" viewBox="0 0 94.65 214.52">
  <title>journeybttn</title>
  <path d="M172.3,136.63C174,150,184.52,242.44,152.59,260.84a3.73,3.73,0,0,1-3.65,0c-28.63-15.54-24.31-70.32-20.48-124.44a2.18,2.18,0,0,0-1.09-2.05A47.33,47.33,0,0,1,104.94,99C102.3,77.37,111,57.2,114.11,50.89a2.31,2.31,0,0,1,3.61-.72c1.88,1.67,3.92,5.46,2.79,14-1.82,13.86,7,27.26,13.48,28.39a1,1,0,0,0,1.08-.81l1.62-10.44a.72.72,0,0,1,.72-.61h9.29l1.55-29.23a2.54,2.54,0,0,1,.88-1.81h0a2,2,0,0,1,2.58,0h0a2.55,2.55,0,0,1,.95,1.85l1.68,29.23h8.9a.72.72,0,0,1,.72.6l1.93,11a1,1,0,0,0,1.3.72c3.49-1.49,14.06-7.53,13.9-26.08-.1-11.8,1.45-16.12,2.93-17.59a2,2,0,0,1,3,.54c2.49,4.58,13.29,26.26,9.06,50.73-4,23-18.1,31.61-22.63,33.81A2.15,2.15,0,0,0,172.3,136.63Z" transform="translate(-103.45 -47.81)" style="fill: none;stroke: #000;stroke-miterlimit: 10;stroke-width: 2px"/>
</svg>
