<svg xmlns="http://www.w3.org/2000/svg" xmlns:xlink="http://www.w3.org/1999/xlink" width="533" height="303.737" viewBox="0 0 533 303.737">
  <defs>
    <style>
      .cls-1, .cls-3, .cls-5 {
        fill: none;
      }

      .cls-1, .cls-2, .cls-3 {
        stroke: #fff;
      }

      .cls-1, .cls-2 {
        stroke-linejoin: bevel;
      }

      .cls-2 {
        fill: rgba(255,255,255,0.32);
      }

      .cls-4 {
        stroke: none;
      }

      .cls-6 {
        filter: url(#Ellipse_4-3);
      }

      .cls-7 {
        filter: url(#Ellipse_3-3);
      }

      .cls-8 {
        filter: url(#Ellipse_4-2);
      }

      .cls-9 {
        filter: url(#Ellipse_4);
      }

      .cls-10 {
        filter: url(#Ellipse_3-2);
      }

      .cls-11 {
        filter: url(#Ellipse_3);
      }
    </style>
    <filter id="Ellipse_3" x="489" y="185" width="44" height="44" filterUnits="userSpaceOnUse">
      <feOffset input="SourceAlpha"/>
      <feGaussianBlur stdDeviation="2.5" result="blur"/>
      <feFlood flood-color="#fff"/>
      <feComposite operator="in" in2="blur"/>
      <feComposite in="SourceGraphic"/>
    </filter>
    <filter id="Ellipse_3-2" x="489" y="0" width="44" height="44" filterUnits="userSpaceOnUse">
      <feOffset input="SourceAlpha"/>
      <feGaussianBlur stdDeviation="2.5" result="blur-2"/>
      <feFlood flood-color="#fff"/>
      <feComposite operator="in" in2="blur-2"/>
      <feComposite in="SourceGraphic"/>
    </filter>
    <filter id="Ellipse_4" x="495" y="6" width="32" height="32" filterUnits="userSpaceOnUse">
      <feOffset input="SourceAlpha"/>
      <feGaussianBlur stdDeviation="2.5" result="blur-3"/>
      <feFlood flood-color="#fff"/>
      <feComposite operator="in" in2="blur-3"/>
      <feComposite in="SourceGraphic"/>
    </filter>
    <filter id="Ellipse_4-2" x="495" y="191" width="32" height="32" filterUnits="userSpaceOnUse">
      <feOffset input="SourceAlpha"/>
      <feGaussianBlur stdDeviation="2.5" result="blur-4"/>
      <feFlood flood-color="#fff"/>
      <feComposite operator="in" in2="blur-4"/>
      <feComposite in="SourceGraphic"/>
    </filter>
    <filter id="Ellipse_3-3" x="0" y="233" width="44" height="44" filterUnits="userSpaceOnUse">
      <feOffset input="SourceAlpha"/>
      <feGaussianBlur stdDeviation="2.5" result="blur-5"/>
      <feFlood flood-color="#fff"/>
      <feComposite operator="in" in2="blur-5"/>
      <feComposite in="SourceGraphic"/>
    </filter>
    <filter id="Ellipse_4-3" x="6" y="239" width="32" height="32" filterUnits="userSpaceOnUse">
      <feOffset input="SourceAlpha"/>
      <feGaussianBlur stdDeviation="2.5" result="blur-6"/>
      <feFlood flood-color="#fff"/>
      <feComposite operator="in" in2="blur-6"/>
      <feComposite in="SourceGraphic"/>
    </filter>
  </defs>
  <g id="Group_25" data-name="Group 25" transform="translate(-559.5 -565.5)">
    <g class="cls-11" transform="matrix(1, 0, 0, 1, 559.5, 565.5)">
      <g id="Ellipse_3-4" data-name="Ellipse 3" class="cls-1" transform="translate(496.5 192.5)">
        <circle class="cls-4" cx="14.5" cy="14.5" r="14.5"/>
        <circle class="cls-5" cx="14.5" cy="14.5" r="14"/>
      </g>
    </g>
    <g id="Group_24" data-name="Group 24">
      <g id="Group_23" data-name="Group 23">
        <g id="Group_13" data-name="Group 13" transform="translate(110 -82)">
          <g class="cls-10" transform="matrix(1, 0, 0, 1, 449.5, 647.5)">
            <g id="Ellipse_3-5" data-name="Ellipse 3" class="cls-1" transform="translate(496.5 7.5)">
              <circle class="cls-4" cx="14.5" cy="14.5" r="14.5"/>
              <circle class="cls-5" cx="14.5" cy="14.5" r="14"/>
            </g>
          </g>
          <g class="cls-9" transform="matrix(1, 0, 0, 1, 449.5, 647.5)">
            <g id="Ellipse_4-4" data-name="Ellipse 4" class="cls-2" transform="translate(502.5 13.5)">
              <circle class="cls-4" cx="8.5" cy="8.5" r="8.5"/>
              <circle class="cls-5" cx="8.5" cy="8.5" r="8"/>
            </g>
          </g>
        </g>
        <g class="cls-8" transform="matrix(1, 0, 0, 1, 559.5, 565.5)">
          <g id="Ellipse_4-5" data-name="Ellipse 4" class="cls-2" transform="translate(502.5 198.5)">
            <circle class="cls-4" cx="8.5" cy="8.5" r="8.5"/>
            <circle class="cls-5" cx="8.5" cy="8.5" r="8"/>
          </g>
        </g>
        <g id="Group_14" data-name="Group 14" transform="translate(-379 151)">
          <g class="cls-7" transform="matrix(1, 0, 0, 1, 938.5, 414.5)">
            <g id="Ellipse_3-6" data-name="Ellipse 3" class="cls-1" transform="translate(7.5 240.5)">
              <circle class="cls-4" cx="14.5" cy="14.5" r="14.5"/>
              <circle class="cls-5" cx="14.5" cy="14.5" r="14"/>
            </g>
          </g>
          <g class="cls-6" transform="matrix(1, 0, 0, 1, 938.5, 414.5)">
            <g id="Ellipse_4-6" data-name="Ellipse 4" class="cls-2" transform="translate(13.5 246.5)">
              <circle class="cls-4" cx="8.5" cy="8.5" r="8.5"/>
              <circle class="cls-5" cx="8.5" cy="8.5" r="8"/>
            </g>
          </g>
        </g>
        <path id="Path_1" data-name="Path 1" class="cls-3" d="M2570.393,820l175.258,49.733,152.239-8.427,93.564-58.092,73.052-30.074" transform="translate(-1987 -1)"/>
        <path id="Path_2" data-name="Path 2" class="cls-3" d="M2896,864.495l14.994-117.317L2896,654.71l80.877-38.623,83.642-31.093" transform="translate(-1987 -1)"/>
      </g>
      <path id="Path_3" data-name="Path 3" class="cls-3" d="M2916,740.958l32.168-67.6Z" transform="translate(-1993 -2)"/>
    </g>
  </g>
</svg>
