  <svg xmlns="http://www.w3.org/2000/svg" viewBox="0 0 265.57 170.46" id="three-line-svg">
      <defs>
        <style>
          .cls-1_constellation {
            fill: none;
            stroke: #fff;
            stroke-miterlimit: 10;
            stroke-width: 2px;
          }

          .cls-2 {
            fill: #fff;
          }
        </style>
      </defs>
      <filter id="blurMeMe">
        <feGaussianBlur stdDeviation="1.3" />
      </filter>
      <g id="line-three-svg"> 
      <g id="path" opacity="0.63">
        <polyline
          class="cls-1_constellation"
          points="227.87 161.57 194.3 166.56 178.99 133.14 242.67 85.99 261.67 57.27 254.81 29.3 232.62 2.9"
        />
        <polyline
          class="cls-1_constellation"
          points="3.9 118.25 26.85 138.24 91.17 146.36 178.99 133.14 193.78 91.2 158.17 56.7"
        />
      </g>
      <g id="stars" id="line-three-svg" filter="url(#blurMeMe)">
        <circle class="cls-2" cx="3.9" cy="117.82" r="5.5" />
        <circle class="cls-2" cx="27.15" cy="137.65" r="3.9" />
        <circle class="cls-2" cx="90.55" cy="146.47" r="3.9" />
        <circle class="cls-2" cx="178.99" cy="132.4" r="3.9" />
        <circle class="cls-2" cx="193.78" cy="91.2" r="3.9" />
        <circle class="cls-2" cx="157.82" cy="56.7" r="5.5" />
        <circle class="cls-2" cx="242.4" cy="85.73" r="3.9" />
        <circle class="cls-2" cx="261.67" cy="58.33" r="3.9" />
        <circle class="cls-2" cx="254.81" cy="30.35" r="3.9" />
        <circle class="cls-2" cx="232.92" cy="3.9" r="5.5" />
        <circle class="cls-2" cx="194.78" cy="166.56" r="3.9" />
        <circle class="cls-2" cx="227.87" cy="161.57" r="5.5" />
      </g>
      </g>
    </svg>
